<svg xmlns="http://www.w3.org/2000/svg" width="146.506" height="123.967" viewBox="0 0 146.506 123.967"><defs><style>.a{fill:#0e7a73;}.b{opacity:0.3;}.c{fill:#263238;}.d{fill:#e0e0e0;}.e{fill:#455a64;}.f{opacity:0.2;}.g{fill:#fff;}.h{fill:#ffbe9d;}.i{fill:#eb996e;}</style></defs><g transform="translate(0 0)"><path class="a" d="M525.507,312.661a5.641,5.641,0,0,1,4.306.935,9.939,9.939,0,0,1,2.959,3.377,17.462,17.462,0,0,1,1.8,8.8c-3.232-.273-5.891-2.937-7.154-4.378-1.992-2.27-4.222-7.588-1.914-8.728" transform="translate(-467.056 -222.969)"/><path class="a" d="M550.564,332.973a4.806,4.806,0,0,1-1.452-4.573,6.353,6.353,0,0,1,2.921-3.966,2.676,2.676,0,0,1,2.225-.478,2.064,2.064,0,0,1,1.257,1.669,4.165,4.165,0,0,1-.339,2.136c-.923,2.325-2.225,4.406-4.595,5.246" transform="translate(-477.915 -227.993)"/><g class="b" transform="translate(71.085 95.893)"><path d="M550.564,332.973a4.806,4.806,0,0,1-1.452-4.573,6.353,6.353,0,0,1,2.921-3.966,2.676,2.676,0,0,1,2.225-.478,2.064,2.064,0,0,1,1.257,1.669,4.165,4.165,0,0,1-.339,2.136c-.923,2.325-2.225,4.406-4.595,5.246" transform="translate(-549.001 -323.886)"/></g><path class="c" d="M554.5,344.98a3.887,3.887,0,0,1-.284-.528l-.718-1.48a16.859,16.859,0,0,1-1.708-5.135,10.3,10.3,0,0,1,.656-5.352,6.993,6.993,0,0,1,.818-1.43c.111-.161.223-.267.284-.345s.111-.117.117-.111a10.5,10.5,0,0,0-1.079,1.941,10.626,10.626,0,0,0-.556,5.268,18.273,18.273,0,0,0,1.636,5.1c.278.634.506,1.146.656,1.5A3.742,3.742,0,0,1,554.5,344.98Z" transform="translate(-479.105 -230.972)"/><path class="c" d="M530,319.75a1.119,1.119,0,0,1,.178.195c.122.15.278.339.478.556.412.506,1,1.241,1.719,2.159,1.435,1.83,3.388,4.384,5.48,7.232s3.894,5.519,5.224,7.449c.651.962,1.168,1.747,1.519,2.3l.406.634a1.217,1.217,0,0,1,.128.228,1.29,1.29,0,0,1-.167-.206l-.434-.612c-.39-.556-.924-1.319-1.574-2.259-1.335-1.908-3.182-4.534-5.274-7.4s-4.022-5.441-5.424-7.293l-1.669-2.192-.445-.6A1.145,1.145,0,0,1,530,319.75Z" transform="translate(-469.485 -226.158)"/><path class="a" d="M538.052,344.747a11.215,11.215,0,0,0-9.808-3c-.89.167-1.9.6-2.086,1.48s.59,1.669,1.352,2.17a9.6,9.6,0,0,0,10.637-.423" transform="translate(-467.768 -235.84)"/><path class="c" d="M533.43,345.221a2.613,2.613,0,0,1,.556-.128c.184-.033.4-.072.662-.095a8.06,8.06,0,0,1,.873-.061,8.738,8.738,0,0,1,1.074,0,11.091,11.091,0,0,1,1.218.128,12.2,12.2,0,0,1,2.7.762,12.487,12.487,0,0,1,2.442,1.4,10.573,10.573,0,0,1,.935.79,9.449,9.449,0,0,1,.745.768,8.4,8.4,0,0,1,.556.684,5.582,5.582,0,0,1,.378.556,2.137,2.137,0,0,1,.278.49c-.039.028-.445-.673-1.324-1.624a9.495,9.495,0,0,0-.751-.734,10.475,10.475,0,0,0-.935-.768,13.049,13.049,0,0,0-2.409-1.363,13.423,13.423,0,0,0-2.654-.768c-.417-.061-.818-.122-1.2-.145s-.729-.033-1.051-.039C534.231,345.1,533.436,345.265,533.43,345.221Z" transform="translate(-471.007 -237.326)"/><path class="a" d="M549.24,116.21s-6.512,2.089-6.812,8.433,3.208,8.2,4.776,9.517,5.5,4.01,6.7,7.376l8.707-2.943a23.987,23.987,0,0,1,.132-9.465c1.11-5.182-.291-8.222-1.657-9.861a9.967,9.967,0,0,0-11.844-3.058Z" transform="translate(-531.765 -105.943)"/><path class="c" d="M560.124,140.39l-.07-.123-.194-.379-.758-1.454c-.634-1.278-1.577-3.111-2.573-5.455-.247-.582-.5-1.2-.749-1.851s-.5-1.331-.7-2.053a6.028,6.028,0,0,1-.229-2.3,3.339,3.339,0,0,1,1.1-2.168,2.344,2.344,0,0,1,2.5-.317,1.762,1.762,0,0,1,.881,1.022,2.132,2.132,0,0,1,0,1.366,2.891,2.891,0,0,1-.767,1.172,5.914,5.914,0,0,1-1.137.837,16.846,16.846,0,0,1-2.644,1.19,17.7,17.7,0,0,1-2.794.749,5.551,5.551,0,0,1-1.428.044,3.524,3.524,0,0,1-1.348-.423,2.643,2.643,0,0,1-1.013-.952,2,2,0,0,1-.273-1.322,1.763,1.763,0,0,1,.608-1.163,1.639,1.639,0,0,1,1.251-.335,2.5,2.5,0,0,1,1.181.485,3.52,3.52,0,0,1,.82.881,14.448,14.448,0,0,1,.952,2.124l1.525,3.869c.934,2.362,1.683,4.274,2.2,5.6.255.661.458,1.172.6,1.525l.15.4v.141a1.006,1.006,0,0,1-.062-.132,1.914,1.914,0,0,0-.159-.4c-.15-.352-.353-.881-.626-1.516l-2.212-5.552c-.476-1.181-.987-2.476-1.542-3.86a14.368,14.368,0,0,0-.952-2.1,3.192,3.192,0,0,0-.793-.881,2.283,2.283,0,0,0-1.119-.414,1.489,1.489,0,0,0-1.146.308,1.657,1.657,0,0,0-.564,1.084,1.912,1.912,0,0,0,.256,1.234,2.53,2.53,0,0,0,.961.881,4.133,4.133,0,0,0,2.644.361,16.478,16.478,0,0,0,2.767-.74,16.262,16.262,0,0,0,2.644-1.181,5.985,5.985,0,0,0,1.11-.811,2.838,2.838,0,0,0,.731-1.119,2.01,2.01,0,0,0,0-1.287,1.577,1.577,0,0,0-.828-.934,2.2,2.2,0,0,0-2.362.291,3.261,3.261,0,0,0-1.058,2.089,5.855,5.855,0,0,0,.221,2.256c.2.714.458,1.392.7,2.044s.493,1.26.731,1.851c.987,2.344,1.912,4.186,2.538,5.464.317.635.555,1.128.723,1.472.088.159.15.291.194.379Z" transform="translate(-532.418 -106.973)"/><path class="d" d="M555.13,144.438l9.235-3.128,2.15,5.728-1.569,4.027-3.507,1.3-4.283-2.573Z" transform="translate(-533.275 -109.021)"/><path class="e" d="M565.979,152.128a2.943,2.943,0,0,0-2.3-.141,2.785,2.785,0,0,0-1.569,1.621Z" transform="translate(-534.104 -110.269)"/><path class="c" d="M565.979,147.228h-.361c-.229,0-.573-.053-.987-.062a9.024,9.024,0,0,0-5.992,2.124c-.317.264-.555.5-.723.67a1.416,1.416,0,0,1-.255.247,1.959,1.959,0,0,1,.22-.282,6.835,6.835,0,0,1,.687-.714,8.573,8.573,0,0,1,2.811-1.657,8.68,8.68,0,0,1,3.252-.485,7.169,7.169,0,0,1,1,.106A1.421,1.421,0,0,1,565.979,147.228Z" transform="translate(-533.576 -109.704)"/><path class="c" d="M565.469,145.706a1.83,1.83,0,0,1-.361,0c-.238,0-.573-.062-.987-.07a9.27,9.27,0,0,0-3.2.52,8.97,8.97,0,0,0-2.793,1.6c-.317.264-.555.5-.723.67l-.256.256a1.366,1.366,0,0,1,.22-.291,6.113,6.113,0,0,1,.687-.705,8.479,8.479,0,0,1,2.811-1.666,8.653,8.653,0,0,1,3.252-.485,8.853,8.853,0,0,1,1,.106A1.6,1.6,0,0,1,565.469,145.706Z" transform="translate(-533.515 -109.523)"/><path class="c" d="M564.878,144.3a2.814,2.814,0,0,1-.37,0c-.229,0-.564-.053-.987-.062a9.262,9.262,0,0,0-3.2.511,9.077,9.077,0,0,0-2.793,1.613,8.281,8.281,0,0,0-.714.67,2.373,2.373,0,0,1-.264.247s.071-.106.22-.291a7.141,7.141,0,0,1,.7-.705,8.46,8.46,0,0,1,6.054-2.141,7.056,7.056,0,0,1,1,.106A1.6,1.6,0,0,1,564.878,144.3Z" transform="translate(-533.444 -109.356)"/><g class="f" transform="translate(11.475 12.519)"><path class="g" d="M549.977,133.7c-.079.176-.388.256-.881.176A5.4,5.4,0,0,1,547.1,133a8.062,8.062,0,0,1-2.291-2.291,8.813,8.813,0,0,1-1.41-3.772,8.569,8.569,0,0,1,.5-3.974,8.056,8.056,0,0,1,1.7-2.714,5.289,5.289,0,0,1,1.763-1.234c.485-.185.811-.176.881,0,.247.335-.4,1.119-1.031,2.423a11.322,11.322,0,0,0-.881,2.326,8.205,8.205,0,0,0,.67,5.675,10.652,10.652,0,0,0,1.357,2.1C549.325,132.689,550.136,133.332,549.977,133.7Z" transform="translate(-543.351 -118.876)"/></g><g class="f" transform="translate(19.412 28.499)"><path class="g" d="M554.915,138.006a1.331,1.331,0,0,1-.784,1.762,1.384,1.384,0,0,1-1.674-.952,1.339,1.339,0,0,1,.784-1.762,1.383,1.383,0,0,1,1.674.952Z" transform="translate(-552.358 -137.01)"/></g><path class="c" d="M536.745,123.632s-1.445-.141-3.217-.4a31.911,31.911,0,0,1-3.2-.546c.009-.044,1.445.141,3.217.405S536.754,123.6,536.745,123.632Z" transform="translate(-530.33 -106.809)"/><path class="c" d="M537.714,120.02a10.4,10.4,0,0,1-1.569-.573,9.646,9.646,0,0,1-1.516-.687,9.426,9.426,0,0,1,1.569.564,9.179,9.179,0,0,1,1.516.7Z" transform="translate(-530.841 -106.343)"/><path class="c" d="M541.385,116.769s-1.066-.881-2.327-2.027-2.265-2.106-2.238-2.133,1.075.881,2.335,2.027S541.385,116.743,541.385,116.769Z" transform="translate(-531.101 -105.613)"/><path class="c" d="M546.313,113.119a8.717,8.717,0,0,1-.952-1.154,7.491,7.491,0,0,1-.881-1.225,7.387,7.387,0,0,1,.961,1.146,7.581,7.581,0,0,1,.872,1.234Z" transform="translate(-532.01 -105.391)"/><path class="c" d="M552.369,111.508s-.441-1.516-.881-3.4-.793-3.428-.758-3.437.441,1.516.881,3.4S552.413,111.5,552.369,111.508Z" transform="translate(-532.752 -104.67)"/><path class="c" d="M558,111.765a8.9,8.9,0,0,1,.053-1.657,9.926,9.926,0,0,1,.2-1.648A20.747,20.747,0,0,1,558,111.765Z" transform="translate(-533.614 -105.12)"/><path class="c" d="M563.915,107.68s-.573,1.366-1.357,3.005-1.463,2.961-1.5,2.952.582-1.366,1.366-3.005S563.88,107.671,563.915,107.68Z" transform="translate(-533.979 -105.027)"/><path class="c" d="M595.769,180.607a1.324,1.324,0,0,0,1.369-.851,2.691,2.691,0,0,0,0-1.713,5.757,5.757,0,0,0-2.481-3.338c-1.374-.857-3.243-1.268-3.855-2.782s.506-3.254.306-4.9a4.166,4.166,0,0,0-3.01-3.2,7.61,7.61,0,0,0-1.9-.323,5.268,5.268,0,0,0,1.563-3.471,3.894,3.894,0,0,0-1.3-3.193,4.072,4.072,0,0,0-2.809-.762,5.224,5.224,0,0,0-4.523,3.115,4.133,4.133,0,0,0,1.113,4.489,7.786,7.786,0,0,1-1.341-.239,37.917,37.917,0,0,1-3.855-1.741,9.818,9.818,0,0,0-9.3,1.113,7.788,7.788,0,0,0-2.954,3.966,5.641,5.641,0,0,0,.5,4.45,8.061,8.061,0,0,0-1.113,4.239c0,1.352.395,2.748-.05,4.028a8.966,8.966,0,0,1-1.669,2.442,3.75,3.75,0,0,0-1.035,2.7c.128.985,1.235,1.847,2.114,1.391a3.338,3.338,0,0,0,.111,3.638,5.514,5.514,0,0,0,3.132,2.125,16.305,16.305,0,0,0,3.822.473l9.457-1.057,7.822-4.428a3.625,3.625,0,0,0,2.587,3.177,2.438,2.438,0,0,0,2.937-2.342,4.156,4.156,0,0,0,4.35-7Z" transform="translate(-482.532 -153.527)"/><path class="h" d="M595.569,189.173c-.328-3.749-3.338-3.054-4.356-2.709l-.323-6.676-1.046-.623a22.631,22.631,0,0,0-22.914-.128s.662,14.976,1.519,21.429,7.421,6.681,7.421,6.681.718,7.032,1.029,8.834l15.688-.623-1.079-22.369C592.214,193.139,595.925,193.239,595.569,189.173Z" transform="translate(-485.87 -162.371)"/><path class="i" d="M613.1,200.371a1.2,1.2,0,0,0,.217.095.74.74,0,0,0,.556-.039,1.906,1.906,0,0,0,.734-1.791,2.522,2.522,0,0,0-.312-1.113.907.907,0,0,0-.634-.556.4.4,0,0,0-.439.25c-.045.134,0,.217-.033.228s-.1-.067-.083-.256a.507.507,0,0,1,.15-.289.556.556,0,0,1,.417-.15,1.113,1.113,0,0,1,.868.617,2.643,2.643,0,0,1,.378,1.213,2.012,2.012,0,0,1-.962,2.014.846.846,0,0,1-.712-.056C613.114,200.476,613.08,200.382,613.1,200.371Z" transform="translate(-506.353 -171.583)"/><path class="e" d="M613.592,205.348a.725.725,0,0,1,0,.679,1.112,1.112,0,0,1-.556.556,1.063,1.063,0,0,1-.957-.045,1.074,1.074,0,0,1-.556-.773,1.113,1.113,0,0,1,.172-.757c.261-.373.556-.4.556-.367a1.647,1.647,0,0,0-.395.473.985.985,0,0,0-.089.606.862.862,0,0,0,.445.556.834.834,0,0,0,.712.056.951.951,0,0,0,.456-.412C613.6,205.615,613.542,205.354,613.592,205.348Z" transform="translate(-505.651 -175.081)"/><path class="e" d="M565.518,199.64a1.356,1.356,0,0,1,.128.4,3.77,3.77,0,0,1,0,1.163,7.275,7.275,0,0,1-.484,1.669c-.25.6-.556,1.213-.89,1.875a7.37,7.37,0,0,0-.64,1.914,3.843,3.843,0,0,0,.083,1.624,3.5,3.5,0,0,0,.751,1.307,1.17,1.17,0,0,1-.345-.25,2.487,2.487,0,0,1-.6-1,3.849,3.849,0,0,1-.15-1.719,6.921,6.921,0,0,1,.64-2c.312-.673.651-1.285.907-1.858a7.429,7.429,0,0,0,.523-1.574A6.487,6.487,0,0,0,565.518,199.64Z" transform="translate(-484.275 -172.866)"/><path class="i" d="M583,229.135a15.126,15.126,0,0,0,8.139-3.4s-1.435,4.89-7.955,5.085Z" transform="translate(-493.001 -184.442)"/><path class="c" d="M566.658,179.265S570.7,181,575.737,178.2c3.3-1.841,7.2-2.843,8.105-2.225s1.24,4.111,4.634,4.973c0,0,.072,6.676,2.709,6.3s.517-10.57.517-10.57l-6.626-2.871-7.132-1.012-6.62,1.241-5.1,1.669Z" transform="translate(-485.56 -160.953)"/><path class="a" d="M603.231,168.75a7.46,7.46,0,0,1-6.631.389A11.493,11.493,0,0,0,603.231,168.75Z" transform="translate(-499.035 -159.16)"/><path class="e" d="M601.827,170.706a1.381,1.381,0,0,1,.8.451,2.5,2.5,0,0,1-.356,3.939,1.357,1.357,0,0,1-.862.3c0-.05.323-.134.745-.467a2.442,2.442,0,0,0,.328-3.633C602.128,170.9,601.8,170.75,601.827,170.706Z" transform="translate(-501.169 -160.026)"/><path class="e" d="M607.432,171.7a.625.625,0,0,1,.334.145,1.814,1.814,0,0,1,.629.773,2.432,2.432,0,0,1,.167,1.474,2.837,2.837,0,0,1-.968,1.535,3.893,3.893,0,0,1-1.613.807,5.931,5.931,0,0,1-1.452.15,3.894,3.894,0,0,1-1.318-.172,12.2,12.2,0,0,1,1.313-.033,4.7,4.7,0,0,0,2.882-.974,2.659,2.659,0,0,0,.9-1.374,2.3,2.3,0,0,0-.095-1.335,2.42,2.42,0,0,0-.773-1Z" transform="translate(-501.968 -160.469)"/><path class="e" d="M582.643,167.135c0,.056-1.013-.117-2.643-.206a9.24,9.24,0,0,0-2.781.284,5.145,5.145,0,0,0-2.781,1.852,4.667,4.667,0,0,0-.723,3.266,4.834,4.834,0,0,0,1.057,2.553,3.811,3.811,0,0,0,1.541,1.079c.423.15.679.172.673.2a.556.556,0,0,1-.184,0,2.693,2.693,0,0,1-.556-.1,3.654,3.654,0,0,1-1.669-1.051,5.2,5.2,0,0,1-.417-6.119,5.279,5.279,0,0,1,2.971-1.942,8.835,8.835,0,0,1,2.893-.228,18.29,18.29,0,0,1,1.936.245A3.126,3.126,0,0,1,582.643,167.135Z" transform="translate(-488.722 -158.247)"/><path class="e" d="M568.4,170.719a13.927,13.927,0,0,0-.734,1.3,4.8,4.8,0,0,0,2.036,6.147,12.455,12.455,0,0,0,1.369.6,1.057,1.057,0,0,1-.412-.039,4.13,4.13,0,0,1-1.051-.384,4.784,4.784,0,0,1-2.131-6.414,4.078,4.078,0,0,1,.617-.935C568.272,170.8,568.389,170.708,568.4,170.719Z" transform="translate(-485.888 -160.034)"/><path class="e" d="M593.346,170a2.42,2.42,0,0,1-1.335.334,10.41,10.41,0,0,0-1.452.139,3.159,3.159,0,0,0-1.5.834,4.05,4.05,0,0,0-1.113,2.9c0,.829.156,1.335.106,1.346a3.038,3.038,0,0,1-.311-1.341,4.449,4.449,0,0,1,.172-1.508,3.714,3.714,0,0,1,.957-1.6,3.243,3.243,0,0,1,1.669-.89,8.223,8.223,0,0,1,1.5-.083,8.541,8.541,0,0,0,1.3-.128Z" transform="translate(-495.102 -159.715)"/><path class="e" d="M615.665,191.671a6.219,6.219,0,0,0,.178-.684,3.149,3.149,0,0,0-.317-1.852,4.45,4.45,0,0,0-2.014-1.914,15.263,15.263,0,0,0-3.338-1.113,13.8,13.8,0,0,1-5.741-2.932,11.377,11.377,0,0,1-1.385-1.391,3.168,3.168,0,0,1-.428-.556c.044-.039.668.779,1.941,1.814a14.464,14.464,0,0,0,5.691,2.782,15.287,15.287,0,0,1,3.382,1.14,4.545,4.545,0,0,1,2.075,2.058,3.1,3.1,0,0,1,.245,1.953,2.328,2.328,0,0,1-.184.512C615.71,191.632,615.677,191.671,615.665,191.671Z" transform="translate(-501.706 -164.697)"/><path class="e" d="M613.849,202.24c0-.028.278-.033.74-.206a3.543,3.543,0,0,0,1.608-1.241,4.666,4.666,0,0,0,.8-2.893,6.459,6.459,0,0,0-1.185-3.5,8,8,0,0,0-2.882-2.37c-1.035-.556-2-1-2.782-1.485a6.856,6.856,0,0,1-1.669-1.341,3.046,3.046,0,0,1-.35-.462.674.674,0,0,1-.1-.178,8.345,8.345,0,0,0,2.225,1.808c.762.451,1.73.873,2.782,1.424a8.056,8.056,0,0,1,3,2.437,6.6,6.6,0,0,1,1.213,3.666,4.817,4.817,0,0,1-.9,3.021,3.543,3.543,0,0,1-1.741,1.229,2.732,2.732,0,0,1-.556.106C613.921,202.256,613.849,202.251,613.849,202.24Z" transform="translate(-504.106 -167.95)"/><path class="c" d="M573.186,199.512a.946.946,0,1,0-1.335.095A.946.946,0,0,0,573.186,199.512Z" transform="translate(-487.909 -172.115)"/><path class="c" d="M570.145,197.964c.111.1.69-.467,1.58-.556s1.591.273,1.669.145-.083-.245-.39-.423a2.175,2.175,0,0,0-1.357-.256,2.153,2.153,0,0,0-1.246.6C570.156,197.7,570.09,197.92,570.145,197.964Z" transform="translate(-487.289 -171.63)"/><path class="c" d="M590.959,197.471a.946.946,0,1,0-1.3.064.946.946,0,0,0,1.3-.064Z" transform="translate(-495.808 -171.225)"/><path class="c" d="M587.886,195.834c.117.1.69-.467,1.58-.556s1.591.273,1.669.145-.083-.245-.395-.423a2.147,2.147,0,0,0-1.352-.256,2.186,2.186,0,0,0-1.246.6C587.9,195.572,587.83,195.789,587.886,195.834Z" transform="translate(-495.161 -170.684)"/><path class="c" d="M579.686,205.889a4.311,4.311,0,0,0-1.48-.134c-.234,0-.423-.028-.456-.15a1.289,1.289,0,0,1,.089-.69l.484-1.891a23.194,23.194,0,0,0,.957-4.934,23.182,23.182,0,0,0-1.452,4.812c-.156.656-.3,1.285-.445,1.9a1.485,1.485,0,0,0,0,.985.6.6,0,0,0,.445.323,1.632,1.632,0,0,0,.4,0,4.417,4.417,0,0,0,1.458-.223Z" transform="translate(-490.471 -172.178)"/><path class="c" d="M590.514,191.715c-.05.072-.311-.039-.74-.128a5.306,5.306,0,0,0-1.669-.056,5.924,5.924,0,0,0-1.669.439c-.406.178-.645.328-.707.267s.1-.328.5-.618a3.8,3.8,0,0,1,1.786-.668,3.638,3.638,0,0,1,1.891.245C590.358,191.409,590.559,191.659,590.514,191.715Z" transform="translate(-494.206 -168.997)"/><path class="c" d="M573.531,194.256c0,.161-.835.373-1.9.467s-1.942.05-1.958-.106.84-.373,1.908-.467S573.52,194.1,573.531,194.256Z" transform="translate(-487.086 -170.409)"/><path class="i" d="M593.817,201.59c0,.083-.111.133-.223.122s-.206-.083-.195-.161.106-.134.223-.122S593.822,201.512,593.817,201.59Z" transform="translate(-497.614 -173.659)"/><path class="i" d="M591.517,204.73c0,.083-.106.139-.223.128s-.2-.089-.195-.167.106-.134.223-.122S591.528,204.652,591.517,204.73Z" transform="translate(-496.594 -175.052)"/><path class="i" d="M587.9,202.216c0,.078-.106.133-.223.122s-.2-.083-.195-.167.111-.134.223-.122S587.908,202.138,587.9,202.216Z" transform="translate(-494.988 -173.934)"/><path class="i" d="M570.836,204.266c0,.078-.111.134-.223.122s-.206-.083-.195-.167.106-.134.223-.122S570.842,204.188,570.836,204.266Z" transform="translate(-487.418 -174.844)"/><path class="i" d="M575.377,203.72a.183.183,0,0,1-.222.122c-.117,0-.206-.083-.195-.161s.106-.134.223-.122S575.382,203.642,575.377,203.72Z" transform="translate(-489.433 -174.604)"/><path class="i" d="M573.027,207.036c0,.078-.106.134-.223.122s-.2-.089-.195-.167.111-.133.223-.122S573.038,206.941,573.027,207.036Z" transform="translate(-488.39 -176.073)"/><path class="c" d="M588.495,209.58c.072,0,.139.25.083.645a3.042,3.042,0,0,1-.64,1.4,3.009,3.009,0,0,1-1.235.923c-.373.139-.623.128-.645.056-.05-.161.779-.512,1.43-1.341S588.328,209.563,588.495,209.58Z" transform="translate(-494.357 -177.276)"/><path class="c" d="M590.837,210.152c-.056.061-.373-.167-.818-.228s-.812.056-.851,0,.339-.356.89-.267S590.9,210.108,590.837,210.152Z" transform="translate(-495.736 -177.303)"/><path class="h" d="M513.654,187.19c-.656-.49-3.132-.556-5.78.6s-.59-2.887.139-4.384,2.748-6.225,2.459-6.781c-.417-.862-1.419-.556-2.108.935s-2.937,5.68-3.7,5.246a1.469,1.469,0,0,0-2,.556,1.88,1.88,0,0,0-1.218-.912,2.318,2.318,0,0,0-1.613.69s-.195-.339-1.113-.523c-1.285-.261-1.914,1.263-1.958,1.252-.807,2.559-2.4,10.3-2.4,10.3h0l-12.039,31.615a12.172,12.172,0,0,0,1.174,13c3.772,5.007,13.051,1.669,17.407.857l8.523-2.042-4.289-14.792-6.5,1.407,6.87-29.9,1.424-2.848c.339-.295.7-.6,1.113-.929a6.9,6.9,0,0,1,2.058-1.113,10.619,10.619,0,0,1,2.848-.662A.9.9,0,0,0,513.654,187.19Z" transform="translate(-447.731 -162.441)"/><path class="i" d="M516.486,190.35a10.572,10.572,0,0,1-.395,1.669c-.139.517-.3,1.113-.506,1.819a3.307,3.307,0,0,1-.506,1.035,1.669,1.669,0,0,1-1.113.645,1.163,1.163,0,0,1-.668-.111,1.112,1.112,0,0,1-.467-.473,1.9,1.9,0,0,1-.172-1.168,8.061,8.061,0,0,1,.2-1l.217-.851a10.012,10.012,0,0,1,.484-1.669,10.294,10.294,0,0,1-.284,1.719c-.056.267-.117.556-.178.857a8.284,8.284,0,0,0-.178.979,1.668,1.668,0,0,0,.156,1,.829.829,0,0,0,.857.434,1.385,1.385,0,0,0,.912-.528,3.171,3.171,0,0,0,.473-.951c.206-.651.4-1.252.556-1.791a10.353,10.353,0,0,1,.612-1.613Z" transform="translate(-461.778 -168.7)"/><path class="i" d="M522.071,190.1a10.077,10.077,0,0,1-.389,1.7c-.145.517-.306,1.113-.512,1.819a3.3,3.3,0,0,1-.506,1.035,1.669,1.669,0,0,1-1.112.645,1.174,1.174,0,0,1-.673-.111,1.156,1.156,0,0,1-.467-.473,1.886,1.886,0,0,1-.172-1.163,7.927,7.927,0,0,1,.206-1c.072-.3.145-.584.211-.851a10.011,10.011,0,0,1,.484-1.669,10.3,10.3,0,0,1-.284,1.719c-.056.267-.117.556-.178.857a8.327,8.327,0,0,0-.172.979,1.669,1.669,0,0,0,.156,1,.823.823,0,0,0,.857.434,1.374,1.374,0,0,0,.907-.528,3.339,3.339,0,0,0,.478-.951c.206-.651.395-1.252.556-1.791a11.094,11.094,0,0,1,.612-1.641Z" transform="translate(-464.254 -168.602)"/><path class="i" d="M511.34,190.625a8.089,8.089,0,0,1-.317,1.53c-.122.467-.256,1.018-.434,1.669a3.1,3.1,0,0,1-.428.946,1.43,1.43,0,0,1-.979.618.979.979,0,0,1-.623-.122,1.046,1.046,0,0,1-.4-.456,1.913,1.913,0,0,1-.128-1.057c.095-.645.261-1.19.367-1.669a8.1,8.1,0,0,1,.428-1.5,8.238,8.238,0,0,1-.228,1.547c-.078.467-.228,1.035-.3,1.669a1.668,1.668,0,0,0,.117.9.69.69,0,0,0,.723.412,1.151,1.151,0,0,0,.784-.5,2.935,2.935,0,0,0,.4-.857c.178-.584.345-1.113.49-1.619A8.736,8.736,0,0,1,511.34,190.625Z" transform="translate(-459.726 -168.846)"/><path class="i" d="M520.624,200.459a10.013,10.013,0,0,0-6.954,2.943,3.119,3.119,0,0,1,.734-.9,8.078,8.078,0,0,1,2.342-1.524,7.878,7.878,0,0,1,2.726-.617,2.937,2.937,0,0,1,1.151.095Z" transform="translate(-462.239 -173.179)"/><path class="i" d="M521.66,260.589l.5,15.721,3.772-.929-3.839-14.831Z" transform="translate(-465.784 -199.892)"/><path class="h" d="M659.1,305.448a13.613,13.613,0,0,0-1.43-17.88l-5.825-5.669-8.784,11.738c.417.234,4.734,4.317,4.734,4.317L635,316.7a10.2,10.2,0,0,0-.946,9.8l.84,2.548a6.27,6.27,0,0,0,8.923,3.533l3.844-2.086a.851.851,0,0,0,.273-1.257h0a.857.857,0,0,0-.74-.334l-5.4.412a2.459,2.459,0,0,1-2.526-1.669h0Z" transform="translate(-515.283 -209.364)"/><path class="i" d="M665.942,307.449a11.64,11.64,0,0,0-3.3.122,11.8,11.8,0,0,0-3.043,1.3,2.458,2.458,0,0,1,.757-.651,6.831,6.831,0,0,1,4.628-1.04A2.3,2.3,0,0,1,665.942,307.449Z" transform="translate(-526.988 -220.555)"/><path class="i" d="M661.683,305.52a6.117,6.117,0,0,1-1.113,1.424,5.862,5.862,0,0,1-1.341,1.229,5.679,5.679,0,0,1,1.113-1.424,5.619,5.619,0,0,1,1.341-1.229Z" transform="translate(-526.823 -219.844)"/><path class="i" d="M652.86,296.3l11.315-9.179-1.419-1.38Z" transform="translate(-523.997 -211.068)"/><path class="a" d="M588.658,247.119h0l17.763,16.806-14.464,15.46-8.979-8.9.484,20.75,1.919,20.416-45.523.284,1.858-44.966-14.152,6.075-5.875-22.881,19.471-6.676A75.8,75.8,0,0,1,555.4,241a31.009,31.009,0,0,0,17.14.145h0S580.542,240.538,588.658,247.119Z" transform="translate(-465.798 -191.217)"/><path class="c" d="M558.1,269.16a2.515,2.515,0,0,1,0,.556c0,.417-.05.912-.083,1.491-.089,1.335-.206,3.037-.334,4.918s-.278,3.66-.412,4.912c-.067.629-.128,1.113-.178,1.485a1.67,1.67,0,0,1-.106.556,2.472,2.472,0,0,1,0-.556c0-.417.05-.912.083-1.491.089-1.335.206-3.032.328-4.918s.284-3.655.417-4.912c.067-.629.128-1.113.178-1.485a1.729,1.729,0,0,1,.106-.556Z" transform="translate(-481.452 -203.712)"/><path class="c" d="M625.9,272.769a1.257,1.257,0,0,1-.211-.217l-.6-.723c-.517-.634-1.263-1.552-2.131-2.731a35.645,35.645,0,0,1-2.781-4.328,20.708,20.708,0,0,1-2.142-5.93,13.736,13.736,0,0,1,.228-6.292,11.06,11.06,0,0,1,2.537-4.45,9.019,9.019,0,0,1,2.815-2.031,7.083,7.083,0,0,1,.89-.328,1.268,1.268,0,0,1,.317-.078c0,.033-.428.15-1.157.506a9.341,9.341,0,0,0-2.715,2.069,11.043,11.043,0,0,0-2.431,4.406,13.574,13.574,0,0,0-.195,6.164,20.623,20.623,0,0,0,2.092,5.852,38.047,38.047,0,0,0,2.7,4.339c.851,1.185,1.569,2.125,2.058,2.782l.556.757A1.567,1.567,0,0,1,625.9,272.769Z" transform="translate(-508.429 -193.285)"/><g class="f" transform="translate(74.078 103.544)"><path class="g" d="M555.059,337.946a5.007,5.007,0,0,1,5.624,1.563,15.331,15.331,0,0,1,1.6,3.672,4.346,4.346,0,0,0,2.631,2.832c1.669.434,3.288-.8,5.007-1.068a5.86,5.86,0,0,1,5.7,3.11,11.872,11.872,0,0,1,1.268,6.648l-22.5.139Z" transform="translate(-554.38 -337.64)"/></g><g class="f" transform="translate(101.28 74.388)"><path class="g" d="M620.4,318.747a5.747,5.747,0,0,1-6.409.528,6.192,6.192,0,0,1-3.227-5.875,5.424,5.424,0,0,1-6.347-8.345c1.057-1.38,2.781-2.225,3.583-3.766,1.513-2.809-.612-6.192-.556-9.385a7.13,7.13,0,0,1,8.05-6.581l3.677,4.779.462,19.766Z" transform="translate(-603.277 -285.23)"/></g><g class="f" transform="translate(76.164 49.775)"><path class="g" d="M581.745,242.885a7.282,7.282,0,0,1-2.225,12.884c-1.419.417-3.01.428-4.206,1.291-2.225,1.608-1.8,4.973-2.592,7.61a7.694,7.694,0,0,1-14.592.451l1.341-22.208s9.563-2,12.094-1.925a18.631,18.631,0,0,0,8.406,1.28Z" transform="translate(-558.13 -240.987)"/></g><g class="f" transform="translate(118.887 57.015)"><path class="g" d="M640.114,254c-2.053.757-4.523,2.882-5.007,5.007a6.8,6.8,0,0,0,1.585,6.119c1.469,1.591,3.861,2.782,3.85,4.968,0,1.3-.962,2.414-1.168,3.694-.384,2.331,1.936,4.45,4.289,4.617a8.967,8.967,0,0,0,6.17-1.452l6.831-7.293Z" transform="translate(-634.928 -254)"/></g><g class="f" transform="translate(55.892 55.034)"><path class="g" d="M533.1,250.44a21.14,21.14,0,0,1,1.369,7.666,10.665,10.665,0,0,1-2.537,6.887,7.41,7.41,0,0,1-6.731,2.448l-3.51-13.1Z" transform="translate(-521.69 -250.44)"/></g><g class="f" transform="translate(75.866 83.835)"><path class="g" d="M560.991,312.213a9.205,9.205,0,0,0,1.057,3.533,3.223,3.223,0,0,0,3.087,1.641c1.446-.245,2.62-1.8,4.05-1.48.924.2,1.5,1.113,2.342,1.552a3.277,3.277,0,0,0,3.254-.356,8.615,8.615,0,0,0,2.275-2.548,7.693,7.693,0,0,0,1.363-2.954,2.915,2.915,0,0,0-1.068-2.909c-1.224-.807-3.088-.295-4.111-1.346a6.488,6.488,0,0,1-.979-2.431,4.128,4.128,0,0,0-7.3-.879c-.729,1.079-.99,2.553-2.1,3.232a5.551,5.551,0,0,1-2.715.451,2.711,2.711,0,0,0-2.392,1.113,2.08,2.08,0,0,0,.779,2.442,6.07,6.07,0,0,0,2.592.923" transform="translate(-557.595 -302.212)"/></g></g></svg>