<svg xmlns="http://www.w3.org/2000/svg" width="167.632" height="155.358" viewBox="0 0 167.632 155.358"><defs><style>.a{fill:#0e7a73;}.b{fill:#455a64;}.c{fill:#263238;}.d{opacity:0.3;}.e{fill:#fafafa;}.f{opacity:0.4;}.g{fill:#ffbe9d;}.h{fill:#eb996e;}.i{fill:#e0e0e0;}.j{fill:#fff;}</style></defs><g transform="translate(12.379 55.244)"><path class="a" d="M85.68,200.8a3.587,3.587,0,0,1-1.847-1.833c-.147-.341-.151-.868.212-.943.222-.047.423.126.585.283l1.618,1.6a3.386,3.386,0,0,1,.1-2.626c.136-.291.423-.6.717-.491.24.09.316.384.359.635l.387,2.314a5.549,5.549,0,0,1,1.27-2.425c.222-.251.585-.5.868-.316s.237.52.183.811a11.476,11.476,0,0,1-.6,2.123,4,4,0,0,1,2.511-1,.893.893,0,0,1,.743.24c.251.316.032.782-.237,1.076-.789.9-2.647,1.126-3.842,1.047" transform="translate(-73.287 -196.769)"/><path class="b" d="M76.9,209.752c-2.895-2.278-7.981-2.6-11.328-1.076a12.039,12.039,0,0,0-6.625,9.613c-.359,3.666,1.417,7.382,2.916,10.761l14.613.068c1.754-2.895,3.587-6.137,3.695-9.52S79.557,211.844,76.9,209.752Z" transform="translate(-57.357 -203.805)"/><path class="c" d="M74.818,207.737h-.065l-.19.047-.308.068a2.579,2.579,0,0,0-.42.108,8.388,8.388,0,0,0-2.475,1.187,11.213,11.213,0,0,0-2.819,2.927,16.822,16.822,0,0,0-1.184,2.123,17.875,17.875,0,0,0-.908,2.428,11.1,11.1,0,0,0-.248,4.95,21.074,21.074,0,0,0,1.1,3.946c.405,1.094.764,1.969,1,2.579.115.3.208.531.273.717l.068.183c0,.043.022.065,0,.065s0,0-.032-.057l-.079-.179-.3-.692c-.255-.6-.628-1.474-1.047-2.568a20.76,20.76,0,0,1-1.133-3.946,11.12,11.12,0,0,1,.24-5.022,17.968,17.968,0,0,1,.918-2.446,16.389,16.389,0,0,1,1.216-2.134,11.038,11.038,0,0,1,2.87-2.934,7.931,7.931,0,0,1,2.511-1.159,2.586,2.586,0,0,1,.43-.1l.316-.057.194-.029C74.8,207.737,74.818,207.734,74.818,207.737Z" transform="translate(-61.833 -203.802)"/><path class="c" d="M100.509,229.721a1.251,1.251,0,0,1,.068-.219c.054-.154.126-.359.219-.617.19-.534.473-1.309.8-2.271s.7-2.113,1.015-3.415a22.415,22.415,0,0,0,.649-4.3,14.915,14.915,0,0,0-.448-4.3,11.765,11.765,0,0,0-1.37-3.261,9.569,9.569,0,0,0-1.5-1.865,4.946,4.946,0,0,0-.481-.441,1.269,1.269,0,0,1-.165-.154,1.43,1.43,0,0,1,.183.133,6.463,6.463,0,0,1,.5.423,9.145,9.145,0,0,1,1.539,1.851,11.717,11.717,0,0,1,1.413,3.282,14.922,14.922,0,0,1,.459,4.351,21.79,21.79,0,0,1-.664,4.326c-.326,1.306-.717,2.457-1.047,3.415s-.635,1.729-.839,2.256c-.1.255-.183.459-.244.61A2,2,0,0,1,100.509,229.721Z" transform="translate(-83.266 -204.529)"/><path class="c" d="M89.131,208a1.3,1.3,0,0,1-.057.212l-.19.606c-.086.262-.187.585-.294.958s-.247.8-.377,1.277c-.273.943-.56,2.08-.85,3.347s-.549,2.676-.771,4.161-.359,2.909-.452,4.2c-.029.649-.075,1.266-.079,1.844v1.611c0,.491,0,.936.032,1.327s.029.717.05,1,.029.477.036.631a1.041,1.041,0,0,1,0,.222,1.549,1.549,0,0,1-.029-.219c0-.158-.039-.359-.065-.631s-.057-.61-.072-1-.05-.836-.054-1.331v-1.611c0-.581.039-1.2.068-1.851.083-1.3.222-2.73.441-4.218s.5-2.895.786-4.168.6-2.4.879-3.347c.136-.473.276-.9.395-1.27s.226-.692.319-.954l.215-.6A1.342,1.342,0,0,1,89.131,208Z" transform="translate(-74.711 -203.971)"/><path class="c" d="M56.655,240.42a4.917,4.917,0,0,1-1,.531,4.86,4.86,0,0,1-1.055.395,4.63,4.63,0,0,1,1-.531A4.571,4.571,0,0,1,56.655,240.42Z" transform="translate(-54.6 -224.762)"/><path class="c" d="M57.823,226.517a5.693,5.693,0,0,1-1.1-.552,5.561,5.561,0,0,1-1.026-.674,5.613,5.613,0,0,1,1.076.552,5.675,5.675,0,0,1,1.047.674Z" transform="translate(-55.305 -215.059)"/><path class="c" d="M67.543,215.876a3.736,3.736,0,0,1-.484-.861,3.8,3.8,0,0,1-.359-.915,6.955,6.955,0,0,1,.843,1.794Z" transform="translate(-62.36 -207.883)"/><path class="c" d="M77.561,207.631a2.55,2.55,0,0,1-.531-.6,2.472,2.472,0,0,1-.42-.682,2.307,2.307,0,0,1,.531.592A2.271,2.271,0,0,1,77.561,207.631Z" transform="translate(-68.715 -202.913)"/><path class="c" d="M61.188,254.71a5.107,5.107,0,0,1-1.022.631,5.408,5.408,0,0,1-1.076.513,5.1,5.1,0,0,1,1.022-.631A5.405,5.405,0,0,1,61.188,254.71Z" transform="translate(-57.479 -233.926)"/><path class="c" d="M73.891,245.788a3.728,3.728,0,0,1-.936-.445,3.946,3.946,0,0,1-.864-.563,3.968,3.968,0,0,1,.933.445A4.053,4.053,0,0,1,73.891,245.788Z" transform="translate(-65.816 -227.558)"/><path class="c" d="M77.133,231.33a2.773,2.773,0,0,1-.9.481,2.815,2.815,0,0,1-.986.255,6.455,6.455,0,0,1,.936-.384A5.838,5.838,0,0,1,77.133,231.33Z" transform="translate(-67.843 -218.933)"/><path class="c" d="M83.456,216.364a1.707,1.707,0,0,1-.359-.717,1.682,1.682,0,0,1-.143-.8,4.2,4.2,0,0,1,.273.75A3.979,3.979,0,0,1,83.456,216.364Z" transform="translate(-72.781 -208.364)"/><path class="c" d="M75.73,260.155a3.979,3.979,0,0,1,.391-.983,4.206,4.206,0,0,1,.517-.922,3.978,3.978,0,0,1-.391.986A4.3,4.3,0,0,1,75.73,260.155Z" transform="translate(-68.151 -236.197)"/><path class="c" d="M93.624,256.1a4.3,4.3,0,0,1-1.474-1.725,11.044,11.044,0,0,1,.717.872,11.118,11.118,0,0,1,.757.854Z" transform="translate(-78.681 -233.713)"/><path class="c" d="M99.635,241.28a5.309,5.309,0,0,1-1.019.664,5.484,5.484,0,0,1-1.076.545,11.175,11.175,0,0,1,2.095-1.209Z" transform="translate(-82.137 -225.314)"/><path class="c" d="M98.59,227.442a4.752,4.752,0,0,1,.789-.839,5.111,5.111,0,0,1,.882-.743,4.594,4.594,0,0,1-.789.839A5.109,5.109,0,0,1,98.59,227.442Z" transform="translate(-82.811 -215.425)"/><path class="c" d="M96.081,216.368a3.718,3.718,0,0,1-.8-.567,3.631,3.631,0,0,1-.717-.671,3.373,3.373,0,0,1,.807.563A3.616,3.616,0,0,1,96.081,216.368Z" transform="translate(-80.226 -208.544)"/><path class="c" d="M109.385,210.85a3.791,3.791,0,0,1-.8.6,3.654,3.654,0,0,1-.875.488,7.307,7.307,0,0,1,1.675-1.09Z" transform="translate(-88.659 -205.799)"/><path class="c" d="M114.609,221.5a5.514,5.514,0,0,1-1.679.129,2.77,2.77,0,0,1,.832-.129A2.582,2.582,0,0,1,114.609,221.5Z" transform="translate(-92.007 -212.605)"/><path class="c" d="M117.2,233.821a3.971,3.971,0,0,1-1.076-.032,4.38,4.38,0,0,1-1.051-.169,3.966,3.966,0,0,1,1.076.032A4.38,4.38,0,0,1,117.2,233.821Z" transform="translate(-93.379 -220.387)"/><path class="c" d="M116.008,247.2a6.582,6.582,0,0,1-.979-.893,6.435,6.435,0,0,1-.879-.986,6.28,6.28,0,0,1,.976.89A6.1,6.1,0,0,1,116.008,247.2Z" transform="translate(-92.789 -227.905)"/><path class="c" d="M111.744,259.388a4.433,4.433,0,0,1-.99-.958,4.6,4.6,0,0,1-.764-1.141,13.566,13.566,0,0,1,.872,1.055A11.306,11.306,0,0,1,111.744,259.388Z" transform="translate(-90.122 -235.581)"/><g class="d" transform="translate(16.032 4.327)"><path d="M99.3,208.839c.022-.039.312.1.793.427a8.422,8.422,0,0,1,1.765,1.729,9.893,9.893,0,0,1,1.614,3.3,15.5,15.5,0,0,1,.542,4.444,19.01,19.01,0,0,1-.6,4.43,23.489,23.489,0,0,1-1.166,3.44,11.167,11.167,0,0,1-1.575,2.934c-.072-.039.434-1.2,1.123-3.114a23.886,23.886,0,0,0,1.524-7.7,16.339,16.339,0,0,0-.466-4.272,10.2,10.2,0,0,0-1.4-3.185,10.57,10.57,0,0,0-1.535-1.794C99.5,209.093,99.267,208.892,99.3,208.839Z" transform="translate(-99.294 -208.832)"/></g><g class="d" transform="translate(11.26 3.802)"><path d="M89.046,207.37a15.4,15.4,0,0,1-.456,3.16c-.359,1.933-.886,4.591-1.342,7.533-.222,1.478-.4,2.891-.527,4.175-.057.646-.118,1.255-.151,1.829s-.072,1.108-.093,1.6a20.716,20.716,0,0,1-.176,3.178,10.344,10.344,0,0,1-.312-3.185v-1.618c0-.581.05-1.2.09-1.854.1-1.3.255-2.733.477-4.222.459-2.981,1.076-5.639,1.546-7.533A13.4,13.4,0,0,1,89.046,207.37Z" transform="translate(-85.99 -207.369)"/></g><g class="d" transform="translate(3.616 3.647)"><path d="M73.665,206.959a4.287,4.287,0,0,1-.911.448,13.462,13.462,0,0,0-2.349,1.345,11.963,11.963,0,0,0-4.774,7.228,12.33,12.33,0,0,0-.276,2.511,15.986,15.986,0,0,0,.176,2.353,24.673,24.673,0,0,0,.965,3.921c.359,1.1.689,1.98.9,2.593a2.968,2.968,0,0,1,.276.983c-.047.021-.23-.294-.524-.879a26.96,26.96,0,0,1-1.116-2.536,21.224,21.224,0,0,1-1.13-3.982,15.252,15.252,0,0,1-.226-2.457,12.553,12.553,0,0,1,.276-2.647,12.124,12.124,0,0,1,2.12-4.663,11.693,11.693,0,0,1,3.053-2.837,10.631,10.631,0,0,1,2.511-1.194C73.289,206.959,73.655,206.9,73.665,206.959Z" transform="translate(-64.68 -206.936)"/></g><path class="a" d="M62.03,274.78l2.306,15.159h13.4L80.847,275Z" transform="translate(-59.365 -246.797)"/><path class="e" d="M81.838,301.729c0,.043-3.433.079-7.665.079s-7.673-.036-7.673-.079,3.436-.079,7.673-.079S81.838,301.686,81.838,301.729Z" transform="translate(-62.231 -264.029)"/><path class="e" d="M81.8,299.649c0,.043-3.458.079-7.719.079s-7.723-.036-7.723-.079,3.458-.079,7.723-.079S81.8,299.606,81.8,299.649Z" transform="translate(-62.142 -262.695)"/><path class="e" d="M81.732,297.3c0,.043-3.458.079-7.723.079s-7.719-.036-7.719-.079,3.454-.079,7.719-.079S81.732,297.256,81.732,297.3Z" transform="translate(-62.097 -261.188)"/><path class="e" d="M71.557,307.762a12.332,12.332,0,0,1-.413-1.908,12.2,12.2,0,0,1-.255-1.933,12.332,12.332,0,0,1,.4,1.908A12.2,12.2,0,0,1,71.557,307.762Z" transform="translate(-65.047 -265.485)"/><path class="e" d="M74.832,307.517a14.592,14.592,0,0,1-.165-1.862,14.751,14.751,0,0,1-.09-1.865,8.877,8.877,0,0,1,.248,1.854A9.058,9.058,0,0,1,74.832,307.517Z" transform="translate(-67.41 -265.401)"/><path class="e" d="M79.075,307.3a9.686,9.686,0,0,1-.359-1.908,9.234,9.234,0,0,1-.1-1.941,17.506,17.506,0,0,1,.258,1.923A16.083,16.083,0,0,1,79.075,307.3Z" transform="translate(-69.993 -265.183)"/><path class="e" d="M82.828,307.448a15.784,15.784,0,0,1-.126-3.888,50.582,50.582,0,0,1,.126,3.888Z" transform="translate(-72.58 -265.254)"/><path class="e" d="M88.61,307.587a10.687,10.687,0,0,1-.14-1.84,10.91,10.91,0,0,1,0-1.847,21.134,21.134,0,0,1,.126,3.687Z" transform="translate(-76.296 -265.472)"/><path class="e" d="M93.016,307.6a11.291,11.291,0,0,1-.05-1.9,11.522,11.522,0,0,1,.093-1.9,11.729,11.729,0,0,1,.065,1.9A12.056,12.056,0,0,1,93.016,307.6Z" transform="translate(-79.192 -265.402)"/><path class="e" d="M97.08,306.747a25.672,25.672,0,0,1,.384-3.967A25.678,25.678,0,0,1,97.08,306.747Z" transform="translate(-81.842 -264.754)"/><path class="e" d="M102.16,307.339a6.715,6.715,0,0,1,.226-1.693,6.846,6.846,0,0,1,.5-1.636,15.1,15.1,0,0,1-.359,1.668A15.513,15.513,0,0,1,102.16,307.339Z" transform="translate(-85.1 -265.543)"/><path class="a" d="M57.74,266.42v2.834a1.119,1.119,0,0,0,1.116,1.119H78.279a1.119,1.119,0,0,0,1.119-1.119V266.42Z" transform="translate(-56.614 -241.436)"/><g class="f" transform="translate(2.809 28.937)"><path d="M62.43,277.44l.161.9L80.5,279.617l.452-2.177Z" transform="translate(-62.43 -277.44)"/></g></g><g transform="translate(0 98.36)"><path class="c" d="M187.722,317.063c0,.054-37.531.093-83.81.093s-83.821-.039-83.821-.093,37.52-.093,83.821-.093S187.722,317.013,187.722,317.063Z" transform="translate(-20.09 -316.97)"/></g><g transform="translate(116.653 0)"><path class="e" d="M362.372,42.767A16.5,16.5,0,0,0,349.3,69.131L347.382,75.3l5.994-2.317a16.238,16.238,0,0,0,9,2.712,16.463,16.463,0,1,0,0-32.927Z" transform="translate(-345.764 -42.762)"/><path class="c" d="M361.947,42.761a2.152,2.152,0,0,1,.287,0l.839.025a5.436,5.436,0,0,1,.617.025l.739.1.864.126.965.24a15.617,15.617,0,0,1,4.663,2.037,16.41,16.41,0,0,1,7.63,14.667c-.025.384-.018.771-.075,1.155s-.115.775-.176,1.166a16.636,16.636,0,0,1-1.542,4.606,17.851,17.851,0,0,1-3.006,4.136,17.284,17.284,0,0,1-4.333,3.11,15.69,15.69,0,0,1-5.28,1.621,9.684,9.684,0,0,1-1.406.118,12.554,12.554,0,0,1-1.435.029,16.686,16.686,0,0,1-8.53-2.751h.172L347.158,75.5l-.359.136.1-.359q.875-3.178,1.7-6.18l.029.154a16.6,16.6,0,0,1-3.074-7.034,15.088,15.088,0,0,1-.226-3.616,11.567,11.567,0,0,1,.165-1.74c.043-.283.09-.567.133-.847s.136-.545.2-.818a16.536,16.536,0,0,1,6.457-9.405,15.643,15.643,0,0,1,3.838-2.023l.865-.312.821-.208.75-.187c.24-.047.473-.072.692-.1.438-.054.821-.129,1.159-.147l.85-.029h.517a1.281,1.281,0,0,1,.176,0,.6.6,0,0,1-.176.025l-.517.043-.843.054c-.334.029-.717.111-1.148.176a16.439,16.439,0,0,0-13.146,12.2c-.065.269-.147.531-.2.807s-.083.552-.122.829a11.2,11.2,0,0,0-.154,1.707,14.706,14.706,0,0,0,.233,3.548,16.263,16.263,0,0,0,3.045,6.909l.05.072-.022.082q-.818,3-1.686,6.184l-.248-.215,5.782-2.328.09-.036.083.054a16.281,16.281,0,0,0,8.336,2.683,12.01,12.01,0,0,0,1.392-.025,9.774,9.774,0,0,0,1.377-.115,15.356,15.356,0,0,0,5.162-1.578,17.013,17.013,0,0,0,4.243-3.038,17.324,17.324,0,0,0,2.952-4.043,16.3,16.3,0,0,0,1.557-4.5c.057-.384.118-.764.176-1.144s.05-.757.079-1.134a17.583,17.583,0,0,0-.036-2.22,16.339,16.339,0,0,0-7.386-12.26,15.7,15.7,0,0,0-4.6-2.073l-.943-.273-.854-.14-.717-.122c-.222-.025-.43-.029-.613-.043l-.832-.061A1.64,1.64,0,0,1,361.947,42.761Z" transform="translate(-345.299 -42.757)"/><path class="a" d="M374.171,77.719a3.374,3.374,0,0,1,3.365-2.7,3.44,3.44,0,0,1,2.317,1.4,6.269,6.269,0,0,1,.545.789,6.589,6.589,0,0,1,.542-.793,3.462,3.462,0,0,1,2.317-1.4,3.375,3.375,0,0,1,3.368,2.694,5.5,5.5,0,0,1-1.173,4.408,8.857,8.857,0,0,1-5.18,3.476,10.639,10.639,0,0,1-4.921-3.469A5.52,5.52,0,0,1,374.171,77.719Z" transform="translate(-363.751 -63.438)"/><path class="e" d="M375.16,86H378.1l-.036-.029.656,2.4.039.143.05-.14,1.255-3.612c.14-.4.276-.793.409-1.177h-.093l1.4,2.389V86h.025l3.774-.022h1.359a.5.5,0,0,0,.1,0,.5.5,0,0,0-.1,0H385.58l-3.774-.018.039.022-1.392-2.4-.057-.093-.036.1c-.133.384-.269.778-.409,1.177-.445,1.291-.868,2.511-1.248,3.612h.09c-.251-.89-.481-1.7-.674-2.393v-.025h-.029l-2.152.018H375.2Z" transform="translate(-364.449 -68.879)"/></g><g transform="translate(129.36 107.027)"><path class="b" d="M392.129,346.935a4.032,4.032,0,0,0-3.4-4.609.4.4,0,0,0-.291.032.423.423,0,0,0-.108.391,4.882,4.882,0,0,0,3.8,4.3" transform="translate(-385.594 -341.888)"/><path class="a" d="M381.6,361.949c1.019,2.1,2.482,3.512,4.3,3.587.359,0,.635-.226.983-.248a2.417,2.417,0,0,1,.577.219.843.843,0,0,0,.3.068c1.872-.1,3.469-1.417,4.545-3.619,1.5-3.088,1.033-6.4-1.033-7.411a5.256,5.256,0,0,0-.846-.33,3.466,3.466,0,0,0-1.026-.122,7.7,7.7,0,0,0-2.349.534l-.1.036a4.78,4.78,0,0,0-4.3-.118C380.565,355.535,380.106,358.85,381.6,361.949Z" transform="translate(-380.724 -349.441)"/><path class="e" d="M382.929,360.426a1.488,1.488,0,0,1-.172-.621,3.285,3.285,0,0,1,.183-1.542,3.35,3.35,0,0,1,.864-1.295,1.631,1.631,0,0,1,.535-.359c0,.021-.194.154-.463.434a3.588,3.588,0,0,0-.8,1.27,3.636,3.636,0,0,0-.219,1.481C382.883,360.186,382.951,360.419,382.929,360.426Z" transform="translate(-382.013 -351.057)"/><path class="e" d="M384.007,370.115c-.036,0-.1-.136-.147-.326s-.047-.359,0-.359.108.136.151.323S384.046,370.108,384.007,370.115Z" transform="translate(-382.713 -359.279)"/><path class="c" d="M402.667,341.13c0,.025-.387.172-.969.52a7.351,7.351,0,0,0-.968.692,8.442,8.442,0,0,0-1.022,1.033,8.152,8.152,0,0,0-.811,1.205,7.151,7.151,0,0,0-.484,1.076c-.23.639-.294,1.076-.323,1.055a1.219,1.219,0,0,1,.032-.3,1.969,1.969,0,0,1,.068-.359,3.52,3.52,0,0,1,.126-.445,6.869,6.869,0,0,1,.463-1.116,7.3,7.3,0,0,1,1.865-2.281,6.806,6.806,0,0,1,1-.674c.147-.09.29-.151.412-.212a3.3,3.3,0,0,1,.323-.133A1.023,1.023,0,0,1,402.667,341.13Z" transform="translate(-391.861 -341.13)"/></g><g transform="translate(32.179 17.356)"><path class="g" d="M227.8,412.455c2.694.208,5.528.057,7.637.911a3.139,3.139,0,0,1,2.31,2.289c.316,1.241-.674,3.311-1.6,4.215-2.687,2.647-3.73,3.885-4.473,6.833s-1.794,6.1-4.512,7.712a3.626,3.626,0,0,1-2.034.592,2.023,2.023,0,0,1-1.768-1.1,2.551,2.551,0,0,1,.47-2.127,17.456,17.456,0,0,0,2.292-6.3c.276-2.238,0-3.056-1.4-5.022-1.585-1.894-4.261-3.408-7.242-4.814l6.1-3.5Z" transform="translate(-178.862 -297.005)"/><path class="c" d="M155.954,327a15.207,15.207,0,0,1-4.222.28c-9.516-2.339-29.772-12.913-37.38-8.3-6.765,4.1-5.022,10.761-.717,16.364,4.222,5.52,31.121,19.477,31.121,19.477l9.021-7.389-3.49-1.567,1.27-.194a21.578,21.578,0,0,0,6.991-.2l11.389-2.217V331.427Z" transform="translate(-109.821 -236.52)"/><path class="c" d="M272.249,353.27a21.883,21.883,0,0,1,4.936,12.429c.233,2.69-1.18,7.655-3.483,9.617a21.034,21.034,0,0,1-15.227,4.857l-25.468-1.255-.717-9.588s10.37-3.878,13.272-4.419l2.888-.359v-10.4l12.694.689C265.186,355.049,272.249,353.27,272.249,353.27Z" transform="translate(-188.353 -259.245)"/><path class="b" d="M289.593,370.348a3.632,3.632,0,0,1-.567.126c-.359.065-.9.172-1.546.316a36.267,36.267,0,0,0-9.717,3.655c-.585.319-1.051.588-1.374.778a3.368,3.368,0,0,1-.509.28,3.314,3.314,0,0,1,.474-.359c.308-.212.768-.5,1.345-.836a32.135,32.135,0,0,1,9.753-3.666c.656-.125,1.191-.215,1.564-.258A3.261,3.261,0,0,1,289.593,370.348Z" transform="translate(-216.307 -270.196)"/><path class="b" d="M340.263,388.01a4.932,4.932,0,0,0,.5-.387,3.134,3.134,0,0,0,.839-1.467,7.688,7.688,0,0,0,.126-2.543,28.84,28.84,0,0,0-.334-3.135,11.888,11.888,0,0,0-.9-3,8.156,8.156,0,0,0-1.413-2.124,7.332,7.332,0,0,0-1.876-1.435.677.677,0,0,1,.158.057,3.484,3.484,0,0,1,.43.2,5.929,5.929,0,0,1,1.384,1.076,8.084,8.084,0,0,1,1.471,2.152,11.71,11.71,0,0,1,.925,3.042,26.868,26.868,0,0,1,.323,3.157,7.628,7.628,0,0,1-.169,2.59,3.1,3.1,0,0,1-.918,1.485,2.149,2.149,0,0,1-.4.269A.526.526,0,0,1,340.263,388.01Z" transform="translate(-255.638 -272.488)"/><path class="b" d="M232,388.5a1.954,1.954,0,0,1,.265-.118l.778-.3c.674-.265,1.661-.624,2.87-1.076s2.687-.925,4.333-1.413,3.461-1,5.4-1.435A45.551,45.551,0,0,1,255.739,383h.925l.825.043c.517.025.958.054,1.32.1l.829.1a1.909,1.909,0,0,1,.287.043,1.621,1.621,0,0,1-.291,0l-.832-.061c-.359-.036-.8-.054-1.316-.068l-.825-.029h-.922a47.988,47.988,0,0,0-10.026,1.23c-1.93.42-3.748.911-5.381,1.4s-3.106.965-4.337,1.374l-2.9,1-.789.273A1.562,1.562,0,0,1,232,388.5Z" transform="translate(-188.167 -278.311)"/><path class="b" d="M170.507,356.305a.558.558,0,0,1-.061-.079c-.039-.064-.093-.143-.158-.244l-.6-.936-.427-.678c-.161-.248-.359-.506-.538-.789-.395-.563-.818-1.22-1.345-1.9-.262-.359-.531-.717-.814-1.076s-.6-.75-.918-1.144c-.624-.8-1.356-1.6-2.109-2.454a58.656,58.656,0,0,0-11.281-9.592c-.965-.6-1.876-1.194-2.766-1.682-.441-.248-.861-.5-1.277-.717l-1.2-.624c-.757-.412-1.474-.717-2.091-1.019-.312-.144-.6-.287-.868-.405l-.739-.312-1.022-.438-.265-.118-.086-.047.093.029.273.1c.251.1.6.237,1.037.405l.746.3c.273.115.56.251.875.391.621.287,1.345.592,2.109,1l1.209.613c.42.215.843.47,1.288.717.893.484,1.794,1.076,2.78,1.675a56.986,56.986,0,0,1,11.313,9.613c.753.861,1.481,1.668,2.106,2.475.312.4.631.775.911,1.151l.8,1.094c.524.689.94,1.352,1.327,1.919.187.287.359.552.527.8l.412.689c.244.405.434.717.57.958.057.1.1.187.143.251S170.51,356.3,170.507,356.305Z" transform="translate(-130.411 -245.637)"/><path class="b" d="M169.985,340.13a2.9,2.9,0,0,1-.294-.441c-.179-.294-.441-.717-.771-1.223a39.87,39.87,0,0,0-2.819-3.842,41.09,41.09,0,0,0-3.261-3.476c-.445-.416-.807-.753-1.076-.979a3.4,3.4,0,0,1-.384-.359,2.66,2.66,0,0,1,.43.316c.269.208.649.531,1.1.936a33.544,33.544,0,0,1,3.314,3.451,33.185,33.185,0,0,1,2.787,3.892c.319.524.563.954.717,1.259a3.01,3.01,0,0,1,.251.466Z" transform="translate(-142.878 -244.2)"/><path class="c" d="M124.681,340.914c-.047.036-.807-1.033-1.976-2.124s-2.278-1.793-2.245-1.84a3.1,3.1,0,0,1,.75.416,12.411,12.411,0,0,1,1.621,1.288,12,12,0,0,1,1.388,1.539A3.229,3.229,0,0,1,124.681,340.914Z" transform="translate(-116.635 -248.779)"/><path class="g" d="M204.967,398.34l-15.327,1.736.872,7.866H208.17Z" transform="translate(-161.001 -288.148)"/><path class="g" d="M175.45,405.422c-2.346.068-6.862,2.116-8.451,3.644a17.082,17.082,0,0,0-3.587,5.492c-.3.671-.653,1.435-1.388,1.621a1.987,1.987,0,0,1-1.9-.743,3.587,3.587,0,0,1-.717-1.944c-.33-3.081,1.524-5.739,3.4-8.064s2.36-3.311,2.87-6.973c.172-1.252,1.212-3.246,2.371-3.727a3.069,3.069,0,0,1,3.153.466l3.451,1.969" transform="translate(-141.585 -285.667)"/><path class="h" d="M221.651,424.882a1.973,1.973,0,0,1-.434.021H220.04c-.994,0-2.367.036-3.881.068s-2.895.039-3.892,0c-.495,0-.9-.032-1.176-.054a1.959,1.959,0,0,1-.43-.05,1.722,1.722,0,0,1,.434-.022h1.177c.994,0,2.364-.032,3.885-.065s2.891-.04,3.885,0c.5,0,.9.032,1.18.054a1.711,1.711,0,0,1,.43.047Z" transform="translate(-174.481 -305.088)"/><path class="b" d="M223.19,358.3a2.713,2.713,0,0,1,.291.445,5.412,5.412,0,0,1,.3.549c.108.215.24.459.359.746s.251.592.359.936.226.717.334,1.1a14.191,14.191,0,0,1,.359,5.251c-.061.4-.108.786-.19,1.137s-.154.682-.24.976-.176.56-.255.789a5.027,5.027,0,0,1-.23.581,3,3,0,0,1-.23.481,2.826,2.826,0,0,1,.165-.506c.057-.161.129-.359.194-.588s.161-.491.23-.789.154-.62.212-.972.118-.717.172-1.126a14.925,14.925,0,0,0-.341-5.19c-.1-.387-.2-.757-.316-1.094s-.23-.653-.341-.936-.23-.531-.33-.753-.19-.405-.269-.556A3.054,3.054,0,0,1,223.19,358.3Z" transform="translate(-182.517 -262.471)"/><path class="b" d="M232.406,355.866a2.69,2.69,0,0,1-.068-.513,4.536,4.536,0,0,0-.068-.6c-.036-.244-.061-.5-.122-.789a15.933,15.933,0,0,0-.495-2.012,17.191,17.191,0,0,0-.961-2.349,16.774,16.774,0,0,0-1.324-2.152,15.924,15.924,0,0,0-1.331-1.593c-.2-.222-.4-.4-.563-.567s-.319-.3-.445-.409a2.622,2.622,0,0,1-.359-.359,3.227,3.227,0,0,1,.42.3,4.573,4.573,0,0,1,.466.387c.176.158.384.334.588.549a14.074,14.074,0,0,1,1.374,1.582,14.853,14.853,0,0,1,2.292,4.555,14.675,14.675,0,0,1,.463,2.041c.054.294.068.567.093.8a5,5,0,0,1,.036.606A2.935,2.935,0,0,1,232.406,355.866Z" transform="translate(-184.749 -253.634)"/><path class="a" d="M279.617,397.9a.69.69,0,0,1-.04.1l-.133.29a8.951,8.951,0,0,1-.588,1.076,11.3,11.3,0,0,1-1.173,1.528,13.408,13.408,0,0,1-1.9,1.693,16.933,16.933,0,0,1-6.015,2.73,35.377,35.377,0,0,1-8.064.85c-5.757,0-10.962-.022-14.728-.039l-4.466-.036-1.212-.022h-.316a.413.413,0,0,1-.108,0h1.636l4.466-.025H261.7a35.781,35.781,0,0,0,8.024-.829,16.993,16.993,0,0,0,5.99-2.751,13.36,13.36,0,0,0,1.908-1.657,11.572,11.572,0,0,0,1.187-1.5,9.926,9.926,0,0,0,.617-1.04l.147-.28a.693.693,0,0,1,.047-.093Z" transform="translate(-193.855 -287.866)"/><path class="a" d="M351.794,378.42a17.777,17.777,0,0,1-.764,2.418,17.249,17.249,0,0,1-.94,2.36,17.722,17.722,0,0,1,.764-2.421A16.862,16.862,0,0,1,351.794,378.42Z" transform="translate(-263.898 -275.374)"/><path class="a" d="M134.748,358.269l-.083-.029-.247-.1-.933-.409c-.807-.359-1.973-.886-3.4-1.571s-3.114-1.535-4.925-2.59a40.293,40.293,0,0,1-5.6-3.881,32.475,32.475,0,0,1-7.737-9.585,29.374,29.374,0,0,1-1.553-3.422c-.169-.409-.265-.739-.359-.958l-.082-.251a.154.154,0,0,0-.025-.09.3.3,0,0,1,.043.083c.025.064.057.143.1.244.09.215.2.542.359.947a34.171,34.171,0,0,0,1.607,3.375,33.143,33.143,0,0,0,7.744,9.506,41.276,41.276,0,0,0,5.563,3.878c1.793,1.058,3.479,1.919,4.9,2.619s2.576,1.245,3.375,1.625l.918.441.237.118C134.723,358.251,134.751,358.265,134.748,358.269Z" transform="translate(-109.8 -247.772)"/><path class="c" d="M228.481,104.34a2.812,2.812,0,0,0-5.04.434,4.913,4.913,0,0,1-.488,1.241c-.717.972-2.511.689-3.078,1.754-.613,1.133.8,2.489.459,3.73-.276.994-1.55,1.435-1.84,2.428-.387,1.309,1.191,2.6.811,3.917-.323,1.13-1.915,1.546-2.152,2.694-.276,1.266,1.284,2.3,1.259,3.587-.032,1.657-2.565,2.572-2.332,4.215.126.908,1.094,1.514,1.255,2.418.3,1.7-2.324,2.87-2.012,4.573.151.8.9,1.309,1.557,1.794s1.324,1.173,1.191,1.976-1.058,1.273-1.56,1.958c-.775,1.051.456,3.781,1.65,4.3l4.964-3.709s-1.435-1.187-.3-2.278.391-1.578.359-2.4c0,0,1.108.933.717,1.9a2.414,2.414,0,0,0,.258,2.317l7.536-3.386.814-7.174Z" transform="translate(-177.456 -98.728)"/><path class="c" d="M215.273,137.314a2,2,0,0,1-.484.018,3.024,3.024,0,0,1-2.7-2.066,3.179,3.179,0,0,1-.14-1.37,4.3,4.3,0,0,1,.509-1.435c.247-.481.556-.954.789-1.481a3.052,3.052,0,0,0,.291-1.725,5.048,5.048,0,0,0-.936-1.664,1.664,1.664,0,0,1-.326-1,1.223,1.223,0,0,1,.56-.929,7.466,7.466,0,0,1,.951-.524,1.794,1.794,0,0,0,.786-.671,1.309,1.309,0,0,0,.075-1.022,3.347,3.347,0,0,0-.5-.994c-.215-.308-.47-.61-.682-.947a2.665,2.665,0,0,1-.448-1.133,1.664,1.664,0,0,1,.359-1.184,4.908,4.908,0,0,1,.936-.814,6.254,6.254,0,0,0,.929-.753,1.535,1.535,0,0,0,.452-1.012,2.454,2.454,0,0,0-.316-1.076c-.179-.359-.387-.674-.556-1.029a2.127,2.127,0,0,1-.258-1.151,1.561,1.561,0,0,1,.176-.567,2.538,2.538,0,0,1,.359-.463c.527-.538,1.2-.9,1.485-1.528a1.761,1.761,0,0,0,.122-.979,5.3,5.3,0,0,0-.251-.972,4.338,4.338,0,0,1-.359-1.937,1.478,1.478,0,0,1,.409-.868,1.812,1.812,0,0,1,.8-.459c.574-.172,1.141-.194,1.654-.319a1.872,1.872,0,0,0,1.23-.753c.265-.391.409-.836.667-1.187a2.712,2.712,0,0,1,1.862-1.076,2.665,2.665,0,0,1,1.37.161,1.706,1.706,0,0,1,.319.161.5.5,0,0,1,.1.072,2.717,2.717,0,0,0-1.783-.323,2.658,2.658,0,0,0-1.794,1.076c-.244.359-.38.782-.653,1.194a2.009,2.009,0,0,1-1.3.818c-.527.129-1.1.158-1.643.326a1.7,1.7,0,0,0-.717.427,1.324,1.324,0,0,0-.359.786,4.161,4.161,0,0,0,.359,1.862,5.311,5.311,0,0,1,.258,1,1.926,1.926,0,0,1-.129,1.076c-.323.7-1.019,1.076-1.514,1.578a2.3,2.3,0,0,0-.323.427,1.363,1.363,0,0,0-.154.5,1.955,1.955,0,0,0,.244,1.051c.161.341.359.671.552,1.022a2.594,2.594,0,0,1,.341,1.169,1.729,1.729,0,0,1-.5,1.137,6.186,6.186,0,0,1-.958.778,4.841,4.841,0,0,0-.9.778,1.453,1.453,0,0,0-.334,1.051,2.447,2.447,0,0,0,.416,1.051c.2.326.452.621.678.943a3.586,3.586,0,0,1,.52,1.051,1.489,1.489,0,0,1-.093,1.155,1.984,1.984,0,0,1-.861.739,7.924,7.924,0,0,0-.933.509,1.047,1.047,0,0,0-.491.8,1.539,1.539,0,0,0,.3.9,4.834,4.834,0,0,1,.947,1.722,3.139,3.139,0,0,1-.308,1.811c-.244.545-.556,1.015-.8,1.485a4.189,4.189,0,0,0-.509,1.41,3.032,3.032,0,0,0,.122,1.32,2.945,2.945,0,0,0,1.313,1.643,3.14,3.14,0,0,0,1.288.42A2.687,2.687,0,0,1,215.273,137.314Z" transform="translate(-175.296 -98.242)"/><path class="b" d="M221.421,146.263a.36.36,0,0,1-.1-.072.535.535,0,0,1-.158-.33.922.922,0,0,1,.136-.577,1.126,1.126,0,0,1,.649-.484,8.67,8.67,0,0,1,.983-.23,1.435,1.435,0,0,0,.947-.61.717.717,0,0,0,.036-.6,2.8,2.8,0,0,0-.359-.592,1.492,1.492,0,0,1-.312-.717,1.349,1.349,0,0,1,.2-.793c.133-.244.294-.47.438-.717a1.456,1.456,0,0,0,.255-.775,1.155,1.155,0,0,0-.359-.75c-.2-.222-.448-.42-.664-.667a1.076,1.076,0,0,1-.334-.943.814.814,0,0,1,.247-.473,1.621,1.621,0,0,1,.43-.3c.312-.158.642-.265.958-.405a1.883,1.883,0,0,0,.814-.578,1.176,1.176,0,0,0,.147-.972,6.612,6.612,0,0,0-.384-1.026,4.175,4.175,0,0,1-.359-1.1,2.22,2.22,0,0,1,.194-1.177,12.319,12.319,0,0,0,1-2.124,1.793,1.793,0,0,0-.151-1.126,11.8,11.8,0,0,0-.61-1.058,2.593,2.593,0,0,1-.427-1.191,1.822,1.822,0,0,1,.423-1.18c.247-.334.534-.61.782-.915a1.937,1.937,0,0,0,.495-.994,1.761,1.761,0,0,0-.265-1.051c-.176-.33-.4-.638-.585-.972a2.152,2.152,0,0,1-.323-1.1,2.2,2.2,0,0,1,.38-1.051c.19-.308.4-.6.545-.9a1.4,1.4,0,0,0,.143-.947c-.14-.635-.638-1.144-.76-1.815a1.273,1.273,0,0,1,.212-.947,4.18,4.18,0,0,1,.617-.682,3.262,3.262,0,0,0,.549-.642,1.657,1.657,0,0,0,.2-.764c.022-.531-.1-1.044-.068-1.542a2.844,2.844,0,0,1,.423-1.327,2.737,2.737,0,0,1,1.772-1.273,2.87,2.87,0,0,1,1.392.039,1.931,1.931,0,0,1,.452.187,2.962,2.962,0,0,0-.459-.151,2.919,2.919,0,0,0-1.37,0,2.669,2.669,0,0,0-1.7,1.255,2.759,2.759,0,0,0-.395,1.277c-.025.481.1.986.083,1.542a1.736,1.736,0,0,1-.219.829,3.289,3.289,0,0,1-.567.678,3.946,3.946,0,0,0-.592.66,1.1,1.1,0,0,0-.183.839c.1.6.6,1.108.768,1.794a1.589,1.589,0,0,1-.151,1.055,9.1,9.1,0,0,1-.552.915,2.023,2.023,0,0,0-.359.968,1.954,1.954,0,0,0,.3,1.008c.176.319.4.628.588.972a1.948,1.948,0,0,1,.287,1.159,2.131,2.131,0,0,1-.535,1.076c-.255.312-.542.592-.775.908a1.629,1.629,0,0,0-.387,1.076,2.393,2.393,0,0,0,.4,1.1,10.873,10.873,0,0,1,.617,1.076,2.005,2.005,0,0,1,.165,1.241,11.353,11.353,0,0,1-1.019,2.152,2.044,2.044,0,0,0-.183,1.076,4.18,4.18,0,0,0,.33,1.055,6.438,6.438,0,0,1,.387,1.076,1.331,1.331,0,0,1-.176,1.108,2.027,2.027,0,0,1-.89.635c-.323.14-.649.251-.947.4a.968.968,0,0,0-.6.66.951.951,0,0,0,.294.814c.2.233.448.43.66.667a1.327,1.327,0,0,1,.395.847,1.625,1.625,0,0,1-.283.85c-.147.248-.312.47-.441.717a1.234,1.234,0,0,0-.187.717,1.381,1.381,0,0,0,.283.653,2.805,2.805,0,0,1,.359.624.821.821,0,0,1-.05.689,1.546,1.546,0,0,1-1.019.646c-.359.083-.7.115-.983.212a1.076,1.076,0,0,0-.624.445.886.886,0,0,0-.144.545A.563.563,0,0,0,221.421,146.263Z" transform="translate(-181.214 -101.756)"/><path class="a" d="M269.512,249.655l-6.245-20.8,1.948-33a33.693,33.693,0,0,0-15.424-4.15l-10.761.811L227.16,198.44l2.511,19.951,4.032,17.218-2.486,10.528C241.354,253.418,254.852,254.221,269.512,249.655Z" transform="translate(-185.063 -155.63)"/><path class="a" d="M319,222.316s12.146.624,12.146-.38a42.19,42.19,0,0,0-2.375-12.433c-1.316-3.436-3.587-5.969-4.807-6.485C321.152,201.809,319,222.316,319,222.316Z" transform="translate(-243.96 -162.855)"/><path class="a" d="M212.577,210.16s-2.292,1.9-4.706,7.63c-2.87,6.79-3.691,8.189-3.691,8.189l7.2,9.735,3.91-4.383Z" transform="translate(-170.326 -167.469)"/><path class="c" d="M233.033,257.494a.2.2,0,0,0-.029-.079,1.345,1.345,0,0,1-.065-.237c-.057-.222-.133-.531-.23-.915-.2-.8-.47-1.951-.8-3.379-.653-2.87-1.514-6.815-2.439-11.184L227.1,230.5c-.3-1.417-.556-2.572-.717-3.39-.079-.391-.143-.7-.19-.925-.018-.1-.032-.176-.047-.24v-.082a.218.218,0,0,1,.029.079c.018.064.039.14.065.237q.086.337.226.915c.194.8.463,1.951.789,3.382.649,2.87,1.5,6.815,2.425,11.188s1.772,8.315,2.385,11.2c.308,1.435.56,2.576.739,3.393.083.387.147.7.194.922l.047.24a.241.241,0,0,1-.014.083Z" transform="translate(-184.415 -177.537)"/><g class="d" transform="translate(65.714 37.501)"><path d="M304.171,196.78a7.83,7.83,0,0,0-9.976,1.7l-.165-1.22c-.1,1.32-1.162,2.809-1.015,3.669a1.985,1.985,0,0,0,1.725,1.7c1.234.05,2.364-1.331,3.508-.868.38.151.66.488,1.033.66.836.387,1.794-.151,2.532-.685q1.291-.915,2.536-1.9a2.18,2.18,0,0,0,1.008-1.388C305.419,197.727,304.791,197.146,304.171,196.78Z" transform="translate(-293.001 -195.69)"/></g><path class="c" d="M319.582,205a8.571,8.571,0,0,0-2.016,1.793,9.238,9.238,0,0,0-1.385,2.579,30.363,30.363,0,0,0-.979,3.483,21.484,21.484,0,0,0-.477,3.587c-.068,1.112-.09,2.116-.125,2.959s-.068,1.524-.111,2c-.018.233-.043.416-.057.542a.672.672,0,0,1-.032.187.724.724,0,0,1,0-.19,5.252,5.252,0,0,1,.022-.545c.018-.47.036-1.151.054-1.994s.025-1.851.083-2.966a20.507,20.507,0,0,1,.47-3.612,29.121,29.121,0,0,1,1-3.5,9.19,9.19,0,0,1,1.435-2.6,6.9,6.9,0,0,1,1.478-1.356c.2-.133.359-.215.47-.28a.567.567,0,0,1,.176-.083Z" transform="translate(-241.005 -164.159)"/><path class="c" d="M270.421,323.44a1.064,1.064,0,0,1-.179-.022l-.513-.093c-.445-.082-1.076-.222-1.872-.413a60.173,60.173,0,0,1-6.058-1.793,61.277,61.277,0,0,1-5.843-2.414c-.717-.359-1.313-.646-1.711-.857l-.459-.251a.716.716,0,0,1-.154-.1.539.539,0,0,1,.172.065l.473.215c.405.2,1,.473,1.736.8,1.471.667,3.526,1.535,5.847,2.36s4.466,1.435,6.03,1.847c.782.2,1.417.359,1.855.466l.506.129A.538.538,0,0,1,270.421,323.44Z" transform="translate(-202.038 -236.306)"/><path class="c" d="M270.238,319.107a.994.994,0,0,1-.187.025l-.534.043c-.466.032-1.141.061-1.973.075a52.233,52.233,0,0,1-12.913-1.41c-.811-.194-1.463-.359-1.912-.5l-.513-.158a.72.72,0,0,1-.176-.065.657.657,0,0,1,.187.029l.524.122c.448.111,1.1.265,1.919.441a60.2,60.2,0,0,0,12.892,1.406c.832,0,1.5,0,1.969-.018h.538A.631.631,0,0,1,270.238,319.107Z" transform="translate(-201.012 -236.062)"/><g class="d" transform="translate(43.579 60.731)"><path d="M267.458,279.5a5.691,5.691,0,0,0-3.067-1.958,51.947,51.947,0,0,1-16.956-10.506c-2.342-2.177-4.57-4.631-7.511-5.89s-6.9-.882-8.634,1.811l1.076.717c5.424,1.793,9.025,6.779,12.938,10.944a114.862,114.862,0,0,0,9.5,8.7c2.1,1.793,4.452,3.666,7.21,3.666a6.1,6.1,0,0,0,5.822-4.993A3.705,3.705,0,0,0,267.458,279.5Z" transform="translate(-231.29 -260.451)"/></g><path class="g" d="M173.088,167.73h-.936a2.044,2.044,0,0,0-1.851,1.176h0a2.037,2.037,0,0,0,.136,1.984l1.435,2.242a2.133,2.133,0,0,0-1.033,2.346s-.947.577-.452,2.511a3.37,3.37,0,0,0,.136,2.748c.764,1.126,3.2,5.441,3.2,5.441v4.771l6.457-.746v-5.517a7.953,7.953,0,0,0,.954-2.471c.273-1.4-.764-6.744-.764-6.744l-2.97-3.426-3.329-1.306a1.682,1.682,0,0,0-.212,1.2,1.551,1.551,0,0,0,.075.24l-.495-.226-1.112-2.023v-.269s2.737-.613,1.689-1.585A1.435,1.435,0,0,0,173.088,167.73Z" transform="translate(-148.474 -140.258)"/><path class="h" d="M179.619,202.783a.68.68,0,0,1,.158.273,1.5,1.5,0,0,1,.043.864.718.718,0,0,1-.4.474,1.033,1.033,0,0,1-.717.032,2.684,2.684,0,0,1-1.159-1.047,2.353,2.353,0,0,0-.552-.52,1.076,1.076,0,0,0-.656-.165l-1.248.075a7.146,7.146,0,0,1-1.155.025,7.124,7.124,0,0,1,1.144-.154c.359-.036.775-.079,1.252-.118a1.244,1.244,0,0,1,.76.179,2.413,2.413,0,0,1,.6.563c.337.427.642.864,1.076,1a.911.911,0,0,0,.6,0,.588.588,0,0,0,.337-.359,1.567,1.567,0,0,0,0-.8C179.662,202.887,179.6,202.79,179.619,202.783Z" transform="translate(-150.927 -162.567)"/><path class="c" d="M181.292,178.533c0,.022-.143,0-.33-.108a1.377,1.377,0,0,1-.646-1.471c.047-.215.126-.326.147-.316a2.539,2.539,0,0,0,.111,1.076A2.512,2.512,0,0,0,181.292,178.533Z" transform="translate(-155.003 -145.971)"/><path class="h" d="M178.705,202.65c.022,0,.036.151-.022.387a2.045,2.045,0,0,1-.43.829,2.087,2.087,0,0,1-.753.556c-.222.093-.359.1-.38.083A3.01,3.01,0,0,0,178.705,202.65Z" transform="translate(-152.972 -162.652)"/><path class="h" d="M187.468,210.161a4.76,4.76,0,0,0-1.255-1.133,4.627,4.627,0,0,0-1.632-.441.991.991,0,0,1,.517-.065,2.845,2.845,0,0,1,2.152,1.173,1.033,1.033,0,0,1,.219.466Z" transform="translate(-157.756 -166.412)"/><path class="i" d="M181.874,183.716a4.663,4.663,0,0,1,.524,1.435,5.126,5.126,0,0,1,.093,1.492c-.133.811-.506,3.113.022,3.655s4.078,3.454,4.078,3.454h2.235s-4.538-2.8-5.147-4.685-.022-2.891-.33-4.064a31.572,31.572,0,0,0-1.524-3.781l-5.187-8.534-.857.2Z" transform="translate(-152.113 -143.439)"/><path class="c" d="M181.65,183.588s-.047-.065-.122-.194-.194-.326-.334-.567l-1.255-2.181-4.455-7.838-.054-.093.1-.025.854-.2h.057l.032.05,5.2,8.53h0c.427.915.861,1.887,1.241,2.9a5,5,0,0,1,.387,1.6c0,.552-.061,1.076-.054,1.6a5.575,5.575,0,0,0,.219,1.524,3.347,3.347,0,0,0,.717,1.295,14.8,14.8,0,0,0,2.152,1.984c.76.581,1.524,1.116,2.281,1.593l.244.154h-2.55l-.022-.018c-1.406-1.166-2.694-2.228-3.8-3.21a1.792,1.792,0,0,1-.384-.416,1.674,1.674,0,0,1-.143-.527,5.563,5.563,0,0,1-.018-1,17.139,17.139,0,0,1,.2-1.747,3.8,3.8,0,0,0,0-1.392,5.233,5.233,0,0,0-.215-1.012,4.719,4.719,0,0,0-.2-.6,2.058,2.058,0,0,1-.093-.2,3.429,3.429,0,0,1,.359.782,5.381,5.381,0,0,1,.24,1.015,3.985,3.985,0,0,1,0,1.417c-.075.524-.154,1.1-.187,1.736a5.744,5.744,0,0,0,.029.986,1.5,1.5,0,0,0,.136.484,1.654,1.654,0,0,0,.359.359c1.112.972,2.407,2.03,3.817,3.185h2.184l-.043.154q-1.151-.717-2.3-1.6a14.729,14.729,0,0,1-2.2-2.005,3.515,3.515,0,0,1-.76-1.363,5.875,5.875,0,0,1-.226-1.571c0-.534.068-1.076.054-1.593a4.7,4.7,0,0,0-.359-1.542c-.377-1-.811-1.976-1.234-2.87h0l-5.155-8.555.09.036-.857.2.05-.115,4.4,7.891,1.212,2.2.316.581C181.618,183.516,181.65,183.588,181.65,183.588Z" transform="translate(-151.889 -143.311)"/><path class="g" d="M174.63,182.084a2.751,2.751,0,0,1,2.328-.839,4.577,4.577,0,0,1,2.328,1.008,14.481,14.481,0,0,1,1.829,1.793,3.085,3.085,0,0,1,.857,1.367,1.057,1.057,0,0,1-.717,1.273c-.534.083-.954-.359-1.316-.76a8.8,8.8,0,0,0-1.664-1.385,2.984,2.984,0,0,0-1.223-.52,3.623,3.623,0,0,0-1.593.283" transform="translate(-151.375 -148.912)"/><path class="h" d="M175.461,184.209a.966.966,0,0,1,.165-.075,5.062,5.062,0,0,1,.491-.165,2.772,2.772,0,0,1,.818-.108,2.432,2.432,0,0,1,1.047.33,8.985,8.985,0,0,1,2.2,1.765,2.3,2.3,0,0,0,.617.473.717.717,0,0,0,.717-.039,1,1,0,0,0,.38-.682,1.378,1.378,0,0,0-.172-.814,8.275,8.275,0,0,0-1.1-1.363,12.69,12.69,0,0,0-1.177-1.155,4.7,4.7,0,0,0-2.461-1.169,2.945,2.945,0,0,0-1.793.359,4.873,4.873,0,0,0-.549.412.675.675,0,0,1,.111-.143,2.178,2.178,0,0,1,.4-.33,2.92,2.92,0,0,1,1.844-.43,4.8,4.8,0,0,1,2.561,1.169,12.566,12.566,0,0,1,1.2,1.166,8.081,8.081,0,0,1,1.137,1.4,1.51,1.51,0,0,1,.19.925,1.173,1.173,0,0,1-.459.807.893.893,0,0,1-.9.05,2.377,2.377,0,0,1-.664-.513,9.3,9.3,0,0,0-2.152-1.772,2.353,2.353,0,0,0-.986-.359,2.766,2.766,0,0,0-.8.075A4.758,4.758,0,0,1,175.461,184.209Z" transform="translate(-151.382 -148.806)"/><path class="g" d="M174.16,191.47c1.137.273,2.421,0,3.422.6a4.36,4.36,0,0,1,.886.76l1.568,1.618c.287.3.682.621,1.076.43a.635.635,0,0,0,.33-.477,1.61,1.61,0,0,0-.269-1.015,21.714,21.714,0,0,0-1.227-2.005,6.144,6.144,0,0,0-.771-.922,5.065,5.065,0,0,0-1.582-1.141,2.826,2.826,0,0,0-2.228,0" transform="translate(-151.074 -153.955)"/><path class="h" d="M175.381,189.247a.662.662,0,0,1,.158-.086,2.113,2.113,0,0,1,.5-.158,3.386,3.386,0,0,1,1.876.3,5.261,5.261,0,0,1,1.076.778A5.943,5.943,0,0,1,180,191.205c.3.434.61.9.9,1.4.147.248.291.506.427.771a1.618,1.618,0,0,1,.237.911.786.786,0,0,1-.2.463.653.653,0,0,1-.463.212,1.237,1.237,0,0,1-.818-.43l-1.155-1.194c-.359-.359-.717-.757-1.051-1.051a2.587,2.587,0,0,0-1.137-.538c-.775-.154-1.435-.133-1.872-.2a4.667,4.667,0,0,1-.509-.09.613.613,0,0,1-.172-.054s.244.039.689.072a16.087,16.087,0,0,1,1.89.143,2.683,2.683,0,0,1,1.209.545c.359.3.717.682,1.076,1.055l1.155,1.18a1.1,1.1,0,0,0,.689.359.524.524,0,0,0,.481-.509,1.435,1.435,0,0,0-.215-.807c-.133-.258-.276-.513-.42-.76-.291-.491-.592-.958-.886-1.392a6.132,6.132,0,0,0-.979-1.1,5.192,5.192,0,0,0-1.022-.775,3.469,3.469,0,0,0-1.794-.359A5.938,5.938,0,0,0,175.381,189.247Z" transform="translate(-151.093 -153.883)"/><path class="h" d="M175.1,171.87a3.809,3.809,0,0,1-1.306.531,3.031,3.031,0,0,1-1.4.136c0-.054.617-.115,1.356-.319A8.923,8.923,0,0,1,175.1,171.87Z" transform="translate(-149.939 -142.913)"/><path class="g" d="M188.249,237.884l-1.542-9.294-6.457,1.191s.337,12.669.646,15.783c.5,5.051,3,10.4,6.815,9.455,3.562-.886,7.769-8.329,7.769-8.329Z" transform="translate(-154.98 -179.288)"/><path class="c" d="M292.88,99.354a.816.816,0,0,0,1.22,0,2.512,2.512,0,0,0,.491-1.3,2.066,2.066,0,0,1,.56-1.263c.359-.3,1.029-.262,1.184.183a1.116,1.116,0,0,1,1.381-1.356,1.618,1.618,0,0,1,3.2.022,1.1,1.1,0,0,1,1.883.979,1.5,1.5,0,0,1,1.044,2.22,1.435,1.435,0,0,1,.671,2.615A1.263,1.263,0,0,1,303.3,103.2a2,2,0,0,1-2.73.692,5.8,5.8,0,0,1-5.5-.707" transform="translate(-227.209 -93.135)"/><path class="g" d="M257.847,114.529a2.235,2.235,0,0,0-2.152-2.124l-12.042-2.181c-3.817-.14-6.015,4.7-5.994,8.519A67.9,67.9,0,0,0,238.6,131.3c1.435,6.27,6.356,6.744,6.356,6.744s.047,1.966.179,4.728a6.69,6.69,0,0,0,7.206,6.349h0A6.686,6.686,0,0,0,258.5,142.3Z" transform="translate(-191.796 -103.378)"/><path class="c" d="M243.62,145.152a.814.814,0,0,0,.839.768.782.782,0,0,0,.789-.793.818.818,0,0,0-.839-.768.782.782,0,0,0-.789.793Z" transform="translate(-195.619 -125.27)"/><path class="c" d="M241.554,138.383c.108.1.692-.4,1.567-.456s1.546.334,1.636.222c.043-.054-.072-.237-.359-.42a2.216,2.216,0,0,0-1.316-.312,2.152,2.152,0,0,0-1.241.5C241.579,138.139,241.5,138.34,241.554,138.383Z" transform="translate(-194.284 -120.815)"/><path class="c" d="M266.45,144.462a.814.814,0,0,0,.839.764.778.778,0,0,0,.789-.789.814.814,0,0,0-.839-.768.782.782,0,0,0-.789.793Z" transform="translate(-210.26 -124.828)"/><path class="c" d="M265.641,138.34c.108.1.7-.4,1.568-.456s1.546.337,1.636.222c.043-.05-.072-.233-.359-.42a2.246,2.246,0,0,0-1.316-.308,2.152,2.152,0,0,0-1.241.5C265.667,138.1,265.588,138.315,265.641,138.34Z" transform="translate(-209.731 -120.79)"/><path class="c" d="M253.984,145.687a5.7,5.7,0,0,0-1.435-.158c-.226,0-.441-.039-.488-.187a1.144,1.144,0,0,1,.1-.674q.258-.836.545-1.747a29.4,29.4,0,0,0,1.177-4.552,29.662,29.662,0,0,0-1.542,4.448l-.534,1.754a1.317,1.317,0,0,0-.054.886.567.567,0,0,0,.413.312,1.605,1.605,0,0,0,.359,0A5.513,5.513,0,0,0,253.984,145.687Z" transform="translate(-200.803 -121.429)"/><path class="h" d="M258,182.658a16.174,16.174,0,0,0,8.336-2.848s-1.844,4.505-8.229,4.347Z" transform="translate(-204.841 -148.005)"/><path class="c" d="M264.074,132.4c.1.233.969.061,2,.111s1.887.276,2.005.054c.054-.1-.1-.319-.456-.527a3.393,3.393,0,0,0-1.514-.416,3.3,3.3,0,0,0-1.539.291C264.2,132.092,264.045,132.289,264.074,132.4Z" transform="translate(-208.734 -117.099)"/><path class="c" d="M242.028,132.327c.165.19.753-.057,1.478-.118s1.349.043,1.474-.176c.057-.1-.054-.3-.334-.466a2.152,2.152,0,0,0-2.382.237C242.021,132.025,241.953,132.237,242.028,132.327Z" transform="translate(-194.579 -116.904)"/><path class="c" d="M247.832,97.878c-.359.786,1.162,2.238,1.987,2.511s1.894.133,2.339.882c.509.85-.527,2.224,1.194,3.149.545.291,1.338-.323,1.794.093.563.517-.172,1.406-.147,2.152.047,1.478,2.744,1.6,2.923,3.063.111.925-.922,1.794-.563,2.662s1.844.8,2.21,1.679c.47,1.13-1.435,2.106-1.2,3.3s2.224,1.187,2.622,2.328c.341.976-.757,2.041-.384,3,.427,1.1,2.285.94,2.784,2.009.6,1.291-1.435,2.78-.746,4.025.23.416.76.563,1.076.922a3.98,3.98,0,0,1-.122,4.71h.746a6.787,6.787,0,0,0,5.606-3.135h0l.621,1.435A15.421,15.421,0,0,0,275.7,129.4a3.2,3.2,0,0,1,2.891-.631l.441.118a7.527,7.527,0,0,0,4.186-1.3c-1.467-.294-2.256-1.894-2.622-3.343s-.588-3.067-1.686-4.086c-1.187-1.1-3.246-1.352-3.791-2.87-.43-1.2.359-2.565-.018-3.777s-1.829-1.826-2.385-2.984c-.757-1.578.337-3.666-.628-5.126-1.044-1.589-3.845-1.356-4.638-3.085-.434-.958-.082-2.253-.836-2.984-.606-.585-1.636-.488-2.271-1.04-.933-.807-.477-2.468-1.288-3.4-1.094-1.255-3.34-.147-4.746-1.04-.886-.563-1.18-1.776-2.055-2.353-1.187-.789-2.744-.079-4.089.391-1.04.359-2.134.57-3.146,1.015a4.048,4.048,0,0,0-2.317,2.22,2.18,2.18,0,0,0,1.133,2.748" transform="translate(-197.517 -91.143)"/><path class="c" d="M298.334,123.325a.534.534,0,0,1,.1.09c.068.065.169.158.291.287a3.668,3.668,0,0,1,.423.517,1.966,1.966,0,0,1,.359.843,1.41,1.41,0,0,1-.33,1.076.951.951,0,0,1-.585.323.933.933,0,0,1-.689-.208,2.153,2.153,0,0,1-.6-1.435,15.759,15.759,0,0,1,0-1.743c.032-.61.086-1.248.172-1.908.043-.33.1-.667.154-1.008a3.952,3.952,0,0,0,.065-1.029,1.119,1.119,0,0,0-.474-.868,1.671,1.671,0,0,0-1.037-.19,10.289,10.289,0,0,1-1.169.057,1.435,1.435,0,0,1-1.1-.527,2.112,2.112,0,0,1-.384-1.2,6.428,6.428,0,0,1,.1-1.259,4.7,4.7,0,0,0,.039-1.248,1.51,1.51,0,0,0-.6-1.037,7.107,7.107,0,0,0-1.169-.581,2.238,2.238,0,0,1-1.029-.918,5.33,5.33,0,0,1-.438-2.733,8.129,8.129,0,0,0-.068-1.363,2.773,2.773,0,0,0-.477-1.22,5.231,5.231,0,0,0-2.206-1.374,6.04,6.04,0,0,1-1.155-.635,2.181,2.181,0,0,1-.782-1.055,6.757,6.757,0,0,1-.183-1.252,1.56,1.56,0,0,0-.448-1.04,2.151,2.151,0,0,0-1.047-.423,5.758,5.758,0,0,1-1.141-.28,1.553,1.553,0,0,1-.843-.8,3.276,3.276,0,0,1-.226-1.076,4.561,4.561,0,0,0-.359-1.987,2.74,2.74,0,0,0-1.435-1.133,5.133,5.133,0,0,0-1.679-.323c-.545-.029-1.076-.022-1.546-.043a6.988,6.988,0,0,1-1.345-.158,3.818,3.818,0,0,1-1.076-.423,2.511,2.511,0,0,1-1.076-1.133,1.434,1.434,0,0,1-.14-.531,3.385,3.385,0,0,0,.172.513,2.511,2.511,0,0,0,1.076,1.076,3.728,3.728,0,0,0,1.058.427,7.177,7.177,0,0,0,1.331.14c.481,0,1,0,1.55.029a5.321,5.321,0,0,1,1.718.316,2.87,2.87,0,0,1,1.51,1.187,4.692,4.692,0,0,1,.391,2.048,3.205,3.205,0,0,0,.215,1.037,1.4,1.4,0,0,0,.76.717,5.931,5.931,0,0,0,1.112.265,2.286,2.286,0,0,1,1.13.459,1.715,1.715,0,0,1,.506,1.148,7.025,7.025,0,0,0,.179,1.22,2.033,2.033,0,0,0,.717.965,5.625,5.625,0,0,0,1.123.61c.4.179.811.359,1.209.563a3.229,3.229,0,0,1,1.076.868,2.9,2.9,0,0,1,.513,1.3,7.96,7.96,0,0,1,.072,1.4,5.339,5.339,0,0,0,.413,2.636,2.03,2.03,0,0,0,.951.843,7.347,7.347,0,0,1,1.2.6,1.679,1.679,0,0,1,.664,1.159,4.586,4.586,0,0,1-.039,1.295,6.293,6.293,0,0,0-.1,1.23,1.969,1.969,0,0,0,.341,1.1,1.284,1.284,0,0,0,.979.466,10.283,10.283,0,0,0,1.148-.054,1.829,1.829,0,0,1,1.137.222,1.273,1.273,0,0,1,.538.983,4.074,4.074,0,0,1-.072,1.076c-.061.359-.111.671-.158,1-.09.656-.151,1.291-.183,1.9a15.608,15.608,0,0,0-.025,1.725,2.1,2.1,0,0,0,.549,1.367.8.8,0,0,0,1.141-.1,1.324,1.324,0,0,0,.326-1.015,1.949,1.949,0,0,0-.319-.825,4.282,4.282,0,0,0-.4-.52l-.276-.3A.635.635,0,0,1,298.334,123.325Z" transform="translate(-214.588 -91.936)"/><path class="b" d="M271.049,141.12l.172-.075c.115-.05.287-.118.5-.226a1.947,1.947,0,0,0,.678-.545,1.076,1.076,0,0,0,.126-1.1.879.879,0,0,0-.538-.391c-.237-.075-.5-.1-.768-.2a.969.969,0,0,1-.38-.226.718.718,0,0,1-.183-.43,1.793,1.793,0,0,1,.319-.89,2.048,2.048,0,0,0,.312-.9,1.876,1.876,0,0,0-.187-.986,1.836,1.836,0,0,0-1.819-.972h-.075v-.079a2.6,2.6,0,0,1,.516-1.585,9.637,9.637,0,0,0,.918-1.464,2.28,2.28,0,0,0,.2-.843,1.183,1.183,0,0,0-.265-.8c-.387-.459-1.076-.563-1.654-.839a1.435,1.435,0,0,1-.76-.685,1.41,1.41,0,0,1,0-1.04,5.954,5.954,0,0,0,.617-1.9,1.5,1.5,0,0,0-.384-.893,3.266,3.266,0,0,0-.793-.649,15.777,15.777,0,0,1-1.873-1.076,1.938,1.938,0,0,1-.717-1.155,2.891,2.891,0,0,1,.129-1.338c.118-.423.269-.829.359-1.241a2.205,2.205,0,0,0,.05-.61,1.285,1.285,0,0,0-.19-.552,1.772,1.772,0,0,0-.965-.664,7.149,7.149,0,0,1-1.155-.456,1.467,1.467,0,0,1-.717-1,3.057,3.057,0,0,1,.068-1.2c.079-.38.176-.75.222-1.119a2.1,2.1,0,0,0-.09-1.076,1.69,1.69,0,0,0-.674-.76,3.56,3.56,0,0,0-.943-.395c-.656-.176-1.331-.23-1.948-.456a2.283,2.283,0,0,1-1.42-1.184c-.276-.531-.423-1.076-.646-1.542a2.834,2.834,0,0,0-.9-1.137,2.73,2.73,0,0,0-2.224-.484,2.894,2.894,0,0,0-1.309.685,4.083,4.083,0,0,0-.359.384,1.884,1.884,0,0,1,.334-.409,2.827,2.827,0,0,1,1.316-.717,2.794,2.794,0,0,1,2.3.47,2.913,2.913,0,0,1,.943,1.166c.233.484.384,1.026.656,1.535a2.386,2.386,0,0,0,.527.689,2.491,2.491,0,0,0,.793.445c.592.215,1.259.262,1.937.438a3.686,3.686,0,0,1,.99.409,1.866,1.866,0,0,1,.739.836,2.246,2.246,0,0,1,.108,1.141c-.047.384-.143.757-.222,1.133a2.94,2.94,0,0,0-.065,1.13,1.288,1.288,0,0,0,.642.882,7.357,7.357,0,0,0,1.126.441,1.937,1.937,0,0,1,1.058.717,1.435,1.435,0,0,1,.219.635,2.72,2.72,0,0,1-.05.664c-.086.434-.237.839-.359,1.255a2.729,2.729,0,0,0-.126,1.252,1.765,1.765,0,0,0,.667,1.047,15.892,15.892,0,0,0,1.851,1.076,3.444,3.444,0,0,1,.839.689,1.7,1.7,0,0,1,.423,1,5.828,5.828,0,0,1-.628,1.966,1.26,1.26,0,0,0,0,.915,1.3,1.3,0,0,0,.671.6c.287.133.6.226.9.359a2.023,2.023,0,0,1,.818.538,1.353,1.353,0,0,1,.3.918,2.475,2.475,0,0,1-.215.9,9.784,9.784,0,0,1-.936,1.485,2.432,2.432,0,0,0-.5,1.489l-.082-.068a1.973,1.973,0,0,1,1.955,1.076,2.027,2.027,0,0,1-.143,2.005,1.745,1.745,0,0,0-.312.825.646.646,0,0,0,.488.567c.251.09.516.126.76.2a.968.968,0,0,1,.585.441.979.979,0,0,1,.083.653,1.273,1.273,0,0,1-.23.531,1.987,1.987,0,0,1-.717.545,4.374,4.374,0,0,1-.7.233Z" transform="translate(-201.185 -100.549)"/><path class="b" d="M278.688,134.628a2.341,2.341,0,0,0,.262-.5,2.034,2.034,0,0,0-.1-1.553,1.837,1.837,0,0,0-.793-.8,5.152,5.152,0,0,1-.574-.359.968.968,0,0,1-.391-.631c-.075-.542.3-1.022.287-1.564a.893.893,0,0,0-.377-.7,3.837,3.837,0,0,0-.8-.42,3.617,3.617,0,0,1-.861-.47,1.41,1.41,0,0,1-.517-.9,12.04,12.04,0,0,1,.126-2.152,1.693,1.693,0,0,0-.262-1.029,1.973,1.973,0,0,0-.907-.628,10.393,10.393,0,0,1-1.112-.47,1.4,1.4,0,0,1-.764-1,4.787,4.787,0,0,1,.061-1.284,1.5,1.5,0,0,0-.226-1.166,2.554,2.554,0,0,0-1.1-.617,2.224,2.224,0,0,1-1.144-.768,2.056,2.056,0,0,1-.24-1.385,8.335,8.335,0,0,1,.359-1.363,3.5,3.5,0,0,0,.179-1.352,1.568,1.568,0,0,0-.689-1.112,4.021,4.021,0,0,0-1.313-.456c-.463-.09-.933-.165-1.388-.3a2.74,2.74,0,0,1-1.245-.689,3.173,3.173,0,0,1-.717-1.205c-.28-.882-.359-1.794-.538-2.622a4.7,4.7,0,0,0-.409-1.194,2.26,2.26,0,0,0-.829-.864,4.43,4.43,0,0,0-2.339-.248,5.4,5.4,0,0,1-1.18-.036,2.371,2.371,0,0,1-1.076-.448,7.391,7.391,0,0,1-1.342-1.686,4.247,4.247,0,0,0-.646-.753,3.7,3.7,0,0,0-.786-.524,4.545,4.545,0,0,0-3.271-.19,6.458,6.458,0,0,0-2.2,1.245,10.4,10.4,0,0,0-1.148,1.133l-.273.323c-.061.072-.1.108-.1.108a.655.655,0,0,1,.079-.118c.057-.079.143-.19.262-.334a9.146,9.146,0,0,1,1.13-1.166A6.489,6.489,0,0,1,252,101.1a4.663,4.663,0,0,1,3.375.172,3.743,3.743,0,0,1,.818.538,4.342,4.342,0,0,1,.671.775,7.524,7.524,0,0,0,1.32,1.646,2.239,2.239,0,0,0,1,.412,5.273,5.273,0,0,0,1.144.032c.395-.022.8-.057,1.209-.039a2.758,2.758,0,0,1,1.223.3,2.435,2.435,0,0,1,.9.929,4.873,4.873,0,0,1,.43,1.245,25.1,25.1,0,0,0,.538,2.6,2.959,2.959,0,0,0,.664,1.133,2.511,2.511,0,0,0,1.166.642c.441.129.908.2,1.374.294a4.082,4.082,0,0,1,1.377.484,1.743,1.743,0,0,1,.775,1.241,3.738,3.738,0,0,1-.187,1.435,7.978,7.978,0,0,0-.341,1.331,1.873,1.873,0,0,0,.212,1.263,2.066,2.066,0,0,0,1.055.717,2.676,2.676,0,0,1,1.173.674,1.27,1.27,0,0,1,.269.635,2.928,2.928,0,0,1,0,.664,4.661,4.661,0,0,0-.068,1.23,1.23,1.23,0,0,0,.678.886,9.523,9.523,0,0,0,1.076.463,2.185,2.185,0,0,1,.976.689,1.894,1.894,0,0,1,.28,1.1,12.621,12.621,0,0,0-.14,2.12,1.277,1.277,0,0,0,.463.814,3.451,3.451,0,0,0,.829.456,3.877,3.877,0,0,1,.825.441,1.026,1.026,0,0,1,.416.793c0,.6-.359,1.076-.3,1.553a.882.882,0,0,0,.359.57,5.221,5.221,0,0,0,.556.359,1.862,1.862,0,0,1,.814.847,2.055,2.055,0,0,1,.072,1.6A1.435,1.435,0,0,1,278.688,134.628Z" transform="translate(-198.626 -97.375)"/><path class="h" d="M260.817,163.476a1.144,1.144,0,0,1,1.41-1.7,1.833,1.833,0,0,1,.7.656,1.23,1.23,0,0,1,.265.943.99.99,0,0,1-.52.6,1.517,1.517,0,0,1-1.216.1,1.324,1.324,0,0,1-.829-.879" transform="translate(-206.513 -136.374)"/><path class="c" d="M262.392,161.477c.072.018.1.23,0,.552a2.224,2.224,0,0,1-2.005,1.481c-.337,0-.531-.09-.527-.161,0-.158.753-.219,1.435-.717S262.242,161.438,262.392,161.477Z" transform="translate(-206.033 -136.247)"/><path class="a" d="M203.611,225.353a1.628,1.628,0,0,1,.413-1.589,2.421,2.421,0,0,1,1.542-.682,2.626,2.626,0,0,1,1.471.269,1.793,1.793,0,0,1,.491,2.891,2.547,2.547,0,0,1-1.686.775,2.091,2.091,0,0,1-1.5-.42,1.815,1.815,0,0,1-.717-1.245" transform="translate(-169.922 -175.746)"/><path class="b" d="M179.5,228.131c-2.124.56-4.451-1.661-5.1-3.174a.538.538,0,0,1-.025-.5.549.549,0,0,1,.506-.158,5.051,5.051,0,0,1,4.616,3.831" transform="translate(-151.184 -176.53)"/><path class="a" d="M181.619,228.2a1.614,1.614,0,0,1,.412-1.585,2.436,2.436,0,0,1,1.542-.685,2.64,2.64,0,0,1,1.471.273,1.794,1.794,0,0,1,.491,2.87,2.532,2.532,0,0,1-1.689.775,2.1,2.1,0,0,1-1.5-.416,1.794,1.794,0,0,1-.717-1.248" transform="translate(-155.818 -177.569)"/><path class="b" d="M212.86,220.813a6.9,6.9,0,0,1,1.18-3.519,5.538,5.538,0,0,1,2.511-2.185.237.237,0,0,1,.38.151,3.971,3.971,0,0,1-4.068,5.553" transform="translate(-175.889 -170.61)"/><path class="b" d="M228.434,217.1a10.572,10.572,0,0,0,1.012-1.672,3.588,3.588,0,0,0,.334-1.9.334.334,0,0,0-.126-.255.337.337,0,0,0-.276,0,5.98,5.98,0,0,0-4.211,5.571l-.036.323a4.609,4.609,0,0,0,3.447.237,7.134,7.134,0,0,0,2.55-1.245,3.82,3.82,0,0,0,1.435-2.4A5.108,5.108,0,0,0,228.434,217.1Z" transform="translate(-183.761 -169.442)"/><path class="b" d="M189.371,218.758a7.684,7.684,0,0,0-3.971-1.629,5.449,5.449,0,0,0,5.287,5.693l.072-.161A4.011,4.011,0,0,0,189.371,218.758Z" transform="translate(-158.279 -171.938)"/><path class="i" d="M176.36,228.148s2.511,8.609,7.5,11.658c6.514,3.982,16.307-1.316,17.139-3.4s2.289-10.546,2.289-10.546Z" transform="translate(-152.485 -177.537)"/><path class="c" d="M176.341,228.014h.125l.384-.039,1.5-.136,5.617-.506,19.291-1.682h.118l-.022.115c-.459,2.6-.961,5.359-1.614,8.171-.143.6-.283,1.184-.463,1.765-.043.147-.093.29-.143.434-.029.072-.05.143-.079.215a1.7,1.7,0,0,1-.111.212,3.855,3.855,0,0,1-.6.7A13.216,13.216,0,0,1,197.4,239.2a20.261,20.261,0,0,1-3.16,1.255,17.49,17.49,0,0,1-3.189.671,12.021,12.021,0,0,1-5.94-.7,10.592,10.592,0,0,1-4.118-3.2,21.769,21.769,0,0,1-2.375-3.609,30.888,30.888,0,0,1-1.37-2.959c-.337-.829-.56-1.489-.717-1.937-.075-.222-.126-.395-.158-.509s-.047-.183-.047-.179a1.605,1.605,0,0,1,.065.172c.039.122.1.291.176.506.158.441.391,1.1.739,1.919a31.79,31.79,0,0,0,1.4,2.938,21.828,21.828,0,0,0,2.382,3.587,10.531,10.531,0,0,0,4.093,3.1,11.884,11.884,0,0,0,5.865.667,19.173,19.173,0,0,0,6.284-1.919,12.876,12.876,0,0,0,2.9-1.912,3.917,3.917,0,0,0,.567-.656l.1-.187c.029-.068.05-.14.075-.208.047-.14.1-.28.14-.423.176-.574.316-1.162.463-1.754.646-2.805,1.155-5.56,1.614-8.16l.1.108-19.23,1.593-5.642.452-1.521.118-.4.029Z" transform="translate(-152.466 -177.402)"/><path class="j" d="M184.617,244.235a1.742,1.742,0,0,1-.3-.269c-.187-.179-.448-.452-.764-.8a24.972,24.972,0,0,1-2.235-2.895,24.722,24.722,0,0,1-1.794-3.185c-.2-.427-.359-.775-.441-1.019a1.817,1.817,0,0,1-.129-.387,1.567,1.567,0,0,1,.2.359c.111.233.28.574.491.986a32.341,32.341,0,0,0,1.84,3.146,32.925,32.925,0,0,0,2.181,2.909c.3.359.545.642.717.836A1.609,1.609,0,0,1,184.617,244.235Z" transform="translate(-154.146 -183.834)"/><path class="j" d="M203.354,229.881a1.329,1.329,0,0,1-.251.047l-.717.1c-.621.086-1.521.194-2.636.319-2.227.251-5.312.556-8.724.818s-6.51.427-8.749.517c-1.123.043-2.027.075-2.654.086H178.9a1.965,1.965,0,0,1-.255,0,1.074,1.074,0,0,1,.251-.029l.717-.047,2.651-.147c2.238-.126,5.33-.312,8.742-.57s6.493-.545,8.724-.764l2.644-.258.717-.065a1.256,1.256,0,0,1,.258,0Z" transform="translate(-153.953 -180.113)"/><path class="g" d="M273.435,256.516l-1.793,9.3L253.154,256,249,260.39s17.6,16.095,21.285,19.036,8.706-.456,10.173-5.915,3.415-12.508,3.971-17.089Z" transform="translate(-199.069 -196.866)"/><path class="g" d="M220.461,252.638s-5.341-4.053-7.239-3.641a7.444,7.444,0,0,0-1.636.527,4.663,4.663,0,0,1-2.009.484c-.7,0-1.585,0-2.443-.043-1.643-.075-2.152.359-2.281.99a1.022,1.022,0,0,0,.915,1.241,18.872,18.872,0,0,1,3.16.441c.99.323-.169.118-1.406.922s-6.274.969-6.274.969l-2.74-2.095a.918.918,0,0,0-1.41,1.076l.021.043-.251-.255a.775.775,0,0,0-1.255.861.148.148,0,0,1,.018.032l2.231,2.152,3.386,1.4,5.861-.578s4.3-1.567,5.119-1.815,3.555.531,5.65,2.87Z" transform="translate(-164.79 -192.356)"/><path class="h" d="M316.425,291.145c-.029,0-.183-.5-.484-1.3a24.608,24.608,0,0,0-1.392-3.045,23.937,23.937,0,0,0-1.815-2.812c-.513-.689-.857-1.094-.836-1.116a1.483,1.483,0,0,1,.273.262c.165.172.395.438.667.771a19.162,19.162,0,0,1,1.872,2.805,18.937,18.937,0,0,1,1.352,3.088c.136.409.237.746.29.979A1.235,1.235,0,0,1,316.425,291.145Z" transform="translate(-239.405 -214.097)"/><path class="h" d="M207.408,266.568a2.622,2.622,0,0,1-.5.083c-.323.039-.793.093-1.37.147-1.155.122-2.766.219-4.538.291a4.851,4.851,0,0,1-1.313-.072,3.586,3.586,0,0,1-1.126-.5,7.582,7.582,0,0,1-1.507-1.4c-.377-.445-.664-.818-.864-1.076a2.6,2.6,0,0,1-.3-.409,2.241,2.241,0,0,1,.359.359l.911,1.033a7.707,7.707,0,0,0,1.5,1.341,3.464,3.464,0,0,0,1.076.47,4.9,4.9,0,0,0,1.266.061c1.794-.072,3.372-.147,4.534-.233l1.374-.09A2.6,2.6,0,0,1,207.408,266.568Z" transform="translate(-165.009 -201.759)"/><path class="h" d="M208.66,264.927a1.319,1.319,0,0,1-.359.025h-.947c-.8,0-1.915,0-3.174-.036h-.018c-.179-.039-.359-.082-.563-.136a4.123,4.123,0,0,1-.965-.359,2.775,2.775,0,0,1-.746-.624c-.387-.47-.717-.9-.994-1.263s-.481-.671-.621-.886a1.594,1.594,0,0,1-.194-.359,1.985,1.985,0,0,1,.255.3c.154.2.38.5.664.846l1.019,1.234a3.088,3.088,0,0,0,1.629.933c.19.05.38.093.556.133h-.018c1.259.029,2.375.065,3.175.1l.943.047A1.132,1.132,0,0,1,208.66,264.927Z" transform="translate(-167.697 -200.258)"/><path class="h" d="M237.228,260.091c0,.05-.717-.129-1.582-.248s-1.593-.129-1.6-.183a4.258,4.258,0,0,1,1.621,0A4.214,4.214,0,0,1,237.228,260.091Z" transform="translate(-189.481 -199.163)"/><path class="b" d="M299.044,114.383a.578.578,0,0,1-.291,0,1.707,1.707,0,0,1-.717-.3,1.736,1.736,0,0,1-.667-.968c-.118-.43-.1-.925-.251-1.37a.95.95,0,0,0-.4-.513,2.191,2.191,0,0,0-.613-.215,2.509,2.509,0,0,1-.6-.212,1.184,1.184,0,0,1-.416-.359,2.33,2.33,0,0,1-.319-.717c-.047-.179-.065-.28-.05-.283a1.074,1.074,0,0,1,.118.258,2.934,2.934,0,0,0,.359.667,1.131,1.131,0,0,0,.384.319,2.415,2.415,0,0,0,.563.179,2.331,2.331,0,0,1,.667.226,1.133,1.133,0,0,1,.484.606c.169.506.136.99.24,1.392a1.649,1.649,0,0,0,.585.908A2.264,2.264,0,0,0,299.044,114.383Z" transform="translate(-228.387 -102.877)"/><path class="b" d="M306.661,106.68a.406.406,0,0,1,.09.183.955.955,0,0,1-.022.588.918.918,0,0,1-.667.617,1.037,1.037,0,0,1-1.1-.438h.136a2.045,2.045,0,0,1-1.291,1.273,1.869,1.869,0,0,1-1.044.047,2.091,2.091,0,0,1-.954-.549,2.016,2.016,0,0,1-.545-1.015l.151.05a4.326,4.326,0,0,1-2.023.961,4.445,4.445,0,0,1-1.794-.022,3.864,3.864,0,0,1-1.116-.416,1.991,1.991,0,0,1-.269-.172c-.061-.039-.09-.065-.086-.068a5.67,5.67,0,0,0,1.492.538,4.523,4.523,0,0,0,1.74-.022,4.207,4.207,0,0,0,1.933-.94l.118-.1.032.158a1.794,1.794,0,0,0,.5.918,1.9,1.9,0,0,0,.865.5,1.729,1.729,0,0,0,.947-.036,1.9,1.9,0,0,0,1.2-1.155l.05-.154.086.14a.915.915,0,0,0,.943.4.847.847,0,0,0,.613-.531.993.993,0,0,0,.057-.545A1.616,1.616,0,0,1,306.661,106.68Z" transform="translate(-229.293 -101.107)"/><path class="b" d="M307.034,96.26a.205.205,0,0,1,.133.075.492.492,0,0,1,.108.42.646.646,0,0,1-.481.466,1.435,1.435,0,0,1-.857-.082l.1-.111a1.331,1.331,0,0,1-.717,1.611,3.35,3.35,0,0,1-1.481.312,3.386,3.386,0,0,1-1.23-.126,1.3,1.3,0,0,1-.664-.509c-.108-.172-.115-.287-.1-.287s.047.1.161.248a1.356,1.356,0,0,0,.649.423,3.472,3.472,0,0,0,1.18.079,3.275,3.275,0,0,0,1.4-.3,1.186,1.186,0,0,0,.646-1.381l-.079-.179.183.072a1.356,1.356,0,0,0,.764.108.553.553,0,0,0,.42-.359.463.463,0,0,0-.05-.359C307.077,96.292,307.027,96.271,307.034,96.26Z" transform="translate(-232.955 -94.425)"/></g></svg>