<svg xmlns="http://www.w3.org/2000/svg" width="186.097" height="148.772" viewBox="0 0 186.097 148.772"><defs><style>.a{fill:#263238;}.b{fill:#455a64;}.c{fill:#0e7a73;}.d{fill:#f5f5f5;}.e{fill:#e0e0e0;}.f{fill:#fafafa;}.g,.j{opacity:0.3;}.h{fill:#ffbe9d;}.i{fill:#eb996e;}.k,.l{fill:#fff;}.l,.m{opacity:0.6;}.n,.o{opacity:0.4;}.p{opacity:0.2;}</style></defs><g transform="translate(0 143.764)"><path class="a" d="M205.033,451.845c0,.056-41.272.1-92.168.1s-92.176-.056-92.176-.1,41.26-.1,92.176-.1S205.033,451.776,205.033,451.845Z" transform="translate(-20.69 -451.74)"/></g><g transform="translate(0.028 119.189)"><path class="b" d="M36.578,427.127a20.613,20.613,0,0,1-4.47-16.717,33.065,33.065,0,0,1,4.47,16.717" transform="translate(-27.361 -402.447)"/><path class="b" d="M47.166,428.64a30.4,30.4,0,0,1-.912-6.861,7.685,7.685,0,0,1,.551-3.429,7.453,7.453,0,0,1,3.557-3.151,27.621,27.621,0,0,0,4.277-2.259,9.04,9.04,0,0,1-3.344,4.49,6.153,6.153,0,0,0-2.183,1.841c-.571,1.041-.253,2.315-.165,3.5a8.586,8.586,0,0,1-1.781,5.873" transform="translate(-35.995 -403.96)"/><path class="a" d="M27.645,442a12.058,12.058,0,0,0-6.885-6.721A19.762,19.762,0,0,0,27.645,442" transform="translate(-20.76 -417.321)"/><path class="c" d="M450.816,415.28a53.837,53.837,0,0,1,2.544-24.68,45.421,45.421,0,0,1-2.544,24.68" transform="translate(-277.684 -390.6)"/><path class="c" d="M457.664,426.882c.084-6.588,4.622-13.8,10.451-16.882.048,2.1-1.286,3.983-2.757,5.483s-3.171,2.846-4.2,4.683c-1.238,2.231-1.471,5.149-3.5,6.7" transform="translate(-282.047 -402.202)"/><path class="c" d="M437.561,433.742a13.6,13.6,0,0,1-5.607-12.372,88,88,0,0,1,5.607,12.372" transform="translate(-266.635 -409.002)"/><path class="b" d="M346.123,426.613A37.434,37.434,0,0,1,347.9,409.45a31.581,31.581,0,0,1-1.773,17.163" transform="translate(-215.155 -401.873)"/><path class="b" d="M348.51,442.487a15.247,15.247,0,0,1,2.15-4.329,4.383,4.383,0,0,1,3.871-1.752,6.115,6.115,0,0,1,3.393,2.323.355.355,0,0,1,.117.217c0,.153-.173.241-.322.273-1.459.313-2.9-.8-4.381-.631a5.2,5.2,0,0,0-2.508,1.423c-.623.539-1.7,2.046-2.319,2.581" transform="translate(-216.77 -417.972)"/></g><g transform="translate(23.111 50.236)"><path class="c" d="M185.19,245.238c-.535-1.105-1.941-1.564-2.962-1.825a2.733,2.733,0,0,0-1.95.072,2.074,2.074,0,0,0-1,1.966,3.384,3.384,0,0,0,1,2.058,10.26,10.26,0,0,0,1.845,1.423,1.684,1.684,0,0,0-1.306.856,1.061,1.061,0,0,0-.121.836,1.013,1.013,0,0,0,.559.575,2.473,2.473,0,0,0,.8.165,20.873,20.873,0,0,0,6.359-.8,4.857,4.857,0,0,1,.2-1.415,6.35,6.35,0,0,0,0-3.3,3.348,3.348,0,0,0-2.239-2.287,1.162,1.162,0,0,0-1.045.153,1,1,0,0,0-.3.74,2.9,2.9,0,0,0,.153.8" transform="translate(-138.639 -233.535)"/><path class="c" d="M197.094,224.607a2.464,2.464,0,0,0-1.584.181,1.5,1.5,0,0,0-.84,1.294,1.664,1.664,0,0,0,.635,1.206,5.005,5.005,0,0,0,1.206.679l5.057,2.263a18.352,18.352,0,0,0,2.85-3.569,3.114,3.114,0,0,0,.579-2.669,2.067,2.067,0,0,0-2.637-.961,5.824,5.824,0,0,0-1.117-2.6,3.561,3.561,0,0,0-2.412-1.367,2.6,2.6,0,0,0-2.436,1.206,3.308,3.308,0,0,0-.3,2.138,6.237,6.237,0,0,0,.728,2.175" transform="translate(-147.85 -219.054)"/><path class="c" d="M223.941,264.268a13.744,13.744,0,0,1,0-4.389,3.384,3.384,0,0,1,.78-1.628,1.713,1.713,0,0,1,1.652-.531,1.162,1.162,0,0,1,.8,1.411,12.459,12.459,0,0,1,4.148-1.881,1.535,1.535,0,0,1,1.338.117,1.468,1.468,0,0,1,.3,1.359,5.812,5.812,0,0,1-2.09,3.529,1.117,1.117,0,0,1,.937,1.367,1.821,1.821,0,0,1-1.326,1.23,5.37,5.37,0,0,1-1.881.072c-1.632-.133-3.043-.522-4.675-.655" transform="translate(-165.247 -241.84)"/><path class="a" d="M207.734,258.948a.35.35,0,0,1,0-.1c0-.072,0-.161,0-.269,0-.257.044-.607.076-1.045.064-.924.157-2.231.273-3.835s.229-3.549.33-5.7.2-4.5.173-6.974a52.521,52.521,0,0,0-.623-6.942c-.326-2.122-.707-4.02-1.089-5.591s-.768-2.834-1.065-3.69c-.141-.43-.273-.76-.354-.981-.04-.1-.068-.189-.092-.257s-.028-.088-.024-.092l.044.084.109.249c.1.217.241.543.4.969a35.372,35.372,0,0,1,1.134,3.682c.4,1.576.8,3.473,1.133,5.6a50.8,50.8,0,0,1,.643,6.97c.028,2.48-.076,4.843-.189,6.99s-.249,4.072-.378,5.692-.245,2.93-.338,3.835c-.048.438-.088.784-.113,1.041a1.911,1.911,0,0,1-.036.269A.468.468,0,0,1,207.734,258.948Z" transform="translate(-154.229 -221.701)"/><path class="a" d="M224.8,262.66a2.2,2.2,0,0,1-.366.382c-.249.237-.619.567-1.089.957a35.275,35.275,0,0,1-8.1,4.968c-.559.241-1.021.4-1.343.535a2.286,2.286,0,0,1-.506.153,2.9,2.9,0,0,1,.478-.229c.31-.133.76-.334,1.31-.595a43.467,43.467,0,0,0,4.18-2.251,43.954,43.954,0,0,0,3.9-2.7c.482-.374.864-.683,1.126-.9A3.124,3.124,0,0,1,224.8,262.66Z" transform="translate(-159.051 -245.133)"/><path class="a" d="M228.845,258.47a2.018,2.018,0,0,1,0,.446c-.024.33-.056.732-.088,1.206-.084,1.025-.213,2.44-.37,4.019l-.1-.113h.241c1.636.036,3.119.084,4.188.129l1.27.064a2.1,2.1,0,0,1,.466.048,1.986,1.986,0,0,1-.466.032h-1.27c-1.073,0-2.556-.032-4.192-.068h-.354v-.112c.157-1.576.309-2.991.43-4.02.06-.474.113-.88.153-1.206A1.75,1.75,0,0,1,228.845,258.47Z" transform="translate(-167.884 -242.627)"/><path class="a" d="M238.767,262.473a5.118,5.118,0,0,1-1,.157c-.623.072-1.483.157-2.436.237h-.161l.02-.133c.161-.936.318-1.781.442-2.388a5.06,5.06,0,0,1,.241-.977,4.333,4.333,0,0,1-.1,1c-.084.615-.217,1.463-.378,2.412l-.113-.121h.028c.949-.08,1.813-.141,2.44-.173A4.751,4.751,0,0,1,238.767,262.473Z" transform="translate(-172.071 -243.165)"/><path class="c" d="M221.88,243.037a3.2,3.2,0,0,0,.724-2.621,16.493,16.493,0,0,1-.253-2.814,2.533,2.533,0,0,1,.354-1.146,1.463,1.463,0,0,1,.957-.679,1.254,1.254,0,0,1,1.4,1.254,5.314,5.314,0,0,1,2.922-2.038,1.95,1.95,0,0,1,1.527.08,1.88,1.88,0,0,1,.72,1.688,4.112,4.112,0,0,1-1.507,3.059,1.628,1.628,0,0,1,.663,2.118,2.532,2.532,0,0,1-1.962,1.322,12.148,12.148,0,0,1-2.46-.173c-.892-.052-2.227.1-3.043,0" transform="translate(-164.123 -228.516)"/><path class="a" d="M222.986,240.509a2.411,2.411,0,0,1-.253.43c-.173.273-.446.651-.8,1.105a19.036,19.036,0,0,1-7.05,5.495c-.527.233-.961.4-1.266.5a2.363,2.363,0,0,1-.482.141c0-.036.655-.277,1.684-.78a21.424,21.424,0,0,0,7-5.442C222.552,241.076,222.954,240.489,222.986,240.509Z" transform="translate(-158.89 -231.885)"/><path class="a" d="M231.88,243.194a1.779,1.779,0,0,1-.434.036l-1.182.02H226.22v-.113l.024-.289c.129-1.608.141-3.063.121-4.116,0-.494,0-.912-.028-1.25a1.876,1.876,0,0,1,0-.462,2.08,2.08,0,0,1,.072.454c.032.3.068.724.1,1.25a32.031,32.031,0,0,1-.06,4.14,1.175,1.175,0,0,1-.024.293l-.1-.117c1.548.02,2.934.048,3.935.076l1.182.044A1.976,1.976,0,0,1,231.88,243.194Z" transform="translate(-166.718 -229.799)"/><path class="a" d="M236.722,239.459a4.661,4.661,0,0,1-.916.358c-.575.193-1.379.45-2.275.728l-.141.04v-.342c.032-.985.072-1.873.113-2.516a4.857,4.857,0,0,1,.109-1.037,5.393,5.393,0,0,1,.04,1.041c0,.647,0,1.535-.052,2.516v.193l-.133-.1c.9-.273,1.708-.506,2.291-.667a5.224,5.224,0,0,1,.965-.209Z" transform="translate(-171.006 -229.601)"/><path class="c" d="M190.627,274.756l-.579-3.284a5.627,5.627,0,0,0-.655-2.082,1.913,1.913,0,0,0-1.837-.953,1.334,1.334,0,0,0-.993,1.728,4.341,4.341,0,0,0-2.6-1.077,2.322,2.322,0,0,0-2.3,1.077,2.036,2.036,0,0,0,.571,2.287,6.191,6.191,0,0,0,2.183,1.206,4.388,4.388,0,0,0-.8.969,1.491,1.491,0,0,0-.145,1.206,1.431,1.431,0,0,0,.957.824,3.027,3.027,0,0,0,1.3.048,15.683,15.683,0,0,0,4.928-1.829" transform="translate(-139.972 -248.583)"/><path class="a" d="M185.091,244.85a3.388,3.388,0,0,1,0,.8c-.024.506-.072,1.206-.137,2.01v.08h-.08l-.205.036c-.824.149-1.572.269-2.114.35a3.926,3.926,0,0,1-.884.084,3.679,3.679,0,0,1,.86-.229c.535-.117,1.278-.261,2.1-.4l.205-.036-.088.092c.072-.784.141-1.483.2-1.99A3.216,3.216,0,0,1,185.091,244.85Z" transform="translate(-140.075 -234.481)"/><path class="a" d="M187.927,243.83a1.971,1.971,0,0,1,.088.43c.048.326.1.724.173,1.206.137,1,.31,2.412.49,3.955v.1l-.092.02-.173.036c-1.572.326-2.995.607-4.02.8l-1.206.221a2.01,2.01,0,0,1-.458.052,1.884,1.884,0,0,1,.438-.133l1.206-.285c1.025-.229,2.444-.535,4.02-.86l.177-.036-.084.113c-.181-1.552-.33-2.95-.426-3.963-.044-.474-.076-.872-.1-1.206a1.764,1.764,0,0,1-.028-.45Z" transform="translate(-140.709 -233.871)"/><path class="a" d="M196.159,258.508a3.32,3.32,0,0,1-.4-.474c-.253-.305-.627-.744-1.113-1.262a51.082,51.082,0,0,0-4.02-3.822c-1.652-1.411-3.216-2.621-4.361-3.445-.579-.4-1.053-.736-1.387-.957a3.332,3.332,0,0,1-.506-.358,3.283,3.283,0,0,1,.551.285c.346.2.836.506,1.427.908a49.947,49.947,0,0,1,4.421,3.409,42.082,42.082,0,0,1,4.02,3.879c.474.535.828.993,1.065,1.314A3.537,3.537,0,0,1,196.159,258.508Z" transform="translate(-141.69 -236.479)"/><path class="a" d="M196.318,280.42a2.561,2.561,0,0,1-.434-.277l-1.146-.8c-.969-.675-2.331-1.572-3.871-2.508s-2.958-1.753-3.975-2.351l-1.206-.72a2.089,2.089,0,0,1-.426-.289,2.7,2.7,0,0,1,.466.217l1.238.663c1.037.567,2.468,1.363,4.02,2.3s2.9,1.861,3.851,2.568c.474.354.852.647,1.109.856A2.6,2.6,0,0,1,196.318,280.42Z" transform="translate(-142.222 -251.597)"/><path class="a" d="M185.873,270.94a17.69,17.69,0,0,1,.635,2.444v.1l-.1.02-.37.064c-.8.137-1.5.249-2.01.318a3.145,3.145,0,0,1-.844.072,3.451,3.451,0,0,1,.8-.217c.514-.108,1.206-.245,2.01-.382l.37-.06-.084.125A16.637,16.637,0,0,1,185.873,270.94Z" transform="translate(-140.978 -250.084)"/><path class="a" d="M190.613,268.46a1.609,1.609,0,0,1,.109.4c.056.257.129.631.217,1.093.177.925.4,2.207.651,3.618v.076l-.068.032-.109.056c-1.31.675-2.5,1.27-3.372,1.7-.434.209-.784.378-1.029.49a1.744,1.744,0,0,1-.4.157,1.5,1.5,0,0,1,.354-.229c.237-.133.579-.322,1-.551.848-.458,2.03-1.077,3.34-1.749l.109-.056-.052.109c-.241-1.423-.45-2.709-.587-3.642-.072-.466-.125-.84-.157-1.1A1.439,1.439,0,0,1,190.613,268.46Z" transform="translate(-143.03 -248.601)"/><path class="a" d="M203.39,222.79a5.427,5.427,0,0,1-.3,1.021c-.213.623-.519,1.487-.872,2.46l-.04.113-.109-.056-.4-.221c-1-.543-1.909-1.045-2.56-1.419a6.849,6.849,0,0,1-1.029-.639,7.351,7.351,0,0,1,1.1.51c.667.338,1.584.8,2.589,1.363l.4.221-.149.056c.362-.969.691-1.825.937-2.44a6,6,0,0,1,.43-.969Z" transform="translate(-149.889 -221.288)"/><path class="a" d="M204.554,229.77a2.2,2.2,0,0,1-.241.374l-.719.981c-.619.828-1.483,1.966-2.464,3.216l-.04.052h-.068l-.438-.125c-1.64-.462-3.123-.892-4.192-1.206l-1.262-.4a2.456,2.456,0,0,1-.458-.169,1.793,1.793,0,0,1,.478.092l1.282.326c1.081.285,2.568.7,4.208,1.158l.438.125-.113.036c.985-1.266,1.869-2.388,2.516-3.191.305-.37.563-.683.768-.941A1.848,1.848,0,0,1,204.554,229.77Z" transform="translate(-147.85 -225.463)"/><path class="d" d="M106.852,319.357A45.073,45.073,0,0,0,99.617,324a4.423,4.423,0,0,0-1.113,1.129,1.608,1.608,0,0,0-.137,1.523,2.1,2.1,0,0,0,2.1.8,4.587,4.587,0,0,1,2.351.117.981.981,0,0,0-.462,1.608.985.985,0,0,0-1.407.49,5.7,5.7,0,0,0-2.786,10.009l18.634-5.539,3.939-1.121a4.9,4.9,0,0,0,1.065-4.514,6.66,6.66,0,0,0-2.577-3.618c-1.371-1.025-3.079-1.724-3.963-3.187a7.8,7.8,0,0,1-.707-4.265,20.3,20.3,0,0,0-9.169,2.617" transform="translate(-88.908 -277.894)"/><path class="a" d="M115.356,347.006a.476.476,0,0,1-.145.072,3.5,3.5,0,0,1-.4.137,3.942,3.942,0,0,1-1.455.072,4,4,0,0,1-1.379-.47,2.909,2.909,0,0,1-.366-.249c-.08-.064-.125-.1-.121-.108s.189.133.515.305a4.173,4.173,0,0,0,2.814.4C115.135,347.078,115.348,346.994,115.356,347.006Z" transform="translate(-98.104 -295.249)"/><path class="e" d="M112.84,338.951a2.717,2.717,0,0,0,2.6.334c1.318-.507,2.046-1.95,3.276-2.645a1.078,1.078,0,0,1,.884-.153.8.8,0,0,1,.43.864,2.042,2.042,0,0,1-1.1,1.27c-1.334.832-2.3,1.475-3.863,1.339a3.353,3.353,0,0,1-2.235-1.009" transform="translate(-98.912 -289.263)"/><path class="a" d="M122.73,334s-.028.032-.084.084l-.261.217-.957.8L120,336.279a18.556,18.556,0,0,1-1.825,1.347,6,6,0,0,1-2.1.852,4.192,4.192,0,0,1-1.845-.084,3.063,3.063,0,0,1-1.105-.575,1.932,1.932,0,0,1-.241-.237c-.052-.06-.08-.088-.076-.092a3.509,3.509,0,0,0,.338.3,3,3,0,0,0,1.1.547,4.152,4.152,0,0,0,1.817.064,6.086,6.086,0,0,0,2.066-.848,17.181,17.181,0,0,0,1.817-1.335c.535-.43,1.017-.8,1.443-1.158l.973-.776.269-.209Z" transform="translate(-98.893 -287.797)"/><path class="e" d="M111.65,346.7a6.71,6.71,0,0,0,1.692,1.105,3.453,3.453,0,0,0,1.978.261.985.985,0,0,0,.627-.326.442.442,0,0,0-.08-.631c-.193-.109-.434,0-.639.088a3.658,3.658,0,0,1-3.537-.5" transform="translate(-98.2 -295.393)"/><path class="e" d="M108.19,347.91a5.274,5.274,0,0,0,2.6,3.646,6.078,6.078,0,0,0,4.421.478,3.217,3.217,0,0,0,1.174-.531,1.608,1.608,0,0,0,.639-1.089.945.945,0,0,0-.4-.8,7.676,7.676,0,0,1-5.1.892A4.33,4.33,0,0,1,108.19,347.91Z" transform="translate(-96.131 -296.116)"/><path class="a" d="M117.6,349.14a.426.426,0,0,1-.092.056l-.273.153c-.241.125-.591.3-1.033.494a8.842,8.842,0,0,1-3.678.8,5.117,5.117,0,0,1-3.437-1.423,3.478,3.478,0,0,1-.671-.933,2.527,2.527,0,0,1-.161-.4,4.228,4.228,0,0,0,.872,1.278,5.149,5.149,0,0,0,3.4,1.383,8.995,8.995,0,0,0,3.666-.768c.446-.185.8-.35,1.041-.47l.281-.133Z" transform="translate(-96.167 -296.104)"/><path class="e" d="M104.087,327.768c-1.419-.293,1.459-2.516,2.516-3.509a17.409,17.409,0,0,1,3.5-2.444,23.077,23.077,0,0,1,4.02-1.833,4.7,4.7,0,0,1,3.36-.137s-4.618,4.823-6.138,5.8S107.282,328.423,104.087,327.768Z" transform="translate(-93.446 -279.177)"/><path class="c" d="M119.25,319.152a4.57,4.57,0,0,0-2.677-2.315,3.437,3.437,0,0,0-3.437.8,2.7,2.7,0,0,0-.289,3.392,2.327,2.327,0,0,0-2.054,3.244,2.412,2.412,0,0,0-2.223,1.865,8.228,8.228,0,0,0,4.152-1.23,16.483,16.483,0,0,0,2.412-1.688,50.879,50.879,0,0,0,4.116-4.072Z" transform="translate(-96.358 -277.435)"/><path class="a" d="M117.725,318.23l-.137.125-.4.354c-.346.309-.832.768-1.411,1.351l-2.01,2.086a28.692,28.692,0,0,1-2.613,2.412,12.862,12.862,0,0,1-3.043,1.841,8.879,8.879,0,0,1-2.814.675,6.932,6.932,0,0,1-1.949-.149,4.648,4.648,0,0,1-.687-.209.521.521,0,0,1,.177.048,4.108,4.108,0,0,0,.515.129,7.089,7.089,0,0,0,1.941.121,9,9,0,0,0,2.814-.683,13.154,13.154,0,0,0,3.019-1.837,28.546,28.546,0,0,0,2.609-2.412c.768-.776,1.447-1.487,2.034-2.07s1.081-1.033,1.435-1.335Z" transform="translate(-92.823 -278.366)"/><path class="b" d="M149.32,285.654s1.339,8.811,6.765,13.968l.924-.334s-6.628-6.873-6.978-13.7" transform="translate(-120.728 -258.846)"/><path class="a" d="M101.045,246.287a6.455,6.455,0,0,0-1.757,7.878,29.958,29.958,0,0,1,3.573-3.638,9.929,9.929,0,0,1,4.55-2.191c.9-.145,2.046-.281,2.323-1.154a1.383,1.383,0,0,0-.446-1.387,3.1,3.1,0,0,0-1.367-.663,8.57,8.57,0,0,0-7.263,1.475" transform="translate(-90.412 -234.496)"/><path class="b" d="M122.928,256.944c-.615-3.927.161-8.674-.438-12.605a7.139,7.139,0,0,0-2.625-4.361,11.017,11.017,0,0,0-4.7-2.126,3.93,3.93,0,0,0-2.589.117,1.643,1.643,0,0,0-.8,2.2A8.276,8.276,0,0,0,104,242.2c1.893-.953,4.421-.261,6.029,1.154a15.53,15.53,0,0,1,3.421,5.3l8.911,9.072Z" transform="translate(-93.625 -230.2)"/><path class="a" d="M133.447,259.372s-.028-.068-.068-.193-.092-.313-.181-.551c-.161-.478-.426-1.162-.772-1.99-.7-1.664-1.757-3.923-3.031-6.363a20.7,20.7,0,0,0-2.01-3.3,11.524,11.524,0,0,0-2.247-2.207A9.193,9.193,0,0,0,123.3,243.7a4.981,4.981,0,0,0-.539-.213,1.849,1.849,0,0,1-.189-.076l.193.06a5.386,5.386,0,0,1,.547.2,8.9,8.9,0,0,1,1.865,1.045,11.367,11.367,0,0,1,2.271,2.207,20.584,20.584,0,0,1,2.01,3.316c1.27,2.44,2.323,4.7,3.007,6.375.342.836.6,1.519.752,2.01Z" transform="translate(-104.731 -233.62)"/><path class="b" d="M149.76,262a2.409,2.409,0,0,0,2.886,1.081,4.711,4.711,0,0,0,2.464-2.183c.583-.957.993-2.01,1.58-2.974a18.019,18.019,0,0,1,4.546-4.526,11.08,11.08,0,0,1,3.236-2.01,3.735,3.735,0,0,1,3.618.474,2.908,2.908,0,0,0-1.664-2.456,6.834,6.834,0,0,0-3.039-.587,16.393,16.393,0,0,0-8.441,1.933,10.258,10.258,0,0,0-5.089,6.817Z" transform="translate(-120.992 -236.854)"/><path class="a" d="M168.541,251.827s-.064-.064-.177-.193a4.532,4.532,0,0,0-.547-.51A5.084,5.084,0,0,0,165.3,250.1a10.217,10.217,0,0,0-4.02.366,16.789,16.789,0,0,0-4.578,1.974,13.621,13.621,0,0,0-3.674,3.352,12.093,12.093,0,0,0-1.841,3.618,10.7,10.7,0,0,0-.478,2.705c0,.326,0,.579,0,.752v-.752a10.6,10.6,0,0,1,.454-2.721A12.057,12.057,0,0,1,153,255.738a13.589,13.589,0,0,1,3.69-3.376,16.609,16.609,0,0,1,4.554-1.986,10.1,10.1,0,0,1,4.064-.35,5.04,5.04,0,0,1,2.528,1.057A3.874,3.874,0,0,1,168.541,251.827Z" transform="translate(-121.56 -237.536)"/><path class="a" d="M154.871,253.69a.84.84,0,0,1-.1.072,3.415,3.415,0,0,0-.305.2,10.96,10.96,0,0,0-1.049.824,15.758,15.758,0,0,0-1.4,1.4,10.644,10.644,0,0,0-1.407,1.966,5.224,5.224,0,0,0-.442,1.166c-.113.4-.2.772-.265,1.142a15.944,15.944,0,0,0-.217,1.969c-.028.563-.028,1.021-.024,1.335v.494a.654.654,0,0,1,0-.129v-.362c0-.318-.024-.776,0-1.343a15.217,15.217,0,0,1,.2-1.982c.068-.37.153-.752.261-1.146a5.46,5.46,0,0,1,.446-1.186,10.54,10.54,0,0,1,1.427-1.978,14.571,14.571,0,0,1,1.419-1.391,9.609,9.609,0,0,1,1.073-.8A3.552,3.552,0,0,1,154.871,253.69Z" transform="translate(-120.922 -239.768)"/><path class="b" d="M115.363,271.189a8.584,8.584,0,0,0-7.143-3.055,12.777,12.777,0,0,0-7.336,3.039,25.289,25.289,0,0,0-5.165,6.146,19.463,19.463,0,0,0,9.526-.8,59.341,59.341,0,0,1,5.889-2.146c2.038-.466,4.377-.305,5.925,1.1a10.384,10.384,0,0,0-1.761-4.385" transform="translate(-88.673 -248.4)"/><path class="a" d="M117.329,280.21s-.052-.072-.141-.209-.225-.334-.4-.583A9.168,9.168,0,0,0,114.9,277.6a8.984,8.984,0,0,0-3.549-1.527,13.039,13.039,0,0,0-4.739.169,19.439,19.439,0,0,0-4.494,1.608,35.309,35.309,0,0,0-3.392,1.925c-.941.6-1.684,1.105-2.2,1.455l-.591.4c-.137.092-.213.137-.213.137s1.105-.8,2.97-2.042a33.83,33.83,0,0,1,3.392-1.945,19.289,19.289,0,0,1,4.506-1.608,13.052,13.052,0,0,1,4.775-.165,9,9,0,0,1,3.565,1.556,8.881,8.881,0,0,1,1.881,1.841,6.5,6.5,0,0,1,.4.595C117.289,280.133,117.329,280.21,117.329,280.21Z" transform="translate(-88.673 -253.031)"/><path class="a" d="M136.156,275.529s-.028-.177-.1-.49a6.9,6.9,0,0,0-.442-1.286,12.46,12.46,0,0,0-.981-1.769,11.963,11.963,0,0,0-1.539-1.925,6.483,6.483,0,0,0-2.1-1.266,11.676,11.676,0,0,0-1.937-.571,9.286,9.286,0,0,0-1.351-.169h-.5a7.556,7.556,0,0,1,1.865.129,11.656,11.656,0,0,1,1.953.559,6.6,6.6,0,0,1,2.13,1.274,11.492,11.492,0,0,1,1.548,1.949,11.99,11.99,0,0,1,.969,1.785,6.467,6.467,0,0,1,.422,1.3A3.148,3.148,0,0,1,136.156,275.529Z" transform="translate(-107.5 -248.351)"/><path class="b" d="M157.88,296.92a6.262,6.262,0,0,1,1.009-3.875,4.968,4.968,0,0,1,1.941-1.451,15.284,15.284,0,0,1,2.331-.74.671.671,0,0,1,.442,0,.631.631,0,0,1,.285.523,4.128,4.128,0,0,1-2.922,4.542,10.1,10.1,0,0,0-3.087,1.013" transform="translate(-125.848 -261.972)"/><path class="a" d="M164.046,291.48a.245.245,0,0,1-.084.032l-.241.081c-.2.072-.506.177-.868.334a8.787,8.787,0,0,0-2.556,1.652,7.3,7.3,0,0,0-1.728,2.492,7.919,7.919,0,0,0-.293.88c-.052.213-.08.334-.084.33a4.914,4.914,0,0,1,.326-1.23,7.066,7.066,0,0,1,1.724-2.536,8.44,8.44,0,0,1,2.593-1.644,7.641,7.641,0,0,1,.88-.305l.245-.068Z" transform="translate(-126.033 -262.368)"/><path class="a" d="M152.83,317.187l7.211,10.439,8.152-3.585-4.1-12.32Z" transform="translate(-122.828 -274.473)"/><path class="a" d="M149,314.061l13.248-5.881.74,2.042L149.969,315.9l-.792-1.355" transform="translate(-120.537 -272.356)"/><path class="b" d="M164.5,313.26c0,.02-2.886,1.306-6.467,2.866s-6.5,2.814-6.5,2.794,2.886-1.306,6.467-2.87S164.489,313.24,164.5,313.26Z" transform="translate(-122.05 -275.393)"/><path class="f" d="M171.943,328.17c0,.02-2.138,1.033-4.8,2.259s-4.823,2.2-4.823,2.183,2.138-1.033,4.8-2.259S171.935,328.15,171.943,328.17Z" transform="translate(-128.503 -284.31)"/><path class="f" d="M170.928,326c0,.024-2.175,1.049-4.876,2.3s-4.9,2.239-4.912,2.215,2.175-1.045,4.876-2.291S170.919,326,170.928,326Z" transform="translate(-127.797 -283.013)"/><path class="f" d="M169.9,324s-2.243,1.081-5.028,2.364-5.057,2.307-5.065,2.287,2.243-1.077,5.028-2.363S169.895,323.967,169.9,324Z" transform="translate(-127.002 -281.816)"/><circle class="a" cx="11.825" cy="11.825" r="11.825" transform="matrix(0.686, -0.728, 0.728, 0.686, 0, 82.313)"/><circle class="b" cx="6.893" cy="6.893" r="6.893" transform="translate(7.086 83.241) rotate(-51.74)"/><path class="c" d="M152.391,303.5s.374,24.093-2.094,26.489-25.817,16.52-27.566,16.408S90.82,332.328,90.82,332.328Z" transform="translate(-85.743 -269.557)"/><path class="a" d="M186.125,240.49l-11.906,6.926s-13.236,25.034-14.7,27.55a19.8,19.8,0,0,1-5.567,6.206c-2.082,1.608-62.327,37.478-62.327,37.478l1.27,2.171L126.134,300.5s7.561-3.678,13.2,2.323,10.567,10.929,16.006,8.188c6.773-3.413.45-16.279-5.668-23.663,0,0,7.235-4.265,9-6.383a53.378,53.378,0,0,0,5.957-9.434c1.367-2.777,10.68-20.805,11.2-21.553s11.508-7.155,11.508-7.155A16.723,16.723,0,0,0,186.125,240.49ZM154.64,299.979c2.335,6.146,1.455,7.529.864,8.24a4.532,4.532,0,0,1-5.225,1.142c-3.332-1.25-8.441-7.119-9.245-7.934s-4.679-4.506-8.011-3.955l14.639-9.012a45.724,45.724,0,0,1,6.978,11.516Z" transform="translate(-86.227 -231.874)"/><path class="a" d="M85.474,428.883s-1.608,1.415-1.519,1.765.639.35,1.785-.326l1.548,2.179s-3.73,2.472-5.4.989.711-4.136,3.453-6.029Z" transform="translate(-80.066 -343.691)"/><path class="c" d="M86.178,331.084h0a2.412,2.412,0,0,0,2.179.048L149.072,301.6a2.1,2.1,0,0,0,1.142-2.263h0a2.094,2.094,0,0,0-2.97-1.5L86.251,327.362a2.09,2.09,0,0,0-.072,3.722Z" transform="translate(-82.307 -266.046)"/><path class="g" d="M98.09,336.177l58.653-28.527-.008,2.581-56.289,27.027Z" transform="translate(-90.09 -272.039)"/><path class="a" d="M154.433,306.71c.024.052-13.666,6.777-30.548,15.021S93.268,336.6,93.24,336.563s13.666-6.777,30.548-15.021S154.409,306.657,154.433,306.71Z" transform="translate(-87.19 -271.476)"/><path class="b" d="M113.555,402.93a1.012,1.012,0,0,1-.209.145l-.615.378-2.279,1.359-7.537,4.458c-2.938,1.749-5.587,3.352-7.5,4.514l-2.271,1.379-.619.366a1.605,1.605,0,0,1-.225.117.912.912,0,0,1,.2-.153l.6-.4c.523-.342,1.286-.832,2.231-1.431,1.9-1.206,4.534-2.814,7.476-4.57s5.627-3.3,7.569-4.421l2.311-1.3.635-.346A1.342,1.342,0,0,1,113.555,402.93Z" transform="translate(-86.628 -329.021)"/><path class="b" d="M117.019,407.76a1.049,1.049,0,0,1-.2.145l-.611.378-2.251,1.367c-1.9,1.154-4.51,2.769-7.376,4.582l-7.348,4.639-2.239,1.383-.619.366a.879.879,0,0,1-.221.116,1.1,1.1,0,0,1,.2-.153l.595-.4,2.2-1.439c1.865-1.206,4.446-2.878,7.316-4.691s5.495-3.409,7.412-4.534c.961-.559,1.744-1.009,2.287-1.306l.627-.346A1.33,1.33,0,0,1,117.019,407.76Z" transform="translate(-88.93 -331.909)"/><path class="b" d="M91.446,412.717c-.028,0,.141-.338.663-.5a3.451,3.451,0,0,1,2.01.241,5.943,5.943,0,0,1,1.744,1,2.32,2.32,0,0,1,.575.6,9.92,9.92,0,0,0-2.412-1.4,3.581,3.581,0,0,0-1.885-.293A1.909,1.909,0,0,0,91.446,412.717Z" transform="translate(-86.115 -334.531)"/><path class="b" d="M99.591,404.812a11.265,11.265,0,0,0-1.045-.728,9.823,9.823,0,0,0-1.206-.4,1.777,1.777,0,0,1,1.3.225A1.8,1.8,0,0,1,99.591,404.812Z" transform="translate(-89.642 -329.448)"/><path class="b" d="M108.868,401.215a7.812,7.812,0,0,0-3.248-4.345,2.17,2.17,0,0,1,.736.374,6.03,6.03,0,0,1,2.371,3.155A2.166,2.166,0,0,1,108.868,401.215Z" transform="translate(-94.594 -325.397)"/><path class="b" d="M127.15,401.008a7.512,7.512,0,0,0,2.01-4.968,2.167,2.167,0,0,1,.068.8,5.788,5.788,0,0,1-1.463,3.618A2.25,2.25,0,0,1,127.15,401.008Z" transform="translate(-107.47 -324.9)"/><path class="b" d="M122.535,396.34c-.06,0,0-.675-.113-1.487s-.342-1.439-.285-1.463a3.863,3.863,0,0,1,.4,2.95Z" transform="translate(-104.466 -323.315)"/><path class="b" d="M141.728,424.63a1.914,1.914,0,0,1-.7.249,5.854,5.854,0,0,1-1.789.125,5.974,5.974,0,0,1-1.744-.4,1.942,1.942,0,0,1-.651-.362,11.581,11.581,0,0,0,2.412.567,11.753,11.753,0,0,0,2.476-.177Z" transform="translate(-113.265 -341.765)"/><path class="b" d="M145.925,417.24c.036.044-.305.338-.832.462a1.319,1.319,0,0,1-.953-.036,7.38,7.38,0,0,1,.9-.169A8.5,8.5,0,0,1,145.925,417.24Z" transform="translate(-117.63 -337.579)"/><path class="b" d="M134.311,440.126a5.913,5.913,0,0,1-3.421-3.376,15.087,15.087,0,0,0,1.5,1.905A14.51,14.51,0,0,0,134.311,440.126Z" transform="translate(-109.706 -349.247)"/><path class="b" d="M142.782,435.2a4.02,4.02,0,0,1-2.122-1.093,5.2,5.2,0,0,1,1.073.523,5.476,5.476,0,0,1,1.049.571Z" transform="translate(-115.549 -347.668)"/><path class="b" d="M113.252,444.51a1.3,1.3,0,0,1-.4-.591,3.28,3.28,0,0,1-.2-1.716,5.355,5.355,0,0,1,.527-1.636,2.054,2.054,0,0,1,.374-.607,3.132,3.132,0,0,1-.237.667,7.134,7.134,0,0,0-.458,1.608,3.617,3.617,0,0,0,.133,1.632C113.12,444.269,113.281,444.49,113.252,444.51Z" transform="translate(-98.777 -351.167)"/><path class="b" d="M125.472,447.824c0,.024-.153,0-.354-.125a1.986,1.986,0,0,1-.929-1.475c0-.233,0-.374.04-.374a5.478,5.478,0,0,0,.43,1.109A5.554,5.554,0,0,0,125.472,447.824Z" transform="translate(-105.699 -354.689)"/><path class="b" d="M102.48,441.06a5.1,5.1,0,0,1-.583.945,5.631,5.631,0,0,1-.607.929,2.215,2.215,0,0,1,.43-1.041A2.243,2.243,0,0,1,102.48,441.06Z" transform="translate(-92.004 -351.824)"/><path class="b" d="M92.342,424.558a2.471,2.471,0,0,1-.844.157c-.318.04-.595.08-.74.084l.024-.084c.036.064.048.1.036.113s-.052,0-.109-.044l-.06-.04.084-.04a2.379,2.379,0,0,1,.736-.2A1.455,1.455,0,0,1,92.342,424.558Z" transform="translate(-85.641 -341.898)"/><path class="f" d="M102.593,355.61l-.161.088-.466.249-1.72.9-5.692,2.938-3.139,1.608-1.359.711a7.392,7.392,0,0,0-1.154.671,2.042,2.042,0,0,0-.675.84,1.536,1.536,0,0,0-.1.8,1.13,1.13,0,0,0,.318.615.664.664,0,0,1-.133-.129,1.082,1.082,0,0,1-.217-.482,1.608,1.608,0,0,1,.084-.832,2.051,2.051,0,0,1,.683-.868,7.159,7.159,0,0,1,1.158-.691l1.367-.707,3.135-1.608,5.7-2.922,1.732-.876.474-.233A1.343,1.343,0,0,1,102.593,355.61Z" transform="translate(-84.102 -300.721)"/><path class="f" d="M131.228,351.26a10.29,10.29,0,0,1-1.182.591,10.622,10.622,0,0,1-1.206.51,23.885,23.885,0,0,1,2.388-1.1Z" transform="translate(-108.48 -298.12)"/><path class="f" d="M94.275,413.13a8.772,8.772,0,0,1-.482-1.608,10.85,10.85,0,0,1-.221-1.809,11.1,11.1,0,0,1,.748-4.377,10.519,10.519,0,0,1,.8-1.636,8.156,8.156,0,0,1,.989-1.35l-.064.1-.2.265c-.088.113-.193.257-.305.43s-.245.362-.37.591a11.108,11.108,0,0,0-.784,1.632,11.367,11.367,0,0,0-.74,4.349,10.946,10.946,0,0,0,.2,1.8c.04.257.1.482.153.679s.1.37.145.507.068.225.1.322A.515.515,0,0,1,94.275,413.13Z" transform="translate(-87.385 -328.674)"/><path class="f" d="M109.812,404.45c0,.02-5.33,3.276-11.934,7.271s-11.966,7.235-11.978,7.2,5.33-3.276,11.934-7.275S109.8,404.43,109.812,404.45Z" transform="translate(-82.8 -329.93)"/><path class="f" d="M150.2,400.279a1.872,1.872,0,0,1-.615.559,1.914,1.914,0,0,1-.76.334c0-.024.338-.157.715-.4S150.189,400.263,150.2,400.279Z" transform="translate(-120.435 -327.435)"/><path class="a" d="M157.5,376.075a1.507,1.507,0,0,1-.31.149c-.205.089-.51.213-.908.37a29.242,29.242,0,0,1-3.449,1.093c-.374.084-.768.165-1.182.217a4.521,4.521,0,0,1-1.318,0,12.416,12.416,0,0,1-2.737-.892,30.985,30.985,0,0,1-2.814-1.467c-.953-.543-1.937-1.113-2.934-1.712-4-2.392-7.492-4.751-9.976-6.52-1.242-.884-2.231-1.608-2.914-2.138l-.776-.6a1.607,1.607,0,0,1-.261-.221,2.314,2.314,0,0,1,.285.189l.8.571c.7.49,1.7,1.206,2.95,2.078,2.5,1.74,6.009,4.076,10,6.463,1,.6,1.978,1.17,2.926,1.716s1.873,1.057,2.79,1.471a12.643,12.643,0,0,0,2.689.9,6.9,6.9,0,0,0,2.436-.2,32.652,32.652,0,0,0,3.453-1.029l.921-.33A3.312,3.312,0,0,1,157.5,376.075Z" transform="translate(-107.93 -305.948)"/></g><g transform="translate(84.772 0)"><path class="a" d="M324.1,95.359a9.675,9.675,0,0,0-3.887.776c-1.463.651-2.834,2.56-2.488,4.12A5.048,5.048,0,0,0,318.9,102.3a27.668,27.668,0,0,0,2.717,2.814" transform="translate(-283.073 -94.843)"/><path class="h" d="M334.419,105.608a6.246,6.246,0,0,0-6.564-6.11,6.369,6.369,0,0,0-5.925,6.391c0,2.93.036,5.881.2,6.93a5.086,5.086,0,0,0,3.344,4.389,4.144,4.144,0,0,0,.864.084h0a.024.024,0,0,1,.02.024l-.173,3.742a4.153,4.153,0,0,0,4.1,4.365c2.428,0,4.044-2.106,4.06-4.546Z" transform="translate(-285.618 -97.313)"/><path class="a" d="M324.88,118.8a.511.511,0,0,0,.49.515.494.494,0,0,0,.527-.462.514.514,0,0,0-.49-.514.49.49,0,0,0-.527.462Z" transform="translate(-287.382 -108.584)"/><path class="a" d="M324.052,116.485c.064.068.45-.217,1-.217s.949.277,1.009.209-.036-.149-.209-.277a1.4,1.4,0,0,0-.8-.249,1.374,1.374,0,0,0-.8.257C324.08,116.336,324.028,116.456,324.052,116.485Z" transform="translate(-286.883 -107.157)"/><path class="a" d="M338.21,118.8a.51.51,0,0,0,.49.515.49.49,0,0,0,.527-.462.51.51,0,0,0-.49-.514.49.49,0,0,0-.527.462Z" transform="translate(-295.354 -108.584)"/><path class="a" d="M337.45,116.744c.064.064.45-.221,1-.217s.949.273,1.009.205-.036-.149-.213-.277a1.4,1.4,0,0,0-.8-.245,1.323,1.323,0,0,0-.8.253C337.478,116.592,337.422,116.712,337.45,116.744Z" transform="translate(-294.895 -107.312)"/><path class="a" d="M330.421,120.874a3.76,3.76,0,0,0-.892-.161c-.141,0-.273-.04-.3-.137a.716.716,0,0,1,.1-.4c.129-.342.269-.7.4-1.069a18.407,18.407,0,0,0,.929-2.785,18.335,18.335,0,0,0-1.154,2.705l-.4,1.073a.8.8,0,0,0-.072.551.345.345,0,0,0,.229.2.92.92,0,0,0,.237.036A3.617,3.617,0,0,0,330.421,120.874Z" transform="translate(-289.853 -107.378)"/><path class="i" d="M332.911,141.675a8.708,8.708,0,0,0,4.763-1.415s-.836,2.814-4.824,2.412Z" transform="translate(-292.148 -121.696)"/><path class="i" d="M333.009,130.381a.993.993,0,0,1,.888-.37.908.908,0,0,1,.619.334.571.571,0,0,1,.044.655.659.659,0,0,1-.72.181,2.01,2.01,0,0,1-.7-.4.6.6,0,0,1-.157-.161.189.189,0,0,1,0-.205" transform="translate(-292.211 -115.563)"/><path class="a" d="M333.928,128.59c-.088,0-.093.591-.6,1.013s-1.146.358-1.15.442.141.113.4.121a1.487,1.487,0,0,0,.957-.334,1.274,1.274,0,0,0,.466-.848C334.037,128.755,333.969,128.586,333.928,128.59Z" transform="translate(-291.748 -114.716)"/><path class="a" d="M336.846,114.539c.056.149.6.076,1.246.157s1.162.253,1.246.117c.04-.06-.052-.2-.261-.346a2.159,2.159,0,0,0-1.9-.209C336.942,114.35,336.821,114.478,336.846,114.539Z" transform="translate(-294.536 -106.067)"/><path class="a" d="M324.541,113.672c.1.125.474,0,.928,0s.84.084.929-.048c.036-.06-.024-.185-.189-.305a1.29,1.29,0,0,0-.756-.2,1.254,1.254,0,0,0-.74.249C324.553,113.472,324.5,113.612,324.541,113.672Z" transform="translate(-287.171 -105.463)"/><path class="a" d="M353.217,94.732a6.782,6.782,0,0,1,5.961,4.245,9.459,9.459,0,0,1,.229,6.54,18.491,18.491,0,0,1-3.541,5.137A16.318,16.318,0,0,1,353,112.7" transform="translate(-304.199 -94.465)"/><path class="a" d="M341.121,104.419a7.42,7.42,0,0,1-6.383-1.443A8.513,8.513,0,0,1,331.7,96.8c-.02-.486-.064-1.56.4-1.66a2.508,2.508,0,0,1,1.724,0,8.77,8.77,0,0,1,4.735,3.328,9.959,9.959,0,0,1,1.825,5.76" transform="translate(-291.456 -94.621)"/><path class="a" d="M364.991,114.94a2.966,2.966,0,0,1,2.062-3.015,3.682,3.682,0,0,1,3.618.989,4.908,4.908,0,0,1,1.314,3.618,5.041,5.041,0,0,1-1.359,3.32,3.907,3.907,0,0,1-3.336,1.162,4.064,4.064,0,0,1-3.127-3.159,5.74,5.74,0,0,1,1.089-4.466" transform="translate(-310.824 -104.672)"/><path class="c" d="M340.794,109.616c0-2.95-.305-7-1.857-9.374s-3.569-4.852-6.287-5.659a21.923,21.923,0,0,1,7.9-.293,6.539,6.539,0,0,1,2.689,1.089,4.742,4.742,0,0,1,1.664,2.291,9.51,9.51,0,0,1,.1,6.616,9.606,9.606,0,0,1-4.132,5.225" transform="translate(-292.029 -94.075)"/><path class="b" d="M340.25,103.918a1.869,1.869,0,0,1-.462-.072,7.189,7.189,0,0,1-1.206-.378,8.879,8.879,0,0,1-5.334-6.118,7.553,7.553,0,0,1-.209-1.254,1.886,1.886,0,0,1,0-.466c.04,0,.068.659.358,1.68a9.265,9.265,0,0,0,5.245,6.029C339.59,103.757,340.25,103.878,340.25,103.918Z" transform="translate(-292.253 -95.005)"/><path class="b" d="M340.3,101.993a1.044,1.044,0,0,1-.31-.129,8.686,8.686,0,0,1-.8-.446,13.61,13.61,0,0,1-4.253-4.2,8.393,8.393,0,0,1-.45-.8,1.1,1.1,0,0,1-.133-.31c.028,0,.269.4.707,1.017a16.38,16.38,0,0,0,4.217,4.168C339.905,101.727,340.315,101.964,340.3,101.993Z" transform="translate(-293.046 -95.286)"/><path class="b" d="M364.107,118.957c-.028-.024.277-.314.683-.848a8.555,8.555,0,0,0,1.206-2.3,8.276,8.276,0,0,0,.43-2.564c0-.671-.06-1.085-.024-1.089s.044.1.08.285a4.672,4.672,0,0,1,.093.8,7.3,7.3,0,0,1-1.684,4.956,5.3,5.3,0,0,1-.559.579C364.2,118.9,364.115,118.969,364.107,118.957Z" transform="translate(-310.841 -104.89)"/><path class="b" d="M374.988,120.756a5.311,5.311,0,0,0-.567-.744,3.59,3.59,0,0,0-2.01-.929,7.835,7.835,0,0,0-2.263.1,5.449,5.449,0,0,1-.949.125,3.545,3.545,0,0,1,.92-.269,6.7,6.7,0,0,1,2.319-.161,3.465,3.465,0,0,1,2.078,1.033,2.329,2.329,0,0,1,.4.595C374.984,120.66,375,120.752,374.988,120.756Z" transform="translate(-313.888 -108.884)"/><path class="b" d="M374.078,114.028a6.355,6.355,0,0,0-4.5,1.953,1.878,1.878,0,0,1,.462-.595,4.881,4.881,0,0,1,1.511-1.017,5.017,5.017,0,0,1,1.777-.4A1.789,1.789,0,0,1,374.078,114.028Z" transform="translate(-314.115 -105.962)"/><path class="b" d="M372.7,127.24a2.07,2.07,0,0,1-.985.137,3.617,3.617,0,0,1-3.433-2.934,2.041,2.041,0,0,1-.02-.993,7.9,7.9,0,0,0,.165.961,3.718,3.718,0,0,0,3.3,2.814C372.323,127.289,372.7,127.2,372.7,127.24Z" transform="translate(-313.296 -111.643)"/><g class="j" transform="translate(51.484 8.325)"><path class="k" d="M360.811,117.421a2.532,2.532,0,0,1-.728-.434,1.608,1.608,0,0,1-.4-1.206,1.125,1.125,0,0,1,.772-.957c.4-.117,1.154.06,1.178.253A10.148,10.148,0,0,1,360.811,117.421Z" transform="translate(-359.676 -114.787)"/></g><g class="j" transform="translate(48.297 6.047)"><path class="k" d="M352.519,109.2a1.206,1.206,0,1,1-.209.1" transform="translate(-351.745 -109.12)"/></g><g class="j" transform="translate(48.268 1.534)"><path class="k" d="M352.449,97.97a1.206,1.206,0,1,1-.209.1" transform="translate(-351.675 -97.89)"/></g><g class="j" transform="translate(44.405 0.038)"><path class="k" d="M361.993,104.555a9.183,9.183,0,0,0-.523-1.982c-.044-.113-.088-.221-.141-.334a1.061,1.061,0,0,0-.185.052l-.209.1a1.206,1.206,0,0,0,1.057,2.158Z" transform="translate(-352.999 -98.996)"/><path class="k" d="M345,102.848a1.254,1.254,0,0,0-1.548-.635l-.209.1c-.032,0-.056.044-.088.068a18.744,18.744,0,0,1,1.515,1.877A1.266,1.266,0,0,0,345,102.848Z" transform="translate(-342.72 -98.936)"/><path class="k" d="M342.364,94.178a1.206,1.206,0,1,0,2.01.31,1.026,1.026,0,0,0-.2-.289C343.558,94.17,342.963,94.162,342.364,94.178Z" transform="translate(-342.065 -94.17)"/><path class="k" d="M352.224,121.284l-.064.028c.121.76.2,1.523.245,2.267a1.178,1.178,0,0,0,.8-.084,1.21,1.21,0,1,0-.985-2.211Z" transform="translate(-348.102 -110.322)"/></g><path class="c" d="M358.43,130.8a1.688,1.688,0,0,1,1.455-.8,3.175,3.175,0,0,1,1.652.506,5.676,5.676,0,0,1,2.279,2.577,4.3,4.3,0,0,1-2.307.474,3.871,3.871,0,0,1-2.215-.687,2.062,2.062,0,0,1-.824-2.066" transform="translate(-307.446 -115.56)"/><path class="c" d="M356.125,132a1.7,1.7,0,0,1,1.423.872,3.171,3.171,0,0,1,.362,1.688,5.668,5.668,0,0,1-1.129,3.244,4.273,4.273,0,0,1-1.523-1.785,3.883,3.883,0,0,1-.482-2.267,2.066,2.066,0,0,1,1.395-1.732" transform="translate(-305.25 -116.756)"/><path class="a" d="M360.331,135.515a3.99,3.99,0,0,0,.036-.527,2.967,2.967,0,0,0-.265-1.206,2.713,2.713,0,0,0-.772-.981c-.253-.2-.438-.289-.43-.3a.5.5,0,0,1,.133.052,1.857,1.857,0,0,1,.334.2,2.562,2.562,0,0,1,.8,1,2.7,2.7,0,0,1,.245,1.258,2.425,2.425,0,0,1-.048.4A.351.351,0,0,1,360.331,135.515Z" transform="translate(-307.727 -117.055)"/><path class="c" d="M355.608,128.78a1.519,1.519,0,0,0-1.009.631,1,1,0,0,0,.088,1.093,1.1,1.1,0,0,0,1.033.4,1.206,1.206,0,0,0,.888-.679.972.972,0,0,0-.121-1.077.9.9,0,0,0-.571-.265,1.652,1.652,0,0,0-.639.072" transform="translate(-305.083 -114.83)"/><path class="a" d="M355.46,128.76a6.337,6.337,0,0,1-.756.7,6.416,6.416,0,0,1-.8.639,12.358,12.358,0,0,1,1.564-1.338Z" transform="translate(-304.737 -114.818)"/><path class="a" d="M357.168,131.224a1.447,1.447,0,0,0,.084-.88,1.4,1.4,0,0,0-.543-.7.527.527,0,0,1,.249.125,1.142,1.142,0,0,1,.374.555,1.1,1.1,0,0,1-.024.667C357.249,131.147,357.176,131.232,357.168,131.224Z" transform="translate(-306.418 -115.345)"/><path class="a" d="M357.416,130.55a.7.7,0,0,1,0,.378,1.206,1.206,0,0,1-1.335,1.021.752.752,0,0,1-.362-.117,1.63,1.63,0,0,0,.366.056,1.361,1.361,0,0,0,1.33-1.339Z" transform="translate(-305.826 -115.889)"/><path class="a" d="M357.74,135.774a2.536,2.536,0,0,1-.161-.848,2.323,2.323,0,0,1,.064-.856c.024,0,0,.4.02.852S357.764,135.77,357.74,135.774Z" transform="translate(-306.929 -117.994)"/><path class="a" d="M358.575,135.149a2.56,2.56,0,0,1-.366-1.359c.024,0,.068.309.173.683A5.872,5.872,0,0,1,358.575,135.149Z" transform="translate(-307.314 -117.826)"/><path class="a" d="M361.573,132.23c0,.024-.382-.133-.868-.193s-.884,0-.884-.04a1.986,1.986,0,0,1,.9-.044A2.058,2.058,0,0,1,361.573,132.23Z" transform="translate(-308.278 -116.709)"/><g class="j" transform="translate(51.313 15.344)"><path d="M360.6,134.641a1.84,1.84,0,0,0,.438.133.627.627,0,0,0,.442-.088.78.78,0,0,0,.241-.772,1.953,1.953,0,0,0-.832-1.33,2.01,2.01,0,0,0-1.548-.285l-.088.209a1.6,1.6,0,0,1,1.105,1.009A1.885,1.885,0,0,1,360.6,134.641Z" transform="translate(-359.25 -132.25)"/></g><g class="j" transform="translate(49.392 14.165)"><path d="M354.47,130.217a.9.9,0,0,0,.547.715.932.932,0,0,0,1.013-.249,1.017,1.017,0,0,0,.169-1.045.51.51,0,0,0-.265-.3.446.446,0,0,0-.358.024,1.553,1.553,0,0,0-.3.209l-.772.655" transform="translate(-354.47 -129.314)"/></g><path class="a" d="M338.591,127.992a.08.08,0,0,1,.109.072.084.084,0,0,1-.109.072.08.08,0,0,1-.024-.129" transform="translate(-295.554 -114.356)"/><path class="a" d="M373.848,111.207a1.226,1.226,0,0,0-.145-.655,1.294,1.294,0,0,0-.51-.51,1.491,1.491,0,0,0-.864-.169,2.315,2.315,0,0,0-1.447.7,1.117,1.117,0,0,0-.285.607.481.481,0,0,1,0-.189,1.068,1.068,0,0,1,.233-.458,2.283,2.283,0,0,1,1.483-.744,1.559,1.559,0,0,1,.912.185,1.35,1.35,0,0,1,.523.551,1,1,0,0,1,.121.5A.505.505,0,0,1,373.848,111.207Z" transform="translate(-314.717 -103.467)"/><path class="a" d="M318.564,103.445a1.45,1.45,0,0,1-.4-.06,2.106,2.106,0,0,1-.953-.571,2.411,2.411,0,0,1-.683-1.487,3.3,3.3,0,0,1,.47-1.958,4.8,4.8,0,0,1,1.407-1.447,8.177,8.177,0,0,1,1.459-.776c.434-.185.8-.309,1.041-.4l.289-.1a.467.467,0,0,1,.1-.028.592.592,0,0,1-.1.044l-.281.109c-.245.1-.6.229-1.029.4a8.438,8.438,0,0,0-1.439.8,4.734,4.734,0,0,0-1.379,1.427,3.26,3.26,0,0,0-.466,1.905,2.372,2.372,0,0,0,.651,1.455,2.167,2.167,0,0,0,.92.583A3.664,3.664,0,0,0,318.564,103.445Z" transform="translate(-282.381 -95.597)"/><path class="a" d="M337.322,105.021a2.839,2.839,0,0,1-.4.084,4.546,4.546,0,0,1-1.105,0,4.675,4.675,0,0,1-4.261-5.057,4.32,4.32,0,0,1,.213-1.085,2.618,2.618,0,0,1,.149-.374s-.044.137-.121.4a4.917,4.917,0,0,0-.181,1.077,4.763,4.763,0,0,0,5.3,5C337.182,105.041,337.322,105.013,337.322,105.021Z" transform="translate(-291.363 -96.775)"/><path class="c" d="M396.939,415.064l-3.063-4-.161-.209-5.225,3.879,4.824,5.306-.173,5.37c-2.693.7-3.1,2.042-3.1,2.042h5.591l5.077-9.788Z" transform="translate(-325.424 -283.528)"/><path class="l" d="M403.068,426.975l-5.077,9.78-5.591.008.627-.84,4.546-.257,4.691-9.245Z" transform="translate(-327.762 -292.833)"/><path class="a" d="M400.172,440.468c.04.06.366-.125.8-.113s.752.193.8.137-.261-.378-.8-.382S400.119,440.4,400.172,440.468Z" transform="translate(-332.407 -301.02)"/><path class="a" d="M400.384,436.686c.056.04.305-.289.752-.378s.8.117.84.056-.048-.117-.205-.2a1.006,1.006,0,0,0-.683-.1,1.026,1.026,0,0,0-.595.354C400.38,436.557,400.356,436.67,400.384,436.686Z" transform="translate(-332.531 -298.589)"/><path class="a" d="M400.287,432.318c.06.032.253-.29.639-.426s.74,0,.768-.072-.056-.1-.209-.161a.961.961,0,0,0-1.137.4C400.263,432.2,400.259,432.306,400.287,432.318Z" transform="translate(-332.469 -295.933)"/><path class="a" d="M396.548,428.717c.068.02.225-.3.571-.523s.7-.257.7-.33-.4-.157-.836.125S396.484,428.709,396.548,428.717Z" transform="translate(-330.23 -293.655)"/><path class="a" d="M394.275,423.915a2.858,2.858,0,0,0,.486-.587l.474-.671a1.8,1.8,0,0,0,.257-.45.45.45,0,0,0-.036-.342.354.354,0,0,0-.338-.177,1.018,1.018,0,0,0-.519.273,1.909,1.909,0,0,0-.342.4,1.889,1.889,0,0,0-.293.8,1.045,1.045,0,0,0,.129.764,6.576,6.576,0,0,1,.044-.736,1.953,1.953,0,0,1,.31-.707,1.679,1.679,0,0,1,.305-.33.907.907,0,0,1,.4-.213.1.1,0,0,1,.1.052.205.205,0,0,1,0,.157,1.669,1.669,0,0,1-.217.4l-.426.7a2.355,2.355,0,0,0-.342.655Z" transform="translate(-328.684 -290.003)"/><path class="a" d="M391.232,426.034c.024,0,0-.293-.3-.631a1.4,1.4,0,0,0-1.66-.3.273.273,0,0,0-.084.2.293.293,0,0,0,.068.177.855.855,0,0,0,.2.177,2.847,2.847,0,0,0,.4.225,2.415,2.415,0,0,0,.736.2,1.206,1.206,0,0,0,.691-.064c0-.04-.265-.02-.663-.109a2.854,2.854,0,0,1-.667-.237,2.8,2.8,0,0,1-.354-.217.8.8,0,0,1-.145-.125c-.024-.052,0-.036,0-.052a.431.431,0,0,1,.161-.06,1.221,1.221,0,0,1,.209-.032,1.591,1.591,0,0,1,.4.028,1.4,1.4,0,0,1,.607.305C391.123,425.777,391.2,426.051,391.232,426.034Z" transform="translate(-325.842 -291.957)"/><circle class="l" cx="0.663" cy="0.663" r="0.663" transform="translate(70.848 133.309)"/><path class="g" d="M389.73,415.722,390.8,416.9l4.514-4.47-.627-.82Z" transform="translate(-326.165 -283.976)"/><path class="c" d="M275.552,421.42l-1.274,7.348s-7.9,1.174-8.268,2.508l14.161,2.982,2.456-11.367Z" transform="translate(-252.175 -289.843)"/><g class="m" transform="translate(25.807 139.162)"><path class="k" d="M296.6,440.363a.6.6,0,0,1,.261.744.567.567,0,0,1-.736.265.623.623,0,0,1-.273-.8.591.591,0,0,1,.8-.193" transform="translate(-295.794 -440.291)"/></g><path class="l" d="M280.171,448.031l.245-1.134-13.694-2.448s-.687.141-.712.6Z" transform="translate(-252.175 -303.616)"/><path class="a" d="M286,439.354c0,.072.33.177.623.47s.4.623.482.607.048-.434-.314-.784S286,439.289,286,439.354Z" transform="translate(-264.13 -300.549)"/><path class="a" d="M282,440.125c-.032.064.245.245.4.587s.173.667.245.679.193-.374-.028-.8S282.02,440.065,282,440.125Z" transform="translate(-261.734 -301.02)"/><path class="a" d="M278.546,442.193c.06.028.229-.3.129-.711s-.4-.635-.43-.583.117.293.193.639S278.478,442.173,278.546,442.193Z" transform="translate(-259.49 -301.488)"/><path class="a" d="M287.228,435.119c0,.068.354.04.736.149s.667.3.715.245-.193-.362-.651-.482S287.2,435.055,287.228,435.119Z" transform="translate(-264.864 -297.955)"/><path class="g" d="M288.779,425.04l-.229,1.31,6.974,1.4.257-1.17Z" transform="translate(-265.655 -292.008)"/><path class="a" d="M287.94,430.476a1.345,1.345,0,0,0,.707.145,3.373,3.373,0,0,0,.8-.068,3.539,3.539,0,0,0,.45-.133.831.831,0,0,0,.249-.121.3.3,0,0,0,.108-.362.378.378,0,0,0-.269-.221.945.945,0,0,0-.273-.02,2.506,2.506,0,0,0-.47.06,2.451,2.451,0,0,0-.744.289c-.4.237-.563.47-.539.49s.229-.157.619-.338a2.88,2.88,0,0,1,.707-.221,2.477,2.477,0,0,1,.434-.04c.157,0,.285,0,.309.093s0,.04-.032.076a.8.8,0,0,1-.185.089,3.625,3.625,0,0,1-.4.137,4.014,4.014,0,0,1-.744.117A5.324,5.324,0,0,0,287.94,430.476Z" transform="translate(-265.29 -294.791)"/><path class="a" d="M287.16,428.4a1.206,1.206,0,0,0,.33-.647,2.345,2.345,0,0,0,.068-.8,2.555,2.555,0,0,0-.093-.47.6.6,0,0,0-.374-.454.342.342,0,0,0-.338.137.852.852,0,0,0-.129.245,1.611,1.611,0,0,0-.1.478,1.661,1.661,0,0,0,.149.8c.2.426.47.567.478.547a2.924,2.924,0,0,1-.318-.611,1.671,1.671,0,0,1-.084-.715,1.365,1.365,0,0,1,.1-.4c.052-.145.133-.257.189-.229a.509.509,0,0,1,.2.285,2.354,2.354,0,0,1,.1.422,2.763,2.763,0,0,1,0,.736C287.252,428.132,287.116,428.377,287.16,428.4Z" transform="translate(-264.441 -292.592)"/><path class="a" d="M296.714,241.943s-5.668,17.284-10.33,37.353c-2.319,9.993-3.65,27.224-4.052,33.049a2.307,2.307,0,0,0,1.813,2.412l9.181,2.01a2.882,2.882,0,0,0,3.473-2.412l3.694-26.259,5.676-17.212a28.611,28.611,0,0,1,8.152-12.348,27.083,27.083,0,0,0,4.47-9.366,23.969,23.969,0,0,0,.4-8.2h0Z" transform="translate(-261.933 -181.925)"/><path class="a" d="M319.15,245.147l3.256,38.362c.446,3.69,1.712,7.778,4.212,10.527L343,315.01a2.343,2.343,0,0,0,3.409.305l8.324-7.444a1.962,1.962,0,0,0,.245-2.665l-19.438-25.158,3.457-38.338-19.462,3.332" transform="translate(-283.955 -182.368)"/><path class="b" d="M356.153,336.329a20.742,20.742,0,0,0-1.608,1.318,15.455,15.455,0,0,0-1.23,1.66,3.45,3.45,0,0,1,1.045-1.833A3.7,3.7,0,0,1,356.153,336.329Z" transform="translate(-304.382 -238.95)"/><path class="b" d="M354.822,336.755a12.447,12.447,0,0,1-1.636.141,10.711,10.711,0,0,1-1.636.177,3.552,3.552,0,0,1,1.608-.434A3.593,3.593,0,0,1,354.822,336.755Z" transform="translate(-303.332 -239.11)"/><path class="b" d="M345.511,262.55a3.21,3.21,0,0,1-.068.434c-.032.149-.064.326-.1.527s-.125.438-.2.7a16.574,16.574,0,0,1-2.058,4.172c-1.085,1.648-2.593,3.445-4.2,5.483a33.761,33.761,0,0,0-2.331,3.316,40.346,40.346,0,0,0-2.03,3.851c-1.25,2.713-2.259,5.386-3.115,7.834s-1.568,4.671-2.171,6.54-1.077,3.356-1.423,4.421c-.169.5-.305.9-.4,1.206a3.047,3.047,0,0,1-.161.4,2.67,2.67,0,0,1,.108-.43l.358-1.206c.326-1.077.78-2.593,1.343-4.454s1.274-4.108,2.118-6.564,1.849-5.137,3.1-7.866a39.606,39.606,0,0,1,2.054-3.875,32.6,32.6,0,0,1,2.359-3.332c1.608-2.034,3.135-3.806,4.228-5.43a17.129,17.129,0,0,0,2.114-4.1c.084-.257.169-.486.225-.691l.129-.518A2.535,2.535,0,0,1,345.511,262.55Z" transform="translate(-288.799 -194.831)"/><path class="b" d="M297.48,415.319a3.457,3.457,0,0,1-.575-.068l-1.552-.265c-1.306-.229-3.111-.559-5.1-.941s-3.79-.736-5.089-1l-1.54-.33a3.488,3.488,0,0,1-.559-.145,2.731,2.731,0,0,1,.575.064l1.548.265c1.31.229,3.111.563,5.1.941s3.786.736,5.089,1l1.535.33A2.7,2.7,0,0,1,297.48,415.319Z" transform="translate(-262.378 -284.55)"/><path class="b" d="M311.652,411.57a3.115,3.115,0,0,1-1.178,2.6c-.048-.044.4-.522.716-1.242S311.588,411.566,311.652,411.57Z" transform="translate(-278.765 -283.952)"/><path class="b" d="M306.881,414.389c.056,0,.068.245.024.531s-.1.519-.181.519-.068-.249-.024-.535S306.821,414.377,306.881,414.389Z" transform="translate(-276.49 -285.638)"/><path class="b" d="M386,393.25a2.9,2.9,0,0,1-.438.43l-1.25,1.1c-1.061.924-2.536,2.191-4.176,3.581S377,401,375.915,401.9l-1.294,1.053a3.36,3.36,0,0,1-.49.362,3.34,3.34,0,0,1,.438-.426l1.25-1.1c1.061-.924,2.536-2.191,4.176-3.581s3.131-2.637,4.216-3.533l1.294-1.053A4.211,4.211,0,0,1,386,393.25Z" transform="translate(-316.836 -272.996)"/><path class="b" d="M389.93,395.37a2.677,2.677,0,0,1,1.379,2.609,4.754,4.754,0,0,0-1.379-2.609Z" transform="translate(-326.285 -274.264)"/><path class="b" d="M393.856,395.26c.02,0,.125.108.209.346a2.009,2.009,0,0,1,.088.973,1.969,1.969,0,0,1-.378.9c-.157.2-.289.286-.305.265a2.915,2.915,0,0,0,.4-2.484Z" transform="translate(-328.402 -274.198)"/><path class="h" d="M243.468,215.81l-3.272,1.684-5.627,2.785a1.684,1.684,0,0,0-.9.752l-2.074,3.646h3.967l1.057-1.777a3.408,3.408,0,0,0,3.8-1.065l5.76-2.01Z" transform="translate(-231.59 -166.878)"/><path class="h" d="M242.737,231.011a22.36,22.36,0,0,0-.627,4.285c0,.185,0,.4.161.5s.4-.177.535-.342c.257-.3,1.206-1.937,1.206-1.937a2.729,2.729,0,0,0,2.476-2.649" transform="translate(-237.882 -175.885)"/><path class="i" d="M246.3,230.87a.78.78,0,0,1,0,.3,2.413,2.413,0,0,1-.2.8,2.65,2.65,0,0,1-.768,1.013,2.958,2.958,0,0,1-1.5.631l.072-.048c-.3.523-.635,1.089-1.013,1.672-.06.084-.117.169-.185.253a2.693,2.693,0,0,1-.2.233.571.571,0,0,1-.3.193.326.326,0,0,1-.334-.2,1.206,1.206,0,0,1-.048-.611c0-.185.024-.366.04-.547a18.58,18.58,0,0,1,.253-1.869c.1-.527.2-.949.277-1.238a2.042,2.042,0,0,1,.145-.446,1.932,1.932,0,0,1-.068.462c-.052.293-.133.719-.209,1.246s-.157,1.158-.205,1.861l-.036.543a1.207,1.207,0,0,0,.032.506c.032.064.088.1.121.088a.4.4,0,0,0,.185-.129l.189-.225c.056-.068.113-.157.169-.237.374-.571.711-1.142,1.021-1.656l.024-.044h.048a2.87,2.87,0,0,0,1.419-.563,2.674,2.674,0,0,0,.764-.937A4.163,4.163,0,0,0,246.3,230.87Z" transform="translate(-237.698 -175.885)"/><path class="c" d="M285.736,153.321l9.349-.181c5.153.265,7.143,2.986,7.143,2.986l-2.167,12.336-1.5,6.572,4.345,16.8-21.617-.519.145-12.887s-.707-2.6-1.395-5.893c-.9,1.913-1.962,3.7-2.93,4.12-1.455.639-18.659,7.159-18.659,7.159l-2.267-5.31,17.111-8.594,6.266-11.785h0a9.646,9.646,0,0,1,6.174-4.823" transform="translate(-246.296 -129.399)"/><path class="n" d="M365.63,234.864l1.138-.764.527,2.026Z" transform="translate(-311.752 -177.817)"/><path class="c" d="M329.71,149.966l.744-2.2.438-.233,1.419,1.744,1.937-1.744h4.823l.5,2.436-6.745.9Z" transform="translate(-290.271 -126.044)"/><path class="a" d="M336.18,150.092a2.88,2.88,0,0,1,.523-.346c.342-.205.836-.494,1.431-.836a.08.08,0,0,1,.117.032.044.044,0,0,1,0,.028c.133.84.289,1.821.454,2.87.02.137.04.269.06.4l-.141-.08c1.258-.466,2.388-.876,3.216-1.158.4-.145.736-.253.965-.33a1.377,1.377,0,0,1,.362-.092,1.487,1.487,0,0,1-.334.169l-.945.4c-.8.318-1.921.748-3.175,1.206a.108.108,0,0,1-.137-.06s0,0,0-.024c-.02-.125-.04-.257-.06-.4-.153-1.053-.3-2.034-.422-2.874l.129.064c-.607.326-1.109.591-1.467.772A2.712,2.712,0,0,1,336.18,150.092Z" transform="translate(-294.14 -126.861)"/><path class="a" d="M329.71,150.764a8.937,8.937,0,0,1,.571,1.435h-.169c.112-.49.253-1.077.4-1.7.145-.563.281-1.085.4-1.564h0a.093.093,0,0,1,.109-.068.165.165,0,0,1,.044.028,9.715,9.715,0,0,1,1.117,1.254,9.854,9.854,0,0,1-1.246-1.126l.153-.044-.382,1.568c-.157.627-.306,1.206-.438,1.7h0a.093.093,0,0,1-.109.06.1.1,0,0,1-.064-.06A8.862,8.862,0,0,1,329.71,150.764Z" transform="translate(-290.271 -126.842)"/><path class="a" d="M334.379,164.746c0-.024.133-.109.33.02a.374.374,0,0,1,.165.358.446.446,0,0,1-.317.374.438.438,0,0,1-.458-.177.4.4,0,0,1-.028-.4c.116-.2.285-.2.281-.173a.624.624,0,0,0-.141.229.241.241,0,0,0,.04.225.273.273,0,0,0,.253.092.265.265,0,0,0,.177-.2.237.237,0,0,0-.068-.217C334.507,164.766,334.383,164.774,334.379,164.746Z" transform="translate(-292.853 -136.31)"/><path class="a" d="M332.869,174.57c0-.024.133-.109.33,0a.4.4,0,0,1,.165.362.442.442,0,0,1-.322.374.434.434,0,0,1-.454-.177.4.4,0,0,1-.028-.4c.117-.2.285-.2.281-.173a.667.667,0,0,0-.145.229.257.257,0,0,0,.044.225.238.238,0,0,0,.43-.108.233.233,0,0,0-.056-.189C333,174.59,332.873,174.6,332.869,174.57Z" transform="translate(-291.95 -142.182)"/><path class="a" d="M331.912,183.6a.285.285,0,0,1,.33.02.4.4,0,0,1,.165.362.422.422,0,0,1-.776.193.4.4,0,0,1-.024-.4c.113-.205.285-.2.281-.173a.608.608,0,0,0-.145.229.233.233,0,0,0,.044.225.253.253,0,0,0,.249.088.265.265,0,0,0,.181-.2.245.245,0,0,0-.076-.209C332.041,183.623,331.916,183.631,331.912,183.6Z" transform="translate(-291.379 -147.59)"/><path class="a" d="M335.959,155.826a.278.278,0,0,1,.33.02.4.4,0,0,1,.165.362.446.446,0,0,1-.322.374.438.438,0,0,1-.454-.181.4.4,0,0,1-.028-.4c.117-.205.285-.2.281-.173s-.1.076-.145.229a.245.245,0,0,0,.044.225.273.273,0,0,0,.253.088.261.261,0,0,0,.177-.2.245.245,0,0,0-.068-.221C336.083,155.846,335.963,155.871,335.959,155.826Z" transform="translate(-293.798 -130.98)"/><path class="f" d="M335.85,154.37c0,.024-.892.044-1.99.044a16.43,16.43,0,0,1-2.01-.044,16.743,16.743,0,0,1,2.01-.04C334.977,154.33,335.85,154.35,335.85,154.37Z" transform="translate(-291.55 -130.11)"/><path class="f" d="M346.557,149.5c0,.024-1.041.322-2.343.667s-2.36.607-2.364.587,1.041-.322,2.343-.667S346.553,149.478,346.557,149.5Z" transform="translate(-297.531 -127.22)"/><path class="f" d="M331.249,151.579a1.8,1.8,0,0,1-.281-.265c-.137-.161-.241-.31-.221-.326s.145.1.281.269A1.653,1.653,0,0,1,331.249,151.579Z" transform="translate(-290.889 -128.111)"/><g class="j" transform="translate(49.131 34.164)"><path d="M355.546,182.518c.4,1.234,1.885,5.929,1.885,5.929l-.478,2.094.559,2.167-2.737,1.986c-1.206-1.849-1.017-6.4-.764-8.441.366-3.019.4-4.852.522-7.183C354.537,179.042,355.385,182.012,355.546,182.518Z" transform="translate(-353.822 -179.07)"/></g><path class="a" d="M329.15,166.829a2.856,2.856,0,0,1-.08-.595,12.44,12.44,0,0,1,0-1.64,30.623,30.623,0,0,1,.9-5.326c.478-2.054.924-3.907,1.254-5.225.165-.643.3-1.174.4-1.608a3.668,3.668,0,0,1,.177-.575,2.983,2.983,0,0,1-.1.595c-.089.4-.2.953-.338,1.608-.293,1.347-.715,3.216-1.206,5.262a35.731,35.731,0,0,0-.961,5.286c-.052.687-.06,1.242-.052,1.628A3.244,3.244,0,0,1,329.15,166.829Z" transform="translate(-289.871 -128.633)"/><path class="a" d="M314.24,214.277s-1-23.209-.772-24.181,15.242-1.387,15.274-.8.241,14.173,1.347,16.05,7.717,4.574,7.717,4.574.109,3.618.04,4.944c-.036.691-10.636,3.714-10.636,3.714Z" transform="translate(-280.536 -150.859)"/><path class="b" d="M327.335,200.737a2.36,2.36,0,0,1-.289.249,3.035,3.035,0,0,1-.37.257,5.158,5.158,0,0,1-.514.3,8.184,8.184,0,0,1-1.435.595,8.8,8.8,0,0,1-3.77.314,8.062,8.062,0,0,1-1.515-.35,5.74,5.74,0,0,1-.559-.209,3.571,3.571,0,0,1-.4-.193,1.416,1.416,0,0,1-.33-.2c.02-.036.5.213,1.339.458a9.3,9.3,0,0,0,5.185-.008,9.217,9.217,0,0,0,1.423-.543C326.88,201.034,327.335,200.7,327.335,200.737Z" transform="translate(-283.357 -157.862)"/><path class="b" d="M327.413,203.818a1.48,1.48,0,0,1-.277.3,7.9,7.9,0,0,1-.84.7c-.2.129-.4.273-.639.4a8.762,8.762,0,0,1-.78.4,6.666,6.666,0,0,1-1.929.543,6.006,6.006,0,0,1-2.01-.084,5.631,5.631,0,0,1-1.527-.583,3.681,3.681,0,0,1-.531-.338,2.7,2.7,0,0,1-.374-.289,1.487,1.487,0,0,1-.285-.285c.028-.036.446.366,1.258.78a5.816,5.816,0,0,0,1.5.527,6.053,6.053,0,0,0,1.937.064,6.8,6.8,0,0,0,1.881-.51c.281-.1.527-.253.768-.37s.446-.265.643-.382C326.975,204.184,327.377,203.79,327.413,203.818Z" transform="translate(-283.399 -159.706)"/><path class="b" d="M326.221,212.071a.671.671,0,0,1-.137.084,2.914,2.914,0,0,1-.4.185,5.224,5.224,0,0,1-1.648.33,5.787,5.787,0,0,1-2.456-.4,5.547,5.547,0,0,1-2.412-1.873,8.189,8.189,0,0,1-1.29-2.765,13.767,13.767,0,0,1-.4-2.456c-.056-.7-.068-1.278-.076-1.672a3.153,3.153,0,0,1,0-.611,3.316,3.316,0,0,1,.064.607c.032.4.068.965.141,1.664a15.156,15.156,0,0,0,.434,2.412,8.179,8.179,0,0,0,1.274,2.693,5.406,5.406,0,0,0,2.307,1.817,5.884,5.884,0,0,0,2.38.454,5.765,5.765,0,0,0,1.608-.261C326.016,212.147,326.213,212.054,326.221,212.071Z" transform="translate(-282.898 -159.151)"/><path class="c" d="M338.132,163.547c.33-4.421,4.1-8.767,6.873-4.229,2.528,4.136,6.3,14.76,6.753,21.4.209,3.1-19.9,14.752-21.147,15.471a2.523,2.523,0,0,1-.281-.454l-3.77-5.27c0-.032,1.25-.864,1.278-.884l14.47-10.628a.076.076,0,0,0,.024-.084c-.309-.832-4.393-11.87-4.208-15.2C338.128,163.627,338.128,163.587,338.132,163.547Z" transform="translate(-288.387 -131.943)"/><path class="a" d="M369.683,211.337c-.04.076-.84-.314-1.9-.5s-1.949-.1-1.961-.189a3.344,3.344,0,0,1,2.01-.1A3.566,3.566,0,0,1,369.683,211.337Z" transform="translate(-311.866 -163.683)"/><path class="a" d="M368.909,212.847c-.076.044-.507-.6-1.266-1.138s-1.5-.756-1.483-.84a2.373,2.373,0,0,1,1.652.6A2.734,2.734,0,0,1,368.909,212.847Z" transform="translate(-312.069 -163.907)"/><path class="a" d="M326.56,203.52a2.063,2.063,0,0,1,.257-.213l.764-.587,2.814-2.118,9.366-6.922,2.5-1.837-.036.117c-1.17-3.618-2.2-6.785-2.938-9.076-.358-1.121-.643-2.01-.848-2.677q-.137-.45-.217-.724a1.232,1.232,0,0,1-.064-.253,1.5,1.5,0,0,1,.1.241c.06.181.145.4.249.711.221.643.527,1.543.9,2.661.76,2.283,1.813,5.446,3.007,9.048a.1.1,0,0,1-.036.117l-2.5,1.841-9.4,6.873-2.862,2.066-.8.551A1.667,1.667,0,0,1,326.56,203.52Z" transform="translate(-288.387 -145.002)"/><path class="f" d="M338.055,168.58c0,.024-5.684.04-12.7.04s-12.7,0-12.7-.04,5.684-.04,12.7-.04S338.055,168.556,338.055,168.58Z" transform="translate(-280.074 -138.609)"/><path class="f" d="M336.651,177.75c0,.024-6.488.044-14.47.044s-14.47,0-14.47-.044,6.483-.04,14.47-.04S336.651,177.73,336.651,177.75Z" transform="translate(-277.113 -144.093)"/><path class="f" d="M335.221,186.48c0,.024-7.155.1-15.982.177s-15.99.117-15.99.1,7.159-.1,15.986-.181S335.221,186.456,335.221,186.48Z" transform="translate(-274.446 -149.333)"/><path class="f" d="M339.11,161.5c0,.024-4.956.052-11.07.064s-11.07,0-11.07-.024,4.956-.048,11.07-.06S339.11,161.483,339.11,161.5Z" transform="translate(-282.651 -134.385)"/><path class="f" d="M365.2,196.52c0,.024-3.107.044-6.938.044s-6.942-.02-6.942-.044,3.107-.04,6.942-.04S365.2,196.5,365.2,196.52Z" transform="translate(-303.195 -155.318)"/><path class="f" d="M373.953,206.434c0,.02-2.086.04-4.659.04s-4.655,0-4.655-.04,2.082-.044,4.655-.044S373.953,206.41,373.953,206.434Z" transform="translate(-311.16 -161.245)"/><path class="f" d="M370.068,218.084a.782.782,0,0,1-.028-.084c-.024-.072-.048-.153-.072-.233-.056-.209-.153-.5-.285-.86a11.034,11.034,0,0,0-3.481-4.763c-.3-.233-.551-.4-.727-.535l-.205-.137a.487.487,0,0,1-.068-.052.147.147,0,0,1,.076.036l.213.129a7.155,7.155,0,0,1,.748.514,10.508,10.508,0,0,1,2.1,2.138,10.64,10.64,0,0,1,1.4,2.649c.125.362.213.659.261.868l.056.241A.239.239,0,0,1,370.068,218.084Z" transform="translate(-311.495 -164.253)"/><path class="f" d="M359.6,225.737s-1.061-1.419-2.331-3.216-2.283-3.236-2.263-3.252,1.061,1.423,2.331,3.216S359.624,225.725,359.6,225.737Z" transform="translate(-305.401 -168.947)"/><path class="f" d="M348.522,233.386c-.02,0-.981-1.363-2.151-3.079s-2.1-3.111-2.082-3.127.981,1.367,2.15,3.083S348.542,233.374,348.522,233.386Z" transform="translate(-298.99 -173.678)"/><path class="f" d="M338.736,239.774s-.9-1.206-1.958-2.713-1.909-2.745-1.889-2.761.892,1.206,1.958,2.713S338.752,239.758,338.736,239.774Z" transform="translate(-293.368 -177.936)"/><path class="f" d="M374.571,213.753l-.076-.08-.2-.193c-.173-.169-.43-.4-.756-.7a12.141,12.141,0,0,0-2.79-1.9,7.275,7.275,0,0,0-3.268-.732,5.758,5.758,0,0,0-1.017.121c-.237.048-.37.084-.37.076a4.424,4.424,0,0,1,1.383-.253,7.07,7.07,0,0,1,3.308.712,11.714,11.714,0,0,1,2.794,1.933c.322.293.571.543.74.715l.193.205A.492.492,0,0,1,374.571,213.753Z" transform="translate(-312.028 -163.459)"/><path class="f" d="M305.314,194.75c0,.02-1.206-.4-2.661-.973s-2.641-1.025-2.633-1.049,1.206.4,2.661.973S305.322,194.726,305.314,194.75Z" transform="translate(-272.514 -153.074)"/><path class="f" d="M303.909,200.329s-1.178-1.154-2.593-2.617-2.556-2.657-2.536-2.673,1.178,1.154,2.6,2.617S303.929,200.313,303.909,200.329Z" transform="translate(-271.773 -154.457)"/><path class="f" d="M296.049,204.443a1.8,1.8,0,0,1-.165-.233c-.1-.157-.249-.382-.422-.663-.35-.563-.8-1.351-1.3-2.239s-.888-1.708-1.17-2.307c-.141-.3-.253-.543-.326-.715a1.611,1.611,0,0,1-.1-.265,1.952,1.952,0,0,1,.133.253l.35.7c.293.595.711,1.411,1.206,2.3s.937,1.68,1.274,2.251l.4.675A2.231,2.231,0,0,1,296.049,204.443Z" transform="translate(-268.053 -156.239)"/><path class="f" d="M288.508,207.928a1.731,1.731,0,0,1-.141-.241l-.35-.679c-.289-.575-.675-1.379-1.065-2.283s-.719-1.732-.945-2.335l-.253-.719a1.707,1.707,0,0,1-.084-.269,1.427,1.427,0,0,1,.113.257l.281.711c.237.6.571,1.423.965,2.323s.764,1.708,1.041,2.291q.181.374.326.687A2.183,2.183,0,0,1,288.508,207.928Z" transform="translate(-263.932 -158.26)"/><path class="f" d="M279.982,211.7c-.02,0-.551-1.395-1.182-3.131s-1.121-3.155-1.1-3.163.551,1.395,1.182,3.131S280.006,211.7,279.982,211.7Z" transform="translate(-259.165 -160.659)"/><path class="f" d="M270.848,215.907c-.02,0-.555-1.246-1.206-2.814s-1.133-2.814-1.113-2.834.555,1.246,1.206,2.814S270.869,215.895,270.848,215.907Z" transform="translate(-253.681 -163.559)"/><path class="f" d="M264.068,219.119a1.211,1.211,0,0,1-.121-.2l-.305-.563c-.253-.482-.587-1.154-.924-1.909s-.627-1.447-.8-1.953l-.221-.6a1.321,1.321,0,0,1-.072-.229.979.979,0,0,1,.1.217c.08.185.161.4.249.591.2.5.5,1.206.84,1.945s.663,1.427.9,1.913l.281.579A1.14,1.14,0,0,1,264.068,219.119Z" transform="translate(-249.549 -165.592)"/><path class="f" d="M346.588,155.84s.064.165.173.474l.478,1.367c.4,1.206,1.013,2.91,1.744,5.024,1.471,4.257,3.5,10.113,5.732,16.585l.06.177a.044.044,0,0,1,0,.048c-5.43,4.116-10.451,7.681-14.129,10.2-1.837,1.258-3.332,2.263-4.369,2.95l-1.206.8-.422.273.4-.285,1.186-.8c1.033-.7,2.524-1.708,4.357-2.974,3.662-2.532,8.682-6.106,14.112-10.222v.048l-.06-.177c-2.227-6.475-4.241-12.336-5.708-16.593-.72-2.118-1.306-3.835-1.716-5.036-.2-.583-.354-1.041-.466-1.367S346.588,155.84,346.588,155.84Z" transform="translate(-293.225 -131.013)"/><path class="f" d="M340.632,156.28s.044.145.116.43.181.711.318,1.238c.273,1.093.667,2.649,1.146,4.562l3.758,15.053.213.86a.041.041,0,0,1,0,.04c-4.594,3.618-8.726,6.885-11.721,9.245l-3.529,2.773-.961.752-.342.257s.113-.1.33-.269l.953-.764,3.513-2.814,11.7-9.265v.044c-.064-.273-.137-.563-.213-.86-1.455-5.872-2.774-11.19-3.73-15.061l-1.154-4.546-.3-1.242C340.66,156.429,340.632,156.28,340.632,156.28Z" transform="translate(-290.223 -131.276)"/><path class="f" d="M353.627,179.082s-.02-.088-.052-.253-.08-.426-.137-.724c-.121-.655-.289-1.556-.49-2.661s-.45-2.472-.715-3.951c-.133-.744-.293-1.523-.382-2.343s-.149-1.668-.181-2.54c-.117-3.489-.2-6.644-.249-8.931-.024-1.121-.048-2.042-.06-2.705v-.736c0,.169,0,.434.028.736.02.663.052,1.58.088,2.705.068,2.307.165,5.45.273,8.927.032.872.084,1.72.177,2.536s.245,1.608.374,2.335c.265,1.483.5,2.814.7,3.955s.35,2.01.466,2.669q.072.446.121.723A1.247,1.247,0,0,1,353.627,179.082Z" transform="translate(-303.218 -129.901)"/><path class="f" d="M339.831,153.42a.721.721,0,0,1-.02.145c-.024.117-.052.249-.08.4-.072.35-.173.86-.285,1.491-.233,1.262-.51,3.015-.715,4.964s-.293,3.718-.326,5c-.02.639-.028,1.162-.028,1.519v.4a.6.6,0,0,1,0,.145,1.041,1.041,0,0,1,0-.145v-1.925c0-1.282.1-3.059.3-5.008s.494-3.706.74-4.964c.125-.631.233-1.142.314-1.491l.1-.4A.218.218,0,0,1,339.831,153.42Z" transform="translate(-295.452 -129.566)"/><path class="f" d="M325.692,154.39a.493.493,0,0,1-.032.145c-.032.092-.072.253-.117.4-.1.354-.241.868-.4,1.5a48.944,48.944,0,0,0-1.519,10.121c-.032.655-.048,1.186-.052,1.552v0c0-.366,0-.9.024-1.556a45.816,45.816,0,0,1,.438-5.089,45.148,45.148,0,0,1,1.049-5.024c.169-.635.322-1.146.434-1.5l.129-.4A1.321,1.321,0,0,1,325.692,154.39Z" transform="translate(-286.599 -130.146)"/><path class="f" d="M259.18,184.361l.374-.165,1.065-.446,3.935-1.636,13-5.366.627-.257-.024.032a67.98,67.98,0,0,1,3.421-13.152c.607-1.608,1.15-2.918,1.543-3.8s.631-1.363.631-1.363l-.153.358-.446,1.017c-.4.888-.921,2.179-1.519,3.806a69.509,69.509,0,0,0-3.4,13.144.036.036,0,0,1-.024.032l-.627.261-13,5.342-3.947,1.608-1.073.434Z" transform="translate(-248.09 -132.431)"/><path class="f" d="M348.481,150.318a24.132,24.132,0,0,1-.631-2.838,13.457,13.457,0,0,1,.354,1.411A12.055,12.055,0,0,1,348.481,150.318Z" transform="translate(-301.119 -126.014)"/><g class="o" transform="translate(45.706 24.155)"><path d="M346.787,168.254a48.724,48.724,0,0,1,1.009-6.323,21.6,21.6,0,0,1,2.721-6.833c.161-.253.33-.6.133-.824s-.667-.052-.929.185a12.43,12.43,0,0,0-3.388,5.961,37.247,37.247,0,0,0-.989,6.869c-.036.446-.044.9-.044.9Z" transform="translate(-345.3 -154.169)"/></g><path class="a" d="M346.9,153.207s-5.523,6.029-5.1,16.444l2.01-.145s.108-11.427,4.9-16A2.927,2.927,0,0,0,346.9,153.207Z" transform="translate(-297.49 -129.417)"/><path class="b" d="M343.844,187.48a5.974,5.974,0,0,1-.052,1.129,11.034,11.034,0,0,1-.149,1.226,1.334,1.334,0,0,1-.326.7,1.049,1.049,0,0,1-.828.169,1.1,1.1,0,0,1-.4-.173.889.889,0,0,1-.293-.306,1.734,1.734,0,0,1-.185-.74c-.032-.47,0-.884,0-1.234a3.819,3.819,0,0,1,.117-1.125c.024,0,0,.43.032,1.125a9.357,9.357,0,0,0,.056,1.206,1.648,1.648,0,0,0,.169.655.715.715,0,0,0,.229.237.949.949,0,0,0,.322.141.872.872,0,0,0,.655-.121,1.278,1.278,0,0,0,.273-.591c.1-.434.129-.856.185-1.206A6.164,6.164,0,0,1,343.844,187.48Z" transform="translate(-297.378 -149.726)"/><path class="b" d="M344.3,192.112a.4.4,0,1,1-.4-.4A.4.4,0,0,1,344.3,192.112Z" transform="translate(-298.518 -152.465)"/><g class="o" transform="translate(35.297 24.376)"><path d="M320.657,168.844a30.675,30.675,0,0,1,1.873-12.408c.221-.639.679-1.688.5-1.716s-1.085,1.363-1.158,1.5a21.5,21.5,0,0,0-2.291,12.734" transform="translate(-319.405 -154.719)"/></g><path class="a" d="M318.953,154.175s-4.421,5.225-4.269,15.676l1.933-.1s.044-11.492,4.1-16.211A2.814,2.814,0,0,0,318.953,154.175Z" transform="translate(-281.282 -129.638)"/><path class="b" d="M316.578,188.521a8.528,8.528,0,0,1,.052,1.138,5.689,5.689,0,0,1-.1,1.242,1.531,1.531,0,0,1-.31.712,1.013,1.013,0,0,1-.828.2.888.888,0,0,1-.217-.064l-.185-.1a.9.9,0,0,1-.3-.285,1.706,1.706,0,0,1-.193-.744,12.027,12.027,0,0,1,0-1.242,4.063,4.063,0,0,1,.117-1.134c.028,0,0,.434.032,1.138a9.325,9.325,0,0,0,.056,1.206,1.706,1.706,0,0,0,.177.655.707.707,0,0,0,.241.233,1.514,1.514,0,0,0,.161.088.887.887,0,0,0,.165.048.844.844,0,0,0,.647-.137,1.364,1.364,0,0,0,.265-.607,6.367,6.367,0,0,0,.141-1.206A4.758,4.758,0,0,1,316.578,188.521Z" transform="translate(-281.162 -150.39)"/><path class="b" d="M317.164,193.152a.4.4,0,1,1-.4-.4A.4.4,0,0,1,317.164,193.152Z" transform="translate(-282.287 -153.087)"/><path class="f" d="M356.157,207.976c0,.02-.86.068-1.921.1s-1.921.048-1.925.024.86-.068,1.921-.1A18.638,18.638,0,0,1,356.157,207.976Z" transform="translate(-303.786 -162.184)"/><path class="b" d="M354.97,249.938a1.06,1.06,0,0,1-.229.273,3.522,3.522,0,0,1-.78.571,4.044,4.044,0,0,1-5.551-1.648,3.65,3.65,0,0,1-.35-.9.91.91,0,0,1-.044-.354,7.629,7.629,0,0,0,.523,1.178,4.048,4.048,0,0,0,5.366,1.564A7.842,7.842,0,0,0,354.97,249.938Z" transform="translate(-301.217 -186.058)"/><path class="h" d="M320.726,247.31l2.146-1.467-2.85-3.983-.338.285a11.85,11.85,0,0,1-2.058.056,3.131,3.131,0,0,1-1.065-.237,4.786,4.786,0,0,1-1.174-.627.4.4,0,0,0-.707.33c.076.362.969.961,2.159,1.527,1.065.511.575,1.544.064,1.99s-2.814,2.034-2.814,2.034l3.694.715a3.868,3.868,0,0,0,2.942-.623Z" transform="translate(-280.929 -182.055)"/><path class="i" d="M319.783,253.73a2.858,2.858,0,0,1-1.387.969,2.814,2.814,0,0,1-1.676.213,13.459,13.459,0,0,0,1.608-.4A15.021,15.021,0,0,0,319.783,253.73Z" transform="translate(-282.502 -189.556)"/><path class="i" d="M324.213,255.546c.044.028-.2.45-.716.719a1.311,1.311,0,0,1-1,.185c0-.064.434-.121.9-.37S324.164,255.51,324.213,255.546Z" transform="translate(-285.959 -190.641)"/><path class="c" d="M354.66,250.406s0,3.565-1.419,4.534a1.437,1.437,0,0,0-.4.338.4.4,0,0,0,0,.478c.153.157.4.088.611,0A4.534,4.534,0,0,0,355,254.57v4.168a1.7,1.7,0,0,0,.088.667.583.583,0,0,0,.51.382c.442,0,.571-.6.567-1.045,0-1.1-.028-2.195-.044-3.292l.229,3.171c.028.4.2.9.583.86s.442-.543.4-.912l-.314-4.2c.189,1,.382,2.01.571,3.019a.872.872,0,0,0,.342.651.6.6,0,0,0,.78-.362,1.754,1.754,0,0,0,.02-.957c-.185-1.121-.374-2.247-.559-3.368a12.053,12.053,0,0,0,.659,2.388.466.466,0,0,0,.828.056.256.256,0,0,0,.024-.072,1.408,1.408,0,0,0-.056-.631l-.888-3.714a6.355,6.355,0,0,0-1.857-3.726,4.076,4.076,0,0,0-3.561-.527A9.019,9.019,0,0,0,350.11,249S351.959,251.487,354.66,250.406Z" transform="translate(-302.471 -185.492)"/><path class="a" d="M356.52,251.856c0-.024.149-.1.4-.1a1.607,1.607,0,0,1,.973.35,1.564,1.564,0,0,1,.547.872c.056.261.024.426,0,.426a2.655,2.655,0,0,1-.137-.382,1.794,1.794,0,0,0-.539-.756,1.825,1.825,0,0,0-.848-.362C356.685,251.881,356.524,251.9,356.52,251.856Z" transform="translate(-306.304 -188.378)"/><path class="a" d="M357.228,254c-.028-.048.354-.261.86-.185a1.112,1.112,0,0,1,.776.4,6.73,6.73,0,0,0-.8-.213C357.614,253.944,357.248,254.057,357.228,254Z" transform="translate(-306.727 -189.598)"/><g class="p" transform="translate(49.56 63.466)"><path d="M357.47,253.449s-.2.064-.4.117a3.386,3.386,0,0,1-.715.129,8.247,8.247,0,0,1-1-.068.539.539,0,0,1-.446-.217.511.511,0,0,1,.1-.478,2.886,2.886,0,0,1,1.089-.961,2.009,2.009,0,0,1,1.061.659A1.279,1.279,0,0,1,357.47,253.449Z" transform="translate(-354.889 -251.97)"/></g></g></svg>