<svg xmlns="http://www.w3.org/2000/svg" width="442.819" height="270.046" viewBox="0 0 442.819 270.046"><defs><style>.a{fill:#ffefed;}.b{fill:#263238;}.c{fill:#455a64;}.d{fill:#e0e0e0;}.e{fill:#0e7a73;}.f{fill:#fafafa;}.g{opacity:0.3;}.h{opacity:0.4;}.i{fill:#fff;}.j{fill:#ffbe9d;}.k{fill:#eb996e;}.l{fill:#ebebeb;}.m{fill:#f5f5f5;}</style></defs><g transform="translate(38.668 8.046)"><path class="a" d="M418.139,72.682c-37.88-23.119-91.6-18.046-122.49,13.848-10.839,11.179-18.707,24.888-28.772,36.778s-23.434,22.32-38.975,23.371c-14.194.95-27.57-6.043-41.443-9.2-27.123-6.175-57.279,3.556-75.678,24.422s-24.278,52-14.754,78.145,34.047,46.2,61.553,50.355l225.787-.428c41.1-16.762,78.334-58.74,85.491-102.53S456.019,95.8,418.139,72.682Z" transform="translate(-91.522 -58.367)"/></g><g transform="translate(0 258.541)"><path class="b" d="M451.7,456.494c0,.088-94.385.164-210.794.164s-210.813-.076-210.813-.164,94.36-.164,210.807-.164S451.7,456.4,451.7,456.494Z" transform="translate(-30.09 -456.33)"/></g><g transform="translate(66.916 122.688)"><rect class="b" width="9.335" height="18.89" transform="translate(271.793 117.127)"/><rect class="b" width="9.335" height="18.89" transform="translate(32.221 117.127)"/><path class="c" d="M198.417,240.5H186.269a14.622,14.622,0,0,0-14.439,12.274l-9.807,60.244a20.614,20.614,0,0,0,20.331,23.919H436.448a11.808,11.808,0,0,0,11.412-14.786h0a11.8,11.8,0,0,0-11.412-8.812h0a17.757,17.757,0,0,1-16.812-12.085l-15.679-46.516a18.254,18.254,0,0,0-17.083-12.406Z" transform="translate(-145.796 -240.5)"/><path class="c" d="M136.4,356.46v36.08a10.537,10.537,0,0,0,10.568,10.512h281.7a10.543,10.543,0,0,0,10.568-10.512l-.39-29.445Z" transform="translate(-136.4 -283.47)"/><path class="d" d="M414.139,287.466s-.176.138-.522.39L412.068,289c-.346.246-.718.541-1.152.818l-1.441.925c-.523.327-1.07.7-1.681,1.064l-1.97,1.108a64.451,64.451,0,0,1-10.7,4.689,69.678,69.678,0,0,1-15.107,3.248,68.118,68.118,0,0,1-18.707-.8c-.824-.17-1.655-.365-2.518-.548l-1.259-.283-1.259-.34c-1.681-.447-3.368-.995-5.073-1.574-3.4-1.164-6.817-2.581-10.3-4.072-6.968-2.965-14.188-6.376-22.125-8.586a90.451,90.451,0,0,0-50.293.409c-7.893,2.373-15.195,5.571-22.326,8.183a84.777,84.777,0,0,1-20.853,5.218,47.1,47.1,0,0,1-9.756-.069,38.218,38.218,0,0,1-4.532-.831l-1.089-.277-1.057-.334c-.705-.227-1.4-.428-2.065-.7a61.718,61.718,0,0,1-7.434-3.437c-2.291-1.2-4.406-2.4-6.4-3.5a77.105,77.105,0,0,0-10.5-5.036,35.011,35.011,0,0,0-7.138-1.781l-1.888-.151-.629-.057h.629c.409,0,1.07.05,1.888.12a33.746,33.746,0,0,1,7.176,1.725,75.542,75.542,0,0,1,10.568,5.054c2,1.083,4.123,2.285,6.408,3.475a61.854,61.854,0,0,0,7.427,3.374c.661.277,1.353.472,2.052.7l1.051.327,1.083.271a37.926,37.926,0,0,0,4.5.818,47.094,47.094,0,0,0,9.706.05,83.059,83.059,0,0,0,20.772-5.231c7.088-2.631,14.414-5.8,22.333-8.183a90.641,90.641,0,0,1,50.469-.409c7.975,2.222,15.207,5.665,22.163,8.617,3.481,1.492,6.892,2.914,10.279,4.079,1.7.579,3.38,1.127,5.036,1.574l1.259.34,1.259.283c.831.183,1.662.378,2.48.548a67.911,67.911,0,0,0,18.632.837,69.771,69.771,0,0,0,15.107-3.191,64.94,64.94,0,0,0,10.7-4.626l1.926-1.133c.629-.352,1.171-.724,1.693-1.045l1.448-.906c.441-.277.812-.573,1.158-.812l1.567-1.108C413.95,287.585,414.139,287.466,414.139,287.466Z" transform="translate(-149.892 -255.503)"/><path class="d" d="M437.324,335.51l-.774-.233-.944-.3a13.22,13.22,0,0,0-1.322-.365,38.575,38.575,0,0,0-8.97-1.2,51.906,51.906,0,0,0-6.546.321c-1.2.107-2.423.321-3.714.51s-2.606.478-3.972.8c-2.725.629-5.615,1.416-8.636,2.386s-6.187,2.1-9.5,3.3-6.792,2.467-10.461,3.644a93.6,93.6,0,0,1-11.626,3.021c-1.02.17-2.052.365-3.1.485-.522.063-1.051.138-1.58.2l-1.6.132c-1.07.107-2.153.088-3.248.139l-1.643-.031h-.825l-.824-.063a59.2,59.2,0,0,1-13.376-2.619c-4.475-1.36-8.919-3.147-13.445-4.96s-9.146-3.707-13.98-5.218a73.538,73.538,0,0,0-15.107-3.084,95.543,95.543,0,0,0-15.893-.183c-10.738.711-21.067,2.814-30.981,4.941-4.96,1.07-9.819,2.165-14.609,3.147s-9.492,1.819-14.112,2.48a135.737,135.737,0,0,1-13.577,1.3c-2.209.132-4.406.107-6.534.12-2.146-.094-4.261-.12-6.294-.346a66.982,66.982,0,0,1-22.289-5.665c-3.216-1.467-6.118-3.147-8.9-4.7a71.569,71.569,0,0,0-8.038-3.959,23.855,23.855,0,0,0-14.018-1.618A16.751,16.751,0,0,0,142,329.688a14.018,14.018,0,0,0-1.731,1.164c-.245.208-.5.378-.7.579l-.585.579a9.987,9.987,0,0,0-.894,1.039,6.384,6.384,0,0,0-.56.806c-.29.453-.441.68-.441.68s.132-.239.409-.7a5.666,5.666,0,0,1,.554-.818,9.749,9.749,0,0,1,.881-1.051c.189-.182.378-.384.585-.585s.46-.384.7-.592a13.047,13.047,0,0,1,1.737-1.19,16.8,16.8,0,0,1,4.91-1.825,23.918,23.918,0,0,1,14.087,1.555,71.232,71.232,0,0,1,8.07,3.946c2.788,1.523,5.665,3.223,8.9,4.671a66.671,66.671,0,0,0,22.213,5.615c2.058.227,4.167.245,6.294.334,2.14,0,4.312,0,6.515-.126a135.25,135.25,0,0,0,13.546-1.315c4.614-.661,9.316-1.511,14.093-2.518s9.643-2.09,14.609-3.147c9.914-2.127,20.256-4.236,31.025-4.954a96.155,96.155,0,0,1,15.944.182,74.077,74.077,0,0,1,15.163,3.1c4.853,1.523,9.473,3.418,14,5.237s8.963,3.607,13.42,4.96a58.7,58.7,0,0,0,13.306,2.619l.818.069h2.455c1.083-.05,2.165,0,3.229-.139l1.592-.126c.522-.05,1.045-.132,1.567-.2,1.045-.113,2.071-.308,3.1-.478a92.838,92.838,0,0,0,11.607-2.946c3.663-1.171,7.138-2.43,10.455-3.619s6.483-2.335,9.517-3.292,5.923-1.75,8.661-2.36c1.366-.321,2.7-.554,3.984-.787s2.518-.4,3.726-.5a51.767,51.767,0,0,1,6.559-.264,38,38,0,0,1,8.988,1.259,10.923,10.923,0,0,1,1.315.384l.944.308Z" transform="translate(-136.652 -272.679)"/><path class="d" d="M397.093,242.27l-.4.365-1.215,1.07c-.554.441-1.259.963-2.1,1.574a26.993,26.993,0,0,1-3.059,1.888,41.628,41.628,0,0,1-9.121,3.588c-.919.245-1.888.459-2.889.673s-2.039.4-3.116.535a61.674,61.674,0,0,1-6.848.629,101,101,0,0,1-15.736-.85c-5.621-.667-11.588-1.643-17.908-2.354-3.147-.353-6.4-.63-9.725-.737a97.127,97.127,0,0,0-10.172.252,207.954,207.954,0,0,0-21.2,2.845c-7.226,1.29-14.276,2.625-21.143,3.569a161.3,161.3,0,0,1-19.916,1.423,157.6,157.6,0,0,1-33.6-3.386,154.78,154.78,0,0,1-21.886-6.338c-1.259-.478-2.379-.888-3.342-1.259l-2.417-1.013-1.485-.629c-.334-.145-.5-.227-.5-.227s.176.057.51.2l1.5.629,2.43.982c.963.371,2.09.774,3.349,1.259a157.949,157.949,0,0,0,55.435,9.542,160.722,160.722,0,0,0,19.878-1.441c6.861-.944,13.9-2.279,21.13-3.569a205.977,205.977,0,0,1,21.244-2.889c3.456-.258,6.867-.308,10.2-.239s6.59.384,9.756.743c6.326.724,12.287,1.712,17.9,2.385a100.828,100.828,0,0,0,15.679.888,61.515,61.515,0,0,0,6.823-.585c1.076-.126,2.1-.34,3.11-.516s1.958-.422,2.883-.667a41.746,41.746,0,0,0,9.108-3.519c1.2-.63,2.184-1.259,3.059-1.825s1.555-1.12,2.109-1.548l1.259-1.039A3.48,3.48,0,0,1,397.093,242.27Z" transform="translate(-156.01 -241.156)"/><path class="d" d="M439.608,393.97s-.258-.088-.755-.283l-2.2-.869c-.472-.208-1.039-.352-1.649-.548l-2.008-.629c-.73-.214-1.536-.365-2.386-.573l-1.322-.3c-.459-.088-.932-.151-1.423-.233a62.224,62.224,0,0,0-14.332-.667,107.631,107.631,0,0,0-18.8,2.984c-6.88,1.611-14.251,3.984-22.207,6.383a157.9,157.9,0,0,1-25.839,6.017,72.782,72.782,0,0,1-14.345.478,56.462,56.462,0,0,1-14.66-3.021c-9.668-3.342-18.632-9.039-28.205-13.948a86.683,86.683,0,0,0-14.7-6.1c-1.259-.415-2.518-.674-3.777-1l-1.888-.378-.95-.183-.957-.145a66.9,66.9,0,0,0-7.692-.717,84.489,84.489,0,0,0-14.905.856,121.32,121.32,0,0,0-14.03,2.883c-9.033,2.386-17.4,5.382-25.348,7.837a143.153,143.153,0,0,1-22.484,5.363,68.984,68.984,0,0,1-19.041,0,49.757,49.757,0,0,1-13.778-4,40.324,40.324,0,0,1-7.761-4.733c-1.6-1.328-2.4-2.077-2.4-2.077s.214.17.629.516,1,.869,1.813,1.511a41.739,41.739,0,0,0,7.78,4.689,50,50,0,0,0,13.772,3.934,68.781,68.781,0,0,0,18.959-.063,138.854,138.854,0,0,0,22.427-5.388c7.918-2.486,16.3-5.47,25.354-7.874a120.186,120.186,0,0,1,14.068-2.9,84.984,84.984,0,0,1,14.956-.869,66.32,66.32,0,0,1,7.673.73l.963.138.957.189,1.92.378c1.259.327,2.556.585,3.777,1a87.27,87.27,0,0,1,14.767,6.118c9.586,4.922,18.543,10.612,28.161,13.942a56.331,56.331,0,0,0,14.572,3.015,72.724,72.724,0,0,0,14.288-.472c9.265-1.171,17.838-3.613,25.807-5.974s15.333-4.752,22.232-6.351a107.052,107.052,0,0,1,18.839-2.939,62.2,62.2,0,0,1,14.37.724c.485.082.963.151,1.422.239l1.322.315c.85.208,1.655.365,2.386.585l2.008.629a16.046,16.046,0,0,1,1.649.566l2.19.9Z" transform="translate(-137.645 -292.151)"/><path class="c" d="M571.817,309.83h11.922a12,12,0,0,1,12.01,12v31.6a8.68,8.68,0,0,1-8.68,8.68H575.147a15.327,15.327,0,0,1-15.327-15.327V321.834A12,12,0,0,1,571.817,309.83Z" transform="translate(-293.301 -266.191)"/><path class="c" d="M148.4,309.83h11.922a12,12,0,0,1,12,12v40.284h-20.6A15.327,15.327,0,0,1,136.4,346.791V321.834A12,12,0,0,1,148.4,309.83Z" transform="translate(-136.4 -266.191)"/><path class="b" d="M196.65,357h34.645c21.4,0,50.947.164,83.584.371L433.1,358H398.456c-21.4,0-50.947-.157-83.6-.365Z" transform="translate(-158.726 -283.67)"/><path class="b" d="M181.754,385.591a1.01,1.01,0,0,1,0-.22c0-.17,0-.39,0-.667,0-.6,0-1.448-.05-2.518-.038-2.228-.088-5.419-.151-9.353-.126-7.893-.271-18.8-.6-30.843-.214-6.017-.283-11.771-1.1-16.919a24.085,24.085,0,0,0-2.14-7.018,13.219,13.219,0,0,0-4.1-4.828,18.071,18.071,0,0,0-8.422-3.708,11.1,11.1,0,0,0-1.454-.069,7.253,7.253,0,0,0-1.064.12l-.629.17a.811.811,0,0,1-.22.044,1.038,1.038,0,0,1,.214-.076l.629-.2c.29-.05.629-.113,1.07-.151a9.973,9.973,0,0,1,1.473.038,17.957,17.957,0,0,1,8.548,3.645,13.445,13.445,0,0,1,4.2,4.891,24.3,24.3,0,0,1,2.2,7.094c.837,5.18.913,10.94,1.127,16.964.327,12.041.434,22.949.5,30.843,0,3.934.038,7.119.044,9.347v3.179a1.555,1.555,0,0,1-.082.239Z" transform="translate(-145.82 -266.01)"/><path class="b" d="M161.686,331.619a6.393,6.393,0,0,0-1.013.22,4.626,4.626,0,0,0-2.253,1.555,4.469,4.469,0,0,0-.85,1.693,3.9,3.9,0,0,0,.1,2.14,4.224,4.224,0,0,0,7.786.856,3.871,3.871,0,0,0,.56-2.065,4.444,4.444,0,0,0-.453-1.838,4.694,4.694,0,0,0-1.888-2.014c-.579-.321-.95-.4-.938-.428a.892.892,0,0,1,.271.044,3.4,3.4,0,0,1,.73.271,4.639,4.639,0,0,1,2.008,2.021,4.551,4.551,0,0,1,.522,1.932,4.123,4.123,0,0,1-.566,2.234,4.519,4.519,0,0,1-8.34-.919,4.1,4.1,0,0,1-.069-2.3,4.575,4.575,0,0,1,.925-1.775,4.658,4.658,0,0,1,2.4-1.536,3.307,3.307,0,0,1,.774-.107A.909.909,0,0,1,161.686,331.619Z" transform="translate(-144.093 -274.258)"/><path class="b" d="M158.982,352.875a2.8,2.8,0,0,1-.34-1.139,7,7,0,0,1,1.536-5.4c.485-.56.862-.818.888-.787a9.107,9.107,0,0,1-.705.932,8.1,8.1,0,0,0-1.2,2.518,8.011,8.011,0,0,0-.283,2.744A10,10,0,0,1,158.982,352.875Z" transform="translate(-144.618 -279.426)"/><path class="b" d="M154.988,342.251c-.082-.031.082-.535.541-.963s.976-.554,1-.472-.365.327-.774.711S155.045,342.3,154.988,342.251Z" transform="translate(-143.28 -277.664)"/><path class="b" d="M176.917,341.083c-.044.031-.289-.264-.793-.63a5.038,5.038,0,0,0-4.532-.636,9.716,9.716,0,0,1-.932.378,2.461,2.461,0,0,1,.843-.592,4.6,4.6,0,0,1,4.765.667C176.759,340.705,176.948,341.064,176.917,341.083Z" transform="translate(-149.095 -277.081)"/><path class="b" d="M216.368,240.66a.633.633,0,0,1-.183.032l-.529.063c-.472.05-1.165.1-2.065.145-1.788.1-4.406.057-7.585.076a35.425,35.425,0,0,0-11.04,1.6,11.172,11.172,0,0,0-2.832,1.479,8.66,8.66,0,0,0-2.235,2.442,18.326,18.326,0,0,0-2.165,6.685c-1.448,9.656-2.757,18.4-3.707,24.75-.491,3.147-.881,5.7-1.158,7.5-.145.869-.252,1.548-.334,2.039l-.094.529a.783.783,0,0,1-.044.176.8.8,0,0,1,0-.182,4.389,4.389,0,0,1,.063-.535l.264-2.046c.258-1.794.629-4.356,1.057-7.509.913-6.345,2.165-15.107,3.619-24.775a18.559,18.559,0,0,1,2.216-6.8,8.9,8.9,0,0,1,2.316-2.518,11.422,11.422,0,0,1,2.921-1.511,34.96,34.96,0,0,1,11.141-1.548c3.2,0,5.791.088,7.585,0,.894,0,1.586-.05,2.058-.082h.535Z" transform="translate(-153.443 -240.559)"/><path class="b" d="M569.858,343.038c-.088,0-1.076-5.08-2.2-11.374s-1.97-11.412-1.888-11.424,1.076,5.073,2.2,11.368S569.946,343.019,569.858,343.038Z" transform="translate(-295.503 -270.048)"/><path class="b" d="M573.446,386.634a1.008,1.008,0,0,1,0-.22,4.563,4.563,0,0,0-.038-.661c0-.6-.057-1.448-.1-2.518-.076-2.222-.182-5.394-.308-9.309-.233-7.874-.554-18.726-.906-30.71,0-.749-.057-1.492-.044-2.235s0-1.479,0-2.209q0-2.19.088-4.318a80.749,80.749,0,0,1,.63-8.145,34.617,34.617,0,0,1,.711-3.745c.132-.629.34-1.183.516-1.756a13.551,13.551,0,0,1,.7-1.637,11,11,0,0,1,.9-1.467,13.231,13.231,0,0,1,1.1-1.259,14.584,14.584,0,0,1,11.33-4.255,9.5,9.5,0,0,1,2.455.629l.629.283.2.107a11.055,11.055,0,0,0-3.26-.9,14.175,14.175,0,0,0-8.768,2.373,13.926,13.926,0,0,0-2.361,1.939,12.483,12.483,0,0,0-1.057,1.221,10.734,10.734,0,0,0-.869,1.441,12.633,12.633,0,0,0-.68,1.605c-.17.566-.371,1.133-.5,1.731a33.832,33.832,0,0,0-.692,3.72c-.346,2.568-.5,5.287-.63,8.113-.038,1.41-.063,2.851-.082,4.312v2.2c0,.743.031,1.485.044,2.234.315,11.959.63,22.836.806,30.711.088,3.915.164,7.094.208,9.309,0,1.083,0,1.932.044,2.518v.661A.849.849,0,0,1,573.446,386.634Z" transform="translate(-297.832 -267.052)"/><path class="b" d="M593.168,333.6a5.75,5.75,0,0,0-1.007.214,4.677,4.677,0,0,0-2.26,1.561,4.3,4.3,0,0,0-.843,1.687,3.864,3.864,0,0,0,.094,2.146,4.236,4.236,0,0,0,7.793.856,3.884,3.884,0,0,0,.554-2.071,4.47,4.47,0,0,0-.453-1.838,4.639,4.639,0,0,0-1.888-2.008c-.573-.327-.951-.4-.938-.434a.89.89,0,0,1,.271.044,3.063,3.063,0,0,1,.73.277,4.7,4.7,0,0,1,2.518,3.953,4.1,4.1,0,0,1-.566,2.228,4.519,4.519,0,0,1-8.29-.919,4.1,4.1,0,0,1-.069-2.3,4.708,4.708,0,0,1,3.33-3.311,3.338,3.338,0,0,1,.774-.107A.761.761,0,0,1,593.168,333.6Z" transform="translate(-303.996 -274.99)"/><path class="b" d="M590.442,354.853a2.85,2.85,0,0,1-.34-1.139,7,7,0,0,1,1.536-5.407,2.779,2.779,0,0,1,.888-.787,9.111,9.111,0,0,1-.7.932,8.312,8.312,0,0,0-1.177,2.518,8.031,8.031,0,0,0-.283,2.751,9.9,9.9,0,0,1,.082,1.133Z" transform="translate(-304.499 -280.157)"/><path class="b" d="M586.408,344.222c-.082-.031.082-.535.541-.957s.976-.56,1-.478-.365.327-.774.718S586.49,344.266,586.408,344.222Z" transform="translate(-303.146 -278.395)"/><path class="b" d="M608.377,343.056c-.044.038-.29-.264-.787-.629a5.158,5.158,0,0,0-2.2-.862,5.069,5.069,0,0,0-2.341.227,8.051,8.051,0,0,1-.932.378,2.565,2.565,0,0,1,.844-.592,4.626,4.626,0,0,1,4.765.667C608.219,342.678,608.408,343.037,608.377,343.056Z" transform="translate(-308.976 -277.814)"/></g><g transform="translate(340.598 102.836)"><path class="e" d="M651.08,327.317a40.5,40.5,0,0,1,38.642-10.606,70.4,70.4,0,0,1-39.1,12.217" transform="translate(-600.63 -248.423)"/><path class="e" d="M671.977,241.439c-1.611-11.387,2.814-24.2,11.33-32.479.277,11.286-4.482,23.988-11.33,32.479" transform="translate(-608.423 -208.96)"/><path class="e" d="M661.277,279.018a60.817,60.817,0,0,1,27.928-26.688,38.4,38.4,0,0,1-28.035,26.814" transform="translate(-604.539 -225.031)"/><path class="e" d="M659.09,294.134c6.88.2,13.848-.05,20.495-1.813s13.023-5.143,17.448-10.411A68.5,68.5,0,0,0,659.2,293.46" transform="translate(-603.768 -235.992)"/><path class="e" d="M653.033,262.261c-3.494-13.086-9.253-22.138-19.513-29.471a27.211,27.211,0,0,0,19.513,29.471" transform="translate(-594.218 -217.79)"/><path class="e" d="M623.39,304.9A19.381,19.381,0,0,1,635.16,286.96c-.573,6.754-5.879,14.572-11.771,17.939" transform="translate(-590.539 -237.863)"/><path class="e" d="M607.053,283.437A28.875,28.875,0,0,0,588.17,258.82c2.379,10.933,8.7,20.035,18.883,24.617" transform="translate(-577.488 -227.436)"/><path class="e" d="M612.419,324.312c-2.423-3.475-6.383-5.627-10.48-6.7a54.134,54.134,0,0,0-12.589-1.259,29.47,29.47,0,0,0,22.767,9.479" transform="translate(-577.926 -248.754)"/><path class="e" d="M610.635,372.5A32.278,32.278,0,0,0,571.2,391.16c14.326-2.719,28.457-9.083,39.435-18.682" transform="translate(-571.2 -269.023)"/><path class="e" d="M658.02,358c-2.379,7.031-1.926,15.535,3.367,21.6A25.807,25.807,0,0,0,658.02,358" transform="translate(-602.862 -264.188)"/><path class="e" d="M673.59,351.74a26.436,26.436,0,0,0,14.616,21.47,1.655,1.655,0,0,0,1.3.214c.629-.264.7-1.139.629-1.832-1.039-9.014-7.717-17.731-16.536-19.853" transform="translate(-609.142 -261.868)"/><path class="e" d="M683.24,349.707a21.691,21.691,0,0,0,31.7.157c-10.071-1.1-21.7-1.838-31.7-.157" transform="translate(-612.717 -260.748)"/><path class="b" d="M667.491,222.3a2.218,2.218,0,0,1-.088.3c-.076.208-.183.491-.309.85-.29.768-.692,1.888-1.215,3.26s-1.17,3.147-1.888,5.174c-.365,1.013-.755,2.1-1.171,3.235s-.812,2.373-1.259,3.651c-1.781,5.1-3.777,11.223-5.9,18.046s-4.3,14.4-6.49,22.333-4.041,15.591-5.665,22.553-2.927,13.269-3.9,18.587l-.718,3.777c-.2,1.2-.4,2.329-.579,3.393-.365,2.115-.673,3.94-.888,5.432s-.4,2.637-.529,3.443c-.057.378-.107.673-.145.894a2.344,2.344,0,0,1-.063.3,1.642,1.642,0,0,1,0-.308c0-.22.063-.516.107-.9.107-.806.264-1.964.459-3.449s.478-3.33.825-5.451c.17-1.057.352-2.2.547-3.4s.447-2.461.686-3.777c.945-5.325,2.266-11.632,3.821-18.613s3.487-14.609,5.627-22.578,4.406-15.509,6.515-22.339,4.173-12.935,5.992-18.034q.673-1.888,1.259-3.638t1.2-3.223c.743-2.02,1.391-3.777,1.951-5.155l1.259-3.235c.145-.359.258-.629.346-.843A1.294,1.294,0,0,1,667.491,222.3Z" transform="translate(-595.464 -213.903)"/><path class="b" d="M597.69,268.09a1.444,1.444,0,0,1,.176.164l.479.51c.422.447,1.032,1.12,1.794,2a70.2,70.2,0,0,1,5.929,7.912,53.359,53.359,0,0,1,6.206,13.275,129.563,129.563,0,0,1,3.72,17.568c2.052,12.589,4.564,23.818,6.389,31.957.913,4.054,1.662,7.339,2.178,9.637.252,1.12.447,2,.585,2.625.057.283.1.51.138.686a1.079,1.079,0,0,1,.038.233,1.032,1.032,0,0,1-.076-.226c-.044-.17-.107-.4-.176-.674-.157-.629-.378-1.492-.629-2.606-.548-2.3-1.334-5.571-2.3-9.612-1.888-8.126-4.444-19.38-6.5-31.957a131.715,131.715,0,0,0-3.682-17.524,53.625,53.625,0,0,0-6.093-13.218,76.977,76.977,0,0,0-5.816-7.956c-.743-.9-1.334-1.586-1.737-2.052l-.453-.529A1.015,1.015,0,0,1,597.69,268.09Z" transform="translate(-581.016 -230.871)"/><path class="b" d="M670.536,349.6a1.6,1.6,0,0,1-.365.063l-1.045.12-.749.069-.894.138c-.629.094-1.366.189-2.165.365l-1.259.245-1.341.34c-.931.214-1.888.554-2.927.862a43.068,43.068,0,0,0-6.383,2.814,35.79,35.79,0,0,0-5.715,3.972,27.224,27.224,0,0,0-2.2,2.109,23.426,23.426,0,0,0-1.737,2,20.591,20.591,0,0,0-1.259,1.775,12.623,12.623,0,0,0-.881,1.4l-.535.906a1.259,1.259,0,0,1-.214.3,1.308,1.308,0,0,1,.145-.34l.472-.938a11.33,11.33,0,0,1,.831-1.448,18.742,18.742,0,0,1,1.259-1.819,21.412,21.412,0,0,1,1.718-2.058,27.4,27.4,0,0,1,2.19-2.153,34.623,34.623,0,0,1,5.772-4.047,40.528,40.528,0,0,1,6.452-2.807c1.039-.309,2.014-.629,2.958-.837l1.36-.321,1.259-.227c.8-.157,1.536-.233,2.184-.309l.9-.107.755-.038,1.051-.044A1.255,1.255,0,0,1,670.536,349.6Z" transform="translate(-597.017 -261.067)"/><path class="b" d="M680.978,268.48a5.461,5.461,0,0,1-.73.7l-2.071,1.8c-1.762,1.5-4.217,3.563-6.924,5.822s-5.206,4.287-7.012,5.741l-2.153,1.706a4.493,4.493,0,0,1-.818.579,5.1,5.1,0,0,1,.724-.7l2.077-1.8c1.762-1.5,4.211-3.563,6.924-5.822s5.2-4.286,7.005-5.734l2.153-1.706A4.689,4.689,0,0,1,680.978,268.48Z" transform="translate(-604.576 -231.016)"/><path class="b" d="M682.514,289.657c0,.1-5.256,1.75-11.815,3.689s-11.9,3.424-11.959,3.323,5.262-1.756,11.821-3.695S682.488,289.55,682.514,289.657Z" transform="translate(-603.638 -238.861)"/><path class="b" d="M657.014,270.144a4.408,4.408,0,0,1-.541-.755c-.378-.566-.844-1.259-1.4-2.127-1.183-1.788-2.864-4.23-4.847-6.83s-3.9-4.866-5.312-6.483l-1.68-1.888a4.4,4.4,0,0,1-.586-.73,4.339,4.339,0,0,1,.7.629c.428.422,1.032,1.045,1.769,1.832,1.466,1.574,3.418,3.821,5.413,6.433s3.644,5.086,4.771,6.924c.567.913,1.007,1.662,1.3,2.19A4.266,4.266,0,0,1,657.014,270.144Z" transform="translate(-597.676 -224.66)"/><path class="b" d="M631.53,293a18.242,18.242,0,0,1-1.259,2.039c-.793,1.259-1.888,2.971-2.977,4.922s-2.046,3.777-2.713,5.073a15.718,15.718,0,0,1-1.12,2.109,12.984,12.984,0,0,1,.875-2.228c.629-1.347,1.51-3.179,2.625-5.142s2.228-3.676,3.084-4.885A12.617,12.617,0,0,1,631.53,293Z" transform="translate(-590.565 -240.102)"/><path class="b" d="M615.181,325.723a29.28,29.28,0,0,1-2.688-1.183c-1.655-.743-3.959-1.712-6.565-2.631s-5.036-1.586-6.773-2.033-2.851-.7-2.845-.755a3.351,3.351,0,0,1,.793.082c.5.075,1.221.214,2.115.4a59.088,59.088,0,0,1,6.836,1.957,57.9,57.9,0,0,1,6.552,2.744c.818.4,1.467.749,1.889,1.007A3.552,3.552,0,0,1,615.181,325.723Z" transform="translate(-580.505 -249.78)"/><path class="b" d="M615.9,373.41a1.135,1.135,0,0,1-.321.113l-.957.239-3.519.818a115.765,115.765,0,0,0-11.493,3.028,51.089,51.089,0,0,0-10.7,5.035c-1.259.818-2.279,1.536-2.952,2.058a12.1,12.1,0,0,1-1.064.787,2.232,2.232,0,0,1,.233-.252,7.067,7.067,0,0,1,.737-.629,30.466,30.466,0,0,1,2.9-2.165,46.809,46.809,0,0,1,10.745-5.174,95.7,95.7,0,0,1,11.563-2.939l3.544-.692A9.318,9.318,0,0,1,615.9,373.41Z" transform="translate(-576.273 -269.898)"/><path class="b" d="M661.148,374.416c-.107,0-.737-3.695-1.41-8.29s-1.127-8.328-1.026-8.346.736,3.695,1.41,8.29S661.255,374.4,661.148,374.416Z" transform="translate(-603.623 -264.106)"/><path class="b" d="M685.461,365.448a20.341,20.341,0,0,1-1.674-2c-1.007-1.259-2.4-2.977-3.984-4.859s-3.04-3.55-4.1-4.759a18.472,18.472,0,0,1-1.674-2,4.675,4.675,0,0,1,.529.46c.321.315.787.774,1.347,1.353,1.114,1.165,2.612,2.814,4.192,4.7s2.946,3.638,3.9,4.941c.478.629.856,1.177,1.1,1.555A2.592,2.592,0,0,1,685.461,365.448Z" transform="translate(-609.305 -261.905)"/><path class="b" d="M613.85,400.92v9.209h2.3l8.183,25.832h18.147l7.931-25.581,3.072-.252V400.92Z" transform="translate(-587.004 -280.092)"/><path class="c" d="M653.307,415.889c0,.107-8.013.2-17.9.2s-17.9-.088-17.9-.2,8.013-.189,17.9-.189S653.307,415.75,653.307,415.889Z" transform="translate(-588.361 -285.569)"/><path class="b" d="M678.1,321.86a7.987,7.987,0,0,1-1.164.315l-3.185.768c-2.688.661-6.37,1.674-10.373,3.015s-7.553,2.77-10.071,3.865l-3,1.316a7.151,7.151,0,0,1-1.114.447,8.606,8.606,0,0,1,1.051-.585c.686-.359,1.7-.85,2.958-1.429a104.7,104.7,0,0,1,20.507-6.892c1.353-.3,2.455-.523,3.216-.629A7.033,7.033,0,0,1,678.1,321.86Z" transform="translate(-600.1 -250.796)"/><path class="f" d="M650.006,438.629c0,.107-5.627.2-12.557.2s-12.589-.088-12.589-.2,5.621-.189,12.589-.189S650.006,438.522,650.006,438.629Z" transform="translate(-591.084 -293.995)"/><path class="f" d="M650.259,435.235c0,.107-5.961.2-13.313.2s-13.306-.088-13.306-.2,5.961-.2,13.306-.2S650.259,435.128,650.259,435.235Z" transform="translate(-590.632 -292.736)"/></g><g transform="translate(225.562 65.78)"><path class="b" d="M439.249,267.209a2.247,2.247,0,0,1,1.146-2.027,5.272,5.272,0,0,1,2.241-.78,3.134,3.134,0,0,1,.875,0c.258.038.46.227.466.384l-1.146.516c-1.316.63-2.184,1.183-3.582,1.888" transform="translate(-407.268 -192.438)"/><path class="b" d="M459.961,261.915a3.147,3.147,0,0,0-4.941.535Z" transform="translate(-413.112 -191.172)"/><path class="b" d="M472.024,265.881a2.883,2.883,0,0,0-.913-1.347,1.19,1.19,0,0,0-1.41,0,1.309,1.309,0,0,0-1.032,1.36,2.8,2.8,0,0,0,.5,1.259.592.592,0,0,0,.227.239.58.58,0,0,0,.51-.088l2-1.032a.247.247,0,0,0,.12-.39Z" transform="translate(-418.169 -192.412)"/><path class="b" d="M441.422,271.326a2.071,2.071,0,0,0-1.378-.075,2.133,2.133,0,0,0-.963.491l1.416.346c.629.151,1.807.472,1.807.472A1.41,1.41,0,0,0,441.422,271.326Z" transform="translate(-407.206 -194.956)"/><path class="e" d="M415.121,218.925s-17.668,7.088-21.735,17.738c-2.48,6.5.246,24.939.246,24.939l2.31-.629,4.853,24.353,35.394,5.451,22.729-9.926-8-34.575,14.018-.894s-10.808-22.874-17.971-25.511c-3.147-1.158-9.662-1.888-15.415-1.706a65.215,65.215,0,0,0-10.071.9Z" transform="translate(-389.888 -175.305)"/><g class="g" transform="translate(20.279 76.668)"><path d="M421.5,302.8c3.147-.2,5.715-2.618,7.591-5.168s3.437-5.432,5.954-7.346c2.342-1.769,5.287-2.518,7.755-4.117,1.46-.944,2.738-2.172,4.236-3.046a5.875,5.875,0,0,1,4.991-.743c1.152.459,2.071,1.46,3.279,1.725,1.574.346,3.1-.63,4.671-.969a5.985,5.985,0,0,1,5.929,2.625l-2.077-8.982c-1.158-1.209-3.55-2.153-5.1-2.782a29.93,29.93,0,0,0-27.746,3,24.667,24.667,0,0,0-8.472,9.668,18.393,18.393,0,0,0-1.259,12.671" transform="translate(-420.659 -271.893)"/></g><path class="b" d="M419.241,270.757a15.141,15.141,0,0,1-.472-2.153c-.245-1.334-.56-3.185-.894-5.231s-.629-3.9-.806-5.25a14.785,14.785,0,0,1-.239-2.184,13.664,13.664,0,0,1,.472,2.146c.246,1.341.567,3.191.894,5.237s.629,3.9.806,5.243A14.817,14.817,0,0,1,419.241,270.757Z" transform="translate(-398.961 -189.314)"/><path class="b" d="M478.29,239.29a54.614,54.614,0,0,1,1.473,5.81,55.445,55.445,0,0,1,1.152,5.885,55.939,55.939,0,0,1-1.473-5.81A55.188,55.188,0,0,1,478.29,239.29Z" transform="translate(-421.735 -183.144)"/><path class="b" d="M468.821,303a1.471,1.471,0,0,1-.239.233l-.718.63c-.315.271-.7.6-1.177.95s-.988.787-1.605,1.2-1.259.894-2.027,1.347-1.548.938-2.4,1.423a51.083,51.083,0,0,1-5.8,2.7,51.762,51.762,0,0,1-6.112,1.888c-.963.208-1.888.422-2.738.554s-1.668.264-2.4.352-1.41.138-2,.189-1.1.076-1.511.076h-.957a1.131,1.131,0,0,1-.333,0,1.422,1.422,0,0,1,.333-.05l.951-.076a13.95,13.95,0,0,0,1.5-.132c.585-.069,1.259-.113,1.983-.239s1.536-.214,2.386-.39,1.762-.365,2.719-.579a49.8,49.8,0,0,0,11.84-4.557c.856-.478,1.674-.919,2.4-1.385s1.423-.9,2.039-1.316,1.152-.806,1.63-1.152.881-.63,1.2-.906l.762-.585A1.666,1.666,0,0,1,468.821,303Z" transform="translate(-407.098 -206.752)"/><path class="b" d="M462.737,293.13a3.808,3.808,0,0,1-.359.755,9.662,9.662,0,0,1-.491.856c-.2.327-.415.7-.7,1.1a26.481,26.481,0,0,1-2.1,2.669,28.9,28.9,0,0,1-3.021,2.851,28,28,0,0,1-3.424,2.348,25.671,25.671,0,0,1-3.053,1.492c-.441.2-.856.327-1.215.453a8.959,8.959,0,0,1-.938.3,3.513,3.513,0,0,1-.812.2c0-.057,1.127-.39,2.876-1.158a29.036,29.036,0,0,0,2.984-1.536,27.972,27.972,0,0,0,6.376-5.149A30.28,30.28,0,0,0,461,295.7C462.121,294.149,462.681,293.1,462.737,293.13Z" transform="translate(-410.004 -203.094)"/><path class="e" d="M531.12,429.974l3.506,23.988c.227,1.435,1.378,3.286,3.273,3.116l27.066-4.488s1.347-2.587-15.333-4.922l-3.046-20.337Z" transform="translate(-441.312 -252.824)"/><g class="h" transform="translate(89.808 174.507)"><path class="i" d="M531.12,429.974l3.506,23.988c.227,1.435,1.378,3.286,3.273,3.116l27.066-4.488s1.347-2.587-15.333-4.922l-3.046-20.337Z" transform="translate(-531.12 -427.33)"/></g><path class="i" d="M572.3,461.83a8.816,8.816,0,0,0-.913,2.367,10.41,10.41,0,0,0,.158,2.518,1.732,1.732,0,0,1-.277-.711,4.757,4.757,0,0,1-.119-1.888,4.4,4.4,0,0,1,.629-1.737A1.838,1.838,0,0,1,572.3,461.83Z" transform="translate(-456.127 -265.608)"/><path class="i" d="M536.65,466.249a.942.942,0,0,1,.22-.384,2.039,2.039,0,0,1,1.045-.629,4.9,4.9,0,0,1,1.788-.05,8.816,8.816,0,0,1,2.134.5,5.555,5.555,0,0,1,1.888,1.152,4.369,4.369,0,0,1,1.026,1.467,3.421,3.421,0,0,1,.277,1.177,1.118,1.118,0,0,1,0,.441,4.956,4.956,0,0,0-.4-1.548A4.533,4.533,0,0,0,543.6,467a5.593,5.593,0,0,0-1.8-1.089,9.5,9.5,0,0,0-2.071-.5,5.12,5.12,0,0,0-1.725,0,2.111,2.111,0,0,0-1.013.516A3.1,3.1,0,0,0,536.65,466.249Z" transform="translate(-443.361 -266.829)"/><path class="i" d="M550.316,448.43a3.25,3.25,0,0,1-.566.227c-.371.132-.906.308-1.574.522-1.335.434-3.192.995-5.256,1.567s-3.94,1.039-5.306,1.359l-1.624.359a3.345,3.345,0,0,1-.629.094,3.06,3.06,0,0,1,.585-.189l1.6-.434,5.287-1.429,5.268-1.492,1.593-.453A2.718,2.718,0,0,1,550.316,448.43Z" transform="translate(-442.883 -260.642)"/><path class="e" d="M436.888,406l9.372,22.351c.548,1.347.516,3.531-1.2,4.362l-25.505,10.109s-2.486-1.523,10.594-12.129l-7.868-18.984Z" transform="translate(-399.902 -244.92)"/><g class="h" transform="translate(19.468 161.08)"><path class="i" d="M436.888,406l9.372,22.351c.548,1.347.516,3.531-1.2,4.362l-25.505,10.109s-2.486-1.523,10.594-12.129l-7.868-18.984Z" transform="translate(-419.37 -406)"/></g><path class="i" d="M426.92,453.56a8.511,8.511,0,0,1,2.008,1.555,10.439,10.439,0,0,1,1.177,2.26,1.888,1.888,0,0,0-.132-.762,4.77,4.77,0,0,0-.856-1.649,4.462,4.462,0,0,0-1.467-1.152A1.888,1.888,0,0,0,426.92,453.56Z" transform="translate(-402.7 -262.543)"/><path class="i" d="M457.246,438.957a.969.969,0,0,0-.39-.22,2.059,2.059,0,0,0-1.208,0,4.943,4.943,0,0,0-1.561.881,8.931,8.931,0,0,0-1.567,1.53,5.436,5.436,0,0,0-1.007,1.945,4.365,4.365,0,0,0-.126,1.788,3.332,3.332,0,0,0,.371,1.152.955.955,0,0,0,.258.359,4.754,4.754,0,0,1-.453-1.53,4.365,4.365,0,0,1,.164-1.706,5.666,5.666,0,0,1,.988-1.888,9.366,9.366,0,0,1,1.511-1.492,4.991,4.991,0,0,1,1.473-.9,2.09,2.09,0,0,1,1.133-.082C457.1,438.869,457.234,438.976,457.246,438.957Z" transform="translate(-411.751 -257.017)"/><path class="b" d="M430.336,324.536s-16.145-5.136-21.565-5.577-14.534-1.259-17.624,3.959c-2.348,3.928-3.7,7.843-1.819,13.489,1.781,5.331,19.758,47.366,19.758,47.366l21.25-3.689-11.3-38.106s14.433-1.038,16.365-1.183,29.414,3.852,29.414,3.852l12.778,55.46,21.074-2.146s-7.409-65.009-9.794-71.914c-1.555-4.456-8.869-9.731-16.057-10.172a70.978,70.978,0,0,0-15.358,1.164l-26.185,7.5" transform="translate(-388.441 -211.495)"/><path class="c" d="M508.345,335.35a8.554,8.554,0,0,0-1.133,2.417,9.7,9.7,0,0,0-.29,2.87,23.119,23.119,0,0,0,.485,3.544c.51,2.518.95,4.777,1.259,6.42.139.774.252,1.429.346,1.957a3.21,3.21,0,0,1,.082.724,2.954,2.954,0,0,1-.208-.7l-.447-1.932c-.359-1.637-.837-3.9-1.347-6.408a21.818,21.818,0,0,1-.466-3.594A9.247,9.247,0,0,1,507,337.7a6.133,6.133,0,0,1,.869-1.8A2.126,2.126,0,0,1,508.345,335.35Z" transform="translate(-432.233 -218.74)"/><path class="c" d="M501.09,345.06a14.326,14.326,0,0,1,.516,1.6,24.592,24.592,0,0,0,1.511,3.726,25.471,25.471,0,0,0,2.1,3.431,13.319,13.319,0,0,1,.982,1.353,6.175,6.175,0,0,1-1.165-1.215,19.1,19.1,0,0,1-3.657-7.232A6.228,6.228,0,0,1,501.09,345.06Z" transform="translate(-430.184 -222.338)"/><path class="c" d="M460.563,344.967a6.774,6.774,0,0,1-.7-1.378c-.4-.875-.894-2.1-1.366-3.487s-.844-2.656-1.076-3.588a7.011,7.011,0,0,1-.3-1.523,7.311,7.311,0,0,1,.516,1.46c.289.913.686,2.165,1.164,3.544s.932,2.612,1.259,3.506A7.828,7.828,0,0,1,460.563,344.967Z" transform="translate(-413.891 -218.606)"/><path class="c" d="M469.3,332a16.194,16.194,0,0,1-.9,1.448,17.574,17.574,0,0,0-2.518,7.711c-.082,1.045-.069,1.7-.12,1.706a5.793,5.793,0,0,1-.107-1.719,14.955,14.955,0,0,1,2.518-7.824A5.83,5.83,0,0,1,469.3,332Z" transform="translate(-417.046 -217.498)"/><path class="c" d="M446.854,339.24a17,17,0,0,0-7.774-7.05,5.372,5.372,0,0,1,1.492.535,13.3,13.3,0,0,1,3.147,2.134,13.024,13.024,0,0,1,2.43,2.952,5.226,5.226,0,0,1,.7,1.429Z" transform="translate(-407.206 -217.569)"/><path class="c" d="M428.58,338.47a10.493,10.493,0,0,1,1.114,1.655,43.966,43.966,0,0,1,2.26,4.249,45.062,45.062,0,0,1,1.794,4.469,10.7,10.7,0,0,1,.541,1.92,13.518,13.518,0,0,1-.762-1.838c-.44-1.146-1.083-2.713-1.888-4.406s-1.536-3.2-2.165-4.28A14.167,14.167,0,0,1,428.58,338.47Z" transform="translate(-403.315 -219.896)"/><path class="c" d="M435.644,343.93a4.16,4.16,0,0,1,.516,1.259,15.921,15.921,0,0,1,.629,3.147,15.515,15.515,0,0,1,0,3.242,4.184,4.184,0,0,1-.245,1.322c-.1,0,.176-2.039-.094-4.526S435.55,343.974,435.644,343.93Z" transform="translate(-405.929 -221.919)"/><path class="c" d="M441.744,264.048s-6.754.29-6.754,4.054,2.606,12.054,6.074,10.411,1.932-6.634,4.633-7.125,8.485-1.548,9.253-.4,2.606,6.364,5.035,4.242,1.057-12.438,0-13.017S449.839,261.927,441.744,264.048Z" transform="translate(-405.69 -191.543)"/><path class="b" d="M459.856,272.162a6.013,6.013,0,0,1-.176-.831,7.262,7.262,0,0,0-.718-2.146,2.644,2.644,0,0,0-2.732-1.4,10.174,10.174,0,0,0-1.945.434c-.674.2-1.379.384-2.115.535a25.8,25.8,0,0,1-4.18.529,14.036,14.036,0,0,0-3.368.283,2.865,2.865,0,0,0-1.731,1.328,3.7,3.7,0,0,0-.258.787.633.633,0,0,1,0-.22,1.781,1.781,0,0,1,.157-.629,2.927,2.927,0,0,1,1.769-1.492,13.171,13.171,0,0,1,3.43-.359,27.785,27.785,0,0,0,4.129-.554c.724-.151,1.423-.327,2.09-.522a10.055,10.055,0,0,1,2.008-.428,3.079,3.079,0,0,1,1.844.378,3.028,3.028,0,0,1,1.114,1.209,6.582,6.582,0,0,1,.629,2.241A3,3,0,0,1,459.856,272.162Z" transform="translate(-408.519 -193.583)"/><path class="b" d="M462.163,261.326c-.044.038-.252-.208-.686-.466a2.914,2.914,0,0,0-3.556.378c-.365.34-.522.629-.567.6s.05-.346.4-.762a2.832,2.832,0,0,1,3.852-.4C462.037,261,462.195,261.294,462.163,261.326Z" transform="translate(-413.974 -190.854)"/><path class="b" d="M471.567,262.84a29.328,29.328,0,0,0-2.814,1.322,28.727,28.727,0,0,0-2.474,1.888,7.592,7.592,0,0,1,5.287-3.2Z" transform="translate(-417.285 -191.871)"/><path class="j" d="M430.052,272.986s.315-.39-.094-1.668-8.063-2.606-8.063-2.606a21.615,21.615,0,0,1,6.49-3.921s-.044-.673-2.272-.825-6.144,2.373-7.78,3.26-7,6.767-7,6.767l-13.262,3.456,3.814,22.408a36.794,36.794,0,0,1,10.474-.107c1.045.17,3.33-15.491,3.33-15.491a2.7,2.7,0,0,0,2.826.781c1.63-.592,5.193-6.628,5.193-6.628l3.582.353c2.228-1.183,2-2.675,2-2.675C432.444,275.057,430.052,272.986,430.052,272.986Z" transform="translate(-392.009 -192.285)"/><path class="k" d="M434.216,271.73a5.375,5.375,0,0,1-1.359-.138,16.325,16.325,0,0,0-3.229-.239,4.6,4.6,0,0,0-1.643.548,11.741,11.741,0,0,0-1.259.768,12.6,12.6,0,0,1-1.1.806,3.641,3.641,0,0,1,.957-.988,8.194,8.194,0,0,1,1.259-.85,4.608,4.608,0,0,1,1.756-.629,12.378,12.378,0,0,1,3.3.34A5.945,5.945,0,0,1,434.216,271.73Z" transform="translate(-402.222 -194.894)"/><path class="k" d="M431.47,277.236a4.887,4.887,0,0,1,1.227-1.164,4.8,4.8,0,0,1,.749-.459,3.54,3.54,0,0,1,.988-.22,10.191,10.191,0,0,1,2.253.076,16.414,16.414,0,0,1,3.953,1.013,5.582,5.582,0,0,1,1.5.755c0,.044-.629-.214-1.586-.541a21.077,21.077,0,0,0-3.909-.9c-1.542-.2-3.021-.233-3.821.466C431.98,276.834,431.508,277.274,431.47,277.236Z" transform="translate(-404.386 -196.511)"/><path class="k" d="M432.54,282.693a6.53,6.53,0,0,1,.818-1.309,3.293,3.293,0,0,1,1.385-1.02,3.481,3.481,0,0,1,2.084-.1,20.1,20.1,0,0,1,3.556,1.051,3.853,3.853,0,0,1,1.334.768c0,.044-.529-.246-1.423-.548a27.846,27.846,0,0,0-3.544-.95,3.293,3.293,0,0,0-1.92.057,3.149,3.149,0,0,0-1.3.881A7.677,7.677,0,0,1,432.54,282.693Z" transform="translate(-404.782 -198.285)"/><path class="k" d="M415.189,277.27a3.288,3.288,0,0,1-.453.63l-1.309,1.6c-1.1,1.36-2.587,3.267-4.117,5.451s-2.807,4.236-3.708,5.741l-1.051,1.781a3.764,3.764,0,0,1-.422.63,3.221,3.221,0,0,1,.309-.7c.214-.441.541-1.07.969-1.832a67.893,67.893,0,0,1,3.632-5.816c1.536-2.19,3.059-4.085,4.2-5.413.579-.661,1.051-1.183,1.4-1.536A3.327,3.327,0,0,1,415.189,277.27Z" transform="translate(-394.255 -197.218)"/><path class="k" d="M438.046,268.405c-.057.069-.472-.29-.554-.925s.239-1.083.315-1.032-.057.472,0,.994S438.122,268.342,438.046,268.405Z" transform="translate(-406.612 -193.206)"/><path class="j" d="M480.948,274.991c.126.63-.768,6.8,3.846,10.386s7.44,6.54,10.134,4.62,5.13-7.7,4.1-11.8-7.2-16.044-7.2-16.044l-11.7.447Z" transform="translate(-422.417 -191.615)"/><path class="j" d="M455.9,260.371s.239-4.236,1.806-4.7a4.752,4.752,0,0,1,4.073.629,12.884,12.884,0,0,0,3.607,1.177s6.59-.283,7.214.447,4,5.98,4,5.98l-1.8,7.761a9.341,9.341,0,0,1-4.859,1.964c-3.147.39-5.879.39-5.879-1.334,0,0-2.354-1.29-2.354-2.449,0,0-2.977.724-3.216-.963s5.879-2.392,5.879-2.392-1.1-1.007-.075-1.838a24.6,24.6,0,0,1,4.079-2.1s.183-2.216-.774-2.788C466.21,258.948,455.9,260.371,455.9,260.371Z" transform="translate(-413.439 -189.137)"/><path class="k" d="M478.1,266.289a3.268,3.268,0,0,1-.831,1.3,8.029,8.029,0,0,1-3.147,2.014,15.4,15.4,0,0,1-3.638.774,6.43,6.43,0,0,1-1.53.069,8.409,8.409,0,0,1,1.5-.3A19.837,19.837,0,0,0,474,269.3a8.679,8.679,0,0,0,3.078-1.888A12.751,12.751,0,0,0,478.1,266.289Z" transform="translate(-418.274 -193.148)"/><path class="k" d="M474.477,274.658a3.619,3.619,0,0,1-1.164.95,9.9,9.9,0,0,1-3.418,1.259,19.27,19.27,0,0,1-3.613.245A6.2,6.2,0,0,1,464.79,277a7.294,7.294,0,0,1,1.485-.12,27.839,27.839,0,0,0,3.563-.334,11.569,11.569,0,0,0,3.361-1.114C474.005,274.985,474.44,274.614,474.477,274.658Z" transform="translate(-416.733 -196.249)"/><path class="k" d="M476.006,279.24a2.521,2.521,0,0,1-.875.629,8.457,8.457,0,0,1-2.474.862,16.155,16.155,0,0,1-2.6.271,3.452,3.452,0,0,1-1.058-.025c0-.113,1.643-.189,3.619-.548a11.252,11.252,0,0,0,2.436-.749A6.1,6.1,0,0,1,476.006,279.24Z" transform="translate(-418.293 -197.948)"/><path class="k" d="M476.985,263.6c.088,0,0,.629-.472,1.2s-1,.843-1.045.768.378-.434.78-.963S476.9,263.568,476.985,263.6Z" transform="translate(-420.689 -192.151)"/><path class="k" d="M463.351,258.4a1.454,1.454,0,0,1,.371,1.353c-.094.831-.629,1.3-.692,1.221a12.786,12.786,0,0,0,.371-1.259C463.5,259,463.263,258.444,463.351,258.4Z" transform="translate(-416.081 -190.225)"/><path class="k" d="M464.372,262.013c0,.088-.283.094-.541-.069s-.371-.4-.3-.453.258.044.472.176S464.4,261.925,464.372,262.013Z" transform="translate(-416.258 -191.365)"/><path class="k" d="M482.99,264.3a2.316,2.316,0,0,1,.359.535,8.887,8.887,0,0,1,.762,1.58,4.89,4.89,0,0,1,.252,1.209,5.319,5.319,0,0,1-.132,1.4,1.931,1.931,0,0,0,0,.686,7.452,7.452,0,0,0,.239.724,1.972,1.972,0,0,1,.1.862,3.356,3.356,0,0,1-.227.837,9.626,9.626,0,0,1-1.46,2.845,5.312,5.312,0,0,1-2.172,1.473,7.621,7.621,0,0,1-1.712.409,2.272,2.272,0,0,1-.629,0,20.293,20.293,0,0,0,2.266-.629,5.407,5.407,0,0,0,2.027-1.448,10,10,0,0,0,1.391-2.77,2.021,2.021,0,0,0,.12-1.486c-.076-.246-.183-.491-.239-.762a2.092,2.092,0,0,1,0-.793,5.24,5.24,0,0,0,.157-1.341,4.892,4.892,0,0,0-.2-1.146,11.331,11.331,0,0,0-.63-1.6A2.885,2.885,0,0,1,482.99,264.3Z" transform="translate(-421.765 -192.412)"/><path class="k" d="M486.49,266.16a3.358,3.358,0,0,1,.529.516l1.36,1.5,1.977,2.247c.755.843,1.53,1.819,2.442,2.719a9.512,9.512,0,0,0,3.034,1.92,8.919,8.919,0,0,1,2.587,1.567,3.778,3.778,0,0,1,1.089,1.731,2.734,2.734,0,0,1,.069.554v.189a2.236,2.236,0,0,0-.17-.711,3.775,3.775,0,0,0-1.121-1.592,9.227,9.227,0,0,0-2.555-1.46,17.032,17.032,0,0,1-1.605-.781,8.186,8.186,0,0,1-1.53-1.177c-.944-.932-1.7-1.888-2.442-2.757l-1.926-2.3c-.51-.629-.932-1.139-1.259-1.567A3.2,3.2,0,0,1,486.49,266.16Z" transform="translate(-424.774 -193.101)"/><path class="j" d="M421.158,173.236l4.677,28.325a8.686,8.686,0,0,0,9.442,7.232h0a8.686,8.686,0,0,0,7.8-9.385l-.459-5.394s6.842-1.681,6.326-8.623c-.245-3.349-1.322-10.191-2.36-16.366a13.036,13.036,0,0,0-14.591-10.745h0a12.885,12.885,0,0,0-10.833,14.956Z" transform="translate(-400.494 -153.082)"/><path class="k" d="M449.915,214.118a16.19,16.19,0,0,1-9.266-1.788s2.575,4.809,9.442,3.582Z" transform="translate(-407.787 -173.154)"/><path class="b" d="M457.841,183.578a.994.994,0,0,1-.869,1.083.95.95,0,0,1-1.1-.806,1,1,0,0,1,.862-1.083.957.957,0,0,1,1.1.806Z" transform="translate(-413.428 -162.196)"/><path class="b" d="M457.438,180.615c-.113.138-.913-.353-1.976-.258s-1.8.7-1.926.579.038-.3.359-.573a2.751,2.751,0,0,1,1.53-.629,2.6,2.6,0,0,1,1.586.365C457.362,180.325,457.494,180.527,457.438,180.615Z" transform="translate(-412.546 -161.071)"/><path class="b" d="M441.277,185.708a.994.994,0,0,1-.869,1.076.95.95,0,0,1-1.1-.8,1,1,0,0,1,.869-1.083.951.951,0,0,1,1.1.806Z" transform="translate(-407.288 -162.985)"/><path class="b" d="M440.818,182.375c-.113.139-.913-.352-1.976-.258s-1.8.7-1.926.579.038-.3.359-.573a2.75,2.75,0,0,1,1.529-.629,2.6,2.6,0,0,1,1.586.365C440.729,182.085,440.874,182.312,440.818,182.375Z" transform="translate(-406.388 -161.723)"/><path class="b" d="M449.627,189.717a7.771,7.771,0,0,1,1.706-.459c.271-.05.522-.126.554-.321a1.416,1.416,0,0,0-.252-.787l-.982-2a34.663,34.663,0,0,1-2.279-5.268,35.094,35.094,0,0,1,2.694,5.073c.334.7.629,1.372.95,2.014a1.555,1.555,0,0,1,.233,1.057.673.673,0,0,1-.409.434,1.833,1.833,0,0,1-.459.107A6.737,6.737,0,0,1,449.627,189.717Z" transform="translate(-410.646 -161.499)"/><path class="b" d="M445.415,196.53c.176,0,.277,1.133,1.341,1.888s2.279.5,2.3.667c0,.069-.258.246-.774.308a2.908,2.908,0,0,1-1.92-.491,2.518,2.518,0,0,1-1.045-1.574C445.232,196.826,445.339,196.53,445.415,196.53Z" transform="translate(-409.506 -167.299)"/><path class="b" d="M440.29,177.735c-.082.3-1.158.252-2.392.51s-2.222.686-2.411.441c-.082-.113.069-.4.453-.718a4.255,4.255,0,0,1,3.657-.73C440.076,177.383,440.321,177.59,440.29,177.735Z" transform="translate(-405.867 -160.099)"/><path class="b" d="M455.234,173.9c-.164.264-.919.094-1.8.183s-1.612.346-1.813.107c-.088-.113,0-.365.3-.629a2.631,2.631,0,0,1,2.908-.239C455.171,173.53,455.3,173.769,455.234,173.9Z" transform="translate(-411.841 -158.575)"/><path class="b" d="M426.841,166.939h-.032a5.477,5.477,0,0,0-1.725,3.707v.139c-.1,2,.126,4.01,0,6.011a9.045,9.045,0,0,1-1.97,5.558c-.554.629-1.586,1.089-2.134.478a1.7,1.7,0,0,1-.327-.888c-.787-4.746-2.455-8.869-2.883-13.848a4.223,4.223,0,0,1,1.454-3.575c.982-.843,2.19-1.731,3.4-1.259s2.9,2.518,3.883,3.342" transform="translate(-399.303 -154.923)"/><path class="j" d="M422.854,186.939c-.126-.038-4.891-.995-4.331,3.733s5.2,3.191,5.187,3.053S422.854,186.939,422.854,186.939Z" transform="translate(-399.571 -163.706)"/><path class="k" d="M422.753,193.025a1.25,1.25,0,0,1-.208.145.806.806,0,0,1-.63.088,2.065,2.065,0,0,1-1.164-1.718,2.793,2.793,0,0,1,.088-1.2.982.982,0,0,1,.548-.711.416.416,0,0,1,.51.17c.082.126.063.22.088.227s.094-.088,0-.283a.542.542,0,0,0-.22-.271.629.629,0,0,0-.472-.069,1.183,1.183,0,0,0-.774.837,2.9,2.9,0,0,0-.126,1.353,2.127,2.127,0,0,0,1.441,1.888.894.894,0,0,0,.743-.22C422.759,193.138,422.772,193.031,422.753,193.025Z" transform="translate(-400.27 -164.65)"/><path class="b" d="M424.37,159.96c-1.592-1.561.862-4.991,2.965-6.294s5.382-.913,7.843-.718a13.131,13.131,0,0,0,4.627,0,10.608,10.608,0,0,0,2.744-1.473,7.779,7.779,0,0,1,2.814-1.315,2.87,2.87,0,0,1,2.814.944,1.783,1.783,0,0,1-.585,2.644,2.342,2.342,0,1,1,1.649,4.06c.529-.661,1.744-.088,1.888.749a2.449,2.449,0,0,1-1.146,2.14,8.891,8.891,0,0,1-6.194,1.429c-2.165-.182-4.268-.762-6.42-.995s-5.791-.7-7.6.485c-1.328.875-1.888,2.889-2.833,2.707a2.921,2.921,0,0,1-1.977-1.718,8.238,8.238,0,0,1-.56-2.656" transform="translate(-401.566 -150.09)"/><path class="c" d="M449.345,156.52a.493.493,0,0,1,.252.113,1.423,1.423,0,0,1,.567.548,2.02,2.02,0,0,1,.271,1.209,2.071,2.071,0,0,1-.774,1.41,3.9,3.9,0,0,1-1.844.781,7.677,7.677,0,0,1-2.335,0,23.321,23.321,0,0,1-5.117-1.7,13.987,13.987,0,0,0-5.281-1.259,6.3,6.3,0,0,0-2.348.466,5.911,5.911,0,0,0-1.744,1.127,6.084,6.084,0,0,0-1.624,2.518,4.108,4.108,0,0,0-.227,1.076,6.793,6.793,0,0,1,.3-1.051,6.112,6.112,0,0,1,1.649-2.423,5.607,5.607,0,0,1,1.712-1.083,6.207,6.207,0,0,1,2.285-.434,14.132,14.132,0,0,1,5.205,1.259,22.733,22.733,0,0,0,5.168,1.7,7.769,7.769,0,0,0,2.386,0,4.009,4.009,0,0,0,1.888-.837,2.575,2.575,0,0,0,.579-.718,2.115,2.115,0,0,0-.094-2.046,1.372,1.372,0,0,0-.629-.541A.882.882,0,0,0,449.345,156.52Z" transform="translate(-403.522 -152.473)"/><path class="c" d="M431.936,156.291a.819.819,0,0,0-.309,0,3.782,3.782,0,0,0-.8.258,4.633,4.633,0,0,0-2.8,4.456,3.813,3.813,0,0,0,.113.831c.05.2.094.3.107.29a7.658,7.658,0,0,1-.082-1.12,4.8,4.8,0,0,1,2.719-4.331C431.508,156.4,431.943,156.329,431.936,156.291Z" transform="translate(-403.109 -152.383)"/><path class="c" d="M418.87,173.7a.724.724,0,0,0,.4.057,1.888,1.888,0,0,0,1.032-.371,2.706,2.706,0,0,0,.969-1.309,8,8,0,0,0,.4-1.945,7.7,7.7,0,0,1,.384-1.888,2.612,2.612,0,0,1,.906-1.259,1.925,1.925,0,0,1,.963-.384h.4a.92.92,0,0,0-.4-.069,1.888,1.888,0,0,0-1.045.346,2.688,2.688,0,0,0-.995,1.259,7.618,7.618,0,0,0-.415,1.939,8.072,8.072,0,0,1-.371,1.888,2.669,2.669,0,0,1-.881,1.259,1.964,1.964,0,0,1-.957.409A2.117,2.117,0,0,1,418.87,173.7Z" transform="translate(-399.717 -156.182)"/><path class="c" d="M419.93,177.826h.12a2.075,2.075,0,0,0,.346,0,4.517,4.517,0,0,0,1.259-.264,5.747,5.747,0,0,0,3.04-2.77,8.491,8.491,0,0,0,.869-4.072,3.647,3.647,0,0,1,0-.705.848.848,0,0,1,.22-.459.711.711,0,0,1,.384-.2.466.466,0,0,0-.441.151.926.926,0,0,0-.271.491,3.347,3.347,0,0,0-.044.73,8.813,8.813,0,0,1-.906,3.978,5.778,5.778,0,0,1-2.933,2.738A6.471,6.471,0,0,1,419.93,177.826Z" transform="translate(-400.11 -157.225)"/></g><g transform="translate(132.083 0)"><path class="j" d="M361.3,45.974l.082,1.567.894,3.682a6.99,6.99,0,0,0-.995,2.235c-.082.862,3.437,5.841,3.437,5.841l9.87,3.147s1.718-1.712.686-3.6a11.709,11.709,0,0,0-2.839-3.248s2.064-1.2.862-1.97l-1.2-.8s-.088-2.411-1.372-2.625l-1.083-.176a2.474,2.474,0,0,0-2.1-1.75l-.661.12s-.63-1.523-1.832-1.668c-1.026-.12-1.026.088-1.026.088A2.033,2.033,0,0,0,361.3,45.974Z" transform="translate(-284.897 -45.644)"/><path class="k" d="M368.517,53.626c-.031,0-.132-.264-.434-.686a9.215,9.215,0,0,0-1.58-1.561,14.963,14.963,0,0,1-1.164-1.045,4.659,4.659,0,0,1-1.02-1.517c-.233-.629-.252-1.3-.522-1.888a1.888,1.888,0,0,0-1.5-1.039,1.819,1.819,0,0,0-.963.17l.088-.132A10.626,10.626,0,0,0,362,49.5a25.685,25.685,0,0,0,1.057,2.77c.334.774.629,1.385.825,1.806a3.487,3.487,0,0,1,.29.667,2.918,2.918,0,0,1-.4-.629c-.233-.409-.554-1.007-.919-1.769a24.392,24.392,0,0,1-1.133-2.776,10.535,10.535,0,0,1-.629-3.689v-.038l.082-.044a2.146,2.146,0,0,1,1.146-.208,2.171,2.171,0,0,1,1.788,1.259c.3.674.308,1.353.522,1.888a6.817,6.817,0,0,0,2.046,2.518,8.093,8.093,0,0,1,1.536,1.662,3.534,3.534,0,0,1,.271.554Q368.536,53.626,368.517,53.626Z" transform="translate(-284.827 -45.585)"/><path class="k" d="M374.537,52.51c.038,0,.208.12.409.415a7.569,7.569,0,0,1,.629,1.227,1.888,1.888,0,0,1,.208,1.41c-.145.378-.422.459-.428.415a1.708,1.708,0,0,0,.2-.485,2.1,2.1,0,0,0-.283-1.215C374.884,53.291,374.487,52.56,374.537,52.51Z" transform="translate(-289.809 -48.151)"/><path class="k" d="M371.719,55.02a.754.754,0,0,0,.233-.05.579.579,0,0,0,.359-.434,1.36,1.36,0,0,0-.151-.894,12.159,12.159,0,0,0-.629-1.057A15.606,15.606,0,0,1,370,49.77a16.291,16.291,0,0,1,1.8,2.644,9.794,9.794,0,0,1,.629,1.1,1.536,1.536,0,0,1,.1,1.083.686.686,0,0,1-.56.491C371.794,55.108,371.706,55.032,371.719,55.02Z" transform="translate(-288.129 -47.135)"/><path class="k" d="M377.544,56.74a1.5,1.5,0,0,1,.321.724,4.243,4.243,0,0,1,.132.85,4.758,4.758,0,0,1,0,.516.686.686,0,0,1-.327.579.629.629,0,0,1-.667-.12,1.6,1.6,0,0,1-.34-.422,2.584,2.584,0,0,1-.315-.818c-.1-.478-.107-.774-.063-.781s.132.277.283.718a3.378,3.378,0,0,0,.346.718c.157.245.415.51.629.409s.17-.5.17-.793a6.068,6.068,0,0,0-.057-.812A3.142,3.142,0,0,1,377.544,56.74Z" transform="translate(-290.448 -49.718)"/><path class="k" d="M375.368,57.7c0,.038-.05.132-.214.208a1.039,1.039,0,0,1-1.259-.415c-.088-.157-.094-.277-.05-.3a3.432,3.432,0,0,0,.711.428C374.965,57.76,375.324,57.64,375.368,57.7Z" transform="translate(-289.543 -49.888)"/><path class="l" d="M299.319,327.3a3.792,3.792,0,0,0-4.406,1.983c-.447,1.221-2.033,6.5-2.033,6.5l9.165,1.41,2.688-7.352.308-.661S300.509,327.732,299.319,327.3Z" transform="translate(-259.552 -149.917)"/><path class="b" d="M262,269.551c-.283.812-23.68,40.832-21.986,50.7a16.939,16.939,0,0,0,2.795,7.05,10,10,0,0,0,10.31,3.94l33.7-7.3v-9.07L267.1,310.357s16.063-23.107,19.727-23.39,18.883,21.7,18.883,21.7,5.073,20.048,12.948,20.048,11.834,4.79,14.37-2.82-23.157-60.508-23.157-60.508Z" transform="translate(-239.931 -127.035)"/><path class="b" d="M330.2,331.114l-18.606-3.2s-9.542,10.864.239,18.254L348,352.332" transform="translate(-264.941 -150.202)"/><path class="c" d="M280.31,332.82c.057.044-.686.976-1.548,2.688a60.723,60.723,0,0,0-2.707,6.981,20.023,20.023,0,0,1-3.437,6.678c-.164.183-.315.359-.466.516l-.466.4-.409.353c-.132.094-.264.17-.378.246a4.367,4.367,0,0,1-.73.415,15.152,15.152,0,0,0,2.272-2.083,21.268,21.268,0,0,0,3.3-6.641,48.814,48.814,0,0,1,2.814-6.974,14.056,14.056,0,0,1,1.215-1.932A3.909,3.909,0,0,1,280.31,332.82Z" transform="translate(-251.136 -152.022)"/><path class="c" d="M354.438,349.784a3,3,0,0,1-.787-.227,9.442,9.442,0,0,1-1.983-1.032,14.03,14.03,0,0,1-4.689-5.621,25.875,25.875,0,0,1-2.039-7.062c-.145-.932-.239-1.681-.29-2.209a3.591,3.591,0,0,1-.044-.812,4.176,4.176,0,0,1,.17.8c.107.579.233,1.309.39,2.184a28.428,28.428,0,0,0,2.109,6.955,14.616,14.616,0,0,0,4.526,5.577A16.654,16.654,0,0,0,354.438,349.784Z" transform="translate(-278.717 -152.022)"/><path class="c" d="M283,336.89a.956.956,0,0,1,.309.038l.862.189,3.147.7c2.675.6,6.376,1.379,10.487,2.121,2.008.365,3.928.686,5.665.963h.139v.139c-.214,2.707-.4,5.036-.535,6.729-.076.787-.132,1.429-.183,1.926a3.289,3.289,0,0,1-.094.68,3.222,3.222,0,0,1,0-.692c0-.491.057-1.139.094-1.926.107-1.706.245-4.028.415-6.741l.132.164c-1.756-.264-3.682-.579-5.7-.938-4.116-.749-7.811-1.567-10.474-2.222-1.328-.321-2.4-.629-3.147-.806l-.85-.246a1.664,1.664,0,0,1-.271-.082Z" transform="translate(-255.89 -153.529)"/><path class="c" d="M343.153,340.776a6.888,6.888,0,0,1-.755-3.714,6.7,6.7,0,0,1,1.064-3.632,16.417,16.417,0,0,0-.736,3.644,17.523,17.523,0,0,0,.428,3.7Z" transform="translate(-277.893 -152.248)"/><path class="l" d="M315.128,342.752l5.117.138c.227.258,2.732-2.518,4.922-.938.428.3,5.6,9.612,5.6,9.612l2.694,2.845-14.232-2.43-4.7-.29Z" transform="translate(-267.574 -155.224)"/><path class="e" d="M259.528,171.73s-5.923,4.866-6.766,11.33c-.629,4.9-1.807,25.178-1.807,25.178s-2.864,9.687-1.788,12.526,5.728,8.271,5.728,8.271l10.7-6.162L264.3,210.3l1.8-19.613Z" transform="translate(-243.264 -92.329)"/><path class="e" d="M265.77,167.22c0,.843,8.938,39.686,8.938,39.686l-6.578,26.474s11.846,10.2,25.127,9.637,29.936-10.254,29.936-10.254-8.025-18.09-9.007-28.325c-1.127-11.714-2.058-40.473-2.058-40.473l-18.3-4.406-15.528.522Z" transform="translate(-249.506 -87.819)"/><path class="f" d="M324.184,262.82a2.516,2.516,0,0,1-.334.4c-.227.246-.554.629-1.013,1.083a35.657,35.657,0,0,1-4.136,3.581,38.779,38.779,0,0,1-6.993,4.123,41.6,41.6,0,0,1-4.488,1.7,37.839,37.839,0,0,1-5.036,1.139,34.579,34.579,0,0,1-9.933.044,30.926,30.926,0,0,1-7.824-2.146,24.394,24.394,0,0,1-4.777-2.669,13.844,13.844,0,0,1-1.171-.919,2.86,2.86,0,0,1-.39-.346,3.355,3.355,0,0,1,.428.3,14.655,14.655,0,0,0,1.208.862,26.034,26.034,0,0,0,4.79,2.562,31.707,31.707,0,0,0,7.774,2.065,34.7,34.7,0,0,0,9.845-.076,38.14,38.14,0,0,0,4.985-1.12,41,41,0,0,0,4.463-1.656,39.744,39.744,0,0,0,6.981-4.035,38.344,38.344,0,0,0,4.161-3.519c.478-.434.818-.8,1.064-1.039A4.3,4.3,0,0,1,324.184,262.82Z" transform="translate(-254.071 -126.083)"/><g class="g" transform="translate(14.959 131.234)"><path d="M269.553,269.765a4.964,4.964,0,0,0,4.5.39,31.482,31.482,0,0,0,4.186-2.121c4.935-2.562,10.776-2.782,15.875-4.991,2.291-.988,4.714-3.009,4.236-5.464a4.218,4.218,0,0,0-2.675-2.914,10.8,10.8,0,0,0-4.066-.573c-7.415,0-14.741,1.486-22.03,2.958a9.428,9.428,0,0,0-4.7,1.888c-1.252,1.164-1.681,3.393-.422,4.551" transform="translate(-263.697 -254.077)"/></g><path class="e" d="M345.452,64.83l-.422,3.959-27.979,53.95c-2.134-.787-3.877,0-5.281,2.083l1.02,6.137,16.75,12.073c1.964-10.581,14.779-42.9,27.009-73.122Z" transform="translate(-266.551 -52.716)"/><path class="b" d="M270.238,192.18c.088,0,1.53,5.967,3.223,13.369s2.99,13.42,2.9,13.445-1.53-5.967-3.216-13.376S270.15,192.2,270.238,192.18Z" transform="translate(-251.16 -99.907)"/><path class="b" d="M320.872,161.448a5,5,0,0,1-1.139-1.46c-.629-.938-1.259-2.455-2.732-3.33a2.751,2.751,0,0,0-2.228-.29,4.62,4.62,0,0,0-1.662.969c-.843.736-1.3,1.259-1.341,1.259a1.618,1.618,0,0,1,.277-.415,8.552,8.552,0,0,1,.913-1.007,4.64,4.64,0,0,1,1.725-1.083,2.946,2.946,0,0,1,1.259-.132,3.3,3.3,0,0,1,1.259.428,5.546,5.546,0,0,1,1.769,1.756c.415.629.724,1.259,1,1.744C320.463,160.869,320.9,161.416,320.872,161.448Z" transform="translate(-266.551 -86.478)"/><path class="b" d="M340.739,201.711a5.206,5.206,0,0,1-.088-.925c-.05-.585-.113-1.441-.189-2.518-.138-2.109-.315-5.035-.378-8.239s0-6.143.038-8.252c.031-1.057.057-1.888.088-2.518a4.52,4.52,0,0,1,.075-.919,5.625,5.625,0,0,1,.05.919v2.518c0,2.109,0,5.036.057,8.246s.2,6.124.283,8.233c.031,1.007.063,1.851.082,2.518A4.726,4.726,0,0,1,340.739,201.711Z" transform="translate(-277.034 -94.778)"/><path class="b" d="M264.465,231.9c0,.05-.516-.264-1.372-.585a8.705,8.705,0,0,0-6.886.378c-.812.416-1.259.774-1.3.73a4.006,4.006,0,0,1,1.19-.932,7.894,7.894,0,0,1,3.493-1.026,7.987,7.987,0,0,1,3.588.629A3.777,3.777,0,0,1,264.465,231.9Z" transform="translate(-245.481 -114.088)"/><path class="b" d="M263.45,228.161c0,.088-1.341-.334-3-.63s-3.034-.4-3.034-.491a8.63,8.63,0,0,1,3.091.17A8.241,8.241,0,0,1,263.45,228.161Z" transform="translate(-246.412 -112.799)"/><path class="b" d="M326.883,158.116c-.05,0-.233-.4-.686-.957a5.256,5.256,0,0,0-2.209-1.63,5.326,5.326,0,0,0-2.732-.239c-.711.12-1.12.315-1.146.264a2.43,2.43,0,0,1,1.1-.491,4.841,4.841,0,0,1,5.18,1.958A2.412,2.412,0,0,1,326.883,158.116Z" transform="translate(-269.642 -86.098)"/><path class="b" d="M341.831,154.87a24.023,24.023,0,0,0-2.083,4.677,23.517,23.517,0,0,0-.705,5.035,4.924,4.924,0,0,1-.138-1.517,13.691,13.691,0,0,1,.529-3.644,13.936,13.936,0,0,1,1.479-3.368A5.444,5.444,0,0,1,341.831,154.87Z" transform="translate(-276.602 -86.081)"/><path class="f" d="M308.748,162.88l-.113.1-.353.271c-.3.245-.78.56-1.328,1.064a34.08,34.08,0,0,0-4.286,4.526c-1.687,2.027-3.531,4.595-5.973,7.119a19.732,19.732,0,0,1-4.337,3.393,13.88,13.88,0,0,1-5.665,1.762,17.17,17.17,0,0,1-3.009,0,23.816,23.816,0,0,1-2.889-.4,36.343,36.343,0,0,1-5.287-1.53c-3.292-1.215-6.156-2.518-8.648-3.38a31.411,31.411,0,0,0-6.03-1.58c-.73-.1-1.3-.157-1.687-.183L258.7,174a.47.47,0,0,1-.151,0,.4.4,0,0,1,.151,0h.447a16.493,16.493,0,0,1,1.7.12,29.651,29.651,0,0,1,6.087,1.485c2.518.837,5.4,2.121,8.674,3.317a37.583,37.583,0,0,0,5.25,1.5,22.031,22.031,0,0,0,2.851.39,16.541,16.541,0,0,0,2.952,0,13.709,13.709,0,0,0,5.533-1.744,19.508,19.508,0,0,0,4.28-3.323c2.43-2.486,4.293-5.036,6.011-7.056a31.648,31.648,0,0,1,4.406-4.475,12.537,12.537,0,0,1,1.372-1.013l.371-.245Q308.742,162.873,308.748,162.88Z" transform="translate(-246.83 -89.049)"/><path class="f" d="M315.846,207.84a1.889,1.889,0,0,1-.2.39,11.327,11.327,0,0,1-.629,1.089,17.457,17.457,0,0,1-3.059,3.487,21.909,21.909,0,0,1-5.835,3.663,26.651,26.651,0,0,1-8.183,2.046,36.024,36.024,0,0,1-8.428-.359,51.173,51.173,0,0,1-6.71-1.529c-1.888-.56-3.38-1.076-4.406-1.46-.51-.183-.906-.346-1.177-.447a2.19,2.19,0,0,1-.4-.182,2.786,2.786,0,0,1,.428.12l1.2.39c1.039.34,2.518.831,4.406,1.353a54.624,54.624,0,0,0,6.691,1.46,36.545,36.545,0,0,0,8.353.327,26.939,26.939,0,0,0,8.088-2,22.282,22.282,0,0,0,5.8-3.556,18.638,18.638,0,0,0,3.1-3.393C315.518,208.35,315.814,207.821,315.846,207.84Z" transform="translate(-253.6 -105.709)"/><path class="f" d="M318.488,233.76a1.889,1.889,0,0,1-.3.321l-.913.881c-.8.755-1.957,1.851-3.468,3.147a34.92,34.92,0,0,1-5.665,3.972,20.469,20.469,0,0,1-8.051,2.6,20.989,20.989,0,0,1-8.378-1.259c-2.48-.818-4.639-1.731-6.49-2.386a34.6,34.6,0,0,0-4.45-1.322c-1.07-.233-1.674-.308-1.668-.346a1.934,1.934,0,0,1,.441.038,11.686,11.686,0,0,1,1.259.183,30.507,30.507,0,0,1,4.5,1.259c1.888.629,4.041,1.523,6.509,2.323a20.983,20.983,0,0,0,8.252,1.2,20.558,20.558,0,0,0,7.944-2.518,37.033,37.033,0,0,0,5.665-3.884c1.517-1.259,2.7-2.31,3.525-3.04l.951-.831A2.1,2.1,0,0,1,318.488,233.76Z" transform="translate(-254.449 -115.314)"/><path class="f" d="M266.528,214.773c-.044,0-.516-.629-1.423-1.574a17.266,17.266,0,0,0-8.756-4.9c-1.259-.277-2.09-.334-2.09-.39a1.69,1.69,0,0,1,.579,0,10.761,10.761,0,0,1,1.555.176,15.617,15.617,0,0,1,8.881,4.973,10.492,10.492,0,0,1,.963,1.259A1.816,1.816,0,0,1,266.528,214.773Z" transform="translate(-245.241 -105.724)"/><path class="f" d="M263.4,239.325a20.893,20.893,0,0,0-2.2-.629,10.166,10.166,0,0,0-9.895,3.368c-.925,1.07-1.3,1.888-1.353,1.851a2.582,2.582,0,0,1,.239-.573,8.553,8.553,0,0,1,.932-1.423,9.851,9.851,0,0,1,10.128-3.443,8.548,8.548,0,0,1,1.611.56A2.047,2.047,0,0,1,263.4,239.325Z" transform="translate(-243.643 -116.951)"/><path class="f" d="M345.824,142.272c-.044.031-.516-.629-1.391-1.586a21.793,21.793,0,0,0-8.29-5.709c-1.215-.472-2-.68-1.983-.736a1.89,1.89,0,0,1,.566.088,14.57,14.57,0,0,1,1.5.428,19.289,19.289,0,0,1,4.582,2.316,19.514,19.514,0,0,1,3.777,3.456,14.144,14.144,0,0,1,.932,1.259A1.886,1.886,0,0,1,345.824,142.272Z" transform="translate(-274.848 -78.436)"/><path class="f" d="M358.384,112.585c-.05.031-.422-.579-1.139-1.467a17.538,17.538,0,0,0-3.216-3.072,17.3,17.3,0,0,0-3.909-2.128c-1.07-.409-1.763-.579-1.75-.629a1.587,1.587,0,0,1,.5.063,10.183,10.183,0,0,1,1.328.359,14.874,14.874,0,0,1,4.016,2.077,15.028,15.028,0,0,1,3.21,3.191,10.249,10.249,0,0,1,.743,1.158A1.564,1.564,0,0,1,358.384,112.585Z" transform="translate(-280.114 -67.708)"/><path class="f" d="M370.553,85.747c-.05,0-.378-.592-1.007-1.511a15.926,15.926,0,0,0-6.584-5.514c-1.013-.46-1.681-.673-1.662-.724s.176,0,.485.088a10.48,10.48,0,0,1,1.259.422,13.986,13.986,0,0,1,6.685,5.6,9.792,9.792,0,0,1,.629,1.177,1.445,1.445,0,0,1,.2.459Z" transform="translate(-284.905 -57.588)"/><g class="g" transform="translate(7.244 114.093)"><path d="M251.673,232.412c1.2-2,3.821-2.681,6.137-2.474s4.526,1.1,6.817,1.517a6.924,6.924,0,0,0-13.187.422" transform="translate(-251.44 -226.844)"/></g><path class="b" d="M277.681,134.2a7.874,7.874,0,0,1-10.493-7.037c-.113-2.279.755-4.67-.107-6.779-.592-1.454-1.92-2.518-2.449-4-.78-2.2.415-4.57,1.574-6.6a15.034,15.034,0,0,1,2.6-3.651,5.136,5.136,0,0,1,4.072-1.53" transform="translate(-248.992 -67.448)"/><path class="b" d="M312.128,102.24c0,1.731,1.259,3.179,2.474,4.406s2.6,2.461,2.971,4.142c.63,2.99-2.1,6-1.259,8.951.441,1.58,1.844,2.776,2.2,4.406a5.477,5.477,0,0,1-1.347,4.406c-.95,1.259-2.153,2.348-2.983,3.7,0,0-1.687,3.279-7.73,1.687" transform="translate(-264.58 -66.579)"/><path class="b" d="M273.833,102.336c-.157-1.555,1.2-2.858,2.606-3.531s3.009-1.007,4.236-1.97a20.994,20.994,0,0,0,2.669-3.147,9.618,9.618,0,0,1,16.447,3.248c.711,2.178.522,4.828-1.12,6.427-1.888,1.888-4.947,1.693-7.585,1.347s-5.615-.629-7.679,1.02a10.931,10.931,0,0,0-2.587,4.01,6.81,6.81,0,0,1-3.078,3.556c-1.473.629-3.594-.12-3.777-1.718" transform="translate(-252.489 -62.161)"/><path class="j" d="M304.284,110.865c-.629-4.406-3.953-9.656-8.347-8.863l-13.571,4.513a2.612,2.612,0,0,0-2.134,2.814l3.33,31.183a7.956,7.956,0,0,0,8.6,7.081h0a7.95,7.95,0,0,0,7.239-8.542c-.2-2.518-.365-4.664-.365-4.658s5.608-1.366,6.238-8.856C305.594,121.811,304.958,115.781,304.284,110.865Z" transform="translate(-254.861 -66.461)"/><path class="b" d="M314.693,123.328c-.107.132-.869-.346-1.888-.264s-1.737.629-1.857.522.05-.283.359-.541a2.568,2.568,0,0,1,1.473-.579,2.461,2.461,0,0,1,1.511.371C314.623,123.051,314.743,123.271,314.693,123.328Z" transform="translate(-266.232 -74.07)"/><path class="b" d="M298.746,124.918c-.107.132-.869-.346-1.888-.271s-1.737.629-1.888.529.044-.283.359-.548a2.606,2.606,0,0,1,1.473-.573,2.517,2.517,0,0,1,1.511.365C298.664,124.647,298.79,124.855,298.746,124.918Z" transform="translate(-260.306 -74.66)"/><path class="b" d="M306.93,129.375a6.77,6.77,0,0,1,1.636-.422c.258-.044.5-.12.535-.3a1.335,1.335,0,0,0-.233-.762c-.29-.629-.629-1.259-.919-1.932a37.524,37.524,0,0,1-2.115-5.073,32.632,32.632,0,0,1,2.518,4.891l.888,1.945a1.536,1.536,0,0,1,.214,1.013.66.66,0,0,1-.4.415,1.851,1.851,0,0,1-.441.094A6.7,6.7,0,0,1,306.93,129.375Z" transform="translate(-264.349 -73.489)"/><path class="k" d="M304.165,152.4a18.884,18.884,0,0,1-10.115-1.888s2.876,4.91,10.241,3.67Z" transform="translate(-259.985 -84.465)"/><path class="b" d="M298.513,118.4c-.082.283-1.114.233-2.3.466s-2.14.629-2.316.39c-.076-.113.069-.39.441-.686a3.934,3.934,0,0,1,1.681-.73,3.813,3.813,0,0,1,1.832.082C298.3,118.063,298.544,118.264,298.513,118.4Z" transform="translate(-259.922 -72.33)"/><path class="b" d="M313.791,116.872c-.164.245-.881.057-1.731.107s-1.555.277-1.737.044c-.082-.113,0-.352.315-.629a2.518,2.518,0,0,1,2.795-.12C313.747,116.526,313.885,116.753,313.791,116.872Z" transform="translate(-266.004 -71.643)"/><path class="b" d="M277.51,130.3a6.6,6.6,0,0,0,7.308-7.837c-.359-1.807-1.473-3.588-.969-5.35.673-2.342,3.814-3.267,4.5-5.6.4-1.353-.157-2.87.308-4.2a4.79,4.79,0,0,1,2.883-2.587,13,13,0,0,0,3.519-1.832,2.845,2.845,0,0,0,.774-3.563,70.176,70.176,0,0,0-15.919,5.092,6.228,6.228,0,0,0-3.046,2.3,6.831,6.831,0,0,0-.378,4.016l2.36,19.89" transform="translate(-253.434 -65.5)"/><path class="c" d="M269.17,105.717a.542.542,0,0,0-.1.308,1.121,1.121,0,0,0,.346.869,1.888,1.888,0,0,0,1.372.579,4.292,4.292,0,0,0,1.838-.7,5.3,5.3,0,0,1,2.115-.793,11.676,11.676,0,0,1,2.637.05,17.473,17.473,0,0,0,2.984.17,4.243,4.243,0,0,0,2.952-1.322,8.739,8.739,0,0,0,1.555-2.832,13.657,13.657,0,0,1,1.259-2.644,4.167,4.167,0,0,1,4.167-1.888,4.356,4.356,0,0,1,2.713,1.725,10.658,10.658,0,0,1,.629,1.057.938.938,0,0,0-.082-.315,4.151,4.151,0,0,0-.415-.831,4.406,4.406,0,0,0-2.795-1.888,4.287,4.287,0,0,0-2.373.214,4.45,4.45,0,0,0-2.134,1.718,13.926,13.926,0,0,0-1.29,2.707,8.6,8.6,0,0,1-1.479,2.707,3.9,3.9,0,0,1-2.7,1.209,17.917,17.917,0,0,1-2.927-.145,11.193,11.193,0,0,0-2.713,0,5.445,5.445,0,0,0-2.209.875,4.148,4.148,0,0,1-1.706.718,1.737,1.737,0,0,1-1.259-.472,1.07,1.07,0,0,1-.378-.762A1.729,1.729,0,0,1,269.17,105.717Z" transform="translate(-250.728 -64.706)"/><path class="b" d="M268.764,100.611a5.457,5.457,0,0,0-.995-10.625,3.326,3.326,0,0,0-3.185,1.259c-.667,1.026-.466,2.348-1.259,3.147s-2.316.629-3.493.969a4.023,4.023,0,0,0-2.581,4.532,5.457,5.457,0,0,0,3.72,3.984,8.611,8.611,0,0,0,5.6-.29,21.149,21.149,0,0,0,4.941-2.851" transform="translate(-246.325 -62.029)"/><path class="c" d="M260.82,99.379a3.3,3.3,0,0,0,.629,1.322,7.61,7.61,0,0,0,6.1,3.223A3.33,3.33,0,0,0,269,103.71a13.83,13.83,0,0,0-1.441-.057,8.429,8.429,0,0,1-5.892-3.147C261.128,99.852,260.883,99.354,260.82,99.379Z" transform="translate(-247.671 -65.518)"/><path class="e" d="M268,108.965a14.991,14.991,0,0,1,3.292-3.342,15.877,15.877,0,0,1,4.331-1.788,3.462,3.462,0,0,0-1.41.12,9.164,9.164,0,0,0-5.57,3.777,3.573,3.573,0,0,0-.642,1.234Z" transform="translate(-250.332 -67.16)"/><path class="c" d="M280.63,99.823a1.092,1.092,0,0,0,.12.208,2.173,2.173,0,0,0,.516.472,3.236,3.236,0,0,0,2.486.371,6.169,6.169,0,0,0,3.072-2.14,17.145,17.145,0,0,1,3.078-3.248,5.853,5.853,0,0,1,4.217-.843,5.577,5.577,0,0,1,3.109,1.712,6.26,6.26,0,0,1,1.29,2.071c.2.554.252.875.283.869s0-.082,0-.239a3.757,3.757,0,0,0-.138-.674,5.875,5.875,0,0,0-1.227-2.209,5.791,5.791,0,0,0-3.242-1.888,6.118,6.118,0,0,0-4.519.888,16.816,16.816,0,0,0-3.147,3.33,6,6,0,0,1-2.87,2.109,3.147,3.147,0,0,1-2.348-.233A5.036,5.036,0,0,1,280.63,99.823Z" transform="translate(-255.012 -63.589)"/><path class="k" d="M306.057,137.924a3.985,3.985,0,0,1-.529,1.076,1.4,1.4,0,0,1-.995.629,1.3,1.3,0,0,1-1.1-.567,2.046,2.046,0,0,1-.321-1.227c0-.384.176-.85.56-.906a.969.969,0,0,1,.472.1l2.039.762" transform="translate(-263.344 -79.433)"/><path class="b" d="M305.126,139.463a2.976,2.976,0,0,1-1.083-.107,1.561,1.561,0,0,1-.831-.73,1.631,1.631,0,0,1-.05-1.322,1.4,1.4,0,0,1,.17-.3c.076-.088.063-.082.151-.069a2.691,2.691,0,0,1,.327.12l.333.126c.434.17.831.315,1.165.428a3.7,3.7,0,0,0,1.108.315,3.779,3.779,0,0,0-1.013-.548c-.321-.151-.705-.321-1.133-.5l-.334-.138a2.87,2.87,0,0,0-.371-.145.485.485,0,0,0-.3,0,.542.542,0,0,0-.22.183,1.784,1.784,0,0,0-.22.384,1.889,1.889,0,0,0,.094,1.618,1.719,1.719,0,0,0,1.039.812,1.593,1.593,0,0,0,.875,0C305.038,139.557,305.132,139.488,305.126,139.463Z" transform="translate(-263.187 -79.297)"/><path class="j" d="M269.97,254.81s1.687-2.31-1.467-2.31l-3.72.6s-3.072,1.108-3.626,1.4S258.1,259,258.1,259l-.529,4.626,3.928,4.488a2.1,2.1,0,0,0,1.989.68l5-1.007a17.139,17.139,0,0,0,2.82-1.07c1.1-.585,3.865-2.43,2.921-2.946a2.039,2.039,0,0,0-1.976.22,1.492,1.492,0,0,0-2.134-.516l-1.5.736s-.4-1.618-1.5-.812-3.714,2.877-3.714,2.877l-2.908-3.519,1.139-4.406,8.428-3.777" transform="translate(-246.467 -122.258)"/><path class="c" d="M270.321,254.892s-6.924,2.354-7.553,2.883a8.079,8.079,0,0,0-1.655,4.286c.151.976,1.177,4.822,3.921,4.444,2.908-.4,3.242-2.606,3.242-2.606l9.473-1.643s.755,2.442,2.788,1.989,4.368-4.1,4.368-4.1,10.008-.113,10.461-1.693.68-2.707-1.353-4.293-11.657-1.064-11.657-1.064Z" transform="translate(-247.775 -122.447)"/><path class="m" d="M272.465,267.893s-.768-2.814,1.737-3.493,6.785-1.6,7.736,1.851" transform="translate(-251.945 -126.429)"/><path class="b" d="M291.906,264.471a7.029,7.029,0,0,0-.629-1.561l-.592-1.221a1.528,1.528,0,0,0-.334-.5,1.347,1.347,0,0,0-1.152-.283h.069a1.378,1.378,0,0,0-1.013.736,2.555,2.555,0,0,0-.038,1.58,13.208,13.208,0,0,0,.629,2.008,3.7,3.7,0,0,0,.535,1.026,1.53,1.53,0,0,0,.963.6,1.441,1.441,0,0,0,1.379-.768A2.367,2.367,0,0,0,291.906,264.471Z" transform="translate(-257.784 -125.36)"/><path class="b" d="M291.808,264.4a1.222,1.222,0,0,1,.132.629,1.889,1.889,0,0,1-.629,1.58,1.423,1.423,0,0,1-1.183.321,1.844,1.844,0,0,1-1.114-.85,7.264,7.264,0,0,1-.629-1.372,13.682,13.682,0,0,1-.428-1.536,2.839,2.839,0,0,1,0-1.555,1.517,1.517,0,0,1,1.177-.906v.308h-.069l-.629-.088.579-.2a1.316,1.316,0,0,1,1.114.183,1.547,1.547,0,0,1,.6.8l.63,1.4a3.147,3.147,0,0,1,.39,1.322c-.038,0-.157-.485-.554-1.259l-.705-1.372a1.259,1.259,0,0,0-.51-.667,1.076,1.076,0,0,0-.85-.151l-.044-.289h.12l1.089.138-1.089.17a1.221,1.221,0,0,0-.913.717,2.518,2.518,0,0,0,0,1.366,11.834,11.834,0,0,0,.415,1.5,6.61,6.61,0,0,0,.554,1.315,1.541,1.541,0,0,0,.919.749,1.177,1.177,0,0,0,.976-.239,1.813,1.813,0,0,0,.63-1.4C291.827,264.62,291.783,264.4,291.808,264.4Z" transform="translate(-257.687 -125.289)"/><path class="b" d="M291.238,265.029c0,.088-.359.252-.844.359s-.9.132-.925.044.359-.252.85-.359S291.219,264.94,291.238,265.029Z" transform="translate(-258.287 -126.881)"/><path class="b" d="M307.759,258.9s0,.057-.094.139a1.457,1.457,0,0,1-.371.29,3.311,3.311,0,0,1-1.693.3c-1.441-.107-3.412-.34-5.571-.629a4.545,4.545,0,0,0-2.9.428,12.508,12.508,0,0,0-1.926,1.555,10.621,10.621,0,0,1-1.322,1.076,1.65,1.65,0,0,1-.567.277,5.228,5.228,0,0,1,.491-.384,15.615,15.615,0,0,0,1.259-1.133A11.6,11.6,0,0,1,297,259.158a4.8,4.8,0,0,1,3.084-.491l5.545.7a3.441,3.441,0,0,0,1.624-.176A5,5,0,0,0,307.759,258.9Z" transform="translate(-259.714 -124.517)"/><path class="b" d="M264.785,265.341c-.214-.289-.938-.258-1.259-.1a1.259,1.259,0,0,0-.629.837,2.586,2.586,0,0,0,0,1.076,5.665,5.665,0,0,0,.856,2.052,2.758,2.758,0,0,0,1.076,1,1.4,1.4,0,0,0,1.416-.094,1.492,1.492,0,0,0,.441-1.517,4.367,4.367,0,0,0-.755-1.473,12.509,12.509,0,0,0-1.152-1.781" transform="translate(-248.42 -126.936)"/><path class="b" d="M264.7,265.288a1.629,1.629,0,0,1,.4.4c.22.3.478.755.824,1.259a7.857,7.857,0,0,1,.579.894,2.292,2.292,0,0,1,.3,1.227,1.435,1.435,0,0,1-.73,1.227,1.667,1.667,0,0,1-1.53-.088,3.176,3.176,0,0,1-1.051-1.057,5.947,5.947,0,0,1-.6-1.227,5.167,5.167,0,0,1-.264-1.209,1.94,1.94,0,0,1,.2-1.089,1.139,1.139,0,0,1,.711-.592,1.888,1.888,0,0,1,.68-.044c.384.05.522.271.491.277a.918.918,0,0,0-.5-.145,1.14,1.14,0,0,0-1.171.629,2.84,2.84,0,0,0,.145,2.09,5.669,5.669,0,0,0,.585,1.152,2.837,2.837,0,0,0,.944.95,1.34,1.34,0,0,0,1.221.082,1.127,1.127,0,0,0,.573-.957,3.362,3.362,0,0,0-.768-1.977c-.334-.566-.541-1.032-.73-1.334A4,4,0,0,1,264.7,265.288Z" transform="translate(-248.335 -126.883)"/><path class="b" d="M270.723,268.389c.05.069-.415.441-1.114.579a1.657,1.657,0,0,1-1.259-.113,6.248,6.248,0,0,1,1.19-.208C270.175,268.522,270.648,268.308,270.723,268.389Z" transform="translate(-250.462 -128.14)"/><path class="b" d="M288.691,265.679c.038.088-.321.3-.787.409s-.9.1-.894,0,.352-.182.812-.308S288.653,265.6,288.691,265.679Z" transform="translate(-257.376 -127.129)"/><path class="b" d="M301.059,253a2.29,2.29,0,0,1,1.051.592,4.608,4.608,0,0,1,1.259,5.382,2.312,2.312,0,0,1-.68.995c-.044,0,.227-.4.466-1.083a4.784,4.784,0,0,0-1.209-5.124A8.749,8.749,0,0,0,301.059,253Z" transform="translate(-262.581 -122.444)"/><path class="b" d="M281.824,266.3c-.032,0-.032-.189-.132-.5a2.593,2.593,0,0,0-.787-1.108,3.4,3.4,0,0,0-1.888-.749,10.713,10.713,0,0,0-2.549.088,15.218,15.218,0,0,0-2.518.516,2.435,2.435,0,0,0-1.517,1.259,3.028,3.028,0,0,0-.17,1.36,2.447,2.447,0,0,1,0,.529,1.447,1.447,0,0,1-.138-.516,2.789,2.789,0,0,1,.082-1.46,2.606,2.606,0,0,1,1.63-1.422,12.943,12.943,0,0,1,2.568-.554,10.066,10.066,0,0,1,2.631-.069,3.568,3.568,0,0,1,1.983.875,2.429,2.429,0,0,1,.755,1.259A1.007,1.007,0,0,1,281.824,266.3Z" transform="translate(-251.838 -126.376)"/><path class="b" d="M287.249,253.024l-.145-1.114s-1.486.321-1.611-.22.736-1.391,2.631-1.744,3.506.629,3.3.957a1.888,1.888,0,0,1-1.158.629l.208,1.177A4.041,4.041,0,0,1,287.249,253.024Z" transform="translate(-256.81 -121.284)"/><path class="b" d="M288.5,253.193a5.038,5.038,0,0,1-1.259-.164h0l-.138-1.1c-.176.038-1.492.283-1.611-.233a.66.66,0,0,1,.126-.516,3.971,3.971,0,0,1,2.518-1.259,3.8,3.8,0,0,1,3.28.768.189.189,0,0,1,.031.22,1.85,1.85,0,0,1-1.152.6l.208,1.171h0a3.262,3.262,0,0,1-.869.365A4,4,0,0,1,288.5,253.193ZM287.238,253a4.626,4.626,0,0,0,2.348,0,2.879,2.879,0,0,0,.844-.365l-.208-1.177h0a1.889,1.889,0,0,0,1.146-.585c.038-.057,0-.132,0-.183a3.776,3.776,0,0,0-3.248-.755A3.95,3.95,0,0,0,285.6,251.2a.63.63,0,0,0-.126.491c.113.516,1.574.214,1.586.208h0Z" transform="translate(-256.804 -121.277)"/><path class="c" d="M291.378,251.72a5.034,5.034,0,0,1-2.77,1.064,6.156,6.156,0,0,1-2.958-.22c0-.107,1.328.094,2.921-.107A17.937,17.937,0,0,0,291.378,251.72Z" transform="translate(-256.872 -121.97)"/><path class="b" d="M276.038,255.878c-.044-.164-.245-.2-.415-.208-1.309,0-3.468.409-4.18,1.152a.315.315,0,0,0,.214.523,6.3,6.3,0,0,0,4.154-1.108C275.938,256.123,276.07,255.991,276.038,255.878Z" transform="translate(-251.579 -123.433)"/><path class="b" d="M275.925,255.851s.038.031,0,.113a.5.5,0,0,1-.176.277,5.769,5.769,0,0,1-.957.63,6.289,6.289,0,0,1-1.6.535,7.046,7.046,0,0,1-1,.107h-.667a.53.53,0,0,1-.183-.05.522.522,0,0,1-.258-.3.479.479,0,0,1,.063-.4,1.717,1.717,0,0,1,.227-.214,2.606,2.606,0,0,1,.472-.283,4.907,4.907,0,0,1,.944-.346,8.893,8.893,0,0,1,1.655-.3,6.254,6.254,0,0,1,1.139,0,.434.434,0,0,1,.289.151c.05.069.038.113.032.113a.4.4,0,0,0-.334-.139,8.625,8.625,0,0,0-1.1.113,10.072,10.072,0,0,0-1.6.353,5.118,5.118,0,0,0-.881.346,2.276,2.276,0,0,0-.415.252,1.365,1.365,0,0,0-.164.145.139.139,0,0,0,0,.113.157.157,0,0,0,.088.1.148.148,0,0,0,.069,0h.636a7.616,7.616,0,0,0,.951-.082,6.831,6.831,0,0,0,1.555-.453,7.808,7.808,0,0,0,.976-.5A.46.46,0,0,0,275.925,255.851Z" transform="translate(-251.466 -123.407)"/></g></svg>