<svg xmlns="http://www.w3.org/2000/svg" width="420.086" height="430.58" viewBox="0 0 420.086 430.58"><defs><style>.a{fill:#ffefed;}.b{fill:#263238;}.c{fill:#ffbe9d;}.d{fill:#eb996e;}.e{fill:#0e7a73;}.f{fill:#455a64;}.g{fill:#fafafa;}.h{opacity:0.3;}.i,.m{opacity:0.4;}.j,.m{fill:#fff;}.k{opacity:0.5;}.l{fill:#f5f5f5;}.n{fill:#ebebeb;}</style></defs><g transform="matrix(0.588, -0.809, 0.809, 0.588, 0, 265.536)"><path class="a" d="M325.725,136.757c-7.383-29.11-32.956-53.668-62.815-56.533-11.548-1.1-23.155.86-34.755.783s-23.964-2.53-32.147-10.747c-9.087-9.13-10.962-23.009-16.771-34.505-10.67-21.1-34.574-32.948-58.1-35.279C71.962-4.309,17.7,27.486,5.078,75.225c-14.3,54.124,3.115,99.437,33.386,138.459s76.092,62.944,98.955,62.97c29.351,6.325,50.192,6.264,93.577-6.342,28.835-8.372,53.754-26.675,73.183-49.572S333.1,165.867,325.725,136.757Z" transform="translate(0 0)"/></g><g transform="translate(23.07 416.274)"><path class="b" d="M424.612,453.194c0,.129-86.753.232-193.753.232s-193.779-.1-193.779-.232,86.745-.224,193.779-.224S424.612,453.073,424.612,453.194Z" transform="translate(-37.08 -452.97)"/></g><g transform="translate(12.147 140.414)"><path class="b" d="M242.3,176.2c-1.342-1.6-3.184-2.693-4.784-4.044s-3.029-3.167-3.046-5.257c0-1.91,1.144-3.631,1.454-5.507s-.2-3.674-.3-5.524a14.748,14.748,0,0,1,6.187-12.425,19.473,19.473,0,0,1,13.707-3.287c1.721.207,4.8.688,6.178,1.721,1.807,1.4,4.466,4.509,4.913,6.755,1.359,6.746-3.537,13.208-7.856,18.569a23.913,23.913,0,0,1-17.984,8.76" transform="translate(-53.697 -133.439)"/><path class="c" d="M258.985,146.33a8.389,8.389,0,0,1,8.441,8.7c-.189,5.309-.628,11.78-1.635,15.652-2.039,7.787-8.2,8.192-8.2,8.192s-.594,4.948-1.076,9.655c-.456,4.483-4.715,7.813-9.526,7.443h0c-4.767-.37-6.935-4.061-6.557-8.51l.749-33.042c.387-3.777,5.817-6.1,9.569-6.729Z" transform="translate(-54.524 -134.326)"/><path class="b" d="M269.181,161.114a1.007,1.007,0,0,1-1.076.921.972.972,0,0,1-.955-1.015,1.024,1.024,0,0,1,1.076-.929.972.972,0,0,1,.955,1.024Z" transform="translate(-58.257 -136.245)"/><path class="b" d="M269.138,159.973c-.138.12-.86-.525-1.945-.628s-1.945.361-2.048.215.095-.293.473-.508a2.719,2.719,0,0,1,1.661-.336,2.667,2.667,0,0,1,1.532.663C269.121,159.672,269.207,159.922,269.138,159.973Z" transform="translate(-57.974 -136.051)"/><path class="b" d="M256.869,160.115a1.015,1.015,0,0,1-1.084.929.981.981,0,0,1-.955-1.024,1.015,1.015,0,0,1,1.084-.921.972.972,0,0,1,.955,1.015Z" transform="translate(-56.538 -136.107)"/><path class="b" d="M256.647,158.982c-.146.121-.861-.525-1.945-.637s-1.953.37-2.057.224.1-.293.473-.516a2.849,2.849,0,0,1,1.661-.336,2.642,2.642,0,0,1,1.532.671C256.621,158.673,256.707,158.922,256.647,158.982Z" transform="translate(-56.23 -135.912)"/><path class="b" d="M261,167.564a7.554,7.554,0,0,1,1.807-.146c.284,0,.551,0,.62-.215a1.436,1.436,0,0,0-.112-.86c-.189-.7-.4-1.437-.611-2.2A38.476,38.476,0,0,1,261.4,158.4a36,36,0,0,1,1.764,5.619c.206.774.4,1.506.585,2.211a1.722,1.722,0,0,1,0,1.11.68.68,0,0,1-.5.361,1.927,1.927,0,0,1-.482,0,7.238,7.238,0,0,1-1.764-.138Z" transform="translate(-57.399 -136.01)"/><path class="d" d="M258.7,183.522a20.2,20.2,0,0,1-10.326-3.872s2.031,5.7,10.025,5.731Z" transform="translate(-55.637 -138.975)"/><path class="e" d="M259.586,171.913a1.953,1.953,0,0,0-1.721-.9,1.772,1.772,0,0,0-1.308.542,1.136,1.136,0,0,0-.215,1.291,1.316,1.316,0,0,0,1.394.5,4.3,4.3,0,0,0,1.48-.688,1.268,1.268,0,0,0,.344-.293.37.37,0,0,0,0-.413" transform="translate(-56.734 -137.769)"/><path class="b" d="M257.107,169.56c.181,0,.06,1.2,1,2.134s2.2.938,2.194,1.1-.3.207-.86.163a2.96,2.96,0,0,1-1.841-.86,2.581,2.581,0,0,1-.757-1.781C256.866,169.827,257.029,169.543,257.107,169.56Z" transform="translate(-56.819 -137.567)"/><path class="b" d="M257.295,154.081c-.138.284-1.213,0-2.5.06s-2.366.275-2.513,0c-.06-.129.146-.4.594-.637a4.088,4.088,0,0,1,1.9-.465,4.207,4.207,0,0,1,1.919.413C257.149,153.685,257.355,153.943,257.295,154.081Z" transform="translate(-56.181 -135.262)"/><path class="b" d="M269.09,156.244c-.215.232-.947-.1-1.85-.2s-1.721,0-1.833-.275c-.069-.138.077-.37.439-.576a2.685,2.685,0,0,1,2.969.387C269.107,155.848,269.185,156.132,269.09,156.244Z" transform="translate(-58.012 -135.523)"/><path class="b" d="M240.3,173.335c1.54-1.282,6.187-9.173,4.363-10.007a2.84,2.84,0,0,1-2.728-1.523,4.121,4.121,0,0,1-.129-3.192,2.65,2.65,0,0,1,2.581-1.523c1.093.086,2.53,1.859,2.53,1.859.921.077.774-.99.757-1.91s-.43-1.816-.447-2.745c0-1.721-.645-5.163,2.427-6.583,2.469-1.11,4.638,1.11,6.075,2.125a7.684,7.684,0,0,0,4.982,1.265c1.54,0,3.244-.508,3.967-1.867.86-1.635-.086-3.6-1.024-5.163l-17.21,1.841-6.109,5.894Z" transform="translate(-54.511 -134.01)"/><path class="b" d="M264.693,148.773a10.937,10.937,0,0,0,.861-7.848,6.979,6.979,0,0,0-5.748-4.991c-2.349-.2-4.595,1.041-6.953,1.127a7.34,7.34,0,0,1-6.4-3.442,4.2,4.2,0,0,0,2.177,4.741l-1.773.086a11.823,11.823,0,0,0,7.925,2.5,15.658,15.658,0,0,1,3.528-.112,2.848,2.848,0,0,1,2.5,2.177c.207,1.635-1.635,3.037-1.359,4.672a2.581,2.581,0,0,0,2.728,1.859,6.247,6.247,0,0,0,3.253-1.437" transform="translate(-55.352 -132.552)"/><path class="b" d="M235.027,152.017a9.465,9.465,0,0,0,1.514-6.2,5.158,5.158,0,0,0-4.156-4.414,6.308,6.308,0,0,0-3.958,1.162,9.276,9.276,0,0,0-3.132,3.089,5.705,5.705,0,0,0-.671,4.3,6.368,6.368,0,0,0,3.984,3.984,18.674,18.674,0,0,0,5.739.964" transform="translate(-52.302 -133.637)"/><path class="b" d="M254.684,132.38a2.659,2.659,0,0,0-.508,1.084,2.849,2.849,0,0,0,.12,1.385,7.962,7.962,0,0,0,.861,1.721,4.112,4.112,0,0,0,1.506,1.618,2.874,2.874,0,0,0,2.427-.1c1.635-.766,3.011-2.582,5.257-3.2a4.027,4.027,0,0,1,3.244.4,3.923,3.923,0,0,1,1.592,2.581,9.271,9.271,0,0,1-.628,5.025,9.822,9.822,0,0,1-1.807,2.891,6.181,6.181,0,0,1-.662.645c-.164.138-.25.207-.258.189s.292-.327.792-.947a10.737,10.737,0,0,0,1.644-2.9,9.191,9.191,0,0,0,.516-4.827,3.511,3.511,0,0,0-1.42-2.315,3.665,3.665,0,0,0-2.9-.336,8.192,8.192,0,0,0-2.711,1.463,13.86,13.86,0,0,1-2.487,1.721,3.209,3.209,0,0,1-2.762.069,4.345,4.345,0,0,1-1.652-1.841,8.049,8.049,0,0,1-.817-1.773,2.89,2.89,0,0,1-.052-1.5,2.109,2.109,0,0,1,.422-.86A.975.975,0,0,1,254.684,132.38Z" transform="translate(-56.409 -132.379)"/><path class="b" d="M244.34,136.67a10.393,10.393,0,0,0,2.719,2.082,7.606,7.606,0,0,0,3.571.8c1.4,0,2.926-.387,4.6-.533a8.3,8.3,0,0,1,2.452.129,6.289,6.289,0,0,1,2.117.929,6.023,6.023,0,0,1,2.582,5.636,2.444,2.444,0,0,1-.241.921s.043-.344.06-.938a6.367,6.367,0,0,0-.387-2.452,5.9,5.9,0,0,0-2.272-2.848,6.023,6.023,0,0,0-1.979-.86,7.976,7.976,0,0,0-2.323-.112c-1.609.138-3.158.508-4.621.5a7.563,7.563,0,0,1-3.726-.929,7.4,7.4,0,0,1-2.031-1.6A2.435,2.435,0,0,1,244.34,136.67Z" transform="translate(-55.075 -132.978)"/><path class="b" d="M227.84,145.5a3.333,3.333,0,0,1,.31-.611,14.272,14.272,0,0,1,1.05-1.532,7.744,7.744,0,0,1,2.082-1.867,4.655,4.655,0,0,1,3.382-.594,4.061,4.061,0,0,1,2.581,2.22,4.484,4.484,0,0,1,.344,2.788,5.165,5.165,0,0,1-.688,1.721c-.241.379-.413.551-.439.533a8.717,8.717,0,0,0,.809-2.332,4.3,4.3,0,0,0-.4-2.581,3.734,3.734,0,0,0-2.358-1.97,4.354,4.354,0,0,0-3.072.525,7.922,7.922,0,0,0-2.039,1.721A23.565,23.565,0,0,1,227.84,145.5Z" transform="translate(-52.772 -133.554)"/><path class="b" d="M221.07,142.31a11.5,11.5,0,0,0,9.706-.31,3.374,3.374,0,0,1-1.256.861,9.216,9.216,0,0,1-3.554.86,8.931,8.931,0,0,1-3.588-.62A3.441,3.441,0,0,1,221.07,142.31Z" transform="translate(-51.828 -133.721)"/><path class="b" d="M219.5,157.41c0-.077.9.447,2.461.86a10.507,10.507,0,0,0,11.014-3.915c.964-1.265,1.316-2.22,1.394-2.186a2.492,2.492,0,0,1-.207.68,9.24,9.24,0,0,1-.929,1.721,10.257,10.257,0,0,1-11.358,4.036,8.846,8.846,0,0,1-1.79-.731C219.689,157.591,219.483,157.436,219.5,157.41Z" transform="translate(-51.609 -135.14)"/><path class="f" d="M248.56,138.28s.224.267.645.7a6.43,6.43,0,0,0,2.1,1.428,5.955,5.955,0,0,0,3.666.353c1.385-.284,2.788-1.11,4.5-1.463a5.033,5.033,0,0,1,2.53.086,3.76,3.76,0,0,1,1.884,1.437,7.063,7.063,0,0,1,1.187,3.734,7.251,7.251,0,0,1-.37,2.581,2.528,2.528,0,0,1-.4.861,10.029,10.029,0,0,0,.456-3.442,6.882,6.882,0,0,0-1.2-3.5,3.346,3.346,0,0,0-1.721-1.273,4.758,4.758,0,0,0-2.315-.06c-1.592.327-3.02,1.144-4.492,1.428a6.117,6.117,0,0,1-3.881-.465,6.023,6.023,0,0,1-2.1-1.6A2.58,2.58,0,0,1,248.56,138.28Z" transform="translate(-55.663 -133.202)"/><path class="f" d="M253,142.21a7.981,7.981,0,0,0,2.039.714,9.753,9.753,0,0,0,2.349.077c.861-.052,1.876-.189,2.943-.189a4.2,4.2,0,0,1,1.566.267,2.719,2.719,0,0,1,1.179.955,4.07,4.07,0,0,1,.654,2.383,7.74,7.74,0,0,1-.224,1.626,1.608,1.608,0,0,1-.181.568c-.095,0,.095-.861.086-2.186a3.881,3.881,0,0,0-.671-2.151,2.373,2.373,0,0,0-1.007-.792,4.111,4.111,0,0,0-1.411-.224c-1.015,0-2,.12-2.917.155a8.846,8.846,0,0,1-2.426-.181A3.355,3.355,0,0,1,253,142.21Z" transform="translate(-56.283 -133.751)"/><path class="f" d="M235.294,159.813a1.238,1.238,0,0,1-.637-.258,2.229,2.229,0,0,1-.817-1.678,2.952,2.952,0,0,1,1.325-2.418,5.843,5.843,0,0,1,3.244-.938c1.188-.052,2.289,0,3.278-.095a9.107,9.107,0,0,0,2.53-.706c1.377-.62,2.074-1.291,2.125-1.222s-.129.207-.456.49a7.536,7.536,0,0,1-1.532,1.015,8.432,8.432,0,0,1-2.581.86,31.349,31.349,0,0,1-3.313.138,5.68,5.68,0,0,0-3.02.861,2.668,2.668,0,0,0-1.248,2.082,2.143,2.143,0,0,0,.611,1.54A5.818,5.818,0,0,0,235.294,159.813Z" transform="translate(-53.61 -135.186)"/><path class="f" d="M240.7,145.22a1.3,1.3,0,0,1-.2-.706,2.651,2.651,0,0,1,.766-1.841,3.536,3.536,0,0,1,2.745-1.084,9.009,9.009,0,0,1,3.493.912,17.416,17.416,0,0,1,5.344,3.648,13.034,13.034,0,0,1,1.3,1.48,2.348,2.348,0,0,1,.387.611c-.06.043-.7-.757-1.9-1.867a19.792,19.792,0,0,0-5.309-3.442,9.164,9.164,0,0,0-3.321-.9,3.253,3.253,0,0,0-2.513.86,2.581,2.581,0,0,0-.86,1.626C240.646,144.962,240.732,145.212,240.7,145.22Z" transform="translate(-54.539 -133.663)"/><path class="f" d="M225.058,149.55a1.442,1.442,0,0,1-.774-.344,2.977,2.977,0,0,1-1.136-2,3.726,3.726,0,0,1,1.265-3.158,5.584,5.584,0,0,1,3.958-1.325,7.365,7.365,0,0,1,3.967,1.308,7.081,7.081,0,0,1,2.237,2.581,6.736,6.736,0,0,1,.688,2.194,2.278,2.278,0,0,1,0,.86,10.581,10.581,0,0,0-.972-2.883,6.935,6.935,0,0,0-2.194-2.392,7.063,7.063,0,0,0-3.743-1.2,5.3,5.3,0,0,0-3.674,1.187,3.485,3.485,0,0,0-1.23,2.814,2.943,2.943,0,0,0,.938,1.9C224.782,149.421,225.075,149.516,225.058,149.55Z" transform="translate(-52.115 -133.82)"/><path class="f" d="M227.652,153.376a1.721,1.721,0,0,1-.275-1.575,3.054,3.054,0,0,1,.86-1.566,4.992,4.992,0,0,1,1.841-1.144,6.317,6.317,0,0,1,3.846-.129,3,3,0,0,1,1.428.706c0,.069-.576-.215-1.506-.4a6.885,6.885,0,0,0-3.623.267,3.8,3.8,0,0,0-2.538,2.358A3.845,3.845,0,0,0,227.652,153.376Z" transform="translate(-52.696 -134.659)"/><path class="d" d="M244.448,163.952c0,.052-.267.069-.585-.164a1.437,1.437,0,0,1-.516-1.385,1.411,1.411,0,0,1,1.033-1.05c.379-.095.611,0,.6.077s-.224.077-.5.215a1.342,1.342,0,0,0-.7.86,1.324,1.324,0,0,0,.293,1.058C244.275,163.8,244.465,163.892,244.448,163.952Z" transform="translate(-54.933 -136.416)"/><path class="e" d="M239.127,147.82a23.222,23.222,0,0,0-2.168,3.511,23.3,23.3,0,0,0-1.084,3.984A8.553,8.553,0,0,1,239.127,147.82Z" transform="translate(-53.889 -134.533)"/><path class="e" d="M234.948,153.514a4.974,4.974,0,0,1-1.4,1.54,9.276,9.276,0,0,1-4.655,2l-.43.06.207-.379.172-.327a7.151,7.151,0,0,1,4.173-3.244,6.214,6.214,0,0,1,1.6-.232,1.508,1.508,0,0,1,.594.069,20.042,20.042,0,0,0-2.1.473,7.176,7.176,0,0,0-3.872,3.158c-.06.1-.112.207-.172.3l-.224-.318a10.068,10.068,0,0,0,4.526-1.8C234.371,154.074,234.879,153.463,234.948,153.514Z" transform="translate(-52.859 -135.246)"/><path class="e" d="M233.622,151.088a1.814,1.814,0,0,1-.663.069,7.741,7.741,0,0,1-1.833-.241,8.82,8.82,0,0,1-5.025-3.442l-.241-.344h.981a8.828,8.828,0,0,1,5.937,2.47,7.542,7.542,0,0,1,1.239,1.532,1.8,1.8,0,0,1,.31.663,16.829,16.829,0,0,0-1.721-1.962,9,9,0,0,0-5.731-2.254h-.534l.172-.353a9.035,9.035,0,0,0,4.741,3.373A22.846,22.846,0,0,0,233.622,151.088Z" transform="translate(-52.496 -134.437)"/><path class="g" d="M281.074,260.745c-.129,0-.224-.353-.224-.783s.095-.792.224-.792.224.353.224.792S281.194,260.745,281.074,260.745Z" transform="translate(-60.169 -150.07)"/><path class="f" d="M176.673,235.487a7.245,7.245,0,0,0-2.513,5.1,7.4,7.4,0,0,0,3.778,6.178,13.845,13.845,0,0,0,7.3,1.661c2.8,0,5.7-.525,8.347.4a8.174,8.174,0,0,1,3.924,2.891c.4.551.86,1.213,1.54,1.2a1.721,1.721,0,0,0,.964-.4,16.557,16.557,0,0,0,4.621-4.879,4.931,4.931,0,0,0,.921-3.519,4.854,4.854,0,0,0-1.618-2.409,27.466,27.466,0,0,0-6.746-4.406,29.48,29.48,0,0,0-10.954-3.313,14.775,14.775,0,0,0-10.739,3.287" transform="translate(-45.283 -146.547)"/><path class="b" d="M262.646,198.94l12.727,33.7,26.64,17.27-6.5,8.1L263.954,241.4l-6.634-17.691,4.819-23.568" transform="translate(-56.886 -141.666)"/><path class="e" d="M254.494,219.425c.37,9.818-8.226,18.01-8.226,18.01-2.194,3.442-6.884,15.489-9.336,26.812l-1.368,5.7s-20.221,3.519-42.163-19.257l18.259-20.023,1.368-14.886s2.513-17.562,4.044-20.006c2.581-4.07,7.3-11.384,34.548-1.11l2.745,1.643.086,23.13" transform="translate(-47.967 -140.338)"/><path class="b" d="M263.19,212.18a7.057,7.057,0,0,1,.138,1.2c.069.774.146,1.9.206,3.3a43.815,43.815,0,0,1-.68,10.885,18.59,18.59,0,0,1-2.263,5.593,35.045,35.045,0,0,1-2.822,4.018c-.86,1.1-1.6,1.953-2.108,2.581a5.372,5.372,0,0,1-.861.86,7.685,7.685,0,0,1,.706-.99l2-2.581a41.74,41.74,0,0,0,2.728-4.036,19.025,19.025,0,0,0,2.186-5.49,48.353,48.353,0,0,0,.792-10.79c0-1.334-.051-2.444-.077-3.3A6.39,6.39,0,0,1,263.19,212.18Z" transform="translate(-56.534 -143.513)"/><g class="h" transform="translate(153.255 94.288)"><path d="M202.49,249.3a11.658,11.658,0,0,0,4.672,7.383,28.464,28.464,0,0,0,7.977,3.967c2.487.86,5.206,1.721,7.744.929,2.788-.861,4.681-3.4,6.023-5.972.568-1.076,1.179-2.289,2.332-2.676,1.626-.551,3.21.86,4.388,2.1a10.437,10.437,0,0,0,2.582,2.186,3.709,3.709,0,0,0,3.278.232,3.853,3.853,0,0,0,1.721-4.225,11.187,11.187,0,0,0-2.375-4.233l-3.382-4.389a6.514,6.514,0,0,0-2.96-2.53,4.406,4.406,0,0,0-3.666.783,14.417,14.417,0,0,0-2.7,2.762c-2.358,2.857-5.163,5.722-8.794,6.393-3.907.723-7.882-1.334-10.627-4.2a4.216,4.216,0,0,0-1.721-1.3,2.581,2.581,0,0,0-2.392.7,7.6,7.6,0,0,0-1.471,2.142" transform="translate(-202.49 -241.956)"/></g><path class="b" d="M238.737,194.307a11.049,11.049,0,0,0-4.982-4.053c-2.581-1.179-4.3-2.074-7.082-2.134l.964.163c-5.946-.68-12.589,1.721-14.482,7.469a46.177,46.177,0,0,0-2.211,10.971,87.975,87.975,0,0,1-1.9,11.186c-.49,2-5.679,4.9-9.19,5.817s-7.305-.542-11-.774a16.65,16.65,0,0,0-12.718,4.853c-1.248,1.265-2.332,3.149-1.532,4.733,1.015,2.014,3.915,1.721,6.118,1.282,5.843-1.127,12.554-.775,16.805,3.39,2.513,2.461,3.924,6.023,6.935,7.873a15.623,15.623,0,0,0,3.356,1.368,73.852,73.852,0,0,0,10.971,2.908,1.979,1.979,0,0,0,1.265-.086c.577-.318.706-1.05.86-1.678.663-2.194,2.581-3.7,4-5.524a24.379,24.379,0,0,0,2.771-5.163q4.079-9.285,8.175-18.56a48.729,48.729,0,0,0,2.745-7.271,48.386,48.386,0,0,0,1.144-7.391C240.131,200.519,240.4,197.06,238.737,194.307Z" transform="translate(-45.307 -140.156)"/><path class="b" d="M181.758,240.6s-4.535.473-5.369,3.158c-.43,1.411,1.936,3.812,1.936,3.812s-6.256-2.71-4.07-9.465Z" transform="translate(-45.231 -147.13)"/><path class="b" d="M221.721,202.329l15.747,40.442c-.542,1.084,30.814,15.437,30.814,15.437l11.255-10.162-30.642-15.927-12.047-35.28a8.071,8.071,0,0,0-9.551-5.266h0a8.063,8.063,0,0,0-5.576,10.756Z" transform="translate(-51.842 -140.606)"/><path class="f" d="M222.436,198.94c.043,0-.095.671-.172,1.876a18.841,18.841,0,0,0,.318,5.068,39.3,39.3,0,0,0,2.34,7.193c1.11,2.65,2.16,5.619,3.605,8.6s2.581,5.954,3.666,8.6,2.039,5.025,2.857,7.056,1.428,3.58,1.893,4.767c.207.525.37.964.5,1.308a1.846,1.846,0,0,1,.138.465,2.912,2.912,0,0,1-.224-.43c-.155-.336-.336-.757-.568-1.273-.508-1.17-1.187-2.771-2.031-4.715s-1.841-4.4-2.943-7.021-2.246-5.576-3.691-8.545-2.5-5.972-3.58-8.6a38.381,38.381,0,0,1-2.28-7.288,17.977,17.977,0,0,1-.172-5.163,12.292,12.292,0,0,1,.215-1.385A1.964,1.964,0,0,1,222.436,198.94Z" transform="translate(-51.955 -141.666)"/><path class="f" d="M269.171,258.282a1.677,1.677,0,0,1,.181-.189l.568-.551,2.211-2.057,8.183-7.495v.258l-30.5-15.833-.138-.069-.078-.043v-.086c-4.543-12.856-8.665-24.48-11.651-32.93a14.25,14.25,0,0,0-3.106-5.042,8.055,8.055,0,0,0-1.867-1.557,5.352,5.352,0,0,0-1.919-.654,4.13,4.13,0,0,0-2.736.482,5.535,5.535,0,0,0-.774.619,2.478,2.478,0,0,1,.731-.7,4.113,4.113,0,0,1,2.805-.576,5.429,5.429,0,0,1,2,.637,8.152,8.152,0,0,1,1.945,1.575,14.346,14.346,0,0,1,3.218,5.111c3.029,8.441,7.185,20.049,11.788,32.887l-.112-.121.138.069,30.469,15.91.207.112-.172.155-8.312,7.452-2.272,1.988-.594.516C269.24,258.231,269.18,258.291,269.171,258.282Z" transform="translate(-52.732 -140.672)"/><path class="g" d="M240.045,219.929c-.121,0-.3-.215-.4-.559s-.077-.645,0-.68.3.215.4.559S240.166,219.894,240.045,219.929Z" transform="translate(-54.411 -144.421)"/><path class="g" d="M241.941,232.587c-.077.1-.379,0-.68-.241s-.482-.508-.413-.6.387,0,.688.25S242.018,232.493,241.941,232.587Z" transform="translate(-54.585 -146.238)"/><path class="g" d="M247.642,232.4c-.129,0-.2-.361-.163-.8s.155-.783.275-.774.2.37.163.809S247.763,232.422,247.642,232.4Z" transform="translate(-55.511 -146.115)"/><path class="g" d="M240.741,240.94c0,.12-.25.163-.49.095s-.4-.215-.361-.336.249-.164.482-.095S240.775,240.854,240.741,240.94Z" transform="translate(-54.453 -147.475)"/><path class="g" d="M248.344,242.976c-.129,0-.224-.43-.224-.964s.095-.972.224-.972.224.43.224.972S248.464,242.976,248.344,242.976Z" transform="translate(-55.602 -147.54)"/><path class="g" d="M246.1,249.962c0,.12-.379.224-.861.224s-.86-.1-.86-.224.379-.232.86-.232S246.1,249.8,246.1,249.962Z" transform="translate(-55.08 -148.753)"/><path class="g" d="M254.915,245.113c-.112.052-.4-.318-.628-.817s-.336-.955-.224-1.007.4.318.628.86S255.026,245.062,254.915,245.113Z" transform="translate(-56.425 -147.853)"/><path class="g" d="M260.593,250.152c0,.12-.422.1-.86,0s-.757-.336-.723-.456.422-.1.861,0S260.627,250.032,260.593,250.152Z" transform="translate(-57.121 -148.736)"/><path class="g" d="M268.444,250.432c0,.12-.439.1-.912,0s-.861-.344-.783-.456.439-.112.912,0S268.478,250.312,268.444,250.432Z" transform="translate(-58.2 -148.775)"/><path class="g" d="M266.8,255.375c.078.095-.129.387-.465.663s-.671.4-.748.31.129-.4.465-.663S266.749,255.281,266.8,255.375Z" transform="translate(-58.037 -149.536)"/><path class="g" d="M256.655,254.964c0,.12-.353.224-.792.224s-.783-.1-.783-.224.353-.224.783-.224S256.655,254.8,256.655,254.964Z" transform="translate(-56.573 -149.451)"/><path class="g" d="M274.642,256.651c-.129,0-.25-.361-.284-.861s0-.86.163-.86.25.361.284.86S274.763,256.642,274.642,256.651Z" transform="translate(-59.261 -149.478)"/><path class="g" d="M235.023,226.784c0,.121-.241.224-.542.224s-.551-.1-.551-.224.25-.224.551-.224S235.023,226.655,235.023,226.784Z" transform="translate(-53.622 -145.52)"/><path class="g" d="M233.468,217.955c-.095.077-.447-.215-.783-.645s-.533-.861-.439-.921.456.206.792.645S233.563,217.877,233.468,217.955Z" transform="translate(-53.384 -144.099)"/><path class="g" d="M237.607,207.793c.06.112-.1.318-.275.559s-.335.439-.456.413-.146-.37.095-.688S237.547,207.689,237.607,207.793Z" transform="translate(-54.021 -142.895)"/><path class="g" d="M226.043,210.33c-.112-.069,0-.456.155-.929s.2-.861.327-.861.258.447.1,1S226.137,210.4,226.043,210.33Z" transform="translate(-52.515 -143.005)"/><path class="g" d="M231.579,202.229c0,.12-.37.293-.861.129s-.7-.542-.6-.611.379.077.749.189S231.553,202.109,231.579,202.229Z" transform="translate(-53.087 -142.055)"/><path class="g" d="M226.764,196.686c0,.12-.275.293-.671.4s-.757.086-.783,0,.267-.293.671-.4S226.764,196.566,226.764,196.686Z" transform="translate(-52.419 -141.34)"/><path class="g" d="M245.606,202.276c-.121,0-.1-.49,0-1.024s.344-.947.465-.912.1.49,0,1.024S245.727,202.31,245.606,202.276Z" transform="translate(-55.24 -141.861)"/><path class="g" d="M241.3,195.245c-.06.1-.456,0-.861-.224s-.74-.516-.68-.628.456,0,.861.232S241.359,195.133,241.3,195.245Z" transform="translate(-54.434 -141.025)"/><path class="g" d="M219.408,216.926c-.129,0-.172-.465-.1-1s.215-.955.344-.938.163.456.095.99S219.528,216.943,219.408,216.926Z" transform="translate(-51.577 -143.905)"/><path class="g" d="M219.782,226.228c-.069.1-.43,0-.8-.3s-.6-.568-.533-.663.43,0,.8.3S219.842,226.133,219.782,226.228Z" transform="translate(-51.46 -145.334)"/><path class="g" d="M223.054,223.8c-.129,0-.224-.275-.224-.6s.095-.611.224-.611.224.275.224.611S223.174,223.8,223.054,223.8Z" transform="translate(-52.073 -144.966)"/><path class="g" d="M228.921,236.851c-.12,0-.31-.3-.413-.731s-.095-.809,0-.861.3.3.413.731S229.007,236.817,228.921,236.851Z" transform="translate(-52.855 -146.733)"/><path class="g" d="M220.394,235.355c-.12,0-.138-.5,0-1.067s.275-1.015.4-1,.138.508,0,1.076S220.515,235.372,220.394,235.355Z" transform="translate(-51.72 -146.459)"/><path class="g" d="M211.754,231.133c0,.112-.5.344-1.17.224s-1.084-.516-1.015-.611.525.077,1.093.172S211.72,231,211.754,231.133Z" transform="translate(-50.222 -146.1)"/><path class="g" d="M215.151,245.821c-.129,0-.2-.422-.172-.921s.164-.86.284-.86.2.422.164.921S215.272,245.83,215.151,245.821Z" transform="translate(-50.977 -147.959)"/><path class="g" d="M224.362,247.587c-.095.077-.508-.318-.723-.972s-.129-1.213,0-1.2.232.49.43,1.067S224.465,247.518,224.362,247.587Z" transform="translate(-52.168 -148.15)"/><path class="g" d="M232.064,245.6c-.1.077-.318,0-.568-.112s-.482-.129-.516-.25.267-.3.654-.172S232.167,245.527,232.064,245.6Z" transform="translate(-53.21 -148.095)"/><path class="g" d="M222.162,254.82c-.069.095-.456-.069-.861-.361s-.671-.628-.594-.723.456.06.861.361S222.24,254.682,222.162,254.82Z" transform="translate(-51.775 -149.307)"/><path class="g" d="M207.844,239.49c.121,0,.224.327.224.731s-.1.723-.224.723-.224-.327-.224-.723S207.715,239.49,207.844,239.49Z" transform="translate(-49.951 -147.324)"/><path class="g" d="M198.235,234.873c-.086.086-.456-.138-.86-.508s-.594-.74-.508-.86.456.138.86.508S198.33,234.787,198.235,234.873Z" transform="translate(-48.448 -146.484)"/><path class="g" d="M188.634,237.333c0,.12-.344.2-.749.163s-.723-.163-.706-.284.344-.2.74-.164S188.643,237.212,188.634,237.333Z" transform="translate(-47.099 -146.982)"/><path class="g" d="M180.389,233.746c.077.095-.129.413-.465.714s-.671.465-.757.37.129-.4.465-.706S180.3,233.651,180.389,233.746Z" transform="translate(-45.979 -146.519)"/><path class="g" d="M174.775,242.5c-.1-.069.077-.551.207-1.162s.155-1.119.275-1.136.31.533.163,1.231S174.878,242.609,174.775,242.5Z" transform="translate(-45.364 -147.423)"/><path class="g" d="M246.7,211.127c-.129,0-.284-.43-.344-1s0-1.041.1-1.058.275.439.336,1.007S246.821,211.118,246.7,211.127Z" transform="translate(-55.353 -143.079)"/><path class="g" d="M232.8,190.607c-.069.1-.387,0-.723-.163s-.559-.447-.5-.551.387,0,.723.163A.846.846,0,0,1,232.8,190.607Z" transform="translate(-53.293 -140.398)"/><path class="f" d="M230.64,192.023a27.449,27.449,0,0,0-21.916,4.3,17.212,17.212,0,0,0-4,3.812c-2.358,3.287-3.063,7.7-6.023,10.463-3.623,3.382-9.224,3.106-14.155,2.676s-10.584-.559-14.043,2.994c-1.979,2.022-3.485,5.3-6.316,5.163-2.323-.1-3.743-2.581-4.4-4.819s-1.153-4.793-3.089-6.092c-2.254-1.514-5.628-.671-7.675-2.461s-1.54-5.584-3.3-7.873c3.442.8,7.1,1.583,10.4.353a32.07,32.07,0,0,0,4.3-2.366,21.555,21.555,0,0,1,18.56-1.11,22.423,22.423,0,0,0,5.352,1.988,10.756,10.756,0,0,0,7.323-2.031,63.04,63.04,0,0,0,5.937-5.008,43.464,43.464,0,0,1,15.067-8.45,15.376,15.376,0,0,1,7.108-.861c3.046.49,5.627,2.444,8.071,4.3" transform="translate(-41.315 -139.387)"/><path class="g" d="M227,186.559a16.357,16.357,0,0,0-2.848-1.136,14.629,14.629,0,0,0-8.226.336c-3.382,1.015-6.884,3.537-9.9,7.142a49.269,49.269,0,0,0-4.225,6.023,35.821,35.821,0,0,1-4.578,6.5,10.705,10.705,0,0,1-3.339,2.34,10.2,10.2,0,0,1-3.881.766,23.086,23.086,0,0,1-7.28-1.411,42.965,42.965,0,0,0-6.385-1.781,12.639,12.639,0,0,0-5.688.258,18.14,18.14,0,0,0-4.3,1.9,33.686,33.686,0,0,0-3,1.988c-.8.585-1.411,1.067-1.824,1.385l-.473.353a.928.928,0,0,1-.172.112s.043-.052.138-.146l.447-.4c.4-.336.99-.86,1.781-1.446a31.23,31.23,0,0,1,2.977-2.065,18.067,18.067,0,0,1,4.388-1.988,12.907,12.907,0,0,1,5.834-.327,43.145,43.145,0,0,1,6.454,1.721,22.931,22.931,0,0,0,7.142,1.368,9.775,9.775,0,0,0,3.648-.714,10.059,10.059,0,0,0,3.192-2.246,35.167,35.167,0,0,0,4.518-6.411,49.725,49.725,0,0,1,4.3-6.023,21.709,21.709,0,0,1,10.128-7.176,14.56,14.56,0,0,1,8.364-.206,11.442,11.442,0,0,1,2.125.86l.508.31a.586.586,0,0,1,.181.112Z" transform="translate(-43.428 -139.688)"/><path class="g" d="M148.15,205.94a5.334,5.334,0,0,0,.68.577,5.265,5.265,0,0,0,2.315.921,7.082,7.082,0,0,0,3.881-.568,15.3,15.3,0,0,0,4.3-3.08,32.846,32.846,0,0,1,4.922-4.242,11.572,11.572,0,0,1,7.262-1.532,33.213,33.213,0,0,1,7.985,2.031,27.758,27.758,0,0,0,8.493,1.919,11.643,11.643,0,0,0,4.3-.671,8.786,8.786,0,0,0,3.442-2.366,27.3,27.3,0,0,0,2.5-3.322,30.751,30.751,0,0,1,2.452-3.218,26.357,26.357,0,0,1,11.608-7.555,15.913,15.913,0,0,1,9.293-.585,7.544,7.544,0,0,1,2.306,1.11,4.222,4.222,0,0,1,.688.568s-.25-.181-.731-.5a8.27,8.27,0,0,0-2.306-1.007,15.944,15.944,0,0,0-9.147.714,26.176,26.176,0,0,0-11.384,7.529,30.554,30.554,0,0,0-2.409,3.184,27.876,27.876,0,0,1-2.53,3.382,9.241,9.241,0,0,1-3.64,2.478,12.15,12.15,0,0,1-4.483.706,27.751,27.751,0,0,1-8.6-1.953,33.373,33.373,0,0,0-7.882-2.031,11.186,11.186,0,0,0-7.039,1.437,33.626,33.626,0,0,0-4.9,4.156,15.54,15.54,0,0,1-4.4,3.081,7.192,7.192,0,0,1-4,.508,5.161,5.161,0,0,1-2.349-1.024A3.371,3.371,0,0,1,148.15,205.94Z" transform="translate(-41.654 -139.553)"/><path class="g" d="M225.745,187.98a4.746,4.746,0,0,1-.766,0h-.921a7.479,7.479,0,0,0-1.256.077,20.273,20.273,0,0,0-7.624,2.272,19.089,19.089,0,0,0-4.449,3.218,24.3,24.3,0,0,0-3.864,5c-1.179,1.9-2.272,4-3.605,6.066a20.989,20.989,0,0,1-5.1,5.653,11.187,11.187,0,0,1-3.494,1.721,13.766,13.766,0,0,1-3.752.525,45.87,45.87,0,0,1-7.03-.861,27.438,27.438,0,0,0-6.307-.49,9.948,9.948,0,0,0-5.163,1.721,36.144,36.144,0,0,0-3.493,2.934,16.264,16.264,0,0,1-2.788,2.091,7.339,7.339,0,0,1-2.065.766l-.568.06a.5.5,0,0,1-.2,0,7.924,7.924,0,0,0,2.745-.99,15.976,15.976,0,0,0,2.7-2.125,34.734,34.734,0,0,1,3.494-3,10.326,10.326,0,0,1,5.275-1.824,27.916,27.916,0,0,1,6.393.465,47.326,47.326,0,0,0,6.97.792,13.68,13.68,0,0,0,3.623-.508,10.962,10.962,0,0,0,3.364-1.661,20.565,20.565,0,0,0,4.991-5.533c1.325-2.039,2.427-4.13,3.623-6.023a24.39,24.39,0,0,1,3.958-5.051A19.361,19.361,0,0,1,215,190.037a19.713,19.713,0,0,1,7.744-2.16,11.1,11.1,0,0,1,1.274,0h.929a4.8,4.8,0,0,1,.8.1Z" transform="translate(-43.768 -140.12)"/><path class="b" d="M201.145,210.962a2.736,2.736,0,0,1-.774,0,15.618,15.618,0,0,1-2.108-.189,20.876,20.876,0,0,1-12.124-6.436,14.37,14.37,0,0,1-1.334-1.644,2.5,2.5,0,0,1-.4-.663c.06,0,.714.86,1.962,2.082a23.172,23.172,0,0,0,11.952,6.35C200.044,210.833,201.145,210.876,201.145,210.962Z" transform="translate(-46.712 -142.097)"/><path class="f" d="M238.739,180.39a2.358,2.358,0,0,0-3.063,1.721c-.129.921.3,1.85.146,2.762-.267,1.626-1.48,1.6-1.256,3.235.112.861,1.609,1.652,2.392,1.962a9.606,9.606,0,0,0,2.487.439c3.511.4,5.3,2.771,8.045,5s5.008,5.283,8.424,6.023a3.993,3.993,0,0,0,2.822-.318c1.265-.757,1.721-2.375,1.816-3.846A13.9,13.9,0,0,1,261.1,193c.387-.912,1.1-1.833.817-2.779-.318-1.084-1.8-1.592-1.91-2.71a4.715,4.715,0,0,0,0-1.1c-.155-1.007-1.42-1.317-2.427-1.411a88.5,88.5,0,0,1-10.713-1.721,28.093,28.093,0,0,1-8.252-2.969" transform="translate(-53.707 -139.06)"/><path class="g" d="M260.643,188.711a4.882,4.882,0,0,1-1,.189,25.126,25.126,0,0,1-2.762.258,36.69,36.69,0,0,1-17.786-3.752,27.619,27.619,0,0,1-2.427-1.342,4.211,4.211,0,0,1-.861-.585c0-.069,1.282.671,3.4,1.644a41.028,41.028,0,0,0,17.64,3.717C259.206,188.806,260.635,188.634,260.643,188.711Z" transform="translate(-53.884 -139.508)"/><path class="g" d="M261.179,193.847a1.467,1.467,0,0,1-.25.129,4.147,4.147,0,0,1-.749.267,8.8,8.8,0,0,1-2.891.344,16.487,16.487,0,0,1-4.251-.74,52.032,52.032,0,0,1-4.939-1.824c-3.442-1.4-6.557-2.693-8.8-3.648l-2.65-1.153a5.3,5.3,0,0,1-.947-.482,5.158,5.158,0,0,1,1.015.318l2.7,1.024c2.272.861,5.4,2.125,8.854,3.528,1.721.7,3.356,1.377,4.888,1.841a17.8,17.8,0,0,0,4.147.86A13.069,13.069,0,0,0,261.179,193.847Z" transform="translate(-53.869 -139.964)"/><path class="b" d="M236.434,181.207a1.6,1.6,0,0,0-.62.86,2.64,2.64,0,0,0,0,1.2,5.6,5.6,0,0,1,.138,1.626,4.775,4.775,0,0,1-.551,1.54,10.852,10.852,0,0,0-.542,1.144,5.256,5.256,0,0,0-.2,1.127,1.391,1.391,0,0,1-.1-1.222,21.185,21.185,0,0,0,.947-2.65,6.411,6.411,0,0,0-.1-1.514,2.745,2.745,0,0,1,.121-1.351,1.368,1.368,0,0,1,.594-.723C236.3,181.173,236.434,181.181,236.434,181.207Z" transform="translate(-53.7 -139.189)"/><path class="b" d="M261.049,191.11a5.691,5.691,0,0,1-.525,1.721,6.308,6.308,0,0,1-2.762,3.339,3.889,3.889,0,0,1-2.427.37,6.021,6.021,0,0,1-1.859-.663,4.354,4.354,0,0,1-1.437-1.076c0-.06.6.336,1.575.792a6.391,6.391,0,0,0,1.781.534,3.648,3.648,0,0,0,2.16-.353,6.643,6.643,0,0,0,2.685-3.072A9.254,9.254,0,0,1,261.049,191.11Z" transform="translate(-56.149 -140.573)"/><path class="e" d="M247.123,424.141l1.394-8.742-16.349-2.719L230,425.441l1.007.241c4.474,1,22.828,4.758,26,4.3C260.521,429.563,247.123,424.141,247.123,424.141Z" transform="translate(-53.074 -171.488)"/><g class="i" transform="translate(176.918 253.591)"><path class="j" d="M253.627,429.035s4.647,2.22,3.9,2.917-19.43-2.4-27.535-4.5l.086-.361,21.77,3.812S252.663,428.923,253.627,429.035Z" transform="translate(-229.99 -427.09)"/></g><path class="b" d="M229.77,427a1.326,1.326,0,0,0,.275.078l.8.189,2.96.619c2.5.508,5.955,1.162,9.792,1.807s7.323,1.144,9.852,1.471l2.994.37.861.095h.284a.939.939,0,0,0-.275-.06l-.86-.129-2.986-.43c-2.521-.37-6.023-.861-9.835-1.532s-7.3-1.273-9.8-1.721l-2.969-.559-.809-.146Z" transform="translate(-53.042 -173.486)"/><path class="b" d="M255.32,431.447a6.374,6.374,0,0,1,.792-1.333,6.462,6.462,0,0,1,1.2-.964,2.218,2.218,0,0,0-1.359.86,2.186,2.186,0,0,0-.637,1.437Z" transform="translate(-56.607 -173.786)"/><path class="b" d="M250.179,427.8a3.481,3.481,0,0,0,.62-.542c.3-.336.508-.646.465-.68s-.318.206-.619.542A1.971,1.971,0,0,0,250.179,427.8Z" transform="translate(-55.889 -173.427)"/><path class="b" d="M248.77,426.877a2.647,2.647,0,0,0,.645-.293c.327-.207.559-.413.533-.456s-.318.078-.645.284S248.744,426.8,248.77,426.877Z" transform="translate(-55.692 -173.363)"/><path class="b" d="M248.1,425a1.977,1.977,0,0,0,.86.25,1.943,1.943,0,0,0,.86.052,2.041,2.041,0,0,0-.86-.249A2.762,2.762,0,0,0,248.1,425Z" transform="translate(-55.599 -173.203)"/><path class="b" d="M248,423.69a2.3,2.3,0,0,0,1.919.43,5.337,5.337,0,0,0-.964-.224A4.952,4.952,0,0,0,248,423.69Z" transform="translate(-55.585 -173.024)"/><path class="b" d="M251.1,426.295a2.97,2.97,0,0,0,1.05.172,6.218,6.218,0,0,0,1.162-.06,3.875,3.875,0,0,0,.688-.155.611.611,0,0,0,.31-.284.422.422,0,0,0-.086-.448,1.953,1.953,0,0,0-2.478.164,2,2,0,0,0-.465.645c-.069.172-.086.275-.069.284a2.863,2.863,0,0,1,.628-.86,1.874,1.874,0,0,1,.99-.439,1.626,1.626,0,0,1,1.239.292c.146.155.052.336-.155.422a3.727,3.727,0,0,1-.628.155,7.11,7.11,0,0,1-1.136.095C251.5,426.329,251.1,426.269,251.1,426.295Z" transform="translate(-56.018 -173.228)"/><path class="b" d="M251.221,426.241a1.067,1.067,0,0,0,.25-.714,1.771,1.771,0,0,0-.164-.817,1.093,1.093,0,0,0-.783-.68.422.422,0,0,0-.4.43,1.128,1.128,0,0,0,.095.5,3.141,3.141,0,0,0,.4.723,1.6,1.6,0,0,0,.525.525s-.172-.224-.4-.6a3.37,3.37,0,0,1-.336-.706c-.112-.249-.146-.663.129-.671s.49.327.62.568a1.635,1.635,0,0,1,.181.731A4.051,4.051,0,0,1,251.221,426.241Z" transform="translate(-55.881 -173.072)"/><path class="b" d="M231,421.886a7.646,7.646,0,0,1,1.2.241,5.223,5.223,0,0,1,3.726,4.139c.129.74.077,1.213.112,1.213s.043-.112.06-.327a4.38,4.38,0,0,0,0-.912,5.162,5.162,0,0,0-1.256-2.719A5.1,5.1,0,0,0,232.256,422a3.868,3.868,0,0,0-.9-.129,1,1,0,0,0-.353.017Z" transform="translate(-53.213 -172.769)"/><path class="b" d="M234.116,414.3a31.64,31.64,0,0,0-.7,3.339,26.594,26.594,0,0,0-.5,3.373,30.414,30.414,0,0,0,.7-3.339A26.374,26.374,0,0,0,234.116,414.3Z" transform="translate(-53.481 -171.714)"/><path class="b" d="M239.59,427.049a9.465,9.465,0,0,0,2.358.637,9.633,9.633,0,0,0,2.427.207c0-.06-1.076-.172-2.392-.4S239.607,427.006,239.59,427.049Z" transform="translate(-54.412 -173.492)"/><path class="b" d="M235.867,426.429c-.052,0,0,.241.112.5s.095.49.155.5.129-.249,0-.551S235.91,426.395,235.867,426.429Z" transform="translate(-53.89 -173.406)"/><path class="b" d="M234.748,424.44c-.043,0,0,.224.172.422s.293.336.336.3,0-.215-.172-.413S234.8,424.414,234.748,424.44Z" transform="translate(-53.734 -173.128)"/><path class="b" d="M232.87,423.3c0,.06.224.094.447.215s.379.284.43.249-.052-.275-.336-.43S232.861,423.248,232.87,423.3Z" transform="translate(-53.474 -172.961)"/><path class="b" d="M231.51,422.686a.313.313,0,0,0,.172.224c.121.069.258.1.284.052s-.052-.146-.181-.224S231.536,422.643,231.51,422.686Z" transform="translate(-53.285 -172.881)"/><g class="h" transform="translate(177.787 246.536)"><path d="M231,421.084l16.513,2.4.31-1.97L231.37,418.89Z" transform="translate(-231 -418.89)"/></g><path class="b" d="M201.49,277.25l35.366,58.641-10.472,63.236L244.9,402.3,258.7,331.3l-25.014-51.173Z" transform="translate(-49.096 -152.592)"/><path class="c" d="M287.66,272.682a6.127,6.127,0,0,0,2.323,3.863,3.563,3.563,0,0,0,4.3-.1,1.127,1.127,0,0,0,.387-1.308,1.11,1.11,0,0,0-1.084-.4,5.165,5.165,0,0,1-1.2.12,2,2,0,0,1-1.506-1.54,16.412,16.412,0,0,1-.267-2.263,2.581,2.581,0,0,0-1.05-1.936" transform="translate(-61.119 -151.458)"/><path class="c" d="M283.259,261.6l4.38,3.442s5.068-2.762,7.022-1.721,4.939,5.447,4.939,5.447l-11.832,4.8-10.128-6.927Z" transform="translate(-59.721 -150.409)"/><path class="c" d="M310.47,269.562a6.144,6.144,0,0,0,2.323,3.872,3.562,3.562,0,0,0,4.3-.112,1.119,1.119,0,0,0,.387-1.308,1.135,1.135,0,0,0-1.084-.4,5.231,5.231,0,0,1-1.2.129,1.988,1.988,0,0,1-1.5-1.54,16.711,16.711,0,0,1-.267-2.263A2.582,2.582,0,0,0,312.38,266" transform="translate(-64.301 -151.023)"/><path class="c" d="M307.294,259.77l3.519,2.366s5.068-2.771,7.021-1.721,4.939,5.447,4.939,5.447l-11.831,4.81-8-5.481Z" transform="translate(-63.251 -150.153)"/><path class="e" d="M307.4,272.787l18.44-6.144-1.351-3.433-20.72,5.662-22.2,1.755-1.807,2.384,20.686,1.359h0l4.354,13.071,3.528-1.1-3.1-9.68Z" transform="translate(-60.017 -150.633)"/><path class="k" d="M307.4,272.787l18.44-6.144-1.351-3.433-20.72,5.662-22.4,1.248-1.609,2.891,20.686,1.359h0l4.354,13.071,3.528-1.1-3.1-9.68Z" transform="translate(-60.017 -150.633)"/><path class="e" d="M296.55,270.027l-1.661,5.55-14.542-1.127a2.685,2.685,0,0,1-2.53-2.986h0a2.693,2.693,0,0,1,2.822-2.375Z" transform="translate(-59.743 -151.453)"/><path class="e" d="M315.75,266.4l1.575,4.939,15.187-4.122a2.693,2.693,0,0,0,1.833-3.442h0a2.693,2.693,0,0,0-3.27-1.721Z" transform="translate(-65.038 -150.458)"/><path class="g" d="M275.173,262.37c.052.112-.207.336-.577.508s-.706.207-.757.095.206-.336.577-.508S275.121,262.258,275.173,262.37Z" transform="translate(-59.189 -150.507)"/><path class="c" d="M316.381,264.872a2.582,2.582,0,0,1,2.16,1.8,19.685,19.685,0,0,1,.585,2.934,1.5,1.5,0,0,0,.766,1.188,1.11,1.11,0,0,0,1.274-.594,3.314,3.314,0,0,0,.284-1.506,1.024,1.024,0,0,0,1.273,1.463,1.4,1.4,0,0,0,.749-.861,4.245,4.245,0,0,0,.146-1.187,1.5,1.5,0,0,0,0,.757.543.543,0,0,0,.6.362c.249-.069.361-.362.422-.611a7.659,7.659,0,0,0-.4-5.068,5.929,5.929,0,0,0-3.812-3.261,4.818,4.818,0,0,0-4.724,1.377" transform="translate(-65.033 -150.204)"/><path class="d" d="M318.67,263.41c0-.052.516-.181,1.222.224a4.1,4.1,0,0,1,1.609,2.5,10.114,10.114,0,0,1,.31,2.934,3.073,3.073,0,0,1-.138,1.2,3.535,3.535,0,0,1-.138-1.2,14.852,14.852,0,0,0-.422-2.822,4.3,4.3,0,0,0-1.359-2.358A4.876,4.876,0,0,0,318.67,263.41Z" transform="translate(-65.445 -150.653)"/><path class="d" d="M321.78,262.725c0-.052.473-.241,1.136.155a2.494,2.494,0,0,1,.86.964,7.18,7.18,0,0,1,.516,1.428,7.358,7.358,0,0,1,.25,3.82c-.129,0-.129-1.721-.68-3.7a4.044,4.044,0,0,0-1.127-2.246A2.926,2.926,0,0,0,321.78,262.725Z" transform="translate(-65.879 -150.553)"/><path class="c" d="M293.571,267.992a2.581,2.581,0,0,1,2.16,1.8,19.57,19.57,0,0,1,.585,2.926,1.515,1.515,0,0,0,.766,1.2,1.11,1.11,0,0,0,1.273-.6,3.251,3.251,0,0,0,.284-1.5,1.041,1.041,0,0,0,.121,1.179,1.058,1.058,0,0,0,1.153.284,1.4,1.4,0,0,0,.749-.86,4.178,4.178,0,0,0,.146-1.179,1.507,1.507,0,0,0,0,.757.551.551,0,0,0,.6.361c.25-.077.361-.361.422-.611a7.684,7.684,0,0,0-.4-5.077,5.912,5.912,0,0,0-3.8-3.261,4.827,4.827,0,0,0-4.733,1.385" transform="translate(-61.85 -150.639)"/><path class="d" d="M295.86,266.52c0-.052.516-.181,1.222.232a4.044,4.044,0,0,1,1.609,2.5,10.136,10.136,0,0,1,.31,2.934,3.14,3.14,0,0,1-.138,1.213,3.783,3.783,0,0,1-.172-1.2,15.815,15.815,0,0,0-.43-2.822,4.251,4.251,0,0,0-1.359-2.349A4.52,4.52,0,0,0,295.86,266.52Z" transform="translate(-62.263 -151.087)"/><path class="d" d="M299,265.845c0-.052.473-.25,1.136.155a2.378,2.378,0,0,1,.861.964,9.3,9.3,0,0,1,.766,5.249c-.129,0-.129-1.721-.68-3.709a4.018,4.018,0,0,0-1.127-2.246A3.012,3.012,0,0,0,299,265.845Z" transform="translate(-62.701 -150.988)"/><path class="f" d="M332.93,239.267a6.152,6.152,0,0,0,8.854.181l.387-.207A7.917,7.917,0,0,0,332.93,239.267Z" transform="translate(-67.435 -147.083)"/><path class="f" d="M139.76,230.487a6.144,6.144,0,0,0,8.854.189l.379-.215A7.925,7.925,0,0,0,139.76,230.487Z" transform="translate(-40.483 -145.859)"/><path class="f" d="M308.51,248.4a4.191,4.191,0,0,0,6.023.129l.258-.146A5.387,5.387,0,0,0,308.51,248.4Z" transform="translate(-64.028 -148.425)"/><path class="f" d="M98.79,230.9a4.182,4.182,0,0,0,6.023.129l.258-.146A5.378,5.378,0,0,0,98.79,230.9Z" transform="translate(-34.767 -145.983)"/><path class="f" d="M301,227.25a3.39,3.39,0,0,0,3.674,3.192h.232A4.3,4.3,0,0,0,301,227.25Z" transform="translate(-62.98 -145.616)"/><path class="f" d="M113.79,206.66a3.39,3.39,0,0,0,3.666,3.2l.232.043A4.362,4.362,0,0,0,113.79,206.66Z" transform="translate(-36.86 -142.743)"/><path class="b" d="M212.5,407.959c-.043.112-10.085-3.993-22.424-9.164s-22.3-9.465-22.252-9.586,10.085,3.992,22.424,9.173S212.548,407.8,212.5,407.959Z" transform="translate(-44.398 -168.213)"/><path class="b" d="M215.849,383.9c0,.121-11.238,1.2-25.117,2.409s-25.143,2.091-25.152,1.962,11.229-1.2,25.117-2.409S215.8,383.769,215.849,383.9Z" transform="translate(-44.086 -167.47)"/><path class="b" d="M196.266,426.579c-.095.077-7.107-8.243-15.661-18.578s-15.42-18.784-15.325-18.862,7.108,8.235,15.669,18.578S196.36,426.5,196.266,426.579Z" transform="translate(-44.044 -168.204)"/><path class="b" d="M151.5,388.27c.069.1-9.465,6.454-21.383,14.172s-21.555,13.914-21.624,13.768,9.465-6.445,21.383-14.172S151.436,388.167,151.5,388.27Z" transform="translate(-36.12 -168.082)"/><path class="b" d="M177.276,439.023a2.26,2.26,0,0,1-.163-.508c-.1-.387-.232-.86-.4-1.48-.336-1.342-.809-3.193-1.385-5.456-1.17-4.6-2.822-10.945-4.776-17.932s-3.829-13.26-5.223-17.8c-.68-2.237-1.239-4.061-1.644-5.387-.181-.594-.318-1.084-.43-1.463a3.436,3.436,0,0,1-.129-.525,2.5,2.5,0,0,1,.215.5l.508,1.437c.439,1.256,1.05,3.081,1.781,5.344,1.471,4.518,3.442,10.8,5.352,17.777s3.562,13.354,4.655,17.984c.551,2.306.972,4.182,1.248,5.481.129.62.232,1.11.31,1.506a2.031,2.031,0,0,1,.077.525Z" transform="translate(-43.744 -168.11)"/><path class="b" d="M141.68,440.427a2.167,2.167,0,0,1,.086-.508c.095-.37.207-.861.344-1.411.3-1.231.766-2.994,1.368-5.163,1.187-4.363,2.926-10.326,5.008-16.934s4.13-12.477,5.679-16.719c.766-2.125,1.411-3.838,1.867-5.017.224-.551.4-1,.542-1.351a2.351,2.351,0,0,1,.215-.465,2.124,2.124,0,0,1-.129.491l-.465,1.385c-.43,1.248-1.015,2.969-1.721,5.06-1.463,4.3-3.442,10.188-5.541,16.754s-3.872,12.546-5.163,16.882l-1.5,5.163c-.172.568-.318,1.032-.422,1.394A2.187,2.187,0,0,1,141.68,440.427Z" transform="translate(-40.751 -168.723)"/><path class="b" d="M161.872,443.294c-.12,0-.224-11.393-.232-25.453s.095-25.461.215-25.461.232,11.393.232,25.461S162,443.294,161.872,443.294Z" transform="translate(-43.536 -168.656)"/><path class="b" d="M120,430.025a2.133,2.133,0,0,1,.3-.413l.912-1.1,3.442-4.036,11.186-13.32,11.109-13.432,3.356-4.07.929-1.1a2.21,2.21,0,0,1,.344-.361,2.636,2.636,0,0,1-.275.422l-.86,1.145c-.757,1-1.867,2.418-3.244,4.173-2.771,3.493-6.651,8.286-11.014,13.51s-8.381,9.9-11.324,13.243c-1.48,1.678-2.685,3.02-3.528,3.941l-.972,1.05a2.093,2.093,0,0,1-.361.353Z" transform="translate(-37.726 -168.629)"/><path class="b" d="M156.058,377.327c-.1.06-6.023-9.775-13.243-21.976s-12.959-22.14-12.855-22.2,6.023,9.775,13.243,21.977S156.17,377.267,156.058,377.327Z" transform="translate(-39.116 -160.392)"/><path class="b" d="M100.48,401.063a2.053,2.053,0,0,1,.516-.146l1.5-.327L108,399.446c4.647-.972,11.066-2.349,18.122-4s13.415-3.253,18.018-4.449l5.447-1.411,1.48-.37a2.223,2.223,0,0,1,.525-.095,2.494,2.494,0,0,1-.5.181l-1.463.456c-1.273.379-3.115.912-5.412,1.549-4.578,1.265-10.928,2.926-17.993,4.578s-13.492,2.977-18.165,3.872c-2.332.448-4.225.792-5.541,1.007l-1.506.241A2.458,2.458,0,0,1,100.48,401.063Z" transform="translate(-35.003 -168.201)"/><path class="b" d="M101.21,365.13a1.783,1.783,0,0,1,.49.1l1.4.4c1.213.362,2.96.861,5.111,1.583,4.3,1.377,10.222,3.373,16.7,5.739s12.288,4.672,16.461,6.393c2.091.86,3.777,1.583,4.93,2.091l1.325.594a2.576,2.576,0,0,1,.456.241,3.139,3.139,0,0,1-.491-.155l-1.359-.516-4.982-1.962c-4.2-1.652-10.025-3.9-16.5-6.273s-12.365-4.406-16.65-5.86l-5.06-1.721-1.377-.482A2.58,2.58,0,0,1,101.21,365.13Z" transform="translate(-35.104 -164.854)"/><path class="b" d="M96.91,385.187c0-.121,11.4.267,25.453.86s25.393,1.2,25.393,1.325-11.4-.267-25.453-.86S96.91,385.307,96.91,385.187Z" transform="translate(-34.504 -167.649)"/><path class="b" d="M114.11,344a4.091,4.091,0,0,1,.4.31c.249.215.628.576,1.067.964l3.881,3.58,12.821,11.788,12.907,11.677,3.932,3.537,1.05.972c.241.224.361.344.353.361a2.477,2.477,0,0,1-.4-.292l-1.119-.912c-.955-.8-2.332-1.962-4.018-3.442-3.382-2.917-7.994-7-13.028-11.582s-9.525-8.8-12.744-11.892c-1.609-1.54-2.9-2.805-3.777-3.683l-1.015-1.024A2.667,2.667,0,0,1,114.11,344Z" transform="translate(-36.904 -161.906)"/><path class="b" d="M168.05,383.29c-.052-.1,10.188-5.318,22.863-11.634s23.009-11.358,23.069-11.246S203.8,365.753,191.119,372.1,168.11,383.419,168.05,383.29Z" transform="translate(-44.43 -164.195)"/><path class="b" d="M153.829,326.05a1.921,1.921,0,0,1,.1.5c.052.387.12.86.206,1.463.163,1.334.387,3.158.663,5.378.525,4.6,1.239,10.859,2.031,17.777s1.411,13.183,1.9,17.786c.215,2.237.4,4.061.525,5.4.052.6.086,1.084.12,1.471a2.365,2.365,0,0,1,0,.516,2.079,2.079,0,0,1-.1-.508c-.052-.378-.12-.86-.2-1.463-.163-1.325-.4-3.149-.671-5.378-.525-4.6-1.239-10.859-2.031-17.769s-1.4-13.182-1.893-17.786c-.224-2.237-.4-4.07-.525-5.4-.052-.594-.095-1.084-.121-1.463A2.913,2.913,0,0,1,153.829,326.05Z" transform="translate(-42.445 -159.401)"/><path class="b" d="M188.271,329.47a2.488,2.488,0,0,1-.146.491c-.129.353-.3.809-.5,1.359-.447,1.187-1.11,2.891-1.945,4.991-1.721,4.2-4.1,9.956-6.884,16.246s-5.533,11.926-7.546,15.97c-1.015,2.022-1.85,3.648-2.435,4.767-.284.516-.508.947-.688,1.282a2.376,2.376,0,0,1-.267.43,2.037,2.037,0,0,1,.181-.473l.62-1.317,2.3-4.827c1.953-4.079,4.6-9.723,7.434-16.013s5.275-12.047,7.022-16.186l2.082-4.931c.232-.542.422-.99.577-1.334A1.782,1.782,0,0,1,188.271,329.47Z" transform="translate(-44.404 -159.878)"/><path class="b" d="M170.517,323.76a2.5,2.5,0,0,1,0,.533c0,.361-.086.861-.164,1.54-.155,1.334-.422,3.253-.774,5.619-.688,4.741-1.721,11.272-2.891,18.492s-2.272,13.767-3.089,18.449c-.413,2.315-.757,4.208-1,5.585-.12.62-.215,1.127-.293,1.514a2.58,2.58,0,0,1-.138.525,3.078,3.078,0,0,1,.043-.534c.06-.4.129-.9.215-1.532.207-1.377.5-3.278.861-5.61.766-4.776,1.816-11.281,2.969-18.474C168.52,335.961,170.129,326.118,170.517,323.76Z" transform="translate(-43.61 -159.082)"/><path class="b" d="M205.921,343.84a3.921,3.921,0,0,1-.336.37l-1.041,1-3.846,3.614-12.675,11.952L175.46,372.821l-3.8,3.665-1.05,1.05a2.009,2.009,0,0,1-.387.327,2.386,2.386,0,0,1,.327-.387l.99-1.041c.861-.9,2.125-2.194,3.7-3.769,3.149-3.166,7.546-7.477,12.477-12.167s9.465-8.88,12.769-11.866c1.652-1.5,3-2.693,3.95-3.511l1.093-.938A2.5,2.5,0,0,1,205.921,343.84Z" transform="translate(-44.733 -161.883)"/><path class="f" d="M153,434.9a56.516,56.516,0,1,1,56.516-56.513A56.516,56.516,0,0,1,153,434.9ZM153,327a51.4,51.4,0,1,0,51.4,51.4A51.4,51.4,0,0,0,153,327Z" transform="translate(-34.444 -158.818)"/><path class="b" d="M213.517,354.783a4.555,4.555,0,0,1-.86-1.265l-.86-1.583-.559-1.024c-.215-.353-.465-.714-.714-1.11l-1.678-2.581c-.654-.929-1.411-1.9-2.194-2.977s-1.721-2.117-2.685-3.27-2.082-2.28-3.244-3.442a71.526,71.526,0,0,0-18.8-13.656c-.972-.508-1.953-1.024-2.994-1.445l-3.124-1.36c-2.168-.757-4.3-1.635-6.651-2.211a56.8,56.8,0,0,0-14.5-2.254,59.217,59.217,0,0,0-14.576,1.5,69.176,69.176,0,0,0-12.907,4.578l-2.9,1.463c-.964.465-1.85,1.05-2.754,1.558-1.824,1-3.442,2.186-5.111,3.253-.809.542-1.557,1.153-2.323,1.721a25.955,25.955,0,0,0-2.2,1.721l-2.057,1.721-.99.861-.929.86c-1.213,1.144-2.418,2.186-3.442,3.287s-2.082,2.057-2.934,3.072l-2.461,2.762-1.979,2.418c-.611.714-1.119,1.368-1.549,1.953l-1.127,1.437c-.62.774-.981,1.162-1.041,1.119s.163-.516.671-1.368l.955-1.575c.379-.628.86-1.334,1.394-2.091s1.17-1.626,1.841-2.581,1.506-1.876,2.349-2.926,1.833-2.091,2.848-3.235,2.194-2.254,3.39-3.442c.31-.293.611-.594.921-.9l.99-.86,2.048-1.8c.688-.628,1.463-1.179,2.211-1.781s1.523-1.222,2.341-1.8c1.652-1.127,3.313-2.366,5.163-3.442.929-.542,1.824-1.153,2.805-1.643s1.962-1.024,2.969-1.549a69.25,69.25,0,0,1,13.251-4.982,60.366,60.366,0,0,1,15.153-1.609A57.879,57.879,0,0,1,169.7,316.69c2.392.611,4.629,1.532,6.884,2.332l3.21,1.437c1.067.447,2.074.99,3.063,1.523a70.071,70.071,0,0,1,18.948,14.43c1.144,1.256,2.272,2.418,3.184,3.648s1.893,2.306,2.581,3.442,1.471,2.151,2.074,3.141l1.54,2.762c.224.413.447.8.637,1.179l.473,1.076c.275.671.516,1.239.714,1.721C213.422,354.25,213.577,354.749,213.517,354.783Z" transform="translate(-34.009 -157.76)"/><path class="b" d="M367.825,327.18c.12,0-2.418,10.584-5.653,23.56s-5.972,23.482-6.092,23.456,2.409-10.575,5.653-23.568S367.7,327.154,367.825,327.18Z" transform="translate(-70.665 -159.559)"/><path class="b" d="M342.349,327.14c.12,0,2.891,10.919,6.2,24.455s5.894,24.532,5.774,24.558-2.9-10.911-6.2-24.455S342.229,327.166,342.349,327.14Z" transform="translate(-68.749 -159.553)"/><path class="b" d="M388.758,342.12c.086.086-7.064,8.278-15.979,18.3s-16.229,18.07-16.349,18.018,7.056-8.278,15.979-18.311S388.646,342.017,388.758,342.12Z" transform="translate(-70.714 -161.643)"/><path class="b" d="M356.62,391.19c.095-.086,7.822,8.416,17.261,18.974s17.029,19.2,16.934,19.283-7.822-8.415-17.261-18.982S356.525,391.267,356.62,391.19Z" transform="translate(-70.74 -168.489)"/><path class="b" d="M403.931,361.37a1.72,1.72,0,0,1-.473.241l-1.4.62c-1.282.534-3.038,1.282-5.163,2.194-4.371,1.859-10.395,4.457-16.994,7.452s-12.537,5.8-16.814,7.865l-5.068,2.444-1.385.654a2.141,2.141,0,0,1-.49.2,1.993,1.993,0,0,1,.456-.284l1.342-.723c1.17-.628,2.883-1.506,5.008-2.581,4.242-2.134,10.154-5,16.762-7.994s12.658-5.55,17.063-7.331c2.2-.861,3.993-1.6,5.232-2.065l1.437-.533A3.146,3.146,0,0,1,403.931,361.37Z" transform="translate(-70.674 -164.329)"/><path class="b" d="M410.353,397.434a1.855,1.855,0,0,1-.516,0l-1.446-.121c-1.256-.112-3.08-.31-5.326-.559-4.492-.516-10.679-1.316-17.493-2.383s-12.959-2.186-17.4-3.063c-2.211-.439-4-.817-5.24-1.093l-1.411-.327a2.645,2.645,0,0,1-.491-.138,1.9,1.9,0,0,1,.508.052l1.428.241,5.266.946c4.449.809,10.592,1.876,17.407,2.943s12.985,1.91,17.468,2.5l5.3.706,1.445.207A3.534,3.534,0,0,1,410.353,397.434Z" transform="translate(-71.356 -168.289)"/><path class="b" d="M410.489,378.169c0,.121-11.186,1.953-25.126,4.1s-25.178,3.778-25.2,3.657,11.238-1.953,25.134-4.1S410.472,378.022,410.489,378.169Z" transform="translate(-71.234 -166.672)"/><path class="b" d="M402.958,417.767a2.527,2.527,0,0,1-.448-.232l-1.239-.731-4.5-2.762-14.878-9.1-14.955-8.932-4.543-2.7-1.222-.749a2.457,2.457,0,0,1-.413-.284,1.608,1.608,0,0,1,.456.206l1.274.671c1.093.6,2.668,1.48,4.6,2.581,3.881,2.2,9.207,5.309,15.032,8.829s11.057,6.772,14.818,9.181c1.876,1.2,3.39,2.186,4.423,2.874.482.336.861.6,1.2.809A1.905,1.905,0,0,1,402.958,417.767Z" transform="translate(-71.318 -168.642)"/><path class="b" d="M346.172,390c.077.095-8.742,7.452-19.7,16.426s-19.911,16.177-20,16.082,8.751-7.452,19.714-16.435S346.095,389.871,346.172,390Z" transform="translate(-63.743 -168.323)"/><path class="b" d="M376.826,438.363a1.785,1.785,0,0,1-.224-.482c-.138-.37-.327-.86-.551-1.428-.482-1.3-1.153-3.089-1.97-5.266-1.669-4.449-4-10.584-6.7-17.3s-5.266-12.77-7.142-17.141l-2.22-5.163-.594-1.411a2.023,2.023,0,0,1-.172-.508,2.676,2.676,0,0,1,.258.465l.671,1.377c.568,1.2,1.377,2.952,2.349,5.12,1.953,4.3,4.552,10.326,7.262,17.089s5,12.907,6.591,17.365c.792,2.237,1.42,4.053,1.833,5.318.2.593.353,1.075.473,1.454a2.388,2.388,0,0,1,.138.516Z" transform="translate(-70.828 -168.276)"/><path class="b" d="M342.457,443.384a1.728,1.728,0,0,1,0-.508q.069-.568.181-1.446c.163-1.256.439-3.063.792-5.292.706-4.466,1.773-10.618,3.132-17.382s2.745-12.855,3.812-17.21c.542-2.194.989-3.967,1.316-5.163l.387-1.4a2.308,2.308,0,0,1,.163-.482,1.872,1.872,0,0,1-.077.508l-.3,1.42c-.293,1.291-.688,3.055-1.179,5.215-.99,4.414-2.323,10.506-3.683,17.261s-2.478,12.907-3.261,17.347c-.387,2.177-.7,3.967-.929,5.266-.112.585-.2,1.059-.267,1.428A3.659,3.659,0,0,1,342.457,443.384Z" transform="translate(-68.762 -168.952)"/><path class="b" d="M362.032,444.293c-.12,0-1.471-11.307-3.012-25.281s-2.685-25.324-2.581-25.332,1.471,11.307,3.012,25.281S362.152,444.276,362.032,444.293Z" transform="translate(-70.714 -168.837)"/><path class="b" d="M319.63,435.1a2.839,2.839,0,0,1,.25-.43l.792-1.2,2.952-4.38,9.7-14.43L342.9,400.03l2.865-4.388.8-1.188a1.845,1.845,0,0,1,.31-.4,2.521,2.521,0,0,1-.232.447l-.706,1.23c-.637,1.067-1.583,2.581-2.771,4.5-2.366,3.777-5.7,8.958-9.465,14.628s-7.254,10.756-9.818,14.4c-1.282,1.824-2.332,3.3-3.072,4.3l-.861,1.153C319.751,434.983,319.647,435.121,319.63,435.1Z" transform="translate(-65.579 -168.889)"/><path class="b" d="M349.139,375.114c-.1.069-6.815-9.259-14.981-20.832S319.435,333.269,319.53,333.2s6.815,9.293,15.033,20.823S349.233,375.045,349.139,375.114Z" transform="translate(-65.565 -160.398)"/><path class="b" d="M295.83,403.1a3.181,3.181,0,0,1,.482-.172l1.411-.421,5.223-1.48,17.21-4.707,17.3-4.587L342.7,390.4l1.437-.344a2.211,2.211,0,0,1,.508-.086,3.157,3.157,0,0,1-.482.172l-1.411.422-5.223,1.48-17.21,4.707-17.3,4.586-5.249,1.334-1.437.344A1.718,1.718,0,0,1,295.83,403.1Z" transform="translate(-62.259 -168.319)"/><path class="b" d="M293.47,367.41a2,2,0,0,1,.508.069l1.428.284c1.239.258,3.02.654,5.223,1.17,4.406,1.015,10.463,2.53,17.115,4.363s12.623,3.648,16.926,5.034c2.151.688,3.889,1.265,5.077,1.678l1.377.491a1.718,1.718,0,0,1,.465.2,2.963,2.963,0,0,1-.49-.112l-1.4-.4-5.12-1.549c-4.3-1.3-10.326-3.072-16.951-4.9s-12.692-3.39-17.072-4.492l-5.163-1.3-1.4-.37A2.067,2.067,0,0,1,293.47,367.41Z" transform="translate(-61.929 -165.172)"/><path class="b" d="M290.83,387.721a2.094,2.094,0,0,1,.534-.077c.353-.043.86-.052,1.54-.078,1.342-.043,3.279-.069,5.67-.086,4.793,0,11.41,0,18.715.052s13.923.155,18.707.25l5.671.138,1.54.06a2.274,2.274,0,0,1,.542.052,3.356,3.356,0,0,1-.542,0H336l-18.715-.121Z" transform="translate(-61.561 -167.972)"/><path class="b" d="M304.62,345.32a2.24,2.24,0,0,1,.413.284l1.144.861,4.156,3.253L324.1,360.43l13.845,10.584,4.2,3.2,1.127.861a2.585,2.585,0,0,1,.379.327,1.963,1.963,0,0,1-.43-.258l-1.179-.818c-1.024-.714-2.487-1.764-4.3-3.08-3.605-2.633-8.536-6.333-13.922-10.489s-10.222-7.968-13.707-10.782c-1.721-1.4-3.115-2.581-4.07-3.365l-1.093-.938A2.433,2.433,0,0,1,304.62,345.32Z" transform="translate(-63.485 -162.09)"/><path class="f" d="M344.506,434.9a56.516,56.516,0,1,1,56.516-56.513A56.516,56.516,0,0,1,344.506,434.9Zm0-107.9a51.4,51.4,0,1,0,51.4,51.4,51.4,51.4,0,0,0-51.4-51.4Z" transform="translate(-61.165 -158.818)"/><path class="b" d="M402.111,355.072a4.217,4.217,0,0,1-.774-1.239c-.215-.422-.473-.947-.783-1.549l-.473-.972c-.181-.353-.4-.706-.619-1.093l-1.471-2.581c-.568-.921-1.256-1.876-1.945-2.926s-1.557-2.091-2.418-3.227-1.9-2.237-2.96-3.442l-.8-.86c-.284-.293-.585-.568-.861-.861l-1.833-1.721c-.6-.62-1.317-1.144-2-1.721s-1.385-1.17-2.117-1.721l-2.306-1.652c-.387-.275-.774-.568-1.179-.861l-1.256-.766c-.86-.516-1.721-1.058-2.581-1.566L373,324.878a60.819,60.819,0,0,0-26.064-6.522,62.972,62.972,0,0,0-13.922,1.377,58.174,58.174,0,0,0-12.288,4.3l-2.753,1.4-2.582,1.54c-.413.258-.86.49-1.248.766l-1.2.861c-.783.559-1.575,1.076-2.315,1.635-1.446,1.179-2.917,2.22-4.173,3.442l-1.893,1.721c-.611.559-1.17,1.153-1.721,1.721a105.489,105.489,0,0,0-9.818,11.436c-2.108,2.883-3.27,4.5-3.442,4.406s.792-1.841,2.7-4.9a83.217,83.217,0,0,1,9.4-12.047c.559-.585,1.11-1.2,1.721-1.8l1.893-1.781c1.256-1.256,2.736-2.358,4.191-3.6.749-.594,1.557-1.144,2.358-1.721l1.2-.86c.413-.293.86-.542,1.282-.818.861-.533,1.721-1.093,2.642-1.635l2.831-1.5a58.694,58.694,0,0,1,12.718-4.6,63,63,0,0,1,14.439-1.471,61.172,61.172,0,0,1,26.967,6.927l2.805,1.515c.861.542,1.721,1.119,2.624,1.661l1.273.818c.413.293.809.594,1.2.86l2.34,1.721c.749.594,1.437,1.231,2.143,1.833a24.176,24.176,0,0,1,2.013,1.824l1.833,1.85c.293.31.6.594.861.9l.8.947a43.823,43.823,0,0,1,2.908,3.605,33.976,33.976,0,0,1,2.332,3.4c.611,1.127,1.308,2.125,1.824,3.089s.929,1.893,1.325,2.71c.189.413.387.792.542,1.162l.4,1.05.594,1.661C402.06,354.565,402.189,355.046,402.111,355.072Z" transform="translate(-61.385 -158.031)"/><path class="b" d="M316.06,297.167l13.131-2.177,1.712,4.819-14.843,1.97Z" transform="translate(-65.081 -155.067)"/><path class="f" d="M333.868,287.683l-4.414-6.29c-.594-.861-1.213-1.85-.861-2.822a2.246,2.246,0,0,1,2.28-1.291,6.508,6.508,0,0,1,2.581.955c-.861-1.446-1.721-3.356-.723-4.7.766-.989,2.2-1.1,3.442-.955,5.542.645,10.326,4.715,15.876,5.042,2.736.163,5.447-.594,8.183-.637s5.808.86,7.056,3.3.3,5.223-.628,7.744" transform="translate(-66.816 -151.934)"/><path class="b" d="M371.367,285.56l-5.1,24.1H336.553l-8.372-23.629Z" transform="translate(-66.772 -153.752)"/><path class="f" d="M368.5,293.8c0,.12-8.269.292-18.474.387s-18.474.052-18.483-.069,8.269-.293,18.483-.387S368.5,293.68,368.5,293.8Z" transform="translate(-67.241 -154.885)"/><path class="f" d="M367.864,306.98c0,.129-7.254.293-16.2.361s-16.211.043-16.211-.077,7.254-.292,16.2-.37S367.864,306.868,367.864,306.98Z" transform="translate(-67.787 -156.723)"/><path class="f" d="M368.1,299.892c0,.12-7.959.293-17.769.379s-17.778.052-17.778-.077,7.951-.292,17.769-.37S368.1,299.771,368.1,299.892Z" transform="translate(-67.382 -155.736)"/><path class="f" d="M342.829,309.6c-.12,0-1.4-5.042-2.865-11.332s-2.581-11.4-2.435-11.427,1.4,5.042,2.865,11.332S342.949,309.565,342.829,309.6Z" transform="translate(-68.075 -153.93)"/><path class="f" d="M349.284,309.21c-.129,0-.577-5.051-1-11.3s-.68-11.324-.551-11.332.568,5.051,1,11.3S349.4,309.2,349.284,309.21Z" transform="translate(-69.496 -153.894)"/><path class="f" d="M358.145,309.223c-.12,0,.112-5.06.534-11.289s.86-11.272.981-11.264-.121,5.068-.534,11.289S358.265,309.232,358.145,309.223Z" transform="translate(-70.949 -153.907)"/><path class="f" d="M365.618,309.826a3.878,3.878,0,0,1,.043-.938c.052-.594.146-1.463.284-2.53.267-2.143.714-5.085,1.325-8.312s1.256-6.135,1.773-8.226c.258-1.041.482-1.885.654-2.47a3.9,3.9,0,0,1,.3-.861,3.522,3.522,0,0,1-.129.929c-.146.688-.318,1.523-.516,2.5-.439,2.108-1.041,5.017-1.644,8.243s-1.1,6.152-1.454,8.269c-.163.981-.31,1.824-.422,2.513A3.6,3.6,0,0,1,365.618,309.826Z" transform="translate(-71.994 -153.881)"/><path class="f" d="M350.8,269.41a6.152,6.152,0,0,0,6.651,5.851l.43.086A7.934,7.934,0,0,0,350.8,269.41Z" transform="translate(-69.928 -151.498)"/><path class="e" d="M370.111,275.893a1.351,1.351,0,0,0-1.721-.258,5.469,5.469,0,0,0,.447-1.454,1.909,1.909,0,0,0-.353-1.446,1.5,1.5,0,0,0-2.194,0,1.282,1.282,0,0,0-.611-1.721,2.091,2.091,0,0,0-1.979.206,4.47,4.47,0,0,0-.955.861l.069-.086a6.815,6.815,0,0,0-2.04,3.984,4.518,4.518,0,0,0,1.454,3.889,5.5,5.5,0,0,0,5.223.7,4.3,4.3,0,0,0,3.046-2.788A2.048,2.048,0,0,0,370.111,275.893Z" transform="translate(-71.316 -151.7)"/><g class="i" transform="translate(291.03 120.769)"><path d="M363.057,280.294a12.48,12.48,0,0,0,.6-3.82,15.057,15.057,0,0,0-1.041-3.734c.138-.069.353.3.706.955a6.667,6.667,0,0,1,.783,2.753,6.41,6.41,0,0,1-.447,2.831C363.384,279.958,363.1,280.319,363.057,280.294Z" transform="translate(-362.605 -272.73)"/></g><g class="i" transform="translate(292.317 126.056)"><path d="M369.977,280.308a8.608,8.608,0,0,0-2.874-.964,9.1,9.1,0,0,0-2.995.473c-.06-.138.241-.293.774-.542a4.377,4.377,0,0,1,2.263-.379,4.526,4.526,0,0,1,2.16.74C369.8,279.972,370.037,280.273,369.977,280.308Z" transform="translate(-364.101 -278.875)"/></g><g class="i" transform="translate(294.948 121.009)"><path d="M367.194,277.915a22.559,22.559,0,0,1,.086-2.453,20.556,20.556,0,0,1-.121-2.452,4.4,4.4,0,0,1,.577,2.452A4.217,4.217,0,0,1,367.194,277.915Z" transform="translate(-367.159 -273.01)"/></g><g class="i" transform="translate(295.625 122.463)"><path d="M369.8,274.829c0,.129-.439.2-.86.473s-.9.516-.981.4.224-.473.757-.8S369.825,274.708,369.8,274.829Z" transform="translate(-367.946 -274.699)"/></g><path class="e" d="M361.458,263.168a.792.792,0,0,0-.861.645,3.03,3.03,0,0,0-.447-.775,1.152,1.152,0,0,0-.757-.439.86.86,0,0,0-.9.938.757.757,0,0,0-.99-.447,1.256,1.256,0,0,0-.714.938,2.735,2.735,0,0,0,0,.748v-.06a4.061,4.061,0,0,0,.861,2.487,2.676,2.676,0,0,0,2.263.946,3.252,3.252,0,0,0,2.409-1.962,2.581,2.581,0,0,0,0-2.435A1.222,1.222,0,0,0,361.458,263.168Z" transform="translate(-70.76 -150.548)"/><g class="i" transform="translate(286.094 114.539)"><path d="M360.32,268.33c-.12.052-.49-.947-1.471-1.721s-2.014-.964-1.979-1.1a2.882,2.882,0,0,1,2.263.749,3.613,3.613,0,0,1,1.059,1.36C360.355,268.037,360.424,268.312,360.32,268.33Z" transform="translate(-356.869 -265.491)"/></g><g class="i" transform="translate(289.198 114.145)"><path d="M363.224,265.1c0,.121-.783.249-1.514.861a4.155,4.155,0,0,0-.861.861c-.164.258-.25.447-.318.43s-.078-.232,0-.568a2.582,2.582,0,0,1,.86-1.067A2,2,0,0,1,363.224,265.1Z" transform="translate(-360.476 -265.032)"/></g><g class="i" transform="translate(287.571 112.79)"><path d="M360.663,265.757c0,.12-.809-.086-1.4-.809s-.749-1.454-.645-1.489.456.568.981,1.2S360.706,265.645,360.663,265.757Z" transform="translate(-358.586 -263.458)"/></g><g class="i" transform="translate(289.14 113.309)"><path d="M361.107,264.077c.086.086-.043.353-.181.663s-.275.585-.4.576-.2-.37,0-.766S361.029,264.009,361.107,264.077Z" transform="translate(-360.409 -264.061)"/></g><path class="e" d="M340.241,275.1a.783.783,0,0,0-.129,1.033,3.379,3.379,0,0,0-.861-.241,1.153,1.153,0,0,0-.86.232.861.861,0,0,0,0,1.291.774.774,0,0,0-1.024.387,1.248,1.248,0,0,0,.155,1.17,2.582,2.582,0,0,0,.516.551h-.052a4.069,4.069,0,0,0,2.375,1.144,2.71,2.71,0,0,0,2.272-.921,3.243,3.243,0,0,0,.327-3.1,2.53,2.53,0,0,0-1.721-1.721A1.213,1.213,0,0,0,340.241,275.1Z" transform="translate(-68.043 -152.262)"/><g class="i" transform="translate(270.305 126.38)"><path d="M342.943,279.9a12.4,12.4,0,0,0-2.246-.172c-1.222.146-2.108.731-2.177.611a2.891,2.891,0,0,1,2.125-1.058,3.529,3.529,0,0,1,1.721.224C342.762,279.655,342.969,279.844,342.943,279.9Z" transform="translate(-338.52 -279.251)"/></g><g class="i" transform="translate(273.234 123.065)"><path d="M342.893,275.408c.095.086-.379.74-.482,1.669a4.136,4.136,0,0,0,0,1.2c.069.293.138.491.086.525s-.224-.1-.379-.422a2.469,2.469,0,0,1-.163-1.351C342.093,275.916,342.85,275.314,342.893,275.408Z" transform="translate(-341.924 -275.399)"/></g><g class="i" transform="translate(270.113 125.084)"><path d="M341.363,277.964c.06.1-.628.508-1.566.413s-1.549-.5-1.5-.6a7.289,7.289,0,0,1,1.54.155A15.147,15.147,0,0,1,341.363,277.964Z" transform="translate(-338.297 -277.745)"/></g><g class="i" transform="translate(271.928 123.935)"><path d="M340.556,276.41c.129,0,.224.284.344.6s.215.6.12.68-.4-.12-.542-.525S340.435,276.4,340.556,276.41Z" transform="translate(-340.407 -276.41)"/></g><path class="l" d="M348.725,278.476a.448.448,0,0,0-.525.249,1.838,1.838,0,0,0-.146-.482.646.646,0,0,0-.37-.336.491.491,0,0,0-.6.4.447.447,0,0,0-.49-.37.723.723,0,0,0-.516.43,1.64,1.64,0,0,0-.1.4h0a2.306,2.306,0,0,0,.172,1.48,1.5,1.5,0,0,0,1.127.8,1.806,1.806,0,0,0,1.566-.774,1.428,1.428,0,0,0,.327-1.325A.68.68,0,0,0,348.725,278.476Z" transform="translate(-69.248 -152.682)"/><path class="b" d="M167.074,379.1a8.094,8.094,0,0,1-2.082.318c-1.36.163-3.39.3-5.911.8a7.5,7.5,0,0,0-1.859.577,7.745,7.745,0,0,0-1.781,1.17,6.4,6.4,0,0,0-2.186,4.079,6.023,6.023,0,0,0,1.773,4.845,19.031,19.031,0,0,0,5.516,3.124,145.846,145.846,0,0,0,14.327,4.991l16.874,4.681c5.946,1.635,12.2,3.2,18.75,4.612,3.27.68,6.634,1.446,9.981,2a30.111,30.111,0,0,0,5.034.413,28.457,28.457,0,0,0,5.068-.559,10.059,10.059,0,0,0,7.8-5.025,14.865,14.865,0,0,0,1.816-4.431,13.61,13.61,0,0,0,.344-2.332,18.455,18.455,0,0,0,0-2.392,12.614,12.614,0,0,0-3.4-8.261,14.439,14.439,0,0,0-1.669-1.489c-.637-.43-1.239-.861-1.9-1.265a21.447,21.447,0,0,0-4.036-1.936,34.128,34.128,0,0,0-8.544-1.816c-2.865-.284-5.688-.37-8.433-.473-5.49-.181-10.61-.422-15.273-.628-9.319-.447-16.857-.68-22.08-.749s-8.106-.086-8.114-.25a7.787,7.787,0,0,1,2.091-.293c1.377-.112,3.442-.232,6.023-.327,5.232-.2,12.8-.215,22.149,0l15.265.361c2.745.052,5.6.1,8.6.361a35.529,35.529,0,0,1,9.069,1.833,23.93,23.93,0,0,1,4.414,2.074c.723.4,1.394.9,2.082,1.368a16.518,16.518,0,0,1,1.945,1.721,13.836,13.836,0,0,1,2.891,4.406,16.392,16.392,0,0,1,1.162,5.163,21.1,21.1,0,0,1,0,2.659,16.711,16.711,0,0,1-.387,2.71,17.363,17.363,0,0,1-2.074,5.1,13.294,13.294,0,0,1-3.9,4.13,14.312,14.312,0,0,1-1.273.731,12.749,12.749,0,0,1-1.377.551,25.7,25.7,0,0,1-2.728.637,30.506,30.506,0,0,1-5.464.6,31.819,31.819,0,0,1-5.4-.448c-3.494-.585-6.806-1.351-10.1-2.056-6.583-1.446-12.907-3.072-18.836-4.767l-8.674-2.5c-2.814-.861-5.533-1.566-8.192-2.392a139.959,139.959,0,0,1-14.413-5.318,19.267,19.267,0,0,1-5.9-3.579,7.306,7.306,0,0,1-2-6.023,7.5,7.5,0,0,1,2.745-4.741,8.765,8.765,0,0,1,2.065-1.239,8.065,8.065,0,0,1,2.108-.551,42.583,42.583,0,0,1,6.023-.387A6.992,6.992,0,0,1,167.074,379.1Z" transform="translate(-42.19 -166.695)"/><path class="e" d="M256.39,395.825l80.945-8.665.972,6.8-81.917,8.149Z" transform="translate(-56.756 -167.927)"/><path class="e" d="M330.061,370.614l-27.354-62.428-55.062,68.391-4.913-4.9,56.955-68.494-1.385-2.8L216.427,317.66l-1.747-6.316L296.4,295.563l-1.755-5.266,5.61-1.747,34.023,78.906Z" transform="translate(-50.936 -154.169)"/><path class="e" d="M165.28,390.066l50.957,8.2.275-5.49-49.675-7.546Z" transform="translate(-44.044 -167.658)"/><path class="e" d="M162.24,374.807l38.1-51.207,7.021,3.158L167,378.309Z" transform="translate(-43.62 -159.059)"/><path class="e" d="M212.845,312.925l-3.795-13.045H201.53l4.294,20.41,7.022,3.158,1.747-4.208Z" transform="translate(-49.102 -155.75)"/><path class="m" d="M293.94,327.833l.456,8.854,5.731-7.116V320.39Z" transform="translate(-61.995 -158.611)"/><path class="n" d="M251.23,307.609l6.2,4.81,13.923-2.934-8.269-4.165Z" transform="translate(-56.036 -156.509)"/><path class="e" d="M189.324,299.328c.594,1.807,3.21,9.465,7.056,9.732s30.418-3.855,34.419-4.87c2.581-.637,4-4.862-2.039-4.862C220.077,299.328,188.007,295.275,189.324,299.328Z" transform="translate(-47.393 -155.421)"/><path class="k" d="M189.324,299.328c.594,1.807,3.21,9.465,7.056,9.732s30.418-3.855,34.419-4.87c2.581-.637,4-4.862-2.039-4.862C220.077,299.328,188.007,295.275,189.324,299.328Z" transform="translate(-47.393 -155.421)"/><circle class="e" cx="6.798" cy="6.798" r="6.798" transform="translate(108.999 219.584) rotate(-43.65)"/><circle class="k" cx="6.798" cy="6.798" r="6.798" transform="translate(108.999 219.584) rotate(-43.65)"/><ellipse class="e" cx="6.798" cy="6.798" rx="6.798" ry="6.798" transform="translate(275.145 224.869) rotate(-76.76)"/><ellipse class="k" cx="6.798" cy="6.798" rx="6.798" ry="6.798" transform="translate(275.145 224.869) rotate(-76.76)"/><ellipse class="e" cx="15.54" cy="15.54" rx="15.54" ry="15.54" transform="translate(166.846 242.362) rotate(-76.82)"/><ellipse class="k" cx="15.54" cy="15.54" rx="15.54" ry="15.54" transform="translate(166.846 242.362) rotate(-76.82)"/><rect class="b" width="18.664" height="3.734" transform="matrix(0.987, 0.159, -0.159, 0.987, 178.64, 254.342)"/><rect class="b" width="18.664" height="3.734" transform="matrix(0.987, 0.159, -0.159, 0.987, 192.097, 224.704)"/><path class="b" d="M256.578,399.67c.06.62-3.554,1.489-8.071,1.945s-8.226.327-8.286-.293,3.545-1.48,8.063-1.936S256.517,399.059,256.578,399.67Z" transform="translate(-54.5 -169.595)"/><path class="b" d="M239.383,418c.62,0,.981,3.029.817,6.7s-.8,6.634-1.42,6.609-.99-3.029-.817-6.712S238.764,418,239.383,418Z" transform="translate(-54.179 -172.23)"/><path class="e" d="M261.222,388.971l1.394-8.751-16.349-2.71-2.177,12.778,1.007.232c4.475,1,22.828,4.767,26,4.345C274.6,394.41,261.222,388.971,261.222,388.971Z" transform="translate(-55.04 -166.581)"/><g class="i" transform="translate(189.042 223.346)"><path class="j" d="M267.709,393.885s4.647,2.212,3.906,2.917-19.438-2.409-27.535-4.5l.086-.361,21.77,3.812S266.754,393.764,267.709,393.885Z" transform="translate(-244.08 -391.94)"/></g><path class="b" d="M243.86,391.88a1.606,1.606,0,0,0,.275.077l.8.181,2.951.62c2.5.508,5.955,1.17,9.792,1.807s7.323,1.144,9.853,1.48l2.994.37.818.086h.284a1.282,1.282,0,0,0-.275-.06l-.809-.12-2.995-.439c-2.521-.361-6.023-.86-9.835-1.532s-7.3-1.273-9.8-1.721l-2.969-.559-.8-.146A1.026,1.026,0,0,0,243.86,391.88Z" transform="translate(-55.008 -168.586)"/><path class="b" d="M269.4,396.287a6.953,6.953,0,0,1,.792-1.325,7.123,7.123,0,0,1,1.2-.972,2.2,2.2,0,0,0-1.36.861A2.238,2.238,0,0,0,269.4,396.287Z" transform="translate(-58.571 -168.88)"/><path class="b" d="M264.259,392.681a2.365,2.365,0,0,0,.62-.542c.3-.336.516-.637.473-.68s-.319.206-.62.542S264.216,392.647,264.259,392.681Z" transform="translate(-57.853 -168.527)"/><path class="b" d="M262.85,391.687a1.516,1.516,0,0,0,.645-.293c.327-.206.559-.4.533-.456s-.318.086-.645.293S262.824,391.644,262.85,391.687Z" transform="translate(-57.657 -168.453)"/><path class="b" d="M262.18,389.846a1.853,1.853,0,0,0,.86.25c.5.078.861.112.861.052a2.036,2.036,0,0,0-.861-.25A2.11,2.11,0,0,0,262.18,389.846Z" transform="translate(-57.564 -168.299)"/><path class="b" d="M262.05,388.53a1.721,1.721,0,0,0,.912.439,1.641,1.641,0,0,0,1.007,0,6.35,6.35,0,0,0-.964-.224A4.781,4.781,0,0,0,262.05,388.53Z" transform="translate(-57.546 -168.119)"/><path class="b" d="M265.18,391.144a3.116,3.116,0,0,0,1.05.163,5.562,5.562,0,0,0,1.162-.06,2.628,2.628,0,0,0,.688-.155.55.55,0,0,0,.31-.284.4.4,0,0,0-.086-.448,1.945,1.945,0,0,0-2.478.172,1.91,1.91,0,0,0-.465.645c-.069.172-.086.275-.069.275a2.863,2.863,0,0,1,.628-.817,1.842,1.842,0,0,1,1-.43,1.642,1.642,0,0,1,1.239.292c.146.146.043.336-.155.413a3.276,3.276,0,0,1-.637.155,8.41,8.41,0,0,1-1.127.1C265.584,391.178,265.189,391.109,265.18,391.144Z" transform="translate(-57.982 -168.323)"/><path class="b" d="M265.31,391.081a1.074,1.074,0,0,0,.241-.705,1.722,1.722,0,0,0-.163-.817,1.067,1.067,0,0,0-.783-.688.43.43,0,0,0-.4.439,1.176,1.176,0,0,0,.1.5,3.247,3.247,0,0,0,.387.714c.275.379.516.551.534.525s-.181-.224-.413-.6a3.377,3.377,0,0,1-.336-.705c-.112-.241-.138-.663.129-.663s.491.327.62.559a1.664,1.664,0,0,1,.181.731A4.3,4.3,0,0,1,265.31,391.081Z" transform="translate(-57.846 -168.166)"/><path class="b" d="M245.11,386.736a11.823,11.823,0,0,1,1.2.241,5.163,5.163,0,0,1,3.717,4.13c.129.74.077,1.222.112,1.222a.808.808,0,0,0,.06-.336,4.379,4.379,0,0,0,0-.912,5.034,5.034,0,0,0-3.82-4.242,4.411,4.411,0,0,0-.9-.129C245.231,386.71,245.11,386.719,245.11,386.736Z" transform="translate(-55.182 -167.864)"/><path class="b" d="M248.2,379.15a27.594,27.594,0,0,0-.706,3.339,28.342,28.342,0,0,0-.5,3.416,29.224,29.224,0,0,0,.7-3.339A29.867,29.867,0,0,0,248.2,379.15Z" transform="translate(-55.446 -166.81)"/><path class="b" d="M253.68,391.889a13.57,13.57,0,0,0,4.776.86c0-.06-1.075-.172-2.392-.4S253.7,391.837,253.68,391.889Z" transform="translate(-56.378 -168.586)"/><path class="b" d="M250,391.269s.052.241.12.508.086.491.146.491.129-.241.043-.542S250,391.235,250,391.269Z" transform="translate(-55.864 -168.5)"/><path class="b" d="M248.828,389.289c-.043,0,0,.215.181.413s.284.344.336.31,0-.224-.172-.422S248.879,389.255,248.828,389.289Z" transform="translate(-55.699 -168.224)"/><path class="b" d="M247,388.141c0,.06.215.095.447.215s.379.284.422.258-.052-.284-.327-.43S247,388.09,247,388.141Z" transform="translate(-55.446 -168.057)"/><path class="b" d="M245.59,387.536a.473.473,0,0,0,.181.224c.129.077.25.095.275.052s-.052-.155-.172-.224S245.616,387.484,245.59,387.536Z" transform="translate(-55.249 -167.976)"/><g class="h" transform="translate(189.902 216.29)"><path d="M245.08,385.926l16.521,2.4.3-1.971-16.444-2.616Z" transform="translate(-245.08 -383.74)"/></g><path class="b" d="M193.292,259.69s-10.876,10.4-3.709,26.15c2.986,6.565,21.245,11.014,21.245,11.014l38.214,12.288-14.379,57.789,20.127,2.013s23.285-66.988,20.126-72.168-65.938-32.062-65.938-32.062Z" transform="translate(-47.094 -150.142)"/><path class="f" d="M258.632,374.968h-.353l-1.05-.077-4.018-.353-14.723-1.4H238.3l.052-.189c2.5-10.154,5.86-23.706,9.534-38.567,1.721-6.772,3.313-13.277,4.793-19.232l.138.249-27.441-8.975-7.89-2.581-2.091-.714-.542-.189-.181-.077a.652.652,0,0,1,.2.043l.542.155,2.117.645,7.934,2.487,27.484,8.76.189.06-.043.189c-1.48,5.954-3.089,12.46-4.776,19.24l-9.646,38.532-.146-.207,14.714,1.549,4,.447,1.041.129A1.474,1.474,0,0,1,258.632,374.968Z" transform="translate(-50.935 -156.165)"/><path class="n" d="M148.005,448.111H43.492S20.448,430.7,24.975,422.934s32.56-1.549,46.319,13.036c0,0,7.744-11.341,17.76-6.815S109.705,439.2,109.705,439.2s-.568-9.207,5.886-6.746,9.758,11.143,17.571,10.92S148.005,448.111,148.005,448.111Z" transform="translate(-24.385 -172.449)"/><path class="b" d="M67.9,394.332c0,.12-7.194.224-16.065.224s-16.074-.1-16.074-.224,7.194-.232,16.074-.232S67.9,394.2,67.9,394.332Z" transform="translate(-25.973 -168.896)"/><path class="b" d="M61.709,392.074c0,.121-7.194.224-16.074.224s-16.065-.1-16.065-.224,7.194-.224,16.065-.224S61.709,391.979,61.709,392.074Z" transform="translate(-25.109 -168.582)"/></g><g transform="translate(363.341 366.91)"><path class="e" d="M452.651,395.643a9.3,9.3,0,0,1,4.819,5.455,16.348,16.348,0,0,1,.637,7.391c-.542,4.793-3.261,9.629-6.2,13.466-4.044-3.528-4.973-9.672-5.249-12.821-.43-4.973,1.807-14.232,6.023-13.492" transform="translate(-434.49 -395.601)"/><path class="e" d="M458.2,433.8a7.934,7.934,0,0,1,2.581-7.538,10.507,10.507,0,0,1,7.744-2.418,4.44,4.44,0,0,1,3.442,1.523,3.442,3.442,0,0,1,.052,3.442,6.945,6.945,0,0,1-2.538,2.5c-3.5,2.194-7.288,3.674-11.247,2.487" transform="translate(-436.085 -399.535)"/><path class="b" d="M452.2,449.277a5.812,5.812,0,0,1,.146-.99c.129-.689.293-1.583.491-2.659a27.84,27.84,0,0,1,2.745-8.51,17.013,17.013,0,0,1,6.11-6.479,10.8,10.8,0,0,1,2.486-1.1c.3-.1.551-.146.714-.189a.861.861,0,0,1,.258,0,17.93,17.93,0,0,0-3.339,1.532,17.658,17.658,0,0,0-5.92,6.445,30.023,30.023,0,0,0-2.814,8.39c-.241,1.11-.447,2.022-.594,2.642A4.856,4.856,0,0,1,452.2,449.277Z" transform="translate(-435.27 -400.309)"/><path class="b" d="M452.349,404a2.835,2.835,0,0,1,.052.43c0,.318.043.723.069,1.23.06,1.076.12,2.633.181,4.552.129,3.838.224,9.155.2,15.015s-.163,11.186-.327,15.024c-.077,1.919-.155,3.442-.215,4.543,0,.508-.069.912-.086,1.231a2.85,2.85,0,0,1-.051.43,1.625,1.625,0,0,1,0-.43v-1.239c0-1.119.06-2.659.112-4.543.095-3.846.2-9.156.224-15.015s0-11.186-.095-15.007c0-1.893-.06-3.442-.078-4.552V404.43A2.337,2.337,0,0,1,452.349,404Z" transform="translate(-435.263 -396.773)"/><path class="e" d="M447.648,436.5a18.543,18.543,0,0,0-10.128-13.6c-1.342-.645-3.106-1.067-4.216-.069s-.86,2.814-.318,4.208a15.842,15.842,0,0,0,14.576,9.861" transform="translate(-432.525 -399.317)"/><path class="b" d="M439.1,428.31a5.163,5.163,0,0,1,.86.379,8.575,8.575,0,0,1,.972.516,13.881,13.881,0,0,1,1.231.775,16.217,16.217,0,0,1,1.411,1.058,17.66,17.66,0,0,1,1.5,1.359,19.142,19.142,0,0,1,4.733,7.917,17.549,17.549,0,0,1,.473,1.97,14.079,14.079,0,0,1,.241,1.721,12.744,12.744,0,0,1,.069,1.454,8.546,8.546,0,0,1,0,1.1,4.68,4.68,0,0,1-.1.929c-.077,0,.06-1.334-.181-3.442a16.056,16.056,0,0,0-.275-1.721,19.3,19.3,0,0,0-5.154-9.672,17.65,17.65,0,0,0-1.454-1.368,17.056,17.056,0,0,0-1.368-1.084C440.279,428.9,439.057,428.379,439.1,428.31Z" transform="translate(-433.442 -400.165)"/></g></svg>