<svg xmlns="http://www.w3.org/2000/svg" width="203.776" height="197.501" viewBox="0 0 203.776 197.501"><defs><style>.a{fill:#ffefed;}.b{fill:#263238;}.c{fill:#ffbe9d;}.d{fill:#455a64;}.e{opacity:0.6;}.f{fill:#fff;}.g{fill:#0e7a73;}.h{fill:#fafafa;}.i{fill:#eb996e;}.j{fill:#b78876;}.k{fill:#aa6550;}.l{opacity:0.3;}</style></defs><g transform="translate(20.742 16.433)"><path class="a" d="M106.142,207.233c-12.086-2.757-19.852-11.562-25.521-22.413s-3.423-24.678,2.93-35.155A36.445,36.445,0,0,1,114.2,132.452c9.853,0,19.929,4.074,29.313,1.076,7.747-2.475,13.339-9.365,16.8-16.721s5.245-15.385,8.176-22.973,7.333-15.039,14.369-19.141c6.38-3.691,14.274-4.1,21.474-2.534,13.672,3.021,25.252,13.02,31.755,25.412s8.231,26.929,6.535,40.824c-3.523,28.934-22.249,55.6-48.276,68.7s-70.889,11.721-96.242-2.671" transform="translate(-77.374 -71.295)"/></g><g transform="translate(0 194.075)"><path class="b" d="M235.636,461.208c0,.068-45.623.118-101.884.118s-101.893-.05-101.893-.118,45.61-.118,101.893-.118S235.636,461.145,235.636,461.208Z" transform="translate(-31.86 -461.09)"/></g><g transform="translate(49.735 20.643)"><path class="c" d="M213.372,155.41s-2.953,13.216-4.316,14.21c-5.7,4.1-15.582,6.695-18.2,7.292-.419-.123-.911-.283-1.467-.492a4.645,4.645,0,0,1-1.367-.793,7.029,7.029,0,0,1-1.367-1.4.6.6,0,0,0-1.13.146c-.055.542.743,1.982,2.324,3.09s-1.445,1.322-2.548,1.422-4.489.574-4.726.939c-.351.529.155,1,1.253.875s4.412-.273,4.439.31-5.587,1.012-5.587,1.012-1.212-.1-1.208.574c0,1.221,5.924.319,6.5.219.392-.073.456.561,0,.615s-5.605.305-5.605,1.545c0,.952,4.885-.7,5.988-.155s-3.833.875-3.8,1.786c0,.337.073.588,2.876,0a57.258,57.258,0,0,0,5.924-1.878v.032s27.371-3.582,28.866-16.374L222.3,160.6Z" transform="translate(-161.935 -121.285)"/><path class="d" d="M268.956,429.994l.524,8.973s-8.946,3.546-9.01,5.214l17.441-.087-.246-14.314Z" transform="translate(-206.02 -270.616)"/><g class="e" transform="translate(67.992 167.445)"><path class="f" d="M291.012,447.973a.72.72,0,0,1,.51.8.693.693,0,0,1-.793.515.752.752,0,0,1-.533-.852.706.706,0,0,1,.88-.456" transform="translate(-290.185 -447.951)"/></g><g class="e" transform="translate(54.454 172.043)"><path class="f" d="M277.917,459.476V458.04l-16.757.624s-.77.355-.67.911Z" transform="translate(-260.48 -458.04)"/></g><path class="b" d="M279.619,449.662c0,.087.428.114.857.378s.656.62.734.583-.064-.524-.583-.834S279.6,449.585,279.619,449.662Z" transform="translate(-216.442 -281.393)"/><path class="b" d="M275.64,451.471c0,.082.355.219.652.574s.392.734.456.729.128-.492-.251-.911S275.64,451.389,275.64,451.471Z" transform="translate(-214.277 -282.404)"/><path class="b" d="M272.623,454.631c.077,0,.187-.415-.041-.875s-.633-.638-.665-.565.214.315.4.7S272.536,454.622,272.623,454.631Z" transform="translate(-212.249 -283.349)"/><path class="b" d="M279.846,444.863c.041.077.428-.05.911-.027s.857.164.912.091-.328-.369-.912-.387S279.805,444.794,279.846,444.863Z" transform="translate(-216.565 -278.649)"/><path class="b" d="M279.7,439.561a1.6,1.6,0,0,0,.87,0,3.98,3.98,0,0,0,.912-.3,3.882,3.882,0,0,0,.5-.278,1.251,1.251,0,0,0,.26-.21.374.374,0,0,0,.027-.456.455.455,0,0,0-.378-.187,1.093,1.093,0,0,0-.324.055,3,3,0,0,0-.538.2,3.09,3.09,0,0,0-.8.547c-.392.383-.524.706-.5.72s.232-.242.638-.561a3.435,3.435,0,0,1,.766-.456,3.251,3.251,0,0,1,.5-.169c.182-.05.337-.055.387.023s0,.046,0,.1a.861.861,0,0,1-.187.155,4.466,4.466,0,0,1-.456.274,4.559,4.559,0,0,1-.839.342A5.813,5.813,0,0,0,279.7,439.561Z" transform="translate(-216.487 -275.161)"/><path class="b" d="M278.569,438.243a1.413,1.413,0,0,0,.21-.848,2.788,2.788,0,0,0-.141-.952,2.928,2.928,0,0,0-.232-.524.716.716,0,0,0-.57-.428.406.406,0,0,0-.36.251,1.167,1.167,0,0,0-.082.324,1.951,1.951,0,0,0,0,.588,2.045,2.045,0,0,0,.392.911c.351.456.711.538.716.506a3.618,3.618,0,0,1-.542-.629,2.009,2.009,0,0,1-.3-.807,2.093,2.093,0,0,1,0-.506c.027-.187.091-.337.16-.319a.655.655,0,0,1,.314.278,2.955,2.955,0,0,1,.228.456,3.189,3.189,0,0,1,.187.866C278.569,437.91,278.5,438.234,278.569,438.243Z" transform="translate(-215.219 -273.724)"/><path class="d" d="M329.319,428.776l.711,9.32s-9.233,3.851-9.27,5.587l18.115-.734-1.458-14.52Z" transform="translate(-238.834 -269.881)"/><g class="e" transform="translate(95.916 167.191)"><path class="f" d="M352.307,447.405a.734.734,0,0,1,.542.825.711.711,0,0,1-.811.547.779.779,0,0,1-.57-.875.738.738,0,0,1,.911-.478" transform="translate(-351.459 -447.393)"/></g><g class="e" transform="translate(81.924 171.605)"><path class="f" d="M338.873,458.543l-.109-1.463-17.318,1.249s-.793.383-.679.948Z" transform="translate(-320.756 -457.08)"/></g><path class="b" d="M340.439,449.348c0,.087.456.109.911.378s.693.629.775.592-.073-.547-.62-.861S340.416,449.266,340.439,449.348Z" transform="translate(-249.545 -281.215)"/><path class="b" d="M336.34,451.3c0,.087.374.223.688.583s.419.757.506.747.128-.51-.273-.953S336.34,451.222,336.34,451.3Z" transform="translate(-247.314 -282.31)"/><path class="b" d="M333.262,454.641c.082,0,.187-.433-.059-.911s-.67-.652-.706-.579.232.328.428.72S333.18,454.637,333.262,454.641Z" transform="translate(-245.22 -283.328)"/><path class="b" d="M340.605,444.341c.036.082.456-.059.939-.046s.911.155.943.077-.346-.378-.934-.383S340.555,444.272,340.605,444.341Z" transform="translate(-249.633 -278.35)"/><path class="b" d="M340.37,438.795a1.7,1.7,0,0,0,.911-.041,4.2,4.2,0,0,0,.934-.328,4.268,4.268,0,0,0,.51-.3,1.031,1.031,0,0,0,.264-.223.383.383,0,0,0,.023-.456.456.456,0,0,0-.4-.187,1.208,1.208,0,0,0-.337.059,3.62,3.62,0,0,0-.556.214,3.391,3.391,0,0,0-.816.583c-.4.406-.533.743-.5.761s.232-.26.647-.6a3.591,3.591,0,0,1,.793-.488,3,3,0,0,1,.515-.182c.187-.059.351-.068.406,0s.023.041,0,.1a.74.74,0,0,1-.2.164,4.345,4.345,0,0,1-.456.292,4.776,4.776,0,0,1-.866.374,6.427,6.427,0,0,0-.88.255Z" transform="translate(-249.507 -274.686)"/><path class="b" d="M339.111,437.471a1.427,1.427,0,0,0,.205-.884,2.949,2.949,0,0,0-.164-.989,2.782,2.782,0,0,0-.255-.542.743.743,0,0,0-.6-.456.429.429,0,0,0-.369.264,1.312,1.312,0,0,0-.077.337,1.938,1.938,0,0,0,.023.611,2.132,2.132,0,0,0,.424.911c.374.456.747.547.757.52a3.664,3.664,0,0,1-.579-.647,2.055,2.055,0,0,1-.319-.839,1.682,1.682,0,0,1,0-.524c0-.2.087-.355.16-.337a.664.664,0,0,1,.328.283,2.979,2.979,0,0,1,.242.483,3.259,3.259,0,0,1,.214.911C339.143,437.125,339.061,437.457,339.111,437.471Z" transform="translate(-248.13 -273.239)"/><path class="b" d="M292.591,230.21l16.447,96.082-12.647,1.837-17.5-86.8,3.185,87.633H269.859l-4.229-97.663Z" transform="translate(-208.829 -161.997)"/><path class="c" d="M326.58,231.554c.087.369.178.811.264,1.335a3.968,3.968,0,0,1,0,1.367,6.125,6.125,0,0,1-.456,1.618c-.26.456.164.984.592.793a4.3,4.3,0,0,0,1.331-3.081c.15-1.668,1.622.52,2.174,1.3s2.361,3.145,2.734,3.167c.551.032.688-.551.118-1.326s-2.1-3.19-1.672-3.482,3.167,3.783,3.167,3.783.456.957.952.661c.911-.533-2.32-4.617-2.639-5.013-.219-.264.237-.574.456-.278s2.643,4.1,3.577,3.564c.72-.41-2.63-3.386-2.693-4.448s2.311,2.511,2.98,2.092c.251-.155.415-.305-1.244-2.165-.807-.911-3.942-3.678-3.942-3.678l-5.346-23.634-8.745-.492Z" transform="translate(-237.436 -147.535)"/><path class="g" d="M273.487,172.392l8.659-.952s-4.416-19.8-5.669-27.212a8.89,8.89,0,0,0-1.969-4.252,15.387,15.387,0,0,0-4.238-3.468,43.461,43.461,0,0,0-8.932-3.008l-10.527,2.206c-.2.068-6,3.514-6.471,4.257,0,0-2,1.445-2.734,5.309-.911,4.639-3.122,11.945-3.815,12.423s-5.56,2.894-5.56,2.894l4.152,8.8s6.7-2.037,10.637-6.38l.15,16.812,28.064-.784L271.5,165.975Z" transform="translate(-190.65 -109.36)"/><path class="b" d="M261.264,172.734a2.634,2.634,0,0,1-.5-.911,2.356,2.356,0,0,1-.283-.984c.059-.027.287.374.5.911A2.247,2.247,0,0,1,261.264,172.734Z" transform="translate(-206.026 -129.682)"/><path class="b" d="M263.151,193.762a.828.828,0,0,1-.032-.228,3.918,3.918,0,0,0-.041-.647c-.027-.6-.059-1.408-.1-2.393-.082-2.019-.178-4.808-.342-7.884s-.383-5.856-.583-7.866c-.1-.975-.182-1.777-.246-2.379-.023-.255-.046-.456-.059-.647a1.086,1.086,0,0,1,0-.228.809.809,0,0,1,.055.223q.041.26.109.643c.087.556.2,1.367.319,2.37.242,2.01.488,4.794.652,7.875s.232,5.87.273,7.889c0,.984.023,1.791.032,2.393v.652A.806.806,0,0,1,263.151,193.762Z" transform="translate(-206.71 -130.037)"/><path class="b" d="M314.48,167.779c.041.05-.146.287-.419.533s-.533.406-.579.355.146-.287.419-.533S314.435,167.729,314.48,167.779Z" transform="translate(-234.87 -128.012)"/><path class="h" d="M287.1,146.9a1.4,1.4,0,0,1-.319,0c-.21,0-.52-.041-.912-.064a20.29,20.29,0,0,0-3.372.187c-1.413.182-3.081.529-4.94.889s-3.919.679-6.093.911a66.534,66.534,0,0,1-11.184.324c-1.431-.082-2.584-.2-3.377-.283l-.911-.118a1.69,1.69,0,0,1-.319-.059,1.6,1.6,0,0,1,.324,0l.911.073c.793.064,1.951.15,3.377.21a71.88,71.88,0,0,0,11.147-.392c2.169-.237,4.22-.561,6.08-.911s3.536-.679,4.963-.839a17.891,17.891,0,0,1,3.4-.114c.4.036.706.068.912.109A1.994,1.994,0,0,1,287.1,146.9Z" transform="translate(-203.408 -116.532)"/><path class="h" d="M288.209,161a2.015,2.015,0,0,1-.342.1l-.984.251c-.852.205-2.092.5-3.646.843a82.232,82.232,0,0,1-12.163,1.9,73.374,73.374,0,0,1-12.3-.36c-1.568-.164-2.835-.324-3.705-.456l-1.007-.146a3.181,3.181,0,0,1-.346-.064,1.61,1.61,0,0,1,.355,0l1.007.1c.875.091,2.142.228,3.71.369a78.884,78.884,0,0,0,12.277.292A90.448,90.448,0,0,0,283.2,162l3.646-.77.993-.205A1.643,1.643,0,0,1,288.209,161Z" transform="translate(-202.341 -124.326)"/><path class="h" d="M322.912,175.62a5.127,5.127,0,0,1-1.126.31,22.345,22.345,0,0,1-2.794.392,21.659,21.659,0,0,1-2.821.046,5.136,5.136,0,0,1-1.171-.118,6.583,6.583,0,0,1,1.167-.036c.716,0,1.7-.032,2.8-.114s2.069-.219,2.78-.324A6.3,6.3,0,0,1,322.912,175.62Z" transform="translate(-235.699 -132.285)"/><path class="h" d="M286.68,183.726a.993.993,0,0,1-.232.059l-.674.132c-.583.1-1.431.242-2.479.392-2.106.3-5.013.606-8.262.747s-6.18.077-8.3-.036c-1.057-.059-1.914-.123-2.507-.182l-.679-.068a.857.857,0,0,1-.237-.041.911.911,0,0,1,.241,0h.679c.592.032,1.449.068,2.511.1,2.119.073,5.045.1,8.276-.032s6.148-.424,8.253-.679c1.053-.128,1.9-.237,2.488-.319l.679-.082A.817.817,0,0,1,286.68,183.726Z" transform="translate(-207.566 -136.691)"/><path class="h" d="M325.322,190.33a5.311,5.311,0,0,1-1.162.456,18.509,18.509,0,0,1-2.926.647,18.837,18.837,0,0,1-2.994.182A4.86,4.86,0,0,1,317,191.5a9.569,9.569,0,0,1,1.24-.055,28.105,28.105,0,0,0,2.962-.246,28.6,28.6,0,0,0,2.912-.574A7.881,7.881,0,0,1,325.322,190.33Z" transform="translate(-236.788 -140.291)"/><path class="h" d="M328.485,204.24a5.763,5.763,0,0,1-1.23.456,22.876,22.876,0,0,1-3.09.747,23.367,23.367,0,0,1-3.167.324,6.044,6.044,0,0,1-1.317-.041,8.9,8.9,0,0,1,1.308-.128c.807-.064,1.919-.182,3.135-.387a31.123,31.123,0,0,0,3.085-.674A10.146,10.146,0,0,1,328.485,204.24Z" transform="translate(-238.247 -147.862)"/><path class="h" d="M288.313,204.768a1.077,1.077,0,0,1-.228.077l-.661.169c-.574.15-1.413.328-2.456.52s-2.279.365-3.691.506-2.935.214-4.557.219-3.158-.1-4.557-.223-2.648-.319-3.687-.51-1.887-.369-2.456-.52l-.661-.173a.958.958,0,0,1-.228-.073.781.781,0,0,1,.237.027l.67.132c.579.118,1.422.273,2.466.456s2.279.328,3.682.456,2.926.2,4.535.205,3.149-.087,4.557-.2,2.639-.283,3.682-.456,1.887-.319,2.466-.456l.67-.132A1.028,1.028,0,0,1,288.313,204.768Z" transform="translate(-208.557 -148.144)"/><path class="h" d="M247.52,179.094a4.376,4.376,0,0,1,.984-.141l1.071-.1.633-.055.333-.027h.31s0-.023-.064.055c.182-.123.055-.032.1-.059h.342l.337-.027.638-.032,1.076-.032a4.719,4.719,0,0,1,.989,0,3.3,3.3,0,0,1-.98.164c-.305.032-.67.059-1.071.087l-.633.046-.333.032h-.319c.041-.027-.091.064.091-.059-.073.082-.073.05-.082.064H250.6l-.333.023-.638.041-1.076.046A3.679,3.679,0,0,1,247.52,179.094Z" transform="translate(-198.972 -133.936)"/><path class="h" d="M252.862,192.651c-.036.023-.383-.456-1.039-1.126a21.9,21.9,0,0,0-2.794-2.4c-1.162-.852-2.279-1.55-3.076-2.037a14.145,14.145,0,0,1-1.3-.811,2.881,2.881,0,0,1,.383.15c.237.109.588.287,1,.515a28.209,28.209,0,0,1,3.135,1.992,17.7,17.7,0,0,1,2.775,2.475,7.413,7.413,0,0,1,.7.884A1.578,1.578,0,0,1,252.862,192.651Z" transform="translate(-197.41 -138.087)"/><path class="h" d="M242.855,198.831a14.472,14.472,0,0,1-.779-1.253c-.456-.779-1.158-1.823-1.919-3s-1.422-2.242-1.859-3.049c-.223-.4-.387-.729-.5-.966a1.369,1.369,0,0,1-.141-.369,12.153,12.153,0,0,1,.779,1.253c.456.779,1.162,1.823,1.919,3s1.426,2.242,1.864,3.044c.223.4.387.734.492.966A1.365,1.365,0,0,1,242.855,198.831Z" transform="translate(-193.606 -140.215)"/><path class="c" d="M275.528,91.386l1.249,16.119a5.132,5.132,0,0,1-4.749,5.514h0a5.136,5.136,0,0,1-5.428-4.3c-.223-1.4-.406-2.561-.406-2.561s-4.1,0-4.785-4.033c-.319-1.941-.656-5.993-.911-9.662a7.588,7.588,0,0,1,6.426-8.03l.392-.059a7.538,7.538,0,0,1,8.212,7.014Z" transform="translate(-206.025 -82.604)"/><path class="b" d="M265.547,106.387a.583.583,0,0,0,.643.5.561.561,0,0,0,.515-.611.588.588,0,0,0-.643-.5.561.561,0,0,0-.515.611Z" transform="translate(-208.782 -94.269)"/><path class="b" d="M263.057,105.255c.082.068.456-.324,1.089-.415s1.117.146,1.171.059-.064-.159-.283-.273a1.563,1.563,0,0,0-.952-.141,1.517,1.517,0,0,0-.852.424C263.062,105.081,263.026,105.227,263.057,105.255Z" transform="translate(-207.423 -93.556)"/><path class="b" d="M278.927,104.4a.583.583,0,0,0,.643.5.56.56,0,0,0,.515-.611.588.588,0,0,0-.643-.5.561.561,0,0,0-.515.611Z" transform="translate(-216.065 -93.186)"/><path class="b" d="M276.433,103.481c.082.064.456-.328,1.089-.419s1.117.146,1.176.064-.068-.164-.287-.278a1.6,1.6,0,0,0-.952-.141,1.518,1.518,0,0,0-.852.424C276.438,103.285,276.392,103.449,276.433,103.481Z" transform="translate(-214.701 -92.589)"/><path class="b" d="M271.085,109.035a4.238,4.238,0,0,0-1.035-.027c-.159,0-.314,0-.355-.1a.83.83,0,0,1,.032-.483l.287-1.276a20.965,20.965,0,0,0,.57-3.3,21.288,21.288,0,0,0-.838,3.249l-.26,1.281a.948.948,0,0,0,0,.633.424.424,0,0,0,.3.191,1.331,1.331,0,0,0,.273,0,4.148,4.148,0,0,0,1.03-.16Z" transform="translate(-210.897 -93.217)"/><path class="b" d="M275.282,97.326c.087.159.693,0,1.431-.036s1.367.087,1.431-.082c.032-.077-.1-.219-.355-.346a2.383,2.383,0,0,0-1.1-.205,2.356,2.356,0,0,0-1.08.3C275.36,97.1,275.246,97.267,275.282,97.326Z" transform="translate(-214.079 -89.306)"/><path class="b" d="M262.958,101.217c.132.123.533-.087,1.048-.173s.957-.05,1.035-.21c.032-.077-.055-.21-.264-.314a1.536,1.536,0,0,0-1.682.31C262.921,101,262.885,101.157,262.958,101.217Z" transform="translate(-207.355 -91.341)"/><path class="b" d="M282.43,88.17h.027a3.19,3.19,0,0,1,1.486,1.868l.027.082c.328,1.121.479,2.279.82,3.418a5.282,5.282,0,0,0,1.887,2.885c.4.273,1.053.4,1.281,0a1.007,1.007,0,0,0,.064-.547c-.21-2.8.173-5.378-.273-8.276a2.484,2.484,0,0,0-1.317-1.823c-.674-.342-1.481-.679-2.11-.26a11.241,11.241,0,0,0-1.745,2.434" transform="translate(-217.973 -83.139)"/><path class="c" d="M291.13,103.9c.064-.041,2.639-1.24,2.971,1.527a2.093,2.093,0,0,1-2.529,2.447C291.558,107.8,291.13,103.9,291.13,103.9Z" transform="translate(-222.708 -93.091)"/><path class="i" d="M293.647,107.756a1.149,1.149,0,0,0,.137.055.483.483,0,0,0,.365-.036,1.2,1.2,0,0,0,.424-1.135,1.6,1.6,0,0,0-.219-.674.547.547,0,0,0-.406-.324.242.242,0,0,0-.269.164.21.21,0,0,0,0,.141s-.064-.041-.059-.155a.329.329,0,0,1,.091-.187.374.374,0,0,1,.255-.1.684.684,0,0,1,.556.369,1.663,1.663,0,0,1,.26.752,1.258,1.258,0,0,1-.561,1.281.519.519,0,0,1-.456,0C293.661,107.82,293.638,107.76,293.647,107.756Z" transform="translate(-224.063 -94.121)"/><path class="b" d="M268.058,83.3c.51-1.2-1.586-2.5-3.012-2.734s-3.108.715-4.393,1.367a7.58,7.58,0,0,1-2.5,1.039,6.281,6.281,0,0,1-1.823-.182,4.516,4.516,0,0,0-1.823-.077,1.686,1.686,0,0,0-1.308,1.139,1.053,1.053,0,0,0,.911,1.3,1.367,1.367,0,1,0,0,2.557c-.433-.237-.962.346-.839.829a1.449,1.449,0,0,0,1.1.911,5.144,5.144,0,0,0,3.646-.62c1.112-.583,2.133-1.367,3.245-1.978s2.967-1.677,4.211-1.445c.911.178,1.682,1.135,2.137.825a1.69,1.69,0,0,0,.684-1.367A4.815,4.815,0,0,0,268,83.306" transform="translate(-201.55 -80.531)"/><path class="b" d="M273.944,103.882a24.735,24.735,0,0,1,.588,4.352,8.2,8.2,0,0,1-.98,4.234,9.719,9.719,0,0,1-4.1,4.129,8.734,8.734,0,0,1-6.426.246,3.025,3.025,0,0,1-1.8-2.47,2.11,2.11,0,0,1-1.6-1.417,1.659,1.659,0,0,1,.278-1.686c-.7-.314-.488-.911-.424-1.331s.606-.688,1.053-.715a3.125,3.125,0,0,1,1.308.305,4.357,4.357,0,0,0,1.294.383c1.5.1,2.6-1.481,4.07-1.8,1.331-.283,2.785.515,4.042,0a2.735,2.735,0,0,0,1.454-1.673c.246-.72-.51-2.962-.533-3.723" transform="translate(-205.439 -92.608)"/><g class="e" transform="translate(59.485 19.574)"><path class="d" d="M271.519,124.028s.118-.073.3-.178a1.873,1.873,0,0,1,.766-.237,1.823,1.823,0,0,1,.8.132c.2.077.305.15.319.132s-.082-.114-.283-.219a1.586,1.586,0,0,0-.839-.173,1.6,1.6,0,0,0-.811.287C271.587,123.9,271.51,124.019,271.519,124.028Z" transform="translate(-271.518 -123.482)"/></g><path class="d" d="M270.736,123.582a.693.693,0,0,0-.155.1,4.945,4.945,0,0,1-.456.283,9.3,9.3,0,0,1-1.791.766,8.779,8.779,0,0,1-1.308.305,7.293,7.293,0,0,1-1.536.082,6.016,6.016,0,0,1-1.663-.3,4.6,4.6,0,0,1-1.591-.848,2.734,2.734,0,0,1-1-1.823v-.059h-.055a2.192,2.192,0,0,1-.98-.456,2.571,2.571,0,0,1-.369-.369,1.7,1.7,0,0,1-.237-.456,1.914,1.914,0,0,1,.228-1.727l.027-.041-.036-.032a1.135,1.135,0,0,1-.433-1.025,1.08,1.08,0,0,1,.456-.734,1.194,1.194,0,0,1,.52-.21h.2a.784.784,0,0,0-.205,0,1.207,1.207,0,0,0-.547.2,1.117,1.117,0,0,0-.5.77,1.2,1.2,0,0,0,.456,1.117v-.068a2,2,0,0,0-.26,1.823,1.657,1.657,0,0,0,.251.456,2.863,2.863,0,0,0,.387.392,2.279,2.279,0,0,0,1.044.492l-.059-.064a2.866,2.866,0,0,0,1.048,1.914,4.612,4.612,0,0,0,1.641.87,5.966,5.966,0,0,0,1.7.3,7.485,7.485,0,0,0,1.559-.1,8.7,8.7,0,0,0,1.317-.324,8.363,8.363,0,0,0,1.791-.816,3.911,3.911,0,0,0,.456-.305Z" transform="translate(-205.381 -100.399)"/><path class="i" d="M273.42,119.353a.7.7,0,1,0,.989.911,1.206,1.206,0,0,0,.114-.456.784.784,0,0,0-.2-.5.7.7,0,0,0-.861.046" transform="translate(-212.882 -101.567)"/><path class="d" d="M273.156,120.348c.023-.032.191.109.5.091a.738.738,0,0,0,.456-.205.834.834,0,0,0,.242-.561.542.542,0,0,0-.255-.506.825.825,0,0,0-.5-.082c-.315.046-.52.123-.529.087s.155-.155.5-.251a.939.939,0,0,1,.638.055.747.747,0,0,1,.387.7.989.989,0,0,1-.333.715.857.857,0,0,1-.606.214C273.279,120.576,273.133,120.357,273.156,120.348Z" transform="translate(-212.878 -101.408)"/><path class="d" d="M269.825,86.213a4.316,4.316,0,0,0-.41-.661,2.7,2.7,0,0,0-1.823-.957,2.365,2.365,0,0,0-1.367.305A4.174,4.174,0,0,0,265,86.013c-.738.911-1.208,2.219-2.279,3.19a3.892,3.892,0,0,1-3.792.688,3.218,3.218,0,0,1-1.44-.98,1.54,1.54,0,0,1-.3-1.477,1.021,1.021,0,0,1,1.016-.7.72.72,0,0,1,.679.583.733.733,0,0,1-.118.588.365.365,0,0,1-.164.128.693.693,0,0,0,.123-.155.679.679,0,0,0,.068-.538.624.624,0,0,0-.624-.456.911.911,0,0,0-.857.62,1.367,1.367,0,0,0,.3,1.3,3.1,3.1,0,0,0,1.367.911,3.692,3.692,0,0,0,3.55-.7c1.021-.911,1.5-2.188,2.279-3.135a4.362,4.362,0,0,1,1.3-1.153,2.5,2.5,0,0,1,1.486-.3,2.7,2.7,0,0,1,1.864,1.066A1.669,1.669,0,0,1,269.825,86.213Z" transform="translate(-204.196 -82.646)"/><path class="d" d="M289.522,90.483c-.041,0,0-.314-.114-.779a2.374,2.374,0,0,0-2.812-1.823c-.456.087-.738.255-.757.223a1.262,1.262,0,0,1,.72-.387,2.388,2.388,0,0,1,3,1.951,1.312,1.312,0,0,1-.036.816Z" transform="translate(-219.828 -84.395)"/><path class="h" d="M291.865,223.554a1.235,1.235,0,0,1-.269,0h-.77c-.67,0-1.636,0-2.835-.041-2.393-.068-5.692-.273-9.338-.456-1.823-.087-3.559-.137-5.141-.164s-3,0-4.193.055c-.6,0-1.139.055-1.613.087s-.88.059-1.212.1l-.766.064a.914.914,0,0,1-.269,0,1.226,1.226,0,0,1,.26-.055l.766-.1c.333-.05.738-.1,1.212-.137s1.016-.1,1.613-.118c1.194-.082,2.62-.1,4.206-.109s3.322.059,5.15.146l9.333.52c1.194.059,2.16.1,2.83.118l.77.027A1.017,1.017,0,0,1,291.865,223.554Z" transform="translate(-208.736 -157.893)"/><path class="b" d="M318.086,191.368a.947.947,0,0,1-.082-.223c-.055-.173-.118-.392-.2-.652-.164-.57-.392-1.4-.656-2.424a49.718,49.718,0,0,1-1.54-8.144c-.355-3.222-.561-6.148-.679-8.262-.059-1.062-.1-1.919-.119-2.511v-.684a1.366,1.366,0,0,1,0-.237.78.78,0,0,1,.036.237c0,.182.036.406.064.679.046.624.109,1.472.191,2.5.159,2.115.392,5.036.747,8.249a56.059,56.059,0,0,0,1.463,8.13c.242,1,.456,1.823.583,2.443.064.264.114.483.155.665A.818.818,0,0,1,318.086,191.368Z" transform="translate(-235.595 -128.263)"/><path class="d" d="M293.474,243.754a.636.636,0,0,1-.4.118,1.4,1.4,0,0,1-1.025-.456,2.766,2.766,0,0,1-.579-1.572c-.064-.62-.114-1.294-.178-2.005-.114-1.422-.205-2.712-.26-3.646A9.809,9.809,0,0,1,291,234.68a9.125,9.125,0,0,1,.21,1.5c.1.911.214,2.219.328,3.646.055.706.109,1.367.16,2a2.626,2.626,0,0,0,.488,1.481,1.367,1.367,0,0,0,.911.5A2.518,2.518,0,0,0,293.474,243.754Z" transform="translate(-222.628 -164.429)"/><path class="d" d="M318.675,238.715a1.462,1.462,0,0,1-.287.26,3.231,3.231,0,0,1-.962.456,4.293,4.293,0,0,1-3.386-.542,5.72,5.72,0,0,1-2.147-2.7,6.351,6.351,0,0,1-.314-1,1.2,1.2,0,0,1-.05-.383c.041,0,.159.524.519,1.322a5.953,5.953,0,0,0,2.119,2.566,4.307,4.307,0,0,0,3.217.579A5.338,5.338,0,0,0,318.675,238.715Z" transform="translate(-233.81 -164.495)"/><path class="d" d="M295.635,235.349c0,.037-.2.073-.319.337a.533.533,0,0,0,0,.456.478.478,0,0,0,.848-.087.529.529,0,0,0-.1-.456c-.164-.232-.378-.228-.374-.264s.241-.109.5.155a.679.679,0,0,1,.182.592.647.647,0,0,1-.588.483.638.638,0,0,1-.67-.355.67.67,0,0,1,.055-.615C295.37,235.29,295.648,235.322,295.635,235.349Z" transform="translate(-224.852 -164.766)"/><path class="d" d="M270.423,235a2.7,2.7,0,0,1,.273,1.13,4.922,4.922,0,0,1-2.543,4.73,2.692,2.692,0,0,1-1.094.392c0-.041.41-.169,1.007-.538a5.15,5.15,0,0,0,2.461-4.557C270.51,235.419,270.382,235,270.423,235Z" transform="translate(-209.607 -164.604)"/><path class="b" d="M252.042,127.62a20.225,20.225,0,0,1-3.682-2.37,20.233,20.233,0,0,1,3.682,2.37Z" transform="translate(-199.429 -104.87)"/><path class="b" d="M251.96,120.66a7.469,7.469,0,0,1-2.005.515,7.556,7.556,0,0,1-2.065.178,11.253,11.253,0,0,1,2.024-.415A11.87,11.87,0,0,1,251.96,120.66Z" transform="translate(-199.173 -102.372)"/><path class="b" d="M250.614,113.624a18.4,18.4,0,0,1-1.322,1.408,9.114,9.114,0,0,1-1.413,1.326,7.372,7.372,0,0,1,1.24-1.495A5.157,5.157,0,0,1,250.614,113.624Z" transform="translate(-199.168 -98.54)"/><path class="b" d="M192.187,122.821a10.938,10.938,0,0,1,1.322,3.368,3.691,3.691,0,0,1-1.016,3.336c-.752.656-1.823.852-2.62,1.44a5.36,5.36,0,0,0-1.8,3.887,19.364,19.364,0,0,1-.57,4.366c-.624,1.8-2.11,3.222-2.561,5.068a4.831,4.831,0,0,0,7.087,5.341c2.338-1.335,3.131-4.27,3.71-6.9,1.6-7.292,3.19-14.884,1.677-22.208" transform="translate(-164.84 -102.296)"/><path class="b" d="M229.288,133.988a5.833,5.833,0,0,0,5.223.674,3.189,3.189,0,0,0,1.262-.747,3.135,3.135,0,0,0,.337-3.646c-.433-.711-1.158-1.249-1.436-2.037a7.915,7.915,0,0,1,.032-2.7,4.671,4.671,0,0,0-2.529-4.234l-4.038,4.284.8,8.176Z" transform="translate(-188.424 -102.72)"/><path class="b" d="M203.82,94.558c.428-1.322,2.62-2.516,3.819-3.19,1.823-1.035,3.468-.829,4.494.091,1.855-1.559,4.3-3.053,6.64-2.438s4.27,3,3.814,5.382c-.251,1.4-1.226,2.666-1.167,4.1a7.415,7.415,0,0,0,.962,2.734,3.6,3.6,0,0,1,.36,2.812c-.369.9-1.189,1.367-1.645,2.146a11.158,11.158,0,0,0-.7,2.092c-.884,2.589-3.938,4.038-6.631,3.582a9.076,9.076,0,0,1-6.212-4.9,18.82,18.82,0,0,1-1.823-7.925" transform="translate(-175.188 -85.075)"/><path class="j" d="M208.24,102.115l.538,21.565a4.579,4.579,0,0,0,5.118,4.047h0a4.841,4.841,0,0,0,4.557-4.94c-.164-2.643-.3-5.378-.3-5.378s3.345-.779,3.76-5.232a48.377,48.377,0,0,0-.542-9,4.425,4.425,0,0,0-5.136-3.787" transform="translate(-177.593 -90.763)"/><path class="b" d="M234.76,114.106a.561.561,0,0,1-.5.62.538.538,0,0,1-.615-.456.561.561,0,0,1,.506-.606A.538.538,0,0,1,234.76,114.106Z" transform="translate(-191.421 -98.561)"/><path class="b" d="M233.382,112.739c-.068.077-.515-.21-1.126-.169s-1.035.374-1.1.3.027-.169.214-.319a1.536,1.536,0,0,1,.88-.337,1.476,1.476,0,0,1,.911.228C233.35,112.57,233.414,112.7,233.382,112.739Z" transform="translate(-190.052 -97.773)"/><path class="b" d="M221.911,115.472a.57.57,0,0,1-.51.606.542.542,0,0,1-.615-.456.565.565,0,0,1,.506-.629.547.547,0,0,1,.62.479Z" transform="translate(-184.419 -99.285)"/><path class="b" d="M220.312,113.839c-.068.077-.515-.214-1.126-.173s-1.035.374-1.1.305.027-.169.214-.324a1.568,1.568,0,0,1,.88-.333,1.476,1.476,0,0,1,.911.228A.564.564,0,0,1,220.312,113.839Z" transform="translate(-182.939 -98.372)"/><path class="b" d="M227.716,118.019a3.984,3.984,0,0,1,.98-.242c.155-.027.3-.068.319-.178a.807.807,0,0,0-.137-.456l-.533-1.153a20.838,20.838,0,0,1-1.235-3.031,20.3,20.3,0,0,1,1.477,2.921l.515,1.162a.87.87,0,0,1,.118.606.4.4,0,0,1-.237.246,1.066,1.066,0,0,1-.264.05A4.229,4.229,0,0,1,227.716,118.019Z" transform="translate(-187.864 -98.181)"/><path class="k" d="M222.827,137.424a11.238,11.238,0,0,1-6.006-1.194s1.673,2.967,6.057,2.279Z" transform="translate(-182.263 -110.846)"/><path class="b" d="M219.718,108.753c-.05.169-.665.132-1.367.264s-1.276.365-1.367.219c-.05-.068.041-.228.264-.406a2.42,2.42,0,0,1,2.092-.365C219.582,108.553,219.718,108.658,219.718,108.753Z" transform="translate(-182.345 -95.683)"/><path class="b" d="M232.843,108.848c-.1.146-.529.027-1.03.055s-.911.15-1.035,0c-.05-.068,0-.21.187-.351a1.5,1.5,0,0,1,1.663-.059C232.815,108.638,232.884,108.775,232.843,108.848Z" transform="translate(-189.85 -95.627)"/><path class="k" d="M227.813,126.559a1.882,1.882,0,0,1,1.121.392.743.743,0,0,1,.287.283.62.62,0,0,1-.064.533,1.021,1.021,0,0,1-1.367.424.975.975,0,0,1-.424-1.185.879.879,0,0,1,.456-.456" transform="translate(-187.969 -105.578)"/><ellipse class="k" cx="0.16" cy="0.16" rx="0.16" ry="0.16" transform="translate(37.36 17.882)"/><path class="k" d="M233.319,118.189a.16.16,0,1,1-.159-.159A.159.159,0,0,1,233.319,118.189Z" transform="translate(-191.069 -100.941)"/><path class="k" d="M235.268,119.109a.164.164,0,1,1-.16-.16A.164.164,0,0,1,235.268,119.109Z" transform="translate(-192.125 -101.441)"/><path class="k" d="M235.871,117.657a.164.164,0,1,1-.162-.137A.164.164,0,0,1,235.871,117.657Z" transform="translate(-192.454 -100.663)"/><path class="k" d="M221.671,121.517a.164.164,0,1,1-.162-.137A.164.164,0,0,1,221.671,121.517Z" transform="translate(-184.726 -102.764)"/><path class="k" d="M220.338,120.064a.164.164,0,1,1-.164-.164A.164.164,0,0,1,220.338,120.064Z" transform="translate(-183.999 -101.958)"/><path class="b" d="M210.845,96.434a9.434,9.434,0,0,1-6.38,7.747c1.089,1.568.4,4.557.428,7.041.027,2.311.027,2.971-1.472,4.152-1.24.3-1.955-3.094-2.876-4.042a4.9,4.9,0,0,1-1.732-3.436c.032-.62.273-1.208.305-1.823a9.116,9.116,0,0,0-.3-2.028,7.747,7.747,0,0,1,3.609-7.747,8.5,8.5,0,0,1,8.659.141" transform="translate(-172.419 -88.505)"/><path class="d" d="M199.386,106.84a.914.914,0,0,1-.109-.128,1.208,1.208,0,0,1-.205-.428,2.57,2.57,0,0,1,.255-1.714,3.39,3.39,0,0,1,.7-.984,6.776,6.776,0,0,1,1.062-.911,5.77,5.77,0,0,1,1.367-.688c.506-.169,1.039-.305,1.586-.456s1.075-.269,1.572-.456a9.446,9.446,0,0,0,1.395-.6,10.125,10.125,0,0,0,2.1-1.481A10.754,10.754,0,0,0,210.3,97.72l.287-.378.1-.132a.768.768,0,0,1-.087.141c-.059.091-.146.228-.269.392a9.523,9.523,0,0,1-1.167,1.3,10.244,10.244,0,0,1-2.105,1.508,9.933,9.933,0,0,1-1.408.615c-.5.178-1.035.314-1.581.456a15.922,15.922,0,0,0-1.577.456,5.6,5.6,0,0,0-1.367.67,6.786,6.786,0,0,0-1.048.884,3.287,3.287,0,0,0-.7.957,2.579,2.579,0,0,0-.283,1.673A1.6,1.6,0,0,0,199.386,106.84Z" transform="translate(-172.576 -89.609)"/><path class="d" d="M210.42,97.28a1.245,1.245,0,0,1-.091.114c-.064.073-.155.173-.278.3a11.85,11.85,0,0,1-1.126,1.021A7.706,7.706,0,0,1,207,99.882a7.374,7.374,0,0,1-1.285.346c-.456.091-.911.164-1.408.237a15.678,15.678,0,0,0-2.68.561,5.843,5.843,0,0,0-1.941,1.076,3.9,3.9,0,0,0-.939,1.162,3.993,3.993,0,0,0-.16.378c-.032.087-.055.132-.055.132a.606.606,0,0,1,.036-.137,2.459,2.459,0,0,1,.146-.387,3.646,3.646,0,0,1,.911-1.2,5.925,5.925,0,0,1,1.955-1.107,15.209,15.209,0,0,1,2.7-.574c.483-.073.952-.146,1.4-.232a7.842,7.842,0,0,0,1.271-.337,7.956,7.956,0,0,0,1.919-1.135c.5-.392.88-.747,1.139-.993l.292-.287Z" transform="translate(-172.308 -89.647)"/><path class="d" d="M229.517,88.839a6.732,6.732,0,0,0-.971.191,4.032,4.032,0,0,0-.456.155,5.447,5.447,0,0,0-.529.219,5.811,5.811,0,0,0-2.023,1.613,5.616,5.616,0,0,0-.337.456c-.1.146-.182.292-.255.424-.283.538-.383.911-.406.911a1.524,1.524,0,0,1,.068-.26,2.155,2.155,0,0,1,.1-.3c.05-.109.1-.242.169-.378a5.027,5.027,0,0,1,.251-.456,4.762,4.762,0,0,1,.333-.456,5.692,5.692,0,0,1,2.06-1.636,5.5,5.5,0,0,1,.533-.219,4.563,4.563,0,0,1,.483-.141,3.347,3.347,0,0,1,.41-.077,2.251,2.251,0,0,1,.31-.036A1.5,1.5,0,0,1,229.517,88.839Z" transform="translate(-186.465 -85.053)"/><path class="d" d="M233.175,110.025l.027-.036.091-.109c.082-.1.205-.232.342-.424a2.347,2.347,0,0,0,.392-.757,1.322,1.322,0,0,0,.041-.524,1.367,1.367,0,0,0-.2-.551,9.4,9.4,0,0,0-.87-1.076,6.28,6.28,0,0,1-1.312-3.072,13.083,13.083,0,0,1-.046-1.9,6.581,6.581,0,0,0-.173-1.864,3.819,3.819,0,0,0-2.087-2.424,3.491,3.491,0,0,0-1.331-.305,3.883,3.883,0,0,0-1.928.424q-.235.128-.456.278l-.114.082-.041.027a2.82,2.82,0,0,1,.606-.424,3.883,3.883,0,0,1,1.946-.456,3.647,3.647,0,0,1,1.367.3,3.837,3.837,0,0,1,1.3.934,3.8,3.8,0,0,1,.866,1.54,6.651,6.651,0,0,1,.178,1.891,12.84,12.84,0,0,0,.046,1.882,6.158,6.158,0,0,0,.456,1.677,6.088,6.088,0,0,0,.811,1.367,9.815,9.815,0,0,1,.866,1.089,1.517,1.517,0,0,1,.2.579,1.368,1.368,0,0,1-.05.547,2.279,2.279,0,0,1-.415.766,4.8,4.8,0,0,1-.355.415l-.1.1Z" transform="translate(-186.993 -89.449)"/><path class="b" d="M197.752,106.367h-.05l-.137-.068a4.318,4.318,0,0,1-.483-.333,4.1,4.1,0,0,1-1.249-1.745,4.024,4.024,0,0,1,.169-3.135,3.973,3.973,0,0,1,1.2-1.458,5.555,5.555,0,0,1,1.823-.911,10.135,10.135,0,0,1,2-.365c.656-.064,1.285-.091,1.887-.132a16.481,16.481,0,0,0,1.691-.191,7.4,7.4,0,0,0,1.422-.387,5.013,5.013,0,0,0,1.823-1.13,4.316,4.316,0,0,0,.378-.456l.087-.123.032-.041a2.939,2.939,0,0,1-.456.638A5.013,5.013,0,0,1,206.06,97.7a7.21,7.21,0,0,1-1.436.4,15.545,15.545,0,0,1-1.7.2,17.991,17.991,0,0,0-3.86.5,5.628,5.628,0,0,0-1.8.875A3.91,3.91,0,0,0,196.1,101.1a3.956,3.956,0,0,0-.187,3.072,4.326,4.326,0,0,0,1.663,2.083l.128.077Z" transform="translate(-170.71 -88.891)"/><path class="b" d="M227.877,128.106c0,.027-.214,0-.456-.219a1.039,1.039,0,0,1-.314-.483.911.911,0,0,1,.091-.72.72.72,0,0,1,.515-.337,1.016,1.016,0,0,1,.51.055,1.639,1.639,0,0,1,.52.314h0v.082s-.027,0-.05-.068h0c-.1-.027-.292-.128-.542-.191a.67.67,0,0,0-.77.228.729.729,0,0,0-.082.538,1,1,0,0,0,.223.419C227.722,128.005,227.89,128.074,227.877,128.106Z" transform="translate(-187.842 -105.461)"/><path class="d" d="M197.561,123.729a1.5,1.5,0,0,1,.128-.305l.4-.861c.337-.747.861-1.823,1.367-3.19a3.437,3.437,0,0,0-.087-2.3,4.739,4.739,0,0,0-.638-1.144,4.85,4.85,0,0,0-.456-.524,4.7,4.7,0,0,1-.483-.551,5.282,5.282,0,0,1-1.039-2.9,5.063,5.063,0,0,1,.934-3.163,5.24,5.24,0,0,1,2.648-1.969c1.016-.355,2.033-.515,2.926-.875a9.858,9.858,0,0,0,4.1-2.98,10.213,10.213,0,0,0,1.718-2.99c.273-.775.351-1.23.378-1.221a1.617,1.617,0,0,1-.05.328,8.909,8.909,0,0,1-.242.911,10.053,10.053,0,0,1-5.806,6.166c-.911.374-1.941.538-2.926.911a5.068,5.068,0,0,0-2.534,1.887,4.854,4.854,0,0,0-.911,3.017,5.059,5.059,0,0,0,.98,2.78,5.165,5.165,0,0,0,.456.533,5.181,5.181,0,0,1,.456.547,4.841,4.841,0,0,1,.652,1.2,3.578,3.578,0,0,1,.064,2.42c-.551,1.367-1.094,2.443-1.458,3.19a9.27,9.27,0,0,1-.456.843A2.6,2.6,0,0,1,197.561,123.729Z" transform="translate(-171.339 -90.447)"/><path class="g" d="M201.384,144s-4.484,2.315-6.193,3.377c-5.2,3.231-3.883,10.309-3.432,12.122s2.867,13.877,2.867,13.877l-1.2,5.4,21.315.766s.62-24.477-.415-28.2-5.227-6.54-5.227-6.54C208.011,146.794,203.909,147.354,201.384,144Z" transform="translate(-168.359 -115.075)"/><path class="h" d="M224.862,218.2a10.686,10.686,0,0,0-3.022-2.393,5.39,5.39,0,0,0,3.022,2.393" transform="translate(-184.995 -154.159)"/><path class="h" d="M214.261,202.953a10.686,10.686,0,0,0-3.021-2.393,5.39,5.39,0,0,0,3.021,2.393" transform="translate(-179.226 -145.859)"/><path class="h" d="M237.084,215.181a10.664,10.664,0,0,0-.064-3.851,5.42,5.42,0,0,0,.064,3.851" transform="translate(-193.08 -151.721)"/><path class="h" d="M214.157,214.914a11.276,11.276,0,0,0-.068-4.074,5.734,5.734,0,0,0,.068,4.074" transform="translate(-180.589 -151.454)"/><path class="h" d="M234.021,152.237a10.65,10.65,0,0,0,.351-3.837,5.437,5.437,0,0,0-.351,3.837" transform="translate(-191.521 -117.47)"/><path class="h" d="M231.066,161.316a10.764,10.764,0,0,0-1.276-3.646,5.425,5.425,0,0,0,1.276,3.646" transform="translate(-189.308 -122.515)"/><path class="h" d="M221.348,154.613a10.709,10.709,0,0,0,.725-3.783,5.4,5.4,0,0,0-.725,3.783" transform="translate(-184.685 -118.793)"/><path class="h" d="M227.147,208.126a10.6,10.6,0,0,0-1.276-3.646,5.479,5.479,0,0,0,1.276,3.646" transform="translate(-187.176 -147.993)"/><path class="h" d="M202.567,196.266a10.669,10.669,0,0,0-1.276-3.646,5.471,5.471,0,0,0,1.276,3.646" transform="translate(-173.798 -141.538)"/><path class="h" d="M231.87,173.619a10.668,10.668,0,0,0-3.71-1.039,5.412,5.412,0,0,0,3.71,1.039" transform="translate(-188.435 -130.63)"/><path class="h" d="M203.514,210.406a11.185,11.185,0,0,0-4.024.638,5.767,5.767,0,0,0,4.024-.638" transform="translate(-172.831 -151.216)"/><path class="b" d="M215.337,152.5c-.064,0-.132-.305.036-.643s.456-.456.483-.419-.141.246-.273.524S215.406,152.5,215.337,152.5Z" transform="translate(-181.418 -119.122)"/><path class="b" d="M209.555,150.456c-.055-.032.064-.346.369-.606s.638-.333.656-.273-.232.219-.5.456S209.614,150.488,209.555,150.456Z" transform="translate(-178.302 -118.1)"/><path class="b" d="M207.224,148.274c-.059-.027.077-.36.456-.547s.729-.1.716-.036-.3.091-.606.246S207.279,148.31,207.224,148.274Z" transform="translate(-177.033 -117.043)"/><path class="b" d="M208.242,125.32c-.173,1.527,1.217,2.816,1.367,4.343a7.02,7.02,0,0,1-.456,2.543,3.711,3.711,0,0,0-.023,2.548c.5,1.025,1.786,1.527,2.165,2.6a4.466,4.466,0,0,1,0,2.023,2.332,2.332,0,0,0,.415,1.928c.474.488,1.262.533,1.823.911a3.483,3.483,0,0,1,1.066,2.734c.041.515-.041,1.2-.547,1.3-.3.059-.428.2-.67,0-2.279-1.823-4.662-4.1-6.781-6.1a3.615,3.615,0,0,1-1.5-2.684,16.959,16.959,0,0,1,.688-2.014,6.653,6.653,0,0,0-.16-2.279,9.47,9.47,0,0,1,1.3-6.38" transform="translate(-175.881 -104.908)"/><g class="l" transform="translate(26.686 45.582)"><path d="M199.55,182.3c.214.155,5.861,7.337,8.107,7.073a18.172,18.172,0,0,1,3.587-.128s3.819,2.7,6.617,2.7L201.537,180.55Z" transform="translate(-199.55 -180.55)"/></g><path class="j" d="M226.914,145.81l5.419,19.492a6.553,6.553,0,0,1-8.2,7.638l-12.359-6.33,4.1-7.916,8.486,4.694-2.374-15.814Z" transform="translate(-179.515 -116.06)"/><path class="j" d="M224.22,127.653s1.267,2.967,1.4,3.441a31.189,31.189,0,0,0,3.149,3.35l5.059-.911a33.427,33.427,0,0,0-.7-4.375c-.346-.957-1.035-5.378-1.4-5.378s-.592-.046-.684.319a6.653,6.653,0,0,0-.046,1.276s-.319-3.764-.957-3.682-.5.766-.592,1.176.046-1.3-.547-1.176-.41,5.6-.41,5.6-.456-4.648-.729-4.694-.5-.182-.729.273-.319,6.517-.319,6.517l-.966-1.335S225.419,127.361,224.22,127.653Z" transform="translate(-186.291 -102.93)"/><path class="k" d="M228.6,134.315a.935.935,0,0,1-.118-.091l-.319-.292c-.278-.26-.684-.643-1.194-1.148-.255-.255-.538-.538-.834-.857-.15-.16-.305-.328-.456-.515a3.063,3.063,0,0,1-.223-.292,2.061,2.061,0,0,1-.146-.36c-.36-.952-.807-2.023-1.3-3.19l-.032-.077.077-.036a1.367,1.367,0,0,1,.82-.1,1.445,1.445,0,0,1,.752.428c.346.456.656.934,1,1.426l-.182.055c.027-1.755.05-3.646.187-5.706a4.652,4.652,0,0,1,.109-.793.7.7,0,0,1,.264-.365.51.51,0,0,1,.483-.046.788.788,0,0,1,.2.123.419.419,0,0,1,.123.228c.041.137.064.264.091.4.046.264.091.529.128.793.155,1.066.287,2.151.415,3.263h-.237v-.542c-.023-1.107-.023-2.192.036-3.263a7.074,7.074,0,0,1,.219-1.59.729.729,0,0,1,.1-.205.265.265,0,0,1,.118-.1.3.3,0,0,1,.146,0,.456.456,0,0,1,.369.314,2.6,2.6,0,0,1,.155.784v.219h0a.118.118,0,0,0-.082-.041c-.1,0-.073.036-.087.036h0v-.077c.023-.109.027-.237.041-.365a.911.911,0,0,1,.333-.738.729.729,0,0,1,.205-.087h.1a.26.26,0,0,1,.146.023.629.629,0,0,1,.287.328,3.744,3.744,0,0,1,.237.7,19.385,19.385,0,0,1,.406,2.734h-.205a5.168,5.168,0,0,1,.077-1.367.574.574,0,0,1,.223-.319.606.606,0,0,1,.369-.077,1,1,0,0,1,.169,0,.305.305,0,0,1,.178.15,1.831,1.831,0,0,1,.137.31,21.469,21.469,0,0,1,.551,2.324c.146.729.273,1.417.41,2.046.068.324.155.6.246.911a8.164,8.164,0,0,1,.178.834c.178,1.057.264,1.9.324,2.47.027.273.046.492.059.652a1.083,1.083,0,0,1,0,.228,1.4,1.4,0,0,1-.041-.223c-.023-.16-.05-.378-.087-.647-.082-.57-.187-1.408-.383-2.456-.055-.264-.109-.538-.187-.82a8.441,8.441,0,0,1-.26-.911c-.146-.629-.283-1.317-.456-2.046a22.053,22.053,0,0,0-.565-2.279,1.371,1.371,0,0,0-.123-.273c0-.036-.059-.068-.046-.059a.849.849,0,0,0-.146,0,.346.346,0,0,0-.4.264,5.126,5.126,0,0,0-.055,1.308h-.21a19.393,19.393,0,0,0-.415-2.7,3.594,3.594,0,0,0-.223-.656.5.5,0,0,0-.155-.255H229.8a.456.456,0,0,0-.137.055.725.725,0,0,0-.232.574,1.415,1.415,0,0,1-.036.383v.1a.233.233,0,0,1-.032.064s0,.023-.1.041a.123.123,0,0,1-.087-.041h0a.428.428,0,0,1,0-.046.155.155,0,0,1,0-.059v-.191a2.493,2.493,0,0,0-.137-.711c-.046-.1-.109-.178-.173-.178h-.046l-.023.023a.58.58,0,0,0-.068.141,7.129,7.129,0,0,0-.205,1.527c-.055,1.057-.05,2.142-.032,3.245v.538h-.237c-.128-1.107-.255-2.2-.41-3.254-.036-.264-.077-.529-.128-.788a1.517,1.517,0,0,0-.077-.374.37.37,0,0,0-.023-.068h0l.027-.036h0c.023,0-.1.091-.046.046h0a.577.577,0,0,0-.132-.082c-.187-.091-.374.059-.456.273a5.009,5.009,0,0,0-.1.734c-.141,2.023-.173,3.942-.214,5.692v.31l-.173-.255c-.342-.483-.665-.984-.984-1.413a1.231,1.231,0,0,0-.647-.374,1.135,1.135,0,0,0-.706.078l.046-.114c.483,1.189.911,2.279,1.267,3.222a2.508,2.508,0,0,0,.128.337c.068.1.137.191.21.283.15.182.3.351.456.515.3.319.57.611.82.866l1.158,1.185.3.31q.01.027.018.055Z" transform="translate(-186.16 -102.802)"/><path class="k" d="M236.177,128.9a12.954,12.954,0,0,1-.424-2.425,12.508,12.508,0,0,1-.187-2.456,25.357,25.357,0,0,1,.611,4.881Z" transform="translate(-192.464 -104.201)"/><path class="k" d="M239.413,131.4a10.561,10.561,0,0,1-.351-3.113,5.2,5.2,0,0,1,.3,1.54A5.328,5.328,0,0,1,239.413,131.4Z" transform="translate(-194.352 -106.525)"/><path class="k" d="M229.578,139.807a3.588,3.588,0,0,1-.132-1.276,3.4,3.4,0,0,1,.1-1.281,3.646,3.646,0,0,1,.132,1.276A3.478,3.478,0,0,1,229.578,139.807Z" transform="translate(-189.124 -111.401)"/><path class="g" d="M209.883,166.489s-9.785-9.311-13.672-9.151c-4.813.205-3.773,9.028-2.766,10.81.706,1.262,10.286,8.2,10.691,7.693Z" transform="translate(-169.078 -122.333)"/><path class="b" d="M214.881,167.815a1.364,1.364,0,0,1,.146-.3l.456-.816v.077c-1.153-.911-3.254-2.561-5.469-4.667a26.3,26.3,0,0,0-2.411-2.219,11.492,11.492,0,0,0-2.251-1.417A9.651,9.651,0,0,0,203,157.78h.173a4.33,4.33,0,0,1,.492.046,6.736,6.736,0,0,1,1.755.506,10.865,10.865,0,0,1,2.315,1.395,23.954,23.954,0,0,1,2.443,2.224c2.206,2.092,4.279,3.783,5.387,4.74l.041.036-.027.046-.52.788a1.259,1.259,0,0,1-.178.255Z" transform="translate(-174.741 -122.575)"/><path class="b" d="M203.907,185.193a2.881,2.881,0,0,1-.588-.219,16.922,16.922,0,0,1-1.531-.747,23.785,23.785,0,0,1-4.594-3.236,25.911,25.911,0,0,1-2.174-2.215,23.038,23.038,0,0,1-1.54-2.005c-.406-.592-.715-1.089-.911-1.445a3.022,3.022,0,0,1-.278-.556,3.126,3.126,0,0,1,.36.51c.214.337.538.816.962,1.395s.948,1.244,1.572,1.96a29.325,29.325,0,0,0,2.16,2.178,27.171,27.171,0,0,0,4.521,3.268c.62.355,1.13.633,1.49.811A3.389,3.389,0,0,1,203.907,185.193Z" transform="translate(-168.912 -131.822)"/><path class="h" d="M207.072,177.723a10.687,10.687,0,0,0-3.022-2.393,5.39,5.39,0,0,0,3.022,2.393" transform="translate(-175.313 -132.127)"/><path class="h" d="M197.691,173.041a10.559,10.559,0,0,0-.068-3.851,5.42,5.42,0,0,0,.068,3.851" transform="translate(-171.638 -128.785)"/><path class="h" d="M218.522,176.506a10.666,10.666,0,0,0-1.272-3.646,5.443,5.443,0,0,0,1.272,3.646" transform="translate(-182.483 -130.783)"/><path class="h" d="M205.49,164.9a10.645,10.645,0,0,0-3.71-1.039,5.435,5.435,0,0,0,3.71,1.039" transform="translate(-174.077 -125.884)"/><path class="h" d="M199.279,153.56A10.637,10.637,0,0,0,197,156.686a5.588,5.588,0,0,0,2.279-3.126" transform="translate(-171.476 -120.278)"/><path class="h" d="M213.455,187.766a10.624,10.624,0,0,0-3.805.606,5.41,5.41,0,0,0,3.805-.606" transform="translate(-178.361 -138.894)"/><path class="g" d="M147.982,423l-2.429,10.938-4.421,8.121a1.148,1.148,0,0,0,.533,1.6h0a1.148,1.148,0,0,0,1.053-.05c2.055-1.185,9.6-5.6,9.73-6.408.155-.939,3.327-11.393,3.327-11.393Z" transform="translate(-140.993 -266.926)"/><g class="e" transform="translate(0.66 169.555)"><path class="f" d="M142.454,459.771l10.965-7.191-.114.456a1.723,1.723,0,0,1-.665.993c-.911.643-3.4,2.37-9.115,5.7a1.144,1.144,0,0,1-1.085.041Z" transform="translate(-142.44 -452.58)"/></g><g class="e" transform="translate(9.833 165.43)"><path class="f" d="M163,443.585a.7.7,0,0,0-.4.839.67.67,0,0,0,.825.406.743.743,0,0,0,.424-.911.693.693,0,0,0-.911-.324" transform="translate(-162.569 -443.53)"/></g><path class="b" d="M148.186,457.219a3.648,3.648,0,0,0-.752-1.085,3.537,3.537,0,0,0-1.194-.547c0-.027.155-.077.419-.055a1.846,1.846,0,0,1,.934.415,1.786,1.786,0,0,1,.57.848C148.236,457.051,148.213,457.219,148.186,457.219Z" transform="translate(-143.849 -284.63)"/><path class="b" d="M145.752,460.6c-.064.032-.324-.406-.848-.706a10.573,10.573,0,0,0-1.035-.4,1.3,1.3,0,0,1,1.158.187C145.629,460.044,145.821,460.6,145.752,460.6Z" transform="translate(-142.559 -286.757)"/><path class="b" d="M151.386,453.581a5.93,5.93,0,0,0-2.766-1.95A3.135,3.135,0,0,1,151.386,453.581Z" transform="translate(-145.144 -282.509)"/><path class="b" d="M153.551,447.641c-.046.059-.588-.342-1.367-.561s-1.449-.187-1.454-.26a2.866,2.866,0,0,1,2.816.82Z" transform="translate(-146.292 -279.841)"/><path class="b" d="M155.149,440.6a5.535,5.535,0,0,0-1.4-.624,5.618,5.618,0,0,0-1.536,0c0-.027.141-.137.428-.219a2.507,2.507,0,0,1,2.206.456C155.072,440.418,155.172,440.578,155.149,440.6Z" transform="translate(-147.098 -276)"/><path class="b" d="M154.3,436.515a.935.935,0,0,1,.087-.415,2.853,2.853,0,0,1,.592-1,1.293,1.293,0,0,1,.693-.456.456.456,0,0,1,.483.223.729.729,0,0,1,.05.533,1.613,1.613,0,0,1-1.741,1.121,1.891,1.891,0,0,1-1.568-1.4.665.665,0,0,1,.1-.533.456.456,0,0,1,.519-.123,1.608,1.608,0,0,1,.629.551,3.222,3.222,0,0,1,.533,1.03,1,1,0,0,1,.077.419,5.256,5.256,0,0,0-.747-1.34,1.494,1.494,0,0,0-.561-.456.237.237,0,0,0-.283.064.456.456,0,0,0-.046.356,1.7,1.7,0,0,0,1.367,1.2,1.417,1.417,0,0,0,1.495-.911.543.543,0,0,0-.023-.374.251.251,0,0,0-.264-.128,1.162,1.162,0,0,0-.592.392,4.361,4.361,0,0,0-.8,1.244Z" transform="translate(-147.463 -273.149)"/><path class="g" d="M221.178,431.791l-.333,8.782s8.814,3.286,8.91,4.917l-17.049-.036-.046-13.7Z" transform="translate(-179.999 -271.688)"/><g class="e" transform="translate(35.084 168.119)"><path class="f" d="M218.465,449.444a.7.7,0,0,0-.479.793.67.67,0,0,0,.784.488.729.729,0,0,0,.506-.843.693.693,0,0,0-.87-.415" transform="translate(-217.976 -449.43)"/></g><g class="e" transform="translate(32.707 172.398)"><path class="f" d="M212.76,460.187l.05-1.367,16.329.538s.757.333.67.87Z" transform="translate(-212.76 -458.82)"/></g><path class="b" d="M229.368,450.828c0,.082-.419.119-.829.387s-.629.615-.7.583.046-.515.547-.829S229.386,450.751,229.368,450.828Z" transform="translate(-188.248 -282.03)"/><path class="b" d="M233.778,452.507c0,.082-.342.219-.629.574s-.365.72-.456.72-.137-.479.223-.912S233.773,452.425,233.778,452.507Z" transform="translate(-190.867 -282.966)"/><path class="b" d="M237.245,455.536c-.077,0-.191-.4,0-.852s.6-.638.638-.57-.205.314-.378.688S237.327,455.526,237.245,455.536Z" transform="translate(-193.322 -283.853)"/><path class="b" d="M228.784,446.158c-.032.073-.415-.041-.884,0s-.838.178-.884.1.31-.365.866-.4S228.829,446.09,228.784,446.158Z" transform="translate(-187.81 -279.37)"/><g class="l" transform="translate(32.666 161.839)"><path d="M221.115,435.65l-.059,1.568-8.376-.1-.009-1.408Z" transform="translate(-212.67 -435.65)"/></g><path class="b" d="M227.877,440.965a1.653,1.653,0,0,1-.852,0,3.918,3.918,0,0,1-.911-.273,3.681,3.681,0,0,1-.492-.264,1.038,1.038,0,0,1-.255-.2.351.351,0,0,1-.036-.456.456.456,0,0,1,.365-.191,1.281,1.281,0,0,1,.319.046,2.881,2.881,0,0,1,.529.182,2.993,2.993,0,0,1,.788.519c.4.369.529.679.5.7s-.232-.237-.633-.538a3.38,3.38,0,0,0-.761-.433,3.041,3.041,0,0,0-.488-.15c-.182-.05-.337-.05-.383.032s0,.041,0,.1a1.038,1.038,0,0,0,.191.146,4.537,4.537,0,0,0,.456.26,5.215,5.215,0,0,0,.825.319,5.84,5.84,0,0,1,.838.21Z" transform="translate(-186.858 -275.95)"/><path class="b" d="M230.47,439.647a1.4,1.4,0,0,1-.223-.825,2.733,2.733,0,0,1,.118-.934,2.8,2.8,0,0,1,.219-.519.706.706,0,0,1,.547-.428.392.392,0,0,1,.355.237,1.127,1.127,0,0,1,.087.314,1.865,1.865,0,0,1,0,.574,1.928,1.928,0,0,1-.369.879c-.333.456-.679.542-.688.515a3.7,3.7,0,0,0,.52-.629,1.891,1.891,0,0,0,.26-1.294c-.027-.182-.1-.328-.164-.31a.641.641,0,0,0-.3.278,2.986,2.986,0,0,0-.21.456,3.027,3.027,0,0,0-.169.852C230.429,439.323,230.515,439.633,230.47,439.647Z" transform="translate(-189.569 -274.513)"/><path class="b" d="M189.781,319.237c.387-6.207,1.759-86.22,1.777-88.649.027-3.928-.6-9.484-.6-9.484l-21.315-.784a22.062,22.062,0,0,0-5.966,11.7c-.51,3.309-16.1,84.657-16.1,84.657l15.458,2.935,16.279-77.757-2.461,11.772L171.4,319.068Z" transform="translate(-144.578 -156.614)"/><path class="d" d="M200.185,243.89c-.269,1.281-4.152,19.943-9.224,44.3l-6.6,31.313c-.866,3.992-1.563,7.228-2.051,9.475-.251,1.107-.456,1.973-.583,2.57-.068.287-.123.51-.159.67a2.146,2.146,0,0,1-.064.223c.269-1.276,4.152-19.934,9.229-44.3,2.575-12.223,4.908-23.288,6.6-31.309.866-3.992,1.563-7.228,2.051-9.475.251-1.112.456-1.978.583-2.575.068-.283.123-.506.159-.665A1.736,1.736,0,0,1,200.185,243.89Z" transform="translate(-163.04 -169.442)"/><path class="d" d="M221.924,224.274c.036,0,0,.173.191.333a.456.456,0,0,0,.337.132.41.41,0,0,0,.242-.665.456.456,0,0,0-.346-.118c-.237,0-.333.164-.36.141s0-.228.333-.305a.606.606,0,0,1,.52.119.587.587,0,1,1-.834.811C221.774,224.465,221.879,224.251,221.924,224.274Z" transform="translate(-185.007 -158.494)"/><path class="d" d="M202.5,220.44a6.181,6.181,0,0,1-.1,1.34,8.072,8.072,0,0,1-1.012,3.09,4.462,4.462,0,0,1-1.235,1.331,3.578,3.578,0,0,1-1.367.574,2.922,2.922,0,0,1-1,0,.87.87,0,0,1-.346-.114,4.728,4.728,0,0,0,1.308-.059,3.727,3.727,0,0,0,1.276-.588,4.558,4.558,0,0,0,1.158-1.276,8.928,8.928,0,0,0,1.044-2.994A9.387,9.387,0,0,1,202.5,220.44Z" transform="translate(-171.715 -156.679)"/><path class="d" d="M240.24,228.461h-.31a2.251,2.251,0,0,1-.788-.328,3.705,3.705,0,0,1-1.536-2.306,7.111,7.111,0,0,1,0-2.78,4.6,4.6,0,0,1,.269-1.117,6.87,6.87,0,0,1-.1,1.139,8.283,8.283,0,0,0,.05,2.707,3.828,3.828,0,0,0,1.4,2.219,4.919,4.919,0,0,0,1.021.465Z" transform="translate(-193.502 -157.49)"/></g><g transform="translate(11.819 112.007)"><path class="b" d="M95.223,352.651a1.265,1.265,0,0,0-.073-.178c-.059-.128-.141-.3-.242-.515a12.645,12.645,0,0,1-.706-2.051,18.152,18.152,0,0,1,.068-7.916,42.42,42.42,0,0,1,1.472-5.318c.62-1.891,1.34-3.892,1.932-6.057a23.366,23.366,0,0,0,.952-6.964,27.163,27.163,0,0,0-1.618-7.369,35.765,35.765,0,0,1-1.878-7.255,11.1,11.1,0,0,1,1.331-6.7c1.062-1.955,2.4-3.646,3.4-5.359a18.581,18.581,0,0,0,2.042-5.154,19.2,19.2,0,0,0,.118-7.98,15.088,15.088,0,0,0-.834-2.821,1.208,1.208,0,0,0,.05.187c.041.132.1.314.169.542a20.229,20.229,0,0,1,.515,2.11,19.392,19.392,0,0,1-.205,7.921,18.636,18.636,0,0,1-2.051,5.091c-.993,1.709-2.338,3.377-3.418,5.355a11.247,11.247,0,0,0-1.367,6.836,35.126,35.126,0,0,0,1.882,7.292,27.056,27.056,0,0,1,1.613,7.292,23.278,23.278,0,0,1-.911,6.891c-.579,2.156-1.294,4.161-1.9,6.052a41.705,41.705,0,0,0-1.445,5.35,17.873,17.873,0,0,0,0,7.98,11.675,11.675,0,0,0,.757,2.046c.109.214.2.378.264.5a1.1,1.1,0,0,0,.091.2Z" transform="translate(-77.314 -281.01)"/><path class="g" d="M101.74,307.4s2.033-6.49-1.609-10.286a.223.223,0,0,0-.387.109C99.553,298.29,99.307,301.576,101.74,307.4Z" transform="translate(-80.564 -289.731)"/><path class="b" d="M101.6,301.94a5.737,5.737,0,0,0,.137,1.2c.132.825.287,1.791.456,2.862s.324,2.037.456,2.862a6.517,6.517,0,0,0,.214,1.185,4.943,4.943,0,0,0-.036-1.208c-.068-.743-.2-1.764-.383-2.88s-.378-2.128-.538-2.857A5.536,5.536,0,0,0,101.6,301.94Z" transform="translate(-81.636 -292.402)"/><path class="g" d="M91.2,343.375s-1.24-6.681-6.234-8.34a.223.223,0,0,0-.287.278C85.019,336.352,86.332,339.351,91.2,343.375Z" transform="translate(-72.42 -310.407)"/><path class="b" d="M88.34,338.84a5.79,5.79,0,0,0,.679.984l1.75,2.315,1.736,2.315a6.537,6.537,0,0,0,.747.948,5.012,5.012,0,0,0-.6-1.048c-.406-.624-1-1.467-1.686-2.37s-1.331-1.7-1.823-2.279A5.31,5.31,0,0,0,88.34,338.84Z" transform="translate(-74.419 -312.485)"/><path class="g" d="M97.336,378.409s.752-6.754-3.546-9.789a.228.228,0,0,0-.36.182C93.444,369.891,93.831,373.14,97.336,378.409Z" transform="translate(-77.189 -328.67)"/><path class="b" d="M96,373.16a6.134,6.134,0,0,0,.365,1.148c.287.784.629,1.7,1,2.734l.989,2.734a6.676,6.676,0,0,0,.456,1.121,5.013,5.013,0,0,0-.264-1.18c-.21-.715-.533-1.691-.911-2.734s-.779-2.019-1.071-2.7A5.2,5.2,0,0,0,96,373.16Z" transform="translate(-78.588 -331.164)"/><path class="g" d="M88.673,415.588s.51-6.781-3.892-9.662a.228.228,0,0,0-.351.2C84.48,407.212,84.981,410.448,88.673,415.588Z" transform="translate(-72.291 -348.979)"/><path class="b" d="M87.11,410.4a5.923,5.923,0,0,0,.406,1.135c.314.775.688,1.682,1.1,2.684L89.7,416.9a6.79,6.79,0,0,0,.456,1.107,4.789,4.789,0,0,0-.305-1.167c-.232-.711-.592-1.673-1.025-2.734s-.848-1.987-1.167-2.661A5.466,5.466,0,0,0,87.11,410.4Z" transform="translate(-73.749 -351.433)"/><path class="g" d="M110.66,296.942s6.029-3.145,6.148-8.408a.223.223,0,0,0-.351-.191C115.559,288.957,113.094,291.095,110.66,296.942Z" transform="translate(-86.567 -284.979)"/><path class="b" d="M115.6,292.78a5.883,5.883,0,0,0-.752.943l-1.709,2.347-1.709,2.342a6.838,6.838,0,0,0-.684.989,5.081,5.081,0,0,0,.825-.875c.456-.574,1.107-1.367,1.773-2.306s1.24-1.773,1.641-2.4A5.278,5.278,0,0,0,115.6,292.78Z" transform="translate(-86.616 -287.416)"/><path class="g" d="M96.46,327.967s6.207-2.775,6.645-8.021a.223.223,0,0,0-.337-.214C101.833,320.292,99.226,322.275,96.46,327.967Z" transform="translate(-78.838 -302.068)"/><path class="b" d="M101.823,324a5.817,5.817,0,0,0-.807.911l-1.823,2.242-1.846,2.233a7.111,7.111,0,0,0-.747.948,5.015,5.015,0,0,0,.884-.825c.51-.542,1.185-1.317,1.9-2.2s1.367-1.691,1.782-2.279A5.359,5.359,0,0,0,101.823,324Z" transform="translate(-78.914 -304.408)"/><path class="g" d="M104.289,359.691s4.261-5.3,2.279-10.163a.223.223,0,0,0-.4-.041C105.579,350.394,104.152,353.343,104.289,359.691Z" transform="translate(-83.094 -318.224)"/><path class="b" d="M106.206,354.38a5.429,5.429,0,0,0-.31,1.162c-.178.816-.387,1.777-.62,2.835l-.62,2.83a7.432,7.432,0,0,0-.237,1.18,4.851,4.851,0,0,0,.41-1.135c.21-.715.456-1.714.7-2.821s.424-2.119.542-2.853A5.738,5.738,0,0,0,106.206,354.38Z" transform="translate(-83.171 -320.943)"/><path class="g" d="M95,402.093s6.157-2.88,6.508-8.13a.228.228,0,0,0-.342-.21C100.259,394.332,97.689,396.356,95,402.093Z" transform="translate(-78.044 -342.356)"/><path class="b" d="M100.228,398.09a6.592,6.592,0,0,0-.793.911l-1.823,2.279-1.823,2.279a6.52,6.52,0,0,0-.729.962,5.164,5.164,0,0,0,.866-.843c.5-.547,1.167-1.335,1.868-2.224s1.317-1.714,1.745-2.324a5.4,5.4,0,0,0,.688-1.039Z" transform="translate(-78.076 -344.733)"/><path class="b" d="M68.12,353.43v.606c0,.406.046.957.073,1.645.082,1.449.191,3.473.324,5.888h0a23.131,23.131,0,0,0,3.372,7.834c1.235,1.95,2.529,3.723,3.646,5.373a37.554,37.554,0,0,1,2.734,4.521,18.681,18.681,0,0,1,1.276,3.313c.109.406.191.725.237.939a1.678,1.678,0,0,0,.091.328,1.552,1.552,0,0,0-.041-.337c-.032-.219-.1-.542-.191-.957a17.32,17.32,0,0,0-1.208-3.372,35.891,35.891,0,0,0-2.7-4.557c-1.112-1.663-2.4-3.436-3.646-5.378a23.1,23.1,0,0,1-3.377-7.748h0c-.169-2.415-.31-4.434-.415-5.879-.055-.688-.1-1.24-.132-1.645,0-.173-.032-.315-.041-.433A.662.662,0,0,0,68.12,353.43Z" transform="translate(-63.414 -320.426)"/><path class="g" d="M74.987,374.848s-2.607-6.275.674-10.391a.228.228,0,0,1,.4.077C76.345,365.57,76.883,368.814,74.987,374.848Z" transform="translate(-66.617 -326.381)"/><path class="b" d="M76.477,369.36a5.526,5.526,0,0,0-.21,1.189c-.091.738-.2,1.759-.273,2.889s-.123,2.16-.123,2.908a5.3,5.3,0,0,0,.073,1.2,6.117,6.117,0,0,0,.109-1.2c.055-.834.118-1.823.191-2.894s.146-2.055.205-2.889A6.335,6.335,0,0,0,76.477,369.36Z" transform="translate(-67.628 -329.096)"/><g class="l" transform="translate(7.389 37.991)"><path d="M74.987,374.848s-2.607-6.275.674-10.391a.228.228,0,0,1,.4.077C76.345,365.57,76.883,368.814,74.987,374.848Z" transform="translate(-74.005 -364.372)"/></g><path class="g" d="M93.171,408.173s-2.087-6.471,1.513-10.3a.223.223,0,0,1,.387.1C95.277,399.045,95.55,402.308,93.171,408.173Z" transform="translate(-76.721 -344.571)"/><path class="b" d="M94.95,402.71a5.468,5.468,0,0,0-.3,1.167c-.155.729-.337,1.736-.51,2.857s-.3,2.147-.355,2.885a4.707,4.707,0,0,0,0,1.208,6.8,6.8,0,0,0,.2-1.185l.428-2.867c.164-1.071.31-2.042.456-2.866A5.79,5.79,0,0,0,94.95,402.71Z" transform="translate(-77.36 -347.247)"/><g class="l" transform="translate(15.849 53.222)"><path d="M93.171,408.173s-2.087-6.471,1.513-10.3a.223.223,0,0,1,.387.1C95.277,399.045,95.55,402.308,93.171,408.173Z" transform="translate(-92.57 -397.793)"/></g><path class="g" d="M62.846,359.4s-5.574-3.9-5.013-9.115a.223.223,0,0,1,.374-.146C59.018,350.851,61.205,353.289,62.846,359.4Z" transform="translate(-57.793 -318.603)"/><g class="l" transform="translate(0 31.478)"><path d="M62.846,359.4s-5.574-3.9-5.013-9.115a.223.223,0,0,1,.374-.146C59.018,350.851,61.205,353.289,62.846,359.4Z" transform="translate(-57.793 -350.081)"/></g><path class="b" d="M60.1,354.78a5.529,5.529,0,0,0,.456,1.112c.319.675.779,1.591,1.317,2.589s1.062,1.887,1.458,2.516a4.843,4.843,0,0,0,.711.975,7.225,7.225,0,0,0-.556-1.066c-.4-.734-.87-1.6-1.367-2.548l-1.367-2.547a5.572,5.572,0,0,0-.652-1.03Z" transform="translate(-59.049 -321.161)"/><path class="g" d="M78.812,398.97s-6.718-1.048-8.518-5.993a.228.228,0,0,1,.273-.3C71.6,392.982,74.633,394.189,78.812,398.97Z" transform="translate(-64.59 -341.785)"/><g class="l" transform="translate(5.691 50.888)"><path d="M78.812,398.97s-6.718-1.048-8.518-5.993a.228.228,0,0,1,.273-.3C71.6,392.982,74.633,394.189,78.812,398.97Z" transform="translate(-70.281 -392.673)"/></g><path class="b" d="M74.15,396.22a5.232,5.232,0,0,0,.911.793c.579.456,1.4,1.085,2.32,1.745s1.782,1.226,2.415,1.613a5.366,5.366,0,0,0,1.066.57,6.523,6.523,0,0,0-.971-.72c-.684-.478-1.481-1.044-2.365-1.673l-2.365-1.677A5.879,5.879,0,0,0,74.15,396.22Z" transform="translate(-66.696 -343.715)"/><path class="d" d="M91.818,433.62,89.89,446.257l-7.7-.014L79.6,433.62Z" transform="translate(-69.662 -364.071)"/><path class="b" d="M86.14,439.8a2.152,2.152,0,0,0,.355-1.057,1.148,1.148,0,0,0-.524-1.085,1.244,1.244,0,0,0-1.29.1,1.864,1.864,0,0,0-.734,1.162,4.806,4.806,0,0,0-.1,1.426,4.556,4.556,0,0,0,.31,1.458,3.218,3.218,0,0,0,.911,1.276,2.475,2.475,0,0,0,1.481.615,2.708,2.708,0,0,0,1.54-.456,4.643,4.643,0,0,0,1.148-1.039,2.529,2.529,0,0,0,.583-1.367,1.623,1.623,0,0,0-.547-1.34,1.249,1.249,0,0,0-1.367-.082,1.458,1.458,0,0,0-.788,1.03,1.978,1.978,0,0,0,.971,2,2.734,2.734,0,0,0,1.859.269,4.293,4.293,0,0,0,1.322-.52,6.717,6.717,0,0,0,.743-.5,1.208,1.208,0,0,0,.237-.205,2.42,2.42,0,0,0-.26.169,7.5,7.5,0,0,1-.757.456,4.2,4.2,0,0,1-1.3.456,2.611,2.611,0,0,1-1.764-.282,1.823,1.823,0,0,1-.875-1.823,1.271,1.271,0,0,1,.665-.9,1.057,1.057,0,0,1,1.158.068,1.413,1.413,0,0,1,.456,1.176,2.311,2.311,0,0,1-.542,1.272,4.388,4.388,0,0,1-1.071,1,2.488,2.488,0,0,1-1.417.415,2.279,2.279,0,0,1-1.367-.565,3.036,3.036,0,0,1-.839-1.194,4.5,4.5,0,0,1-.3-1.395,4.676,4.676,0,0,1,.082-1.367,1.686,1.686,0,0,1,.652-1.053,1.062,1.062,0,0,1,1.1-.109.994.994,0,0,1,.456.912,1.942,1.942,0,0,1-.319.98,2.839,2.839,0,0,1-1.436,1.076,3.087,3.087,0,0,1-1.367.164,3.553,3.553,0,0,1-1.135-.337l.064.046a1.294,1.294,0,0,0,.2.118,3.019,3.019,0,0,0,.861.255,3.256,3.256,0,0,0,1.417-.132A2.976,2.976,0,0,0,86.14,439.8" transform="translate(-71.006 -366.198)"/></g><g transform="translate(44.422 0)"><path class="h" d="M186.123,90.54l1.413,4.949L182.6,93.707Z" transform="translate(-158.325 -65.336)"/><circle class="h" cx="12.633" cy="12.633" r="12.633" transform="translate(0 17.866) rotate(-45)"/><ellipse class="b" cx="1.094" cy="1.094" rx="1.094" ry="1.094" transform="translate(21.217 16.773)"/><path class="b" d="M166.27,73.134a1.1,1.1,0,1,0,1.1-1.094A1.1,1.1,0,0,0,166.27,73.134Z" transform="translate(-149.437 -55.267)"/><path class="b" d="M156.515,72.588a1.094,1.094,0,1,0,1.495-.4A1.094,1.094,0,0,0,156.515,72.588Z" transform="translate(-144.049 -55.268)"/><path class="b" d="M153.111,46.39h-1.372l-.574.082-.665.1-.752.182a12.269,12.269,0,0,0-3.623,1.581,12.76,12.76,0,0,0-5.874,9.616,13.189,13.189,0,0,0-.036,1.755,4.812,4.812,0,0,0,.059.911l.137.911a12.871,12.871,0,0,0,6.9,9.188,12.269,12.269,0,0,0,4.1,1.253,8,8,0,0,0,1.094.1,9.878,9.878,0,0,0,1.1,0,13.509,13.509,0,0,0,2.21-.278,12.988,12.988,0,0,0,4.4-1.85h-.132l4.48,1.823.264.1-.073-.273q-.684-2.47-1.317-4.79l-.023.118a12.91,12.91,0,0,0,2.388-5.469,11.508,11.508,0,0,0,.173-2.807,9.326,9.326,0,0,0-.123-1.367c-.036-.219-.068-.456-.1-.656s-.1-.424-.155-.633a12.806,12.806,0,0,0-5.013-7.292,12.3,12.3,0,0,0-2.976-1.572l-.638-.2-.638-.164-.579-.141c-.187-.036-.369-.055-.538-.082-.337-.046-.633-.1-.911-.114l-.656-.023h-.4l.4.032.656.046a7.975,7.975,0,0,1,.911.132,12.761,12.761,0,0,1,10.19,9.452c.046.21.109.415.15.624l.1.643a9.082,9.082,0,0,1,.118,1.326,11.283,11.283,0,0,1-.182,2.734,12.647,12.647,0,0,1-2.356,5.355l-.041.055v.064q.629,2.315,1.308,4.79l.187-.169-4.48-1.823-.068-.032-.064.046a12.641,12.641,0,0,1-4.3,1.823,12.342,12.342,0,0,1-2.16.273,9.391,9.391,0,0,1-1.076,0,7.535,7.535,0,0,1-1.066-.091,11.849,11.849,0,0,1-4-1.221,13.27,13.27,0,0,1-3.29-2.356,13.452,13.452,0,0,1-2.279-3.131,12.6,12.6,0,0,1-1.2-3.491l-.137-.884c-.046-.292-.041-.588-.059-.88a13.472,13.472,0,0,1,.023-1.718,12.669,12.669,0,0,1,5.71-9.5,12.268,12.268,0,0,1,3.568-1.609l.738-.2.661-.109.57-.091c.173-.023.333-.023.456-.036l.647-.046Z" transform="translate(-135.248 -41.307)"/></g></svg>